<?xml version="1.0" encoding="UTF-8" standalone="no"?>
<!DOCTYPE svg PUBLIC "-//W3C//DTD SVG 1.1//EN"
 "http://www.w3.org/Graphics/SVG/1.1/DTD/svg11.dtd">
<!-- Generated by graphviz version 2.43.0 (0)
 -->
<!-- Title: L4::Factory Pages: 1 -->
<svg width="273pt" height="588pt"
 viewBox="0.00 0.00 273.00 588.00" xmlns="http://www.w3.org/2000/svg" xmlns:xlink="http://www.w3.org/1999/xlink">
<g id="graph0" class="graph" transform="scale(1 1) rotate(0) translate(4 584)">
<title>L4::Factory</title>
<polygon fill="white" stroke="transparent" points="-4,4 -4,-584 269,-584 269,4 -4,4"/>
<!-- Node1 -->
<g id="node1" class="node">
<title>Node1</title>
<g id="a_node1"><a xlink:title="C++ Factory interface, see Factory for the C interface.">
<polygon fill="#bfbfbf" stroke="black" points="59,-223.5 59,-324.5 165,-324.5 165,-223.5 59,-223.5"/>
<text text-anchor="middle" x="112" y="-312.5" font-family="Helvetica,sans-Serif" font-size="10.00">L4::Factory</text>
<polyline fill="none" stroke="black" points="59,-305.5 165,-305.5 "/>
<text text-anchor="middle" x="112" y="-293.5" font-family="Helvetica,sans-Serif" font-size="10.00"> </text>
<polyline fill="none" stroke="black" points="59,-286.5 165,-286.5 "/>
<text text-anchor="start" x="67" y="-274.5" font-family="Helvetica,sans-Serif" font-size="10.00">+ create()</text>
<text text-anchor="start" x="67" y="-263.5" font-family="Helvetica,sans-Serif" font-size="10.00">+ create()</text>
<text text-anchor="start" x="67" y="-252.5" font-family="Helvetica,sans-Serif" font-size="10.00">+ create_task()</text>
<text text-anchor="start" x="67" y="-241.5" font-family="Helvetica,sans-Serif" font-size="10.00">+ create_factory()</text>
<text text-anchor="start" x="67" y="-230.5" font-family="Helvetica,sans-Serif" font-size="10.00">+ create_gate()</text>
</a>
</g>
</g>
<!-- Node5 -->
<g id="node5" class="node">
<title>Node5</title>
<g id="a_node5"><a xlink:href="classL4_1_1Kobject__t.html" target="_top" xlink:title=" ">
<polygon fill="white" stroke="black" points="44.5,-95.5 44.5,-185.5 179.5,-185.5 179.5,-95.5 44.5,-95.5"/>
<text text-anchor="start" x="52.5" y="-173.5" font-family="Helvetica,sans-Serif" font-size="10.00">L4::Kobject_t&lt; Mem</text>
<text text-anchor="start" x="52.5" y="-162.5" font-family="Helvetica,sans-Serif" font-size="10.00">_alloc, L4::Factory,</text>
<text text-anchor="middle" x="112" y="-151.5" font-family="Helvetica,sans-Serif" font-size="10.00"> L4::PROTO_EMPTY &gt;</text>
<polyline fill="none" stroke="black" points="44.5,-144.5 179.5,-144.5 "/>
<text text-anchor="middle" x="112" y="-132.5" font-family="Helvetica,sans-Serif" font-size="10.00"> </text>
<polyline fill="none" stroke="black" points="44.5,-125.5 179.5,-125.5 "/>
<text text-anchor="start" x="52.5" y="-113.5" font-family="Helvetica,sans-Serif" font-size="10.00"># c()</text>
<text text-anchor="start" x="52.5" y="-102.5" font-family="Helvetica,sans-Serif" font-size="10.00"># __check_protocols__()</text>
</a>
</g>
</g>
<!-- Node1&#45;&gt;Node5 -->
<g id="edge4" class="edge">
<title>Node1&#45;&gt;Node5</title>
<path fill="none" stroke="midnightblue" d="M112,-213C112,-203.8 112,-194.45 112,-185.67"/>
<polygon fill="none" stroke="midnightblue" points="108.5,-213.29 112,-223.29 115.5,-213.29 108.5,-213.29"/>
</g>
<!-- Node2 -->
<g id="node2" class="node">
<title>Node2</title>
<g id="a_node2"><a xlink:href="classL4_1_1Kobject__t.html" target="_top" xlink:title=" ">
<polygon fill="white" stroke="black" points="26,-362.5 26,-441.5 198,-441.5 198,-362.5 26,-362.5"/>
<text text-anchor="start" x="34" y="-429.5" font-family="Helvetica,sans-Serif" font-size="10.00">L4::Kobject_t&lt; Factory,</text>
<text text-anchor="middle" x="112" y="-418.5" font-family="Helvetica,sans-Serif" font-size="10.00"> Kobject, L4_PROTO_FACTORY &gt;</text>
<polyline fill="none" stroke="black" points="26,-411.5 198,-411.5 "/>
<text text-anchor="middle" x="112" y="-399.5" font-family="Helvetica,sans-Serif" font-size="10.00"> </text>
<polyline fill="none" stroke="black" points="26,-392.5 198,-392.5 "/>
<text text-anchor="start" x="34" y="-380.5" font-family="Helvetica,sans-Serif" font-size="10.00"># c()</text>
<text text-anchor="start" x="34" y="-369.5" font-family="Helvetica,sans-Serif" font-size="10.00"># __check_protocols__()</text>
</a>
</g>
</g>
<!-- Node2&#45;&gt;Node1 -->
<g id="edge1" class="edge">
<title>Node2&#45;&gt;Node1</title>
<path fill="none" stroke="midnightblue" d="M112,-351.89C112,-342.94 112,-333.6 112,-324.63"/>
<polygon fill="none" stroke="midnightblue" points="108.5,-352.17 112,-362.17 115.5,-352.17 108.5,-352.17"/>
</g>
<!-- Node3 -->
<g id="node3" class="node">
<title>Node3</title>
<g id="a_node3"><a xlink:href="classL4_1_1Kobject.html" target="_top" xlink:title="Base class for all kinds of kernel objects and remote objects, referenced by capabilities.">
<polygon fill="white" stroke="black" points="0,-506 0,-574 86,-574 86,-506 0,-506"/>
<text text-anchor="middle" x="43" y="-562" font-family="Helvetica,sans-Serif" font-size="10.00">L4::Kobject</text>
<polyline fill="none" stroke="black" points="0,-555 86,-555 "/>
<text text-anchor="middle" x="43" y="-543" font-family="Helvetica,sans-Serif" font-size="10.00"> </text>
<polyline fill="none" stroke="black" points="0,-536 86,-536 "/>
<text text-anchor="start" x="8" y="-524" font-family="Helvetica,sans-Serif" font-size="10.00">+ dec_refcnt()</text>
<text text-anchor="start" x="8" y="-513" font-family="Helvetica,sans-Serif" font-size="10.00"># cap()</text>
</a>
</g>
</g>
<!-- Node3&#45;&gt;Node2 -->
<g id="edge2" class="edge">
<title>Node3&#45;&gt;Node2</title>
<path fill="none" stroke="midnightblue" d="M64.41,-496.81C73.33,-479.21 83.63,-458.92 92.36,-441.71"/>
<polygon fill="none" stroke="midnightblue" points="61.28,-495.23 59.88,-505.73 67.53,-498.4 61.28,-495.23"/>
</g>
<!-- Node4 -->
<g id="node4" class="node">
<title>Node4</title>
<g id="a_node4"><a xlink:href="classL4_1_1Kobject__t.html" target="_top" xlink:title="Helper class to create an L4Re interface class that is derived from a single base class.">
<polygon fill="white" stroke="black" points="104,-500.5 104,-579.5 260,-579.5 260,-500.5 104,-500.5"/>
<text text-anchor="start" x="112" y="-567.5" font-family="Helvetica,sans-Serif" font-size="10.00">L4::Kobject_t&lt; Derived,</text>
<text text-anchor="middle" x="182" y="-556.5" font-family="Helvetica,sans-Serif" font-size="10.00"> Base, PROTO, S_DEMAND &gt;</text>
<polyline fill="none" stroke="black" points="104,-549.5 260,-549.5 "/>
<text text-anchor="middle" x="182" y="-537.5" font-family="Helvetica,sans-Serif" font-size="10.00"> </text>
<polyline fill="none" stroke="black" points="104,-530.5 260,-530.5 "/>
<text text-anchor="start" x="112" y="-518.5" font-family="Helvetica,sans-Serif" font-size="10.00"># c()</text>
<text text-anchor="start" x="112" y="-507.5" font-family="Helvetica,sans-Serif" font-size="10.00"># __check_protocols__()</text>
</a>
</g>
</g>
<!-- Node4&#45;&gt;Node2 -->
<g id="edge3" class="edge">
<title>Node4&#45;&gt;Node2</title>
<path fill="none" stroke="orange" d="M157.34,-491.09C149.02,-474.92 139.83,-457.08 131.92,-441.7"/>
<polygon fill="orange" stroke="orange" points="154.44,-493.1 162.13,-500.39 160.66,-489.9 154.44,-493.1"/>
<text text-anchor="start" x="151" y="-474" font-family="Helvetica,sans-Serif" font-size="10.00"> &lt; Factory, Kobject,</text>
<text text-anchor="middle" x="208" y="-463" font-family="Helvetica,sans-Serif" font-size="10.00"> L4_PROTO_FACTORY &gt;</text>
</g>
<!-- Node6 -->
<g id="node6" class="node">
<title>Node6</title>
<g id="a_node6"><a xlink:href="classL4Re_1_1Mem__alloc.html" target="_top" xlink:title="Memory allocation interface.">
<polygon fill="white" stroke="black" points="62,-0.5 62,-57.5 162,-57.5 162,-0.5 62,-0.5"/>
<text text-anchor="middle" x="112" y="-45.5" font-family="Helvetica,sans-Serif" font-size="10.00">L4Re::Mem_alloc</text>
<polyline fill="none" stroke="black" points="62,-38.5 162,-38.5 "/>
<text text-anchor="middle" x="112" y="-26.5" font-family="Helvetica,sans-Serif" font-size="10.00"> </text>
<polyline fill="none" stroke="black" points="62,-19.5 162,-19.5 "/>
<text text-anchor="start" x="70" y="-7.5" font-family="Helvetica,sans-Serif" font-size="10.00">+ alloc()</text>
</a>
</g>
</g>
<!-- Node5&#45;&gt;Node6 -->
<g id="edge5" class="edge">
<title>Node5&#45;&gt;Node6</title>
<path fill="none" stroke="midnightblue" d="M112,-85.04C112,-75.56 112,-66.06 112,-57.69"/>
<polygon fill="none" stroke="midnightblue" points="108.5,-85.28 112,-95.28 115.5,-85.28 108.5,-85.28"/>
</g>
</g>
</svg>
