<?xml version="1.0" encoding="UTF-8" standalone="no"?>
<!DOCTYPE svg PUBLIC "-//W3C//DTD SVG 1.1//EN"
 "http://www.w3.org/Graphics/SVG/1.1/DTD/svg11.dtd">
<!-- Generated by graphviz version 2.43.0 (0)
 -->
<!-- Title: L4Re::Mem_alloc Pages: 1 -->
<svg width="334pt" height="609pt"
 viewBox="0.00 0.00 334.00 609.00" xmlns="http://www.w3.org/2000/svg" xmlns:xlink="http://www.w3.org/1999/xlink">
<g id="graph0" class="graph" transform="scale(1 1) rotate(0) translate(4 605)">
<title>L4Re::Mem_alloc</title>
<polygon fill="white" stroke="transparent" points="-4,4 -4,-605 330,-605 330,4 -4,4"/>
<!-- Node1 -->
<g id="node1" class="node">
<title>Node1</title>
<g id="a_node1"><a xlink:title="Memory allocation interface.">
<polygon fill="#bfbfbf" stroke="black" points="118,-0.5 118,-57.5 218,-57.5 218,-0.5 118,-0.5"/>
<text text-anchor="middle" x="168" y="-45.5" font-family="Helvetica,sans-Serif" font-size="10.00">L4Re::Mem_alloc</text>
<polyline fill="none" stroke="black" points="118,-38.5 218,-38.5 "/>
<text text-anchor="middle" x="168" y="-26.5" font-family="Helvetica,sans-Serif" font-size="10.00"> </text>
<polyline fill="none" stroke="black" points="118,-19.5 218,-19.5 "/>
<text text-anchor="start" x="126" y="-7.5" font-family="Helvetica,sans-Serif" font-size="10.00">+ alloc()</text>
</a>
</g>
</g>
<!-- Node2 -->
<g id="node2" class="node">
<title>Node2</title>
<g id="a_node2"><a xlink:href="classL4_1_1Kobject__t.html" target="_top" xlink:title=" ">
<polygon fill="white" stroke="black" points="100.5,-95.5 100.5,-185.5 235.5,-185.5 235.5,-95.5 100.5,-95.5"/>
<text text-anchor="start" x="108.5" y="-173.5" font-family="Helvetica,sans-Serif" font-size="10.00">L4::Kobject_t&lt; Mem</text>
<text text-anchor="start" x="108.5" y="-162.5" font-family="Helvetica,sans-Serif" font-size="10.00">_alloc, L4::Factory,</text>
<text text-anchor="middle" x="168" y="-151.5" font-family="Helvetica,sans-Serif" font-size="10.00"> L4::PROTO_EMPTY &gt;</text>
<polyline fill="none" stroke="black" points="100.5,-144.5 235.5,-144.5 "/>
<text text-anchor="middle" x="168" y="-132.5" font-family="Helvetica,sans-Serif" font-size="10.00"> </text>
<polyline fill="none" stroke="black" points="100.5,-125.5 235.5,-125.5 "/>
<text text-anchor="start" x="108.5" y="-113.5" font-family="Helvetica,sans-Serif" font-size="10.00"># c()</text>
<text text-anchor="start" x="108.5" y="-102.5" font-family="Helvetica,sans-Serif" font-size="10.00"># __check_protocols__()</text>
</a>
</g>
</g>
<!-- Node2&#45;&gt;Node1 -->
<g id="edge1" class="edge">
<title>Node2&#45;&gt;Node1</title>
<path fill="none" stroke="midnightblue" d="M168,-85.04C168,-75.56 168,-66.06 168,-57.69"/>
<polygon fill="none" stroke="midnightblue" points="164.5,-85.28 168,-95.28 171.5,-85.28 164.5,-85.28"/>
</g>
<!-- Node3 -->
<g id="node3" class="node">
<title>Node3</title>
<g id="a_node3"><a xlink:href="classL4_1_1Factory.html" target="_top" xlink:title="C++ Factory interface, see Factory for the C interface.">
<polygon fill="white" stroke="black" points="69,-223.5 69,-324.5 175,-324.5 175,-223.5 69,-223.5"/>
<text text-anchor="middle" x="122" y="-312.5" font-family="Helvetica,sans-Serif" font-size="10.00">L4::Factory</text>
<polyline fill="none" stroke="black" points="69,-305.5 175,-305.5 "/>
<text text-anchor="middle" x="122" y="-293.5" font-family="Helvetica,sans-Serif" font-size="10.00"> </text>
<polyline fill="none" stroke="black" points="69,-286.5 175,-286.5 "/>
<text text-anchor="start" x="77" y="-274.5" font-family="Helvetica,sans-Serif" font-size="10.00">+ create()</text>
<text text-anchor="start" x="77" y="-263.5" font-family="Helvetica,sans-Serif" font-size="10.00">+ create()</text>
<text text-anchor="start" x="77" y="-252.5" font-family="Helvetica,sans-Serif" font-size="10.00">+ create_task()</text>
<text text-anchor="start" x="77" y="-241.5" font-family="Helvetica,sans-Serif" font-size="10.00">+ create_factory()</text>
<text text-anchor="start" x="77" y="-230.5" font-family="Helvetica,sans-Serif" font-size="10.00">+ create_gate()</text>
</a>
</g>
</g>
<!-- Node3&#45;&gt;Node2 -->
<g id="edge2" class="edge">
<title>Node3&#45;&gt;Node2</title>
<path fill="none" stroke="midnightblue" d="M142.78,-213.59C146.07,-204.2 149.41,-194.64 152.55,-185.67"/>
<polygon fill="none" stroke="midnightblue" points="139.39,-212.69 139.39,-223.29 146,-215 139.39,-212.69"/>
</g>
<!-- Node4 -->
<g id="node4" class="node">
<title>Node4</title>
<g id="a_node4"><a xlink:href="classL4_1_1Kobject__t.html" target="_top" xlink:title=" ">
<polygon fill="white" stroke="black" points="0,-383.5 0,-462.5 172,-462.5 172,-383.5 0,-383.5"/>
<text text-anchor="start" x="8" y="-450.5" font-family="Helvetica,sans-Serif" font-size="10.00">L4::Kobject_t&lt; Factory,</text>
<text text-anchor="middle" x="86" y="-439.5" font-family="Helvetica,sans-Serif" font-size="10.00"> Kobject, L4_PROTO_FACTORY &gt;</text>
<polyline fill="none" stroke="black" points="0,-432.5 172,-432.5 "/>
<text text-anchor="middle" x="86" y="-420.5" font-family="Helvetica,sans-Serif" font-size="10.00"> </text>
<polyline fill="none" stroke="black" points="0,-413.5 172,-413.5 "/>
<text text-anchor="start" x="8" y="-401.5" font-family="Helvetica,sans-Serif" font-size="10.00"># c()</text>
<text text-anchor="start" x="8" y="-390.5" font-family="Helvetica,sans-Serif" font-size="10.00"># __check_protocols__()</text>
</a>
</g>
</g>
<!-- Node4&#45;&gt;Node3 -->
<g id="edge3" class="edge">
<title>Node4&#45;&gt;Node3</title>
<path fill="none" stroke="midnightblue" d="M97.91,-373.39C101.73,-357.76 105.98,-340.43 109.82,-324.72"/>
<polygon fill="none" stroke="midnightblue" points="94.44,-372.83 95.46,-383.38 101.24,-374.5 94.44,-372.83"/>
</g>
<!-- Node5 -->
<g id="node5" class="node">
<title>Node5</title>
<g id="a_node5"><a xlink:href="classL4_1_1Kobject.html" target="_top" xlink:title="Base class for all kinds of kernel objects and remote objects, referenced by capabilities.">
<polygon fill="white" stroke="black" points="10,-527 10,-595 96,-595 96,-527 10,-527"/>
<text text-anchor="middle" x="53" y="-583" font-family="Helvetica,sans-Serif" font-size="10.00">L4::Kobject</text>
<polyline fill="none" stroke="black" points="10,-576 96,-576 "/>
<text text-anchor="middle" x="53" y="-564" font-family="Helvetica,sans-Serif" font-size="10.00"> </text>
<polyline fill="none" stroke="black" points="10,-557 96,-557 "/>
<text text-anchor="start" x="18" y="-545" font-family="Helvetica,sans-Serif" font-size="10.00">+ dec_refcnt()</text>
<text text-anchor="start" x="18" y="-534" font-family="Helvetica,sans-Serif" font-size="10.00"># cap()</text>
</a>
</g>
</g>
<!-- Node5&#45;&gt;Node4 -->
<g id="edge4" class="edge">
<title>Node5&#45;&gt;Node4</title>
<path fill="none" stroke="midnightblue" d="M59.49,-516.74C61.56,-505.06 64.08,-492.49 67,-481 68.51,-475.03 70.34,-468.79 72.25,-462.72"/>
<polygon fill="none" stroke="midnightblue" points="56.02,-516.27 57.79,-526.71 62.92,-517.44 56.02,-516.27"/>
</g>
<!-- Node6 -->
<g id="node6" class="node">
<title>Node6</title>
<g id="a_node6"><a xlink:href="classL4_1_1Kobject__t.html" target="_top" xlink:title="Helper class to create an L4Re interface class that is derived from a single base class.">
<polygon fill="white" stroke="black" points="125,-521.5 125,-600.5 281,-600.5 281,-521.5 125,-521.5"/>
<text text-anchor="start" x="133" y="-588.5" font-family="Helvetica,sans-Serif" font-size="10.00">L4::Kobject_t&lt; Derived,</text>
<text text-anchor="middle" x="203" y="-577.5" font-family="Helvetica,sans-Serif" font-size="10.00"> Base, PROTO, S_DEMAND &gt;</text>
<polyline fill="none" stroke="black" points="125,-570.5 281,-570.5 "/>
<text text-anchor="middle" x="203" y="-558.5" font-family="Helvetica,sans-Serif" font-size="10.00"> </text>
<polyline fill="none" stroke="black" points="125,-551.5 281,-551.5 "/>
<text text-anchor="start" x="133" y="-539.5" font-family="Helvetica,sans-Serif" font-size="10.00"># c()</text>
<text text-anchor="start" x="133" y="-528.5" font-family="Helvetica,sans-Serif" font-size="10.00"># __check_protocols__()</text>
</a>
</g>
</g>
<!-- Node6&#45;&gt;Node2 -->
<g id="edge6" class="edge">
<title>Node6&#45;&gt;Node2</title>
<path fill="none" stroke="orange" d="M202.5,-511.36C201.31,-445.66 197.32,-325.04 184,-223 182.41,-210.85 180.12,-197.78 177.76,-185.74"/>
<polygon fill="orange" stroke="orange" points="199,-511.48 202.66,-521.42 206,-511.36 199,-511.48"/>
<text text-anchor="start" x="196" y="-357" font-family="Helvetica,sans-Serif" font-size="10.00"> &lt; Mem_alloc, L4::Factory,</text>
<text text-anchor="middle" x="261" y="-346" font-family="Helvetica,sans-Serif" font-size="10.00"> L4::PROTO_EMPTY &gt;</text>
</g>
<!-- Node6&#45;&gt;Node4 -->
<g id="edge5" class="edge">
<title>Node6&#45;&gt;Node4</title>
<path fill="none" stroke="orange" d="M115.69,-524.38C102.18,-517.19 91.28,-509.77 87,-503 79.53,-491.17 77.85,-476.23 78.54,-462.53"/>
<polygon fill="orange" stroke="orange" points="114.4,-527.65 124.9,-529.06 117.57,-521.41 114.4,-527.65"/>
<text text-anchor="start" x="87" y="-495" font-family="Helvetica,sans-Serif" font-size="10.00"> &lt; Factory, Kobject,</text>
<text text-anchor="middle" x="144" y="-484" font-family="Helvetica,sans-Serif" font-size="10.00"> L4_PROTO_FACTORY &gt;</text>
</g>
</g>
</svg>
