<?xml version="1.0" encoding="UTF-8" standalone="no"?>
<!DOCTYPE svg PUBLIC "-//W3C//DTD SVG 1.1//EN"
 "http://www.w3.org/Graphics/SVG/1.1/DTD/svg11.dtd">
<!-- Generated by graphviz version 2.43.0 (0)
 -->
<!-- Title: L4::Ipc_svr::Br_manager_no_buffers Pages: 1 -->
<svg width="446pt" height="1023pt"
 viewBox="0.00 0.00 445.50 1023.00" xmlns="http://www.w3.org/2000/svg" xmlns:xlink="http://www.w3.org/1999/xlink">
<g id="graph0" class="graph" transform="scale(1 1) rotate(0) translate(4 1019)">
<title>L4::Ipc_svr::Br_manager_no_buffers</title>
<polygon fill="white" stroke="transparent" points="-4,4 -4,-1019 441.5,-1019 441.5,4 -4,4"/>
<!-- Node1 -->
<g id="node1" class="node">
<title>Node1</title>
<g id="a_node1"><a xlink:title="Empty implementation of Server_iface.">
<polygon fill="#bfbfbf" stroke="black" points="148,-686.5 148,-820.5 285,-820.5 285,-686.5 148,-686.5"/>
<text text-anchor="start" x="156" y="-808.5" font-family="Helvetica,sans-Serif" font-size="10.00">L4::Ipc_svr::Br_manager</text>
<text text-anchor="middle" x="216.5" y="-797.5" font-family="Helvetica,sans-Serif" font-size="10.00">_no_buffers</text>
<polyline fill="none" stroke="black" points="148,-790.5 285,-790.5 "/>
<text text-anchor="middle" x="216.5" y="-778.5" font-family="Helvetica,sans-Serif" font-size="10.00"> </text>
<polyline fill="none" stroke="black" points="148,-771.5 285,-771.5 "/>
<text text-anchor="start" x="156" y="-759.5" font-family="Helvetica,sans-Serif" font-size="10.00">+ alloc_buffer_demand()</text>
<text text-anchor="start" x="156" y="-748.5" font-family="Helvetica,sans-Serif" font-size="10.00">+ get_rcv_cap()</text>
<text text-anchor="start" x="156" y="-737.5" font-family="Helvetica,sans-Serif" font-size="10.00">+ realloc_rcv_cap()</text>
<text text-anchor="start" x="156" y="-726.5" font-family="Helvetica,sans-Serif" font-size="10.00">+ add_timeout()</text>
<text text-anchor="start" x="156" y="-715.5" font-family="Helvetica,sans-Serif" font-size="10.00">+ remove_timeout()</text>
<text text-anchor="start" x="156" y="-704.5" font-family="Helvetica,sans-Serif" font-size="10.00"># first_free_br()</text>
<text text-anchor="start" x="156" y="-693.5" font-family="Helvetica,sans-Serif" font-size="10.00"># setup_wait()</text>
</a>
</g>
</g>
<!-- Node3 -->
<g id="node3" class="node">
<title>Node3</title>
<g id="a_node3"><a xlink:href="structL4_1_1Ipc__svr_1_1Default__loop__hooks.html" target="_top" xlink:title="Default LOOP_HOOKS.">
<polygon fill="white" stroke="black" points="91.5,-553 91.5,-621 201.5,-621 201.5,-553 91.5,-553"/>
<text text-anchor="start" x="99.5" y="-609" font-family="Helvetica,sans-Serif" font-size="10.00">L4::Ipc_svr::Default</text>
<text text-anchor="middle" x="146.5" y="-598" font-family="Helvetica,sans-Serif" font-size="10.00">_loop_hooks</text>
<polyline fill="none" stroke="black" points="91.5,-591 201.5,-591 "/>
<text text-anchor="middle" x="146.5" y="-579" font-family="Helvetica,sans-Serif" font-size="10.00"> </text>
<polyline fill="none" stroke="black" points="91.5,-572 201.5,-572 "/>
<text text-anchor="middle" x="146.5" y="-560" font-family="Helvetica,sans-Serif" font-size="10.00"> </text>
</a>
</g>
</g>
<!-- Node1&#45;&gt;Node3 -->
<g id="edge2" class="edge">
<title>Node1&#45;&gt;Node3</title>
<path fill="none" stroke="midnightblue" d="M184.31,-676.85C176,-657.34 167.49,-637.32 160.65,-621.24"/>
<polygon fill="none" stroke="midnightblue" points="181.09,-678.23 188.23,-686.07 187.54,-675.49 181.09,-678.23"/>
</g>
<!-- Node7 -->
<g id="node7" class="node">
<title>Node7</title>
<g id="a_node7"><a xlink:href="classL4_1_1Ipc__svr_1_1Timeout__queue__hooks.html" target="_top" xlink:title="Loop hooks mixin for integrating a timeout queue into the server loop.">
<polygon fill="white" stroke="black" points="239.5,-525.5 239.5,-648.5 375.5,-648.5 375.5,-525.5 239.5,-525.5"/>
<text text-anchor="start" x="247.5" y="-636.5" font-family="Helvetica,sans-Serif" font-size="10.00">L4::Ipc_svr::Timeout</text>
<text text-anchor="start" x="247.5" y="-625.5" font-family="Helvetica,sans-Serif" font-size="10.00">_queue_hooks&lt; HOOKS,</text>
<text text-anchor="middle" x="307.5" y="-614.5" font-family="Helvetica,sans-Serif" font-size="10.00"> BR_MAN &gt;</text>
<polyline fill="none" stroke="black" points="239.5,-607.5 375.5,-607.5 "/>
<text text-anchor="start" x="247.5" y="-595.5" font-family="Helvetica,sans-Serif" font-size="10.00">+ queue</text>
<polyline fill="none" stroke="black" points="239.5,-588.5 375.5,-588.5 "/>
<text text-anchor="start" x="247.5" y="-576.5" font-family="Helvetica,sans-Serif" font-size="10.00">+ timeout()</text>
<text text-anchor="start" x="247.5" y="-565.5" font-family="Helvetica,sans-Serif" font-size="10.00">+ setup_wait()</text>
<text text-anchor="start" x="247.5" y="-554.5" font-family="Helvetica,sans-Serif" font-size="10.00">+ before_reply()</text>
<text text-anchor="start" x="247.5" y="-543.5" font-family="Helvetica,sans-Serif" font-size="10.00">+ add_timeout()</text>
<text text-anchor="start" x="247.5" y="-532.5" font-family="Helvetica,sans-Serif" font-size="10.00">+ remove_timeout()</text>
</a>
</g>
</g>
<!-- Node1&#45;&gt;Node7 -->
<g id="edge7" class="edge">
<title>Node1&#45;&gt;Node7</title>
<path fill="none" stroke="midnightblue" d="M258.11,-677.28C263.43,-667.67 268.82,-657.92 273.99,-648.57"/>
<polygon fill="none" stroke="midnightblue" points="255.03,-675.62 253.25,-686.07 261.15,-679.01 255.03,-675.62"/>
</g>
<!-- Node2 -->
<g id="node2" class="node">
<title>Node2</title>
<g id="a_node2"><a xlink:href="classL4_1_1Ipc__svr_1_1Server__iface.html" target="_top" xlink:title="Interface for server&#45;loop related functions.">
<polygon fill="white" stroke="black" points="148,-858.5 148,-1014.5 285,-1014.5 285,-858.5 148,-858.5"/>
<text text-anchor="start" x="156" y="-1002.5" font-family="Helvetica,sans-Serif" font-size="10.00">L4::Ipc_svr::Server</text>
<text text-anchor="middle" x="216.5" y="-991.5" font-family="Helvetica,sans-Serif" font-size="10.00">_iface</text>
<polyline fill="none" stroke="black" points="148,-984.5 285,-984.5 "/>
<text text-anchor="middle" x="216.5" y="-972.5" font-family="Helvetica,sans-Serif" font-size="10.00"> </text>
<polyline fill="none" stroke="black" points="148,-965.5 285,-965.5 "/>
<text text-anchor="start" x="156" y="-953.5" font-family="Helvetica,sans-Serif" font-size="10.00">+ Server_iface()</text>
<text text-anchor="start" x="156" y="-942.5" font-family="Helvetica,sans-Serif" font-size="10.00">+ ~Server_iface()</text>
<text text-anchor="start" x="156" y="-931.5" font-family="Helvetica,sans-Serif" font-size="10.00">+ alloc_buffer_demand()</text>
<text text-anchor="start" x="156" y="-920.5" font-family="Helvetica,sans-Serif" font-size="10.00">+ get_rcv_cap()</text>
<text text-anchor="start" x="156" y="-909.5" font-family="Helvetica,sans-Serif" font-size="10.00">+ realloc_rcv_cap()</text>
<text text-anchor="start" x="156" y="-898.5" font-family="Helvetica,sans-Serif" font-size="10.00">+ add_timeout()</text>
<text text-anchor="start" x="156" y="-887.5" font-family="Helvetica,sans-Serif" font-size="10.00">+ remove_timeout()</text>
<text text-anchor="start" x="156" y="-876.5" font-family="Helvetica,sans-Serif" font-size="10.00">+ rcv_cap()</text>
<text text-anchor="start" x="156" y="-865.5" font-family="Helvetica,sans-Serif" font-size="10.00">+ rcv_cap()</text>
</a>
</g>
</g>
<!-- Node2&#45;&gt;Node1 -->
<g id="edge1" class="edge">
<title>Node2&#45;&gt;Node1</title>
<path fill="none" stroke="midnightblue" d="M216.5,-848.38C216.5,-839.03 216.5,-829.64 216.5,-820.6"/>
<polygon fill="none" stroke="midnightblue" points="213,-848.48 216.5,-858.48 220,-848.48 213,-848.48"/>
</g>
<!-- Node4 -->
<g id="node4" class="node">
<title>Node4</title>
<g id="a_node4"><a xlink:href="classL4_1_1Server.html" target="_top" xlink:title=" ">
<polygon fill="white" stroke="black" points="0,-161.5 0,-284.5 151,-284.5 151,-161.5 0,-161.5"/>
<text text-anchor="start" x="8" y="-272.5" font-family="Helvetica,sans-Serif" font-size="10.00">L4::Server&lt; L4::Ipc</text>
<text text-anchor="middle" x="75.5" y="-261.5" font-family="Helvetica,sans-Serif" font-size="10.00">_svr::Default_loop_hooks &gt;</text>
<polyline fill="none" stroke="black" points="0,-254.5 151,-254.5 "/>
<text text-anchor="middle" x="75.5" y="-242.5" font-family="Helvetica,sans-Serif" font-size="10.00"> </text>
<polyline fill="none" stroke="black" points="0,-235.5 151,-235.5 "/>
<text text-anchor="start" x="8" y="-223.5" font-family="Helvetica,sans-Serif" font-size="10.00">+ Server()</text>
<text text-anchor="start" x="8" y="-212.5" font-family="Helvetica,sans-Serif" font-size="10.00">+ Server()</text>
<text text-anchor="start" x="8" y="-201.5" font-family="Helvetica,sans-Serif" font-size="10.00">+ internal_loop()</text>
<text text-anchor="start" x="8" y="-190.5" font-family="Helvetica,sans-Serif" font-size="10.00">+ loop_noexc()</text>
<text text-anchor="start" x="8" y="-179.5" font-family="Helvetica,sans-Serif" font-size="10.00">+ loop()</text>
<text text-anchor="start" x="8" y="-168.5" font-family="Helvetica,sans-Serif" font-size="10.00"># reply_n_wait()</text>
</a>
</g>
</g>
<!-- Node3&#45;&gt;Node4 -->
<g id="edge3" class="edge">
<title>Node3&#45;&gt;Node4</title>
<path fill="none" stroke="midnightblue" d="M106.7,-545.29C88.53,-523.86 68.98,-496.03 59.5,-467 39.98,-407.22 48.54,-334.87 59.15,-284.74"/>
<polygon fill="none" stroke="midnightblue" points="104.11,-547.64 113.31,-552.89 109.39,-543.05 104.11,-547.64"/>
</g>
<!-- Node6 -->
<g id="node6" class="node">
<title>Node6</title>
<g id="a_node6"><a xlink:href="classL4_1_1Server.html" target="_top" xlink:title="Basic server loop for handling client requests.">
<polygon fill="white" stroke="black" points="69,-349 69,-461 224,-461 224,-349 69,-349"/>
<text text-anchor="middle" x="146.5" y="-449" font-family="Helvetica,sans-Serif" font-size="10.00">L4::Server&lt; LOOP_HOOKS &gt;</text>
<polyline fill="none" stroke="black" points="69,-442 224,-442 "/>
<text text-anchor="middle" x="146.5" y="-430" font-family="Helvetica,sans-Serif" font-size="10.00"> </text>
<polyline fill="none" stroke="black" points="69,-423 224,-423 "/>
<text text-anchor="start" x="77" y="-411" font-family="Helvetica,sans-Serif" font-size="10.00">+ Server()</text>
<text text-anchor="start" x="77" y="-400" font-family="Helvetica,sans-Serif" font-size="10.00">+ Server()</text>
<text text-anchor="start" x="77" y="-389" font-family="Helvetica,sans-Serif" font-size="10.00">+ internal_loop()</text>
<text text-anchor="start" x="77" y="-378" font-family="Helvetica,sans-Serif" font-size="10.00">+ loop_noexc()</text>
<text text-anchor="start" x="77" y="-367" font-family="Helvetica,sans-Serif" font-size="10.00">+ loop()</text>
<text text-anchor="start" x="77" y="-356" font-family="Helvetica,sans-Serif" font-size="10.00"># reply_n_wait()</text>
</a>
</g>
</g>
<!-- Node3&#45;&gt;Node6 -->
<g id="edge5" class="edge">
<title>Node3&#45;&gt;Node6</title>
<path fill="none" stroke="midnightblue" d="M146.5,-542.9C146.5,-518.36 146.5,-487.36 146.5,-461.07"/>
<polygon fill="none" stroke="midnightblue" points="143,-542.99 146.5,-552.99 150,-542.99 143,-542.99"/>
</g>
<!-- Node5 -->
<g id="node5" class="node">
<title>Node5</title>
<g id="a_node5"><a xlink:href="classL4Re_1_1Util_1_1Registry__server.html" target="_top" xlink:title="A server loop object which has a Object_registry included.">
<polygon fill="white" stroke="black" points="4.5,-0.5 4.5,-123.5 146.5,-123.5 146.5,-0.5 4.5,-0.5"/>
<text text-anchor="start" x="12.5" y="-111.5" font-family="Helvetica,sans-Serif" font-size="10.00">L4Re::Util::Registry</text>
<text text-anchor="middle" x="75.5" y="-100.5" font-family="Helvetica,sans-Serif" font-size="10.00">_server&lt; LOOP_HOOKS &gt;</text>
<polyline fill="none" stroke="black" points="4.5,-93.5 146.5,-93.5 "/>
<text text-anchor="middle" x="75.5" y="-81.5" font-family="Helvetica,sans-Serif" font-size="10.00"> </text>
<polyline fill="none" stroke="black" points="4.5,-74.5 146.5,-74.5 "/>
<text text-anchor="start" x="12.5" y="-62.5" font-family="Helvetica,sans-Serif" font-size="10.00">+ Registry_server()</text>
<text text-anchor="start" x="12.5" y="-51.5" font-family="Helvetica,sans-Serif" font-size="10.00">+ Registry_server()</text>
<text text-anchor="start" x="12.5" y="-40.5" font-family="Helvetica,sans-Serif" font-size="10.00">+ Registry_server()</text>
<text text-anchor="start" x="12.5" y="-29.5" font-family="Helvetica,sans-Serif" font-size="10.00">+ registry()</text>
<text text-anchor="start" x="12.5" y="-18.5" font-family="Helvetica,sans-Serif" font-size="10.00">+ registry()</text>
<text text-anchor="start" x="12.5" y="-7.5" font-family="Helvetica,sans-Serif" font-size="10.00">+ loop()</text>
</a>
</g>
</g>
<!-- Node4&#45;&gt;Node5 -->
<g id="edge4" class="edge">
<title>Node4&#45;&gt;Node5</title>
<path fill="none" stroke="midnightblue" d="M75.5,-151.17C75.5,-141.99 75.5,-132.65 75.5,-123.66"/>
<polygon fill="none" stroke="midnightblue" points="72,-151.44 75.5,-161.44 79,-151.44 72,-151.44"/>
</g>
<!-- Node6&#45;&gt;Node4 -->
<g id="edge6" class="edge">
<title>Node6&#45;&gt;Node4</title>
<path fill="none" stroke="orange" d="M120.8,-338.85C113.82,-321.15 106.29,-302.06 99.41,-284.61"/>
<polygon fill="orange" stroke="orange" points="117.69,-340.51 124.62,-348.53 124.2,-337.94 117.69,-340.51"/>
<text text-anchor="start" x="115.5" y="-317" font-family="Helvetica,sans-Serif" font-size="10.00"> &lt; L4::Ipc_svr::Default</text>
<text text-anchor="middle" x="170" y="-306" font-family="Helvetica,sans-Serif" font-size="10.00">_loop_hooks &gt;</text>
</g>
<!-- Node8 -->
<g id="node8" class="node">
<title>Node8</title>
<g id="a_node8"><a xlink:href="classL4_1_1Ipc__svr_1_1Timeout__queue__hooks.html" target="_top" xlink:title=" ">
<polygon fill="white" stroke="black" points="242,-343.5 242,-466.5 413,-466.5 413,-343.5 242,-343.5"/>
<text text-anchor="start" x="250" y="-454.5" font-family="Helvetica,sans-Serif" font-size="10.00">L4::Ipc_svr::Timeout</text>
<text text-anchor="start" x="250" y="-443.5" font-family="Helvetica,sans-Serif" font-size="10.00">_queue_hooks&lt; Br_manager</text>
<text text-anchor="middle" x="327.5" y="-432.5" font-family="Helvetica,sans-Serif" font-size="10.00">_timeout_hooks, Br_manager &gt;</text>
<polyline fill="none" stroke="black" points="242,-425.5 413,-425.5 "/>
<text text-anchor="start" x="250" y="-413.5" font-family="Helvetica,sans-Serif" font-size="10.00">+ queue</text>
<polyline fill="none" stroke="black" points="242,-406.5 413,-406.5 "/>
<text text-anchor="start" x="250" y="-394.5" font-family="Helvetica,sans-Serif" font-size="10.00">+ timeout()</text>
<text text-anchor="start" x="250" y="-383.5" font-family="Helvetica,sans-Serif" font-size="10.00">+ setup_wait()</text>
<text text-anchor="start" x="250" y="-372.5" font-family="Helvetica,sans-Serif" font-size="10.00">+ before_reply()</text>
<text text-anchor="start" x="250" y="-361.5" font-family="Helvetica,sans-Serif" font-size="10.00">+ add_timeout()</text>
<text text-anchor="start" x="250" y="-350.5" font-family="Helvetica,sans-Serif" font-size="10.00">+ remove_timeout()</text>
</a>
</g>
</g>
<!-- Node7&#45;&gt;Node8 -->
<g id="edge8" class="edge">
<title>Node7&#45;&gt;Node8</title>
<path fill="none" stroke="orange" d="M315.39,-514.97C317.17,-499.01 319.03,-482.22 320.75,-466.73"/>
<polygon fill="orange" stroke="orange" points="311.87,-514.99 314.24,-525.31 318.83,-515.76 311.87,-514.99"/>
<text text-anchor="start" x="319.5" y="-499" font-family="Helvetica,sans-Serif" font-size="10.00"> &lt; Br_manager_timeout</text>
<text text-anchor="middle" x="378.5" y="-488" font-family="Helvetica,sans-Serif" font-size="10.00">_hooks, Br_manager &gt;</text>
</g>
<!-- Node9 -->
<g id="node9" class="node">
<title>Node9</title>
<g id="a_node9"><a xlink:href="structL4Re_1_1Util_1_1Br__manager__timeout__hooks.html" target="_top" xlink:title="Predefined server&#45;loop hooks for a server with using the Br_manager and a timeout queue.">
<polygon fill="white" stroke="black" points="263,-189 263,-257 392,-257 392,-189 263,-189"/>
<text text-anchor="start" x="271" y="-245" font-family="Helvetica,sans-Serif" font-size="10.00">L4Re::Util::Br_manager</text>
<text text-anchor="middle" x="327.5" y="-234" font-family="Helvetica,sans-Serif" font-size="10.00">_timeout_hooks</text>
<polyline fill="none" stroke="black" points="263,-227 392,-227 "/>
<text text-anchor="middle" x="327.5" y="-215" font-family="Helvetica,sans-Serif" font-size="10.00"> </text>
<polyline fill="none" stroke="black" points="263,-208 392,-208 "/>
<text text-anchor="start" x="271" y="-196" font-family="Helvetica,sans-Serif" font-size="10.00">+ now()</text>
</a>
</g>
</g>
<!-- Node8&#45;&gt;Node9 -->
<g id="edge9" class="edge">
<title>Node8&#45;&gt;Node9</title>
<path fill="none" stroke="midnightblue" d="M327.5,-333.03C327.5,-306.86 327.5,-278.44 327.5,-257.17"/>
<polygon fill="none" stroke="midnightblue" points="324,-333.31 327.5,-343.31 331,-333.31 324,-333.31"/>
</g>
</g>
</svg>
