<?xml version="1.0" encoding="UTF-8" standalone="no"?>
<!DOCTYPE svg PUBLIC "-//W3C//DTD SVG 1.1//EN"
 "http://www.w3.org/Graphics/SVG/1.1/DTD/svg11.dtd">
<!-- Generated by graphviz version 2.43.0 (0)
 -->
<!-- Title: L4::Registry_iface Pages: 1 -->
<svg width="121pt" height="314pt"
 viewBox="0.00 0.00 121.00 314.00" xmlns="http://www.w3.org/2000/svg" xmlns:xlink="http://www.w3.org/1999/xlink">
<g id="graph0" class="graph" transform="scale(1 1) rotate(0) translate(4 310)">
<title>L4::Registry_iface</title>
<polygon fill="white" stroke="transparent" points="-4,4 -4,-310 117,-310 117,4 -4,4"/>
<!-- Node1 -->
<g id="node1" class="node">
<title>Node1</title>
<g id="a_node1"><a xlink:title="Abstract interface for object registries.">
<polygon fill="#bfbfbf" stroke="black" points="0,-193.5 0,-305.5 113,-305.5 113,-193.5 0,-193.5"/>
<text text-anchor="middle" x="56.5" y="-293.5" font-family="Helvetica,sans-Serif" font-size="10.00">L4::Registry_iface</text>
<polyline fill="none" stroke="black" points="0,-286.5 113,-286.5 "/>
<text text-anchor="middle" x="56.5" y="-274.5" font-family="Helvetica,sans-Serif" font-size="10.00"> </text>
<polyline fill="none" stroke="black" points="0,-267.5 113,-267.5 "/>
<text text-anchor="start" x="8" y="-255.5" font-family="Helvetica,sans-Serif" font-size="10.00">+ ~Registry_iface()</text>
<text text-anchor="start" x="8" y="-244.5" font-family="Helvetica,sans-Serif" font-size="10.00">+ register_obj()</text>
<text text-anchor="start" x="8" y="-233.5" font-family="Helvetica,sans-Serif" font-size="10.00">+ register_obj()</text>
<text text-anchor="start" x="8" y="-222.5" font-family="Helvetica,sans-Serif" font-size="10.00">+ register_irq_obj()</text>
<text text-anchor="start" x="8" y="-211.5" font-family="Helvetica,sans-Serif" font-size="10.00">+ register_obj()</text>
<text text-anchor="start" x="8" y="-200.5" font-family="Helvetica,sans-Serif" font-size="10.00">+ unregister_obj()</text>
</a>
</g>
</g>
<!-- Node2 -->
<g id="node2" class="node">
<title>Node2</title>
<g id="a_node2"><a xlink:href="classL4Re_1_1Util_1_1Object__registry.html" target="_top" xlink:title="A registry that manages server objects and their attached IPC gates for a single server loop for a sp...">
<polygon fill="white" stroke="black" points="1,-0.5 1,-156.5 112,-156.5 112,-0.5 1,-0.5"/>
<text text-anchor="start" x="9" y="-144.5" font-family="Helvetica,sans-Serif" font-size="10.00">L4Re::Util::Object</text>
<text text-anchor="middle" x="56.5" y="-133.5" font-family="Helvetica,sans-Serif" font-size="10.00">_registry</text>
<polyline fill="none" stroke="black" points="1,-126.5 112,-126.5 "/>
<text text-anchor="start" x="9" y="-114.5" font-family="Helvetica,sans-Serif" font-size="10.00"># _server</text>
<text text-anchor="start" x="9" y="-103.5" font-family="Helvetica,sans-Serif" font-size="10.00"># _factory</text>
<text text-anchor="start" x="9" y="-92.5" font-family="Helvetica,sans-Serif" font-size="10.00"># _sif</text>
<polyline fill="none" stroke="black" points="1,-85.5 112,-85.5 "/>
<text text-anchor="start" x="9" y="-73.5" font-family="Helvetica,sans-Serif" font-size="10.00">+ Object_registry()</text>
<text text-anchor="start" x="9" y="-62.5" font-family="Helvetica,sans-Serif" font-size="10.00">+ Object_registry()</text>
<text text-anchor="start" x="9" y="-51.5" font-family="Helvetica,sans-Serif" font-size="10.00">+ register_obj()</text>
<text text-anchor="start" x="9" y="-40.5" font-family="Helvetica,sans-Serif" font-size="10.00">+ register_obj()</text>
<text text-anchor="start" x="9" y="-29.5" font-family="Helvetica,sans-Serif" font-size="10.00">+ register_irq_obj()</text>
<text text-anchor="start" x="9" y="-18.5" font-family="Helvetica,sans-Serif" font-size="10.00">+ register_obj()</text>
<text text-anchor="start" x="9" y="-7.5" font-family="Helvetica,sans-Serif" font-size="10.00">+ unregister_obj()</text>
</a>
</g>
</g>
<!-- Node1&#45;&gt;Node2 -->
<g id="edge1" class="edge">
<title>Node1&#45;&gt;Node2</title>
<path fill="none" stroke="midnightblue" d="M56.5,-183.16C56.5,-174.51 56.5,-165.57 56.5,-156.74"/>
<polygon fill="none" stroke="midnightblue" points="53,-183.16 56.5,-193.16 60,-183.16 53,-183.16"/>
</g>
</g>
</svg>
