<?xml version="1.0" encoding="UTF-8" standalone="no"?>
<!DOCTYPE svg PUBLIC "-//W3C//DTD SVG 1.1//EN"
 "http://www.w3.org/Graphics/SVG/1.1/DTD/svg11.dtd">
<!-- Generated by graphviz version 2.43.0 (0)
 -->
<!-- Title: L4::Poll_timeout_kipclock::set Pages: 1 -->
<svg width="283pt" height="66pt"
 viewBox="0.00 0.00 283.00 66.00" xmlns="http://www.w3.org/2000/svg" xmlns:xlink="http://www.w3.org/1999/xlink">
<g id="graph0" class="graph" transform="scale(1 1) rotate(0) translate(4 62)">
<title>L4::Poll_timeout_kipclock::set</title>
<polygon fill="white" stroke="transparent" points="-4,4 -4,-62 279,-62 279,4 -4,4"/>
<!-- Node1 -->
<g id="node1" class="node">
<title>Node1</title>
<g id="a_node1"><a xlink:title="(Re&#45;)Set relative timeout in microseconds">
<polygon fill="#bfbfbf" stroke="black" points="0,-19.5 0,-38.5 162,-38.5 162,-19.5 0,-19.5"/>
<text text-anchor="middle" x="81" y="-26.5" font-family="Helvetica,sans-Serif" font-size="10.00">L4::Poll_timeout_kipclock::set</text>
</a>
</g>
</g>
<!-- Node2 -->
<g id="node2" class="node">
<title>Node2</title>
<g id="a_node2"><a xlink:href="group__l4__kip__api.html#ga833b0dd3ac6cf62453707f89d695a96f" target="_top" xlink:title="Return clock value from the KIP.">
<polygon fill="white" stroke="black" points="198,-38.5 198,-57.5 275,-57.5 275,-38.5 198,-38.5"/>
<text text-anchor="middle" x="236.5" y="-45.5" font-family="Helvetica,sans-Serif" font-size="10.00">l4_kip_clock</text>
</a>
</g>
</g>
<!-- Node1&#45;&gt;Node2 -->
<g id="edge1" class="edge">
<title>Node1&#45;&gt;Node2</title>
<path fill="none" stroke="midnightblue" d="M159.2,-38.56C168.96,-39.76 178.72,-40.97 187.83,-42.1"/>
<polygon fill="midnightblue" stroke="midnightblue" points="187.46,-45.58 197.81,-43.33 188.32,-38.63 187.46,-45.58"/>
</g>
<!-- Node3 -->
<g id="node3" class="node">
<title>Node3</title>
<g id="a_node3"><a xlink:href="group__api__l4re__env.html#gae222fd7f694a90a34b8bde0edd265f4b" target="_top" xlink:title="Get Kernel Info Page.">
<polygon fill="white" stroke="black" points="208.5,-0.5 208.5,-19.5 264.5,-19.5 264.5,-0.5 208.5,-0.5"/>
<text text-anchor="middle" x="236.5" y="-7.5" font-family="Helvetica,sans-Serif" font-size="10.00">l4re_kip</text>
</a>
</g>
</g>
<!-- Node1&#45;&gt;Node3 -->
<g id="edge2" class="edge">
<title>Node1&#45;&gt;Node3</title>
<path fill="none" stroke="midnightblue" d="M159.2,-19.44C172.83,-17.76 186.44,-16.07 198.31,-14.6"/>
<polygon fill="midnightblue" stroke="midnightblue" points="198.75,-18.08 208.25,-13.37 197.89,-11.13 198.75,-18.08"/>
</g>
</g>
</svg>
