<?xml version="1.0" encoding="UTF-8" standalone="no"?>
<!DOCTYPE svg PUBLIC "-//W3C//DTD SVG 1.1//EN"
 "http://www.w3.org/Graphics/SVG/1.1/DTD/svg11.dtd">
<!-- Generated by graphviz version 2.43.0 (0)
 -->
<!-- Title: L4::Factory Pages: 1 -->
<svg width="273pt" height="365pt"
 viewBox="0.00 0.00 273.00 365.00" xmlns="http://www.w3.org/2000/svg" xmlns:xlink="http://www.w3.org/1999/xlink">
<g id="graph0" class="graph" transform="scale(1 1) rotate(0) translate(4 361)">
<title>L4::Factory</title>
<polygon fill="white" stroke="transparent" points="-4,4 -4,-361 269,-361 269,4 -4,4"/>
<!-- Node1 -->
<g id="node1" class="node">
<title>Node1</title>
<g id="a_node1"><a xlink:title="C++ Factory interface, see Factory for the C interface.">
<polygon fill="#bfbfbf" stroke="black" points="59,-0.5 59,-101.5 165,-101.5 165,-0.5 59,-0.5"/>
<text text-anchor="middle" x="112" y="-89.5" font-family="Helvetica,sans-Serif" font-size="10.00">L4::Factory</text>
<polyline fill="none" stroke="black" points="59,-82.5 165,-82.5 "/>
<text text-anchor="middle" x="112" y="-70.5" font-family="Helvetica,sans-Serif" font-size="10.00"> </text>
<polyline fill="none" stroke="black" points="59,-63.5 165,-63.5 "/>
<text text-anchor="start" x="67" y="-51.5" font-family="Helvetica,sans-Serif" font-size="10.00">+ create()</text>
<text text-anchor="start" x="67" y="-40.5" font-family="Helvetica,sans-Serif" font-size="10.00">+ create()</text>
<text text-anchor="start" x="67" y="-29.5" font-family="Helvetica,sans-Serif" font-size="10.00">+ create_task()</text>
<text text-anchor="start" x="67" y="-18.5" font-family="Helvetica,sans-Serif" font-size="10.00">+ create_factory()</text>
<text text-anchor="start" x="67" y="-7.5" font-family="Helvetica,sans-Serif" font-size="10.00">+ create_gate()</text>
</a>
</g>
</g>
<!-- Node2 -->
<g id="node2" class="node">
<title>Node2</title>
<g id="a_node2"><a xlink:href="classL4_1_1Kobject__t.html" target="_top" xlink:title=" ">
<polygon fill="white" stroke="black" points="26,-139.5 26,-218.5 198,-218.5 198,-139.5 26,-139.5"/>
<text text-anchor="start" x="34" y="-206.5" font-family="Helvetica,sans-Serif" font-size="10.00">L4::Kobject_t&lt; Factory,</text>
<text text-anchor="middle" x="112" y="-195.5" font-family="Helvetica,sans-Serif" font-size="10.00"> Kobject, L4_PROTO_FACTORY &gt;</text>
<polyline fill="none" stroke="black" points="26,-188.5 198,-188.5 "/>
<text text-anchor="middle" x="112" y="-176.5" font-family="Helvetica,sans-Serif" font-size="10.00"> </text>
<polyline fill="none" stroke="black" points="26,-169.5 198,-169.5 "/>
<text text-anchor="start" x="34" y="-157.5" font-family="Helvetica,sans-Serif" font-size="10.00"># c()</text>
<text text-anchor="start" x="34" y="-146.5" font-family="Helvetica,sans-Serif" font-size="10.00"># __check_protocols__()</text>
</a>
</g>
</g>
<!-- Node2&#45;&gt;Node1 -->
<g id="edge1" class="edge">
<title>Node2&#45;&gt;Node1</title>
<path fill="none" stroke="midnightblue" d="M112,-128.89C112,-119.94 112,-110.6 112,-101.63"/>
<polygon fill="none" stroke="midnightblue" points="108.5,-129.17 112,-139.17 115.5,-129.17 108.5,-129.17"/>
</g>
<!-- Node3 -->
<g id="node3" class="node">
<title>Node3</title>
<g id="a_node3"><a xlink:href="classL4_1_1Kobject.html" target="_top" xlink:title="Base class for all kinds of kernel objects and remote objects, referenced by capabilities.">
<polygon fill="white" stroke="black" points="0,-283 0,-351 86,-351 86,-283 0,-283"/>
<text text-anchor="middle" x="43" y="-339" font-family="Helvetica,sans-Serif" font-size="10.00">L4::Kobject</text>
<polyline fill="none" stroke="black" points="0,-332 86,-332 "/>
<text text-anchor="middle" x="43" y="-320" font-family="Helvetica,sans-Serif" font-size="10.00"> </text>
<polyline fill="none" stroke="black" points="0,-313 86,-313 "/>
<text text-anchor="start" x="8" y="-301" font-family="Helvetica,sans-Serif" font-size="10.00">+ dec_refcnt()</text>
<text text-anchor="start" x="8" y="-290" font-family="Helvetica,sans-Serif" font-size="10.00"># cap()</text>
</a>
</g>
</g>
<!-- Node3&#45;&gt;Node2 -->
<g id="edge2" class="edge">
<title>Node3&#45;&gt;Node2</title>
<path fill="none" stroke="midnightblue" d="M64.41,-273.81C73.33,-256.21 83.63,-235.92 92.36,-218.71"/>
<polygon fill="none" stroke="midnightblue" points="61.28,-272.23 59.88,-282.73 67.53,-275.4 61.28,-272.23"/>
</g>
<!-- Node4 -->
<g id="node4" class="node">
<title>Node4</title>
<g id="a_node4"><a xlink:href="classL4_1_1Kobject__t.html" target="_top" xlink:title="Helper class to create an L4Re interface class that is derived from a single base class.">
<polygon fill="white" stroke="black" points="104,-277.5 104,-356.5 260,-356.5 260,-277.5 104,-277.5"/>
<text text-anchor="start" x="112" y="-344.5" font-family="Helvetica,sans-Serif" font-size="10.00">L4::Kobject_t&lt; Derived,</text>
<text text-anchor="middle" x="182" y="-333.5" font-family="Helvetica,sans-Serif" font-size="10.00"> Base, PROTO, S_DEMAND &gt;</text>
<polyline fill="none" stroke="black" points="104,-326.5 260,-326.5 "/>
<text text-anchor="middle" x="182" y="-314.5" font-family="Helvetica,sans-Serif" font-size="10.00"> </text>
<polyline fill="none" stroke="black" points="104,-307.5 260,-307.5 "/>
<text text-anchor="start" x="112" y="-295.5" font-family="Helvetica,sans-Serif" font-size="10.00"># c()</text>
<text text-anchor="start" x="112" y="-284.5" font-family="Helvetica,sans-Serif" font-size="10.00"># __check_protocols__()</text>
</a>
</g>
</g>
<!-- Node4&#45;&gt;Node2 -->
<g id="edge3" class="edge">
<title>Node4&#45;&gt;Node2</title>
<path fill="none" stroke="orange" d="M157.34,-268.09C149.02,-251.92 139.83,-234.08 131.92,-218.7"/>
<polygon fill="orange" stroke="orange" points="154.44,-270.1 162.13,-277.39 160.66,-266.9 154.44,-270.1"/>
<text text-anchor="start" x="151" y="-251" font-family="Helvetica,sans-Serif" font-size="10.00"> &lt; Factory, Kobject,</text>
<text text-anchor="middle" x="208" y="-240" font-family="Helvetica,sans-Serif" font-size="10.00"> L4_PROTO_FACTORY &gt;</text>
</g>
</g>
</svg>
