<?xml version="1.0" encoding="UTF-8" standalone="no"?>
<!DOCTYPE svg PUBLIC "-//W3C//DTD SVG 1.1//EN"
 "http://www.w3.org/Graphics/SVG/1.1/DTD/svg11.dtd">
<!-- Generated by graphviz version 2.43.0 (0)
 -->
<!-- Title: L4virtio::Virtqueue::avail_size Pages: 1 -->
<svg width="445pt" height="137pt"
 viewBox="0.00 0.00 445.00 137.00" xmlns="http://www.w3.org/2000/svg" xmlns:xlink="http://www.w3.org/1999/xlink">
<g id="graph0" class="graph" transform="scale(1 1) rotate(0) translate(4 133)">
<title>L4virtio::Virtqueue::avail_size</title>
<polygon fill="white" stroke="transparent" points="-4,4 -4,-133 441,-133 441,4 -4,4"/>
<!-- Node1 -->
<g id="node1" class="node">
<title>Node1</title>
<g id="a_node1"><a xlink:title="Calculate the size of the available ring for num entries.">
<polygon fill="#bfbfbf" stroke="black" points="330,-49.5 330,-79.5 437,-79.5 437,-49.5 330,-49.5"/>
<text text-anchor="start" x="338" y="-67.5" font-family="Helvetica,sans-Serif" font-size="10.00">L4virtio::Virtqueue</text>
<text text-anchor="middle" x="383.5" y="-56.5" font-family="Helvetica,sans-Serif" font-size="10.00">::avail_size</text>
</a>
</g>
</g>
<!-- Node2 -->
<g id="node2" class="node">
<title>Node2</title>
<g id="a_node2"><a xlink:href="classL4virtio_1_1Svr_1_1Device__t.html#ab906b4cc61026fd815a8056f07bef10e" target="_top" xlink:title="Enable/disable the specified queue.">
<polygon fill="white" stroke="black" points="179,-98.5 179,-128.5 294,-128.5 294,-98.5 179,-98.5"/>
<text text-anchor="start" x="187" y="-116.5" font-family="Helvetica,sans-Serif" font-size="10.00">L4virtio::Svr::Device</text>
<text text-anchor="middle" x="236.5" y="-105.5" font-family="Helvetica,sans-Serif" font-size="10.00">_t::setup_queue</text>
</a>
</g>
</g>
<!-- Node1&#45;&gt;Node2 -->
<g id="edge1" class="edge">
<title>Node1&#45;&gt;Node2</title>
<path fill="none" stroke="midnightblue" d="M328.08,-82.89C312.98,-87.99 296.77,-93.47 282.29,-98.36"/>
<polygon fill="midnightblue" stroke="midnightblue" points="329.46,-86.12 337.81,-79.6 327.22,-79.49 329.46,-86.12"/>
</g>
<!-- Node3 -->
<g id="node3" class="node">
<title>Node3</title>
<g id="a_node3"><a xlink:href="classL4virtio_1_1Virtqueue.html#a437c0ed2eb83201cc69c41d011503036" target="_top" xlink:title="Enable this queue.">
<polygon fill="white" stroke="black" points="183,-49.5 183,-79.5 290,-79.5 290,-49.5 183,-49.5"/>
<text text-anchor="start" x="191" y="-67.5" font-family="Helvetica,sans-Serif" font-size="10.00">L4virtio::Virtqueue</text>
<text text-anchor="middle" x="236.5" y="-56.5" font-family="Helvetica,sans-Serif" font-size="10.00">::setup_simple</text>
</a>
</g>
</g>
<!-- Node1&#45;&gt;Node3 -->
<g id="edge2" class="edge">
<title>Node1&#45;&gt;Node3</title>
<path fill="none" stroke="midnightblue" d="M319.7,-64.5C309.95,-64.5 299.96,-64.5 290.46,-64.5"/>
<polygon fill="midnightblue" stroke="midnightblue" points="319.74,-68 329.74,-64.5 319.74,-61 319.74,-68"/>
</g>
<!-- Node5 -->
<g id="node5" class="node">
<title>Node5</title>
<g id="a_node5"><a xlink:href="classL4virtio_1_1Virtqueue.html#a6f8cdc52ebe6322c3023e05e0e055293" target="_top" xlink:title="Calculate the total size for a virtqueue of the given dimensions.">
<polygon fill="white" stroke="black" points="183,-0.5 183,-30.5 290,-30.5 290,-0.5 183,-0.5"/>
<text text-anchor="start" x="191" y="-18.5" font-family="Helvetica,sans-Serif" font-size="10.00">L4virtio::Virtqueue</text>
<text text-anchor="middle" x="236.5" y="-7.5" font-family="Helvetica,sans-Serif" font-size="10.00">::total_size</text>
</a>
</g>
</g>
<!-- Node1&#45;&gt;Node5 -->
<g id="edge4" class="edge">
<title>Node1&#45;&gt;Node5</title>
<path fill="none" stroke="midnightblue" d="M328.08,-46.11C312.98,-41.01 296.77,-35.53 282.29,-30.64"/>
<polygon fill="midnightblue" stroke="midnightblue" points="327.22,-49.51 337.81,-49.4 329.46,-42.88 327.22,-49.51"/>
</g>
<!-- Node4 -->
<g id="node4" class="node">
<title>Node4</title>
<g id="a_node4"><a xlink:href="classL4virtio_1_1Driver_1_1Virtqueue.html#a285bae271e6acfe9c5bfa3df388c6b17" target="_top" xlink:title="Initialize this virtqueue.">
<polygon fill="white" stroke="black" points="0,-49.5 0,-79.5 143,-79.5 143,-49.5 0,-49.5"/>
<text text-anchor="start" x="8" y="-67.5" font-family="Helvetica,sans-Serif" font-size="10.00">L4virtio::Driver::Virtqueue</text>
<text text-anchor="middle" x="71.5" y="-56.5" font-family="Helvetica,sans-Serif" font-size="10.00">::init_queue</text>
</a>
</g>
</g>
<!-- Node3&#45;&gt;Node4 -->
<g id="edge3" class="edge">
<title>Node3&#45;&gt;Node4</title>
<path fill="none" stroke="midnightblue" d="M172.39,-64.5C162.84,-64.5 152.94,-64.5 143.24,-64.5"/>
<polygon fill="midnightblue" stroke="midnightblue" points="172.58,-68 182.58,-64.5 172.58,-61 172.58,-68"/>
</g>
<!-- Node6 -->
<g id="node6" class="node">
<title>Node6</title>
<g id="a_node6"><a xlink:href="classL4virtio_1_1Driver_1_1Block__device.html#a688df51bdec4ba327a6c0b48a83a115a" target="_top" xlink:title="Setup a connection to a device and set up shared memory.">
<polygon fill="white" stroke="black" points="9,-0.5 9,-30.5 134,-30.5 134,-0.5 9,-0.5"/>
<text text-anchor="start" x="17" y="-18.5" font-family="Helvetica,sans-Serif" font-size="10.00">L4virtio::Driver::Block</text>
<text text-anchor="middle" x="71.5" y="-7.5" font-family="Helvetica,sans-Serif" font-size="10.00">_device::setup_device</text>
</a>
</g>
</g>
<!-- Node5&#45;&gt;Node6 -->
<g id="edge5" class="edge">
<title>Node5&#45;&gt;Node6</title>
<path fill="none" stroke="midnightblue" d="M172.25,-15.5C159.76,-15.5 146.67,-15.5 134.23,-15.5"/>
<polygon fill="midnightblue" stroke="midnightblue" points="172.58,-19 182.58,-15.5 172.58,-12 172.58,-19"/>
</g>
</g>
</svg>
