<?xml version="1.0" encoding="UTF-8" standalone="no"?>
<!DOCTYPE svg PUBLIC "-//W3C//DTD SVG 1.1//EN"
 "http://www.w3.org/Graphics/SVG/1.1/DTD/svg11.dtd">
<!-- Generated by graphviz version 2.43.0 (0)
 -->
<!-- Title: L4::Ipc_svr::Server_iface Pages: 1 -->
<svg width="506pt" height="1089pt"
 viewBox="0.00 0.00 506.00 1089.00" xmlns="http://www.w3.org/2000/svg" xmlns:xlink="http://www.w3.org/1999/xlink">
<g id="graph0" class="graph" transform="scale(1 1) rotate(0) translate(4 1085)">
<title>L4::Ipc_svr::Server_iface</title>
<polygon fill="white" stroke="transparent" points="-4,4 -4,-1085 502,-1085 502,4 -4,4"/>
<!-- Node1 -->
<g id="node1" class="node">
<title>Node1</title>
<g id="a_node1"><a xlink:title="Interface for server&#45;loop related functions.">
<polygon fill="#bfbfbf" stroke="black" points="98,-924.5 98,-1080.5 235,-1080.5 235,-924.5 98,-924.5"/>
<text text-anchor="start" x="106" y="-1068.5" font-family="Helvetica,sans-Serif" font-size="10.00">L4::Ipc_svr::Server</text>
<text text-anchor="middle" x="166.5" y="-1057.5" font-family="Helvetica,sans-Serif" font-size="10.00">_iface</text>
<polyline fill="none" stroke="black" points="98,-1050.5 235,-1050.5 "/>
<text text-anchor="middle" x="166.5" y="-1038.5" font-family="Helvetica,sans-Serif" font-size="10.00"> </text>
<polyline fill="none" stroke="black" points="98,-1031.5 235,-1031.5 "/>
<text text-anchor="start" x="106" y="-1019.5" font-family="Helvetica,sans-Serif" font-size="10.00">+ Server_iface()</text>
<text text-anchor="start" x="106" y="-1008.5" font-family="Helvetica,sans-Serif" font-size="10.00">+ ~Server_iface()</text>
<text text-anchor="start" x="106" y="-997.5" font-family="Helvetica,sans-Serif" font-size="10.00">+ alloc_buffer_demand()</text>
<text text-anchor="start" x="106" y="-986.5" font-family="Helvetica,sans-Serif" font-size="10.00">+ get_rcv_cap()</text>
<text text-anchor="start" x="106" y="-975.5" font-family="Helvetica,sans-Serif" font-size="10.00">+ realloc_rcv_cap()</text>
<text text-anchor="start" x="106" y="-964.5" font-family="Helvetica,sans-Serif" font-size="10.00">+ add_timeout()</text>
<text text-anchor="start" x="106" y="-953.5" font-family="Helvetica,sans-Serif" font-size="10.00">+ remove_timeout()</text>
<text text-anchor="start" x="106" y="-942.5" font-family="Helvetica,sans-Serif" font-size="10.00">+ rcv_cap()</text>
<text text-anchor="start" x="106" y="-931.5" font-family="Helvetica,sans-Serif" font-size="10.00">+ rcv_cap()</text>
</a>
</g>
</g>
<!-- Node2 -->
<g id="node2" class="node">
<title>Node2</title>
<g id="a_node2"><a xlink:href="classL4_1_1Ipc__svr_1_1Timeout__queue__hooks.html" target="_top" xlink:title=" ">
<polygon fill="white" stroke="black" points="0,-343.5 0,-466.5 171,-466.5 171,-343.5 0,-343.5"/>
<text text-anchor="start" x="8" y="-454.5" font-family="Helvetica,sans-Serif" font-size="10.00">L4::Ipc_svr::Timeout</text>
<text text-anchor="start" x="8" y="-443.5" font-family="Helvetica,sans-Serif" font-size="10.00">_queue_hooks&lt; Br_manager</text>
<text text-anchor="middle" x="85.5" y="-432.5" font-family="Helvetica,sans-Serif" font-size="10.00">_timeout_hooks, Br_manager &gt;</text>
<polyline fill="none" stroke="black" points="0,-425.5 171,-425.5 "/>
<text text-anchor="start" x="8" y="-413.5" font-family="Helvetica,sans-Serif" font-size="10.00">+ queue</text>
<polyline fill="none" stroke="black" points="0,-406.5 171,-406.5 "/>
<text text-anchor="start" x="8" y="-394.5" font-family="Helvetica,sans-Serif" font-size="10.00">+ timeout()</text>
<text text-anchor="start" x="8" y="-383.5" font-family="Helvetica,sans-Serif" font-size="10.00">+ setup_wait()</text>
<text text-anchor="start" x="8" y="-372.5" font-family="Helvetica,sans-Serif" font-size="10.00">+ before_reply()</text>
<text text-anchor="start" x="8" y="-361.5" font-family="Helvetica,sans-Serif" font-size="10.00">+ add_timeout()</text>
<text text-anchor="start" x="8" y="-350.5" font-family="Helvetica,sans-Serif" font-size="10.00">+ remove_timeout()</text>
</a>
</g>
</g>
<!-- Node1&#45;&gt;Node2 -->
<g id="edge1" class="edge">
<title>Node1&#45;&gt;Node2</title>
<path fill="none" stroke="midnightblue" d="M138.2,-914.74C116.71,-844.08 88.97,-741.28 77.5,-649 70.7,-594.31 75.65,-580.08 77.5,-525 78.14,-506.06 79.34,-485.46 80.62,-466.8"/>
<polygon fill="none" stroke="midnightblue" points="134.91,-915.96 141.19,-924.5 141.61,-913.91 134.91,-915.96"/>
</g>
<!-- Node4 -->
<g id="node4" class="node">
<title>Node4</title>
<g id="a_node4"><a xlink:href="classL4_1_1Ipc__svr_1_1Br__manager__no__buffers.html" target="_top" xlink:title="Empty implementation of Server_iface.">
<polygon fill="white" stroke="black" points="183,-719.5 183,-853.5 320,-853.5 320,-719.5 183,-719.5"/>
<text text-anchor="start" x="191" y="-841.5" font-family="Helvetica,sans-Serif" font-size="10.00">L4::Ipc_svr::Br_manager</text>
<text text-anchor="middle" x="251.5" y="-830.5" font-family="Helvetica,sans-Serif" font-size="10.00">_no_buffers</text>
<polyline fill="none" stroke="black" points="183,-823.5 320,-823.5 "/>
<text text-anchor="middle" x="251.5" y="-811.5" font-family="Helvetica,sans-Serif" font-size="10.00"> </text>
<polyline fill="none" stroke="black" points="183,-804.5 320,-804.5 "/>
<text text-anchor="start" x="191" y="-792.5" font-family="Helvetica,sans-Serif" font-size="10.00">+ alloc_buffer_demand()</text>
<text text-anchor="start" x="191" y="-781.5" font-family="Helvetica,sans-Serif" font-size="10.00">+ get_rcv_cap()</text>
<text text-anchor="start" x="191" y="-770.5" font-family="Helvetica,sans-Serif" font-size="10.00">+ realloc_rcv_cap()</text>
<text text-anchor="start" x="191" y="-759.5" font-family="Helvetica,sans-Serif" font-size="10.00">+ add_timeout()</text>
<text text-anchor="start" x="191" y="-748.5" font-family="Helvetica,sans-Serif" font-size="10.00">+ remove_timeout()</text>
<text text-anchor="start" x="191" y="-737.5" font-family="Helvetica,sans-Serif" font-size="10.00"># first_free_br()</text>
<text text-anchor="start" x="191" y="-726.5" font-family="Helvetica,sans-Serif" font-size="10.00"># setup_wait()</text>
</a>
</g>
</g>
<!-- Node1&#45;&gt;Node4 -->
<g id="edge3" class="edge">
<title>Node1&#45;&gt;Node4</title>
<path fill="none" stroke="midnightblue" d="M200.88,-914.94C209,-894.51 217.52,-873.05 225.21,-853.69"/>
<polygon fill="none" stroke="midnightblue" points="197.63,-913.66 197.19,-924.24 204.13,-916.24 197.63,-913.66"/>
</g>
<!-- Node9 -->
<g id="node9" class="node">
<title>Node9</title>
<g id="a_node9"><a xlink:href="classL4_1_1Ipc__svr_1_1Timeout__queue__hooks.html" target="_top" xlink:title="Loop hooks mixin for integrating a timeout queue into the server loop.">
<polygon fill="white" stroke="black" points="86.5,-525.5 86.5,-648.5 222.5,-648.5 222.5,-525.5 86.5,-525.5"/>
<text text-anchor="start" x="94.5" y="-636.5" font-family="Helvetica,sans-Serif" font-size="10.00">L4::Ipc_svr::Timeout</text>
<text text-anchor="start" x="94.5" y="-625.5" font-family="Helvetica,sans-Serif" font-size="10.00">_queue_hooks&lt; HOOKS,</text>
<text text-anchor="middle" x="154.5" y="-614.5" font-family="Helvetica,sans-Serif" font-size="10.00"> BR_MAN &gt;</text>
<polyline fill="none" stroke="black" points="86.5,-607.5 222.5,-607.5 "/>
<text text-anchor="start" x="94.5" y="-595.5" font-family="Helvetica,sans-Serif" font-size="10.00">+ queue</text>
<polyline fill="none" stroke="black" points="86.5,-588.5 222.5,-588.5 "/>
<text text-anchor="start" x="94.5" y="-576.5" font-family="Helvetica,sans-Serif" font-size="10.00">+ timeout()</text>
<text text-anchor="start" x="94.5" y="-565.5" font-family="Helvetica,sans-Serif" font-size="10.00">+ setup_wait()</text>
<text text-anchor="start" x="94.5" y="-554.5" font-family="Helvetica,sans-Serif" font-size="10.00">+ before_reply()</text>
<text text-anchor="start" x="94.5" y="-543.5" font-family="Helvetica,sans-Serif" font-size="10.00">+ add_timeout()</text>
<text text-anchor="start" x="94.5" y="-532.5" font-family="Helvetica,sans-Serif" font-size="10.00">+ remove_timeout()</text>
</a>
</g>
</g>
<!-- Node1&#45;&gt;Node9 -->
<g id="edge11" class="edge">
<title>Node1&#45;&gt;Node9</title>
<path fill="none" stroke="midnightblue" d="M163.97,-914.19C161.65,-834.52 158.3,-718.83 156.26,-648.78"/>
<polygon fill="none" stroke="midnightblue" points="160.47,-914.31 164.26,-924.21 167.47,-914.11 160.47,-914.31"/>
</g>
<!-- Node10 -->
<g id="node10" class="node">
<title>Node10</title>
<g id="a_node10"><a xlink:href="classL4Re_1_1Util_1_1Br__manager.html" target="_top" xlink:title="Buffer&#45;register (BR) manager for L4::Server.">
<polygon fill="white" stroke="black" points="352,-686.5 352,-886.5 489,-886.5 489,-686.5 352,-686.5"/>
<text text-anchor="middle" x="420.5" y="-874.5" font-family="Helvetica,sans-Serif" font-size="10.00">L4Re::Util::Br_manager</text>
<polyline fill="none" stroke="black" points="352,-867.5 489,-867.5 "/>
<text text-anchor="middle" x="420.5" y="-855.5" font-family="Helvetica,sans-Serif" font-size="10.00"> </text>
<polyline fill="none" stroke="black" points="352,-848.5 489,-848.5 "/>
<text text-anchor="start" x="360" y="-836.5" font-family="Helvetica,sans-Serif" font-size="10.00">+ Br_manager()</text>
<text text-anchor="start" x="360" y="-825.5" font-family="Helvetica,sans-Serif" font-size="10.00">+ Br_manager()</text>
<text text-anchor="start" x="360" y="-814.5" font-family="Helvetica,sans-Serif" font-size="10.00">+ operator=()</text>
<text text-anchor="start" x="360" y="-803.5" font-family="Helvetica,sans-Serif" font-size="10.00">+ Br_manager()</text>
<text text-anchor="start" x="360" y="-792.5" font-family="Helvetica,sans-Serif" font-size="10.00">+ operator=()</text>
<text text-anchor="start" x="360" y="-781.5" font-family="Helvetica,sans-Serif" font-size="10.00">+ ~Br_manager()</text>
<text text-anchor="start" x="360" y="-770.5" font-family="Helvetica,sans-Serif" font-size="10.00">+ alloc_buffer_demand()</text>
<text text-anchor="start" x="360" y="-759.5" font-family="Helvetica,sans-Serif" font-size="10.00">+ get_rcv_cap()</text>
<text text-anchor="start" x="360" y="-748.5" font-family="Helvetica,sans-Serif" font-size="10.00">+ realloc_rcv_cap()</text>
<text text-anchor="start" x="360" y="-737.5" font-family="Helvetica,sans-Serif" font-size="10.00">+ set_rcv_cap_flags()</text>
<text text-anchor="start" x="360" y="-726.5" font-family="Helvetica,sans-Serif" font-size="10.00">+ add_timeout()</text>
<text text-anchor="start" x="360" y="-715.5" font-family="Helvetica,sans-Serif" font-size="10.00">+ remove_timeout()</text>
<text text-anchor="start" x="360" y="-704.5" font-family="Helvetica,sans-Serif" font-size="10.00">+ setup_wait()</text>
<text text-anchor="start" x="360" y="-693.5" font-family="Helvetica,sans-Serif" font-size="10.00"># first_free_br()</text>
</a>
</g>
</g>
<!-- Node1&#45;&gt;Node10 -->
<g id="edge12" class="edge">
<title>Node1&#45;&gt;Node10</title>
<path fill="none" stroke="midnightblue" d="M243.58,-951.91C271.31,-932.82 302.22,-910.05 328.5,-887 336.37,-880.1 344.29,-872.59 351.99,-864.89"/>
<polygon fill="none" stroke="midnightblue" points="241.36,-949.18 235.08,-957.71 245.31,-954.96 241.36,-949.18"/>
</g>
<!-- Node3 -->
<g id="node3" class="node">
<title>Node3</title>
<g id="a_node3"><a xlink:href="structL4Re_1_1Util_1_1Br__manager__timeout__hooks.html" target="_top" xlink:title="Predefined server&#45;loop hooks for a server with using the Br_manager and a timeout queue.">
<polygon fill="white" stroke="black" points="21,-189 21,-257 150,-257 150,-189 21,-189"/>
<text text-anchor="start" x="29" y="-245" font-family="Helvetica,sans-Serif" font-size="10.00">L4Re::Util::Br_manager</text>
<text text-anchor="middle" x="85.5" y="-234" font-family="Helvetica,sans-Serif" font-size="10.00">_timeout_hooks</text>
<polyline fill="none" stroke="black" points="21,-227 150,-227 "/>
<text text-anchor="middle" x="85.5" y="-215" font-family="Helvetica,sans-Serif" font-size="10.00"> </text>
<polyline fill="none" stroke="black" points="21,-208 150,-208 "/>
<text text-anchor="start" x="29" y="-196" font-family="Helvetica,sans-Serif" font-size="10.00">+ now()</text>
</a>
</g>
</g>
<!-- Node2&#45;&gt;Node3 -->
<g id="edge2" class="edge">
<title>Node2&#45;&gt;Node3</title>
<path fill="none" stroke="midnightblue" d="M85.5,-333.03C85.5,-306.86 85.5,-278.44 85.5,-257.17"/>
<polygon fill="none" stroke="midnightblue" points="82,-333.31 85.5,-343.31 89,-333.31 82,-333.31"/>
</g>
<!-- Node5 -->
<g id="node5" class="node">
<title>Node5</title>
<g id="a_node5"><a xlink:href="structL4_1_1Ipc__svr_1_1Default__loop__hooks.html" target="_top" xlink:title="Default LOOP_HOOKS.">
<polygon fill="white" stroke="black" points="240.5,-553 240.5,-621 350.5,-621 350.5,-553 240.5,-553"/>
<text text-anchor="start" x="248.5" y="-609" font-family="Helvetica,sans-Serif" font-size="10.00">L4::Ipc_svr::Default</text>
<text text-anchor="middle" x="295.5" y="-598" font-family="Helvetica,sans-Serif" font-size="10.00">_loop_hooks</text>
<polyline fill="none" stroke="black" points="240.5,-591 350.5,-591 "/>
<text text-anchor="middle" x="295.5" y="-579" font-family="Helvetica,sans-Serif" font-size="10.00"> </text>
<polyline fill="none" stroke="black" points="240.5,-572 350.5,-572 "/>
<text text-anchor="middle" x="295.5" y="-560" font-family="Helvetica,sans-Serif" font-size="10.00"> </text>
</a>
</g>
</g>
<!-- Node4&#45;&gt;Node5 -->
<g id="edge4" class="edge">
<title>Node4&#45;&gt;Node5</title>
<path fill="none" stroke="midnightblue" d="M268.4,-709.66C275.21,-679.09 282.71,-645.43 288.09,-621.27"/>
<polygon fill="none" stroke="midnightblue" points="264.97,-708.94 266.21,-719.46 271.8,-710.46 264.97,-708.94"/>
</g>
<!-- Node4&#45;&gt;Node9 -->
<g id="edge9" class="edge">
<title>Node4&#45;&gt;Node9</title>
<path fill="none" stroke="midnightblue" d="M214.53,-710.22C204.53,-689.86 193.84,-668.09 184.29,-648.65"/>
<polygon fill="none" stroke="midnightblue" points="211.52,-712.03 219.07,-719.46 217.8,-708.94 211.52,-712.03"/>
</g>
<!-- Node6 -->
<g id="node6" class="node">
<title>Node6</title>
<g id="a_node6"><a xlink:href="classL4_1_1Server.html" target="_top" xlink:title=" ">
<polygon fill="white" stroke="black" points="237,-161.5 237,-284.5 388,-284.5 388,-161.5 237,-161.5"/>
<text text-anchor="start" x="245" y="-272.5" font-family="Helvetica,sans-Serif" font-size="10.00">L4::Server&lt; L4::Ipc</text>
<text text-anchor="middle" x="312.5" y="-261.5" font-family="Helvetica,sans-Serif" font-size="10.00">_svr::Default_loop_hooks &gt;</text>
<polyline fill="none" stroke="black" points="237,-254.5 388,-254.5 "/>
<text text-anchor="middle" x="312.5" y="-242.5" font-family="Helvetica,sans-Serif" font-size="10.00"> </text>
<polyline fill="none" stroke="black" points="237,-235.5 388,-235.5 "/>
<text text-anchor="start" x="245" y="-223.5" font-family="Helvetica,sans-Serif" font-size="10.00">+ Server()</text>
<text text-anchor="start" x="245" y="-212.5" font-family="Helvetica,sans-Serif" font-size="10.00">+ Server()</text>
<text text-anchor="start" x="245" y="-201.5" font-family="Helvetica,sans-Serif" font-size="10.00">+ internal_loop()</text>
<text text-anchor="start" x="245" y="-190.5" font-family="Helvetica,sans-Serif" font-size="10.00">+ loop_noexc()</text>
<text text-anchor="start" x="245" y="-179.5" font-family="Helvetica,sans-Serif" font-size="10.00">+ loop()</text>
<text text-anchor="start" x="245" y="-168.5" font-family="Helvetica,sans-Serif" font-size="10.00"># reply_n_wait()</text>
</a>
</g>
</g>
<!-- Node5&#45;&gt;Node6 -->
<g id="edge5" class="edge">
<title>Node5&#45;&gt;Node6</title>
<path fill="none" stroke="midnightblue" d="M293.99,-542.77C292.69,-494.13 291.68,-412.8 296.5,-343 297.81,-323.97 300.23,-303.34 302.8,-284.69"/>
<polygon fill="none" stroke="midnightblue" points="290.5,-543.04 294.28,-552.93 297.5,-542.84 290.5,-543.04"/>
</g>
<!-- Node8 -->
<g id="node8" class="node">
<title>Node8</title>
<g id="a_node8"><a xlink:href="classL4_1_1Server.html" target="_top" xlink:title="Basic server loop for handling client requests.">
<polygon fill="white" stroke="black" points="306,-349 306,-461 461,-461 461,-349 306,-349"/>
<text text-anchor="middle" x="383.5" y="-449" font-family="Helvetica,sans-Serif" font-size="10.00">L4::Server&lt; LOOP_HOOKS &gt;</text>
<polyline fill="none" stroke="black" points="306,-442 461,-442 "/>
<text text-anchor="middle" x="383.5" y="-430" font-family="Helvetica,sans-Serif" font-size="10.00"> </text>
<polyline fill="none" stroke="black" points="306,-423 461,-423 "/>
<text text-anchor="start" x="314" y="-411" font-family="Helvetica,sans-Serif" font-size="10.00">+ Server()</text>
<text text-anchor="start" x="314" y="-400" font-family="Helvetica,sans-Serif" font-size="10.00">+ Server()</text>
<text text-anchor="start" x="314" y="-389" font-family="Helvetica,sans-Serif" font-size="10.00">+ internal_loop()</text>
<text text-anchor="start" x="314" y="-378" font-family="Helvetica,sans-Serif" font-size="10.00">+ loop_noexc()</text>
<text text-anchor="start" x="314" y="-367" font-family="Helvetica,sans-Serif" font-size="10.00">+ loop()</text>
<text text-anchor="start" x="314" y="-356" font-family="Helvetica,sans-Serif" font-size="10.00"># reply_n_wait()</text>
</a>
</g>
</g>
<!-- Node5&#45;&gt;Node8 -->
<g id="edge7" class="edge">
<title>Node5&#45;&gt;Node8</title>
<path fill="none" stroke="midnightblue" d="M316.09,-543.88C328.16,-519.19 343.55,-487.71 356.58,-461.07"/>
<polygon fill="none" stroke="midnightblue" points="312.89,-542.46 311.64,-552.99 319.18,-545.54 312.89,-542.46"/>
</g>
<!-- Node7 -->
<g id="node7" class="node">
<title>Node7</title>
<g id="a_node7"><a xlink:href="classL4Re_1_1Util_1_1Registry__server.html" target="_top" xlink:title="A server loop object which has a Object_registry included.">
<polygon fill="white" stroke="black" points="241.5,-0.5 241.5,-123.5 383.5,-123.5 383.5,-0.5 241.5,-0.5"/>
<text text-anchor="start" x="249.5" y="-111.5" font-family="Helvetica,sans-Serif" font-size="10.00">L4Re::Util::Registry</text>
<text text-anchor="middle" x="312.5" y="-100.5" font-family="Helvetica,sans-Serif" font-size="10.00">_server&lt; LOOP_HOOKS &gt;</text>
<polyline fill="none" stroke="black" points="241.5,-93.5 383.5,-93.5 "/>
<text text-anchor="middle" x="312.5" y="-81.5" font-family="Helvetica,sans-Serif" font-size="10.00"> </text>
<polyline fill="none" stroke="black" points="241.5,-74.5 383.5,-74.5 "/>
<text text-anchor="start" x="249.5" y="-62.5" font-family="Helvetica,sans-Serif" font-size="10.00">+ Registry_server()</text>
<text text-anchor="start" x="249.5" y="-51.5" font-family="Helvetica,sans-Serif" font-size="10.00">+ Registry_server()</text>
<text text-anchor="start" x="249.5" y="-40.5" font-family="Helvetica,sans-Serif" font-size="10.00">+ Registry_server()</text>
<text text-anchor="start" x="249.5" y="-29.5" font-family="Helvetica,sans-Serif" font-size="10.00">+ registry()</text>
<text text-anchor="start" x="249.5" y="-18.5" font-family="Helvetica,sans-Serif" font-size="10.00">+ registry()</text>
<text text-anchor="start" x="249.5" y="-7.5" font-family="Helvetica,sans-Serif" font-size="10.00">+ loop()</text>
</a>
</g>
</g>
<!-- Node6&#45;&gt;Node7 -->
<g id="edge6" class="edge">
<title>Node6&#45;&gt;Node7</title>
<path fill="none" stroke="midnightblue" d="M312.5,-151.17C312.5,-141.99 312.5,-132.65 312.5,-123.66"/>
<polygon fill="none" stroke="midnightblue" points="309,-151.44 312.5,-161.44 316,-151.44 309,-151.44"/>
</g>
<!-- Node8&#45;&gt;Node6 -->
<g id="edge8" class="edge">
<title>Node8&#45;&gt;Node6</title>
<path fill="none" stroke="orange" d="M357.8,-338.85C350.82,-321.15 343.29,-302.06 336.41,-284.61"/>
<polygon fill="orange" stroke="orange" points="354.69,-340.51 361.62,-348.53 361.2,-337.94 354.69,-340.51"/>
<text text-anchor="start" x="352.5" y="-317" font-family="Helvetica,sans-Serif" font-size="10.00"> &lt; L4::Ipc_svr::Default</text>
<text text-anchor="middle" x="407" y="-306" font-family="Helvetica,sans-Serif" font-size="10.00">_loop_hooks &gt;</text>
</g>
<!-- Node9&#45;&gt;Node2 -->
<g id="edge10" class="edge">
<title>Node9&#45;&gt;Node2</title>
<path fill="none" stroke="orange" d="M127.62,-515.88C121.4,-499.65 114.83,-482.52 108.78,-466.73"/>
<polygon fill="orange" stroke="orange" points="124.39,-517.23 131.24,-525.31 130.92,-514.72 124.39,-517.23"/>
<text text-anchor="start" x="124.5" y="-499" font-family="Helvetica,sans-Serif" font-size="10.00"> &lt; Br_manager_timeout</text>
<text text-anchor="middle" x="183.5" y="-488" font-family="Helvetica,sans-Serif" font-size="10.00">_hooks, Br_manager &gt;</text>
</g>
<!-- Node11 -->
<g id="node11" class="node">
<title>Node11</title>
<g id="a_node11"><a xlink:href="structL4Re_1_1Util_1_1Br__manager__hooks.html" target="_top" xlink:title="Predefined server&#45;loop hooks for a server loop using the Br_manager.">
<polygon fill="white" stroke="black" points="369,-553 369,-621 498,-621 498,-553 369,-553"/>
<text text-anchor="start" x="377" y="-609" font-family="Helvetica,sans-Serif" font-size="10.00">L4Re::Util::Br_manager</text>
<text text-anchor="middle" x="433.5" y="-598" font-family="Helvetica,sans-Serif" font-size="10.00">_hooks</text>
<polyline fill="none" stroke="black" points="369,-591 498,-591 "/>
<text text-anchor="middle" x="433.5" y="-579" font-family="Helvetica,sans-Serif" font-size="10.00"> </text>
<polyline fill="none" stroke="black" points="369,-572 498,-572 "/>
<text text-anchor="middle" x="433.5" y="-560" font-family="Helvetica,sans-Serif" font-size="10.00"> </text>
</a>
</g>
</g>
<!-- Node10&#45;&gt;Node11 -->
<g id="edge13" class="edge">
<title>Node10&#45;&gt;Node11</title>
<path fill="none" stroke="midnightblue" d="M427.69,-676.3C429,-656.31 430.28,-636.89 431.3,-621.39"/>
<polygon fill="none" stroke="midnightblue" points="424.18,-676.25 427.02,-686.46 431.17,-676.71 424.18,-676.25"/>
</g>
</g>
</svg>
