<?xml version="1.0" encoding="UTF-8" standalone="no"?>
<!DOCTYPE svg PUBLIC "-//W3C//DTD SVG 1.1//EN"
 "http://www.w3.org/Graphics/SVG/1.1/DTD/svg11.dtd">
<!-- Generated by graphviz version 2.43.0 (0)
 -->
<!-- Title: L4Re::Video::Color_component::size Pages: 1 -->
<svg width="264pt" height="137pt"
 viewBox="0.00 0.00 264.00 137.00" xmlns="http://www.w3.org/2000/svg" xmlns:xlink="http://www.w3.org/1999/xlink">
<g id="graph0" class="graph" transform="scale(1 1) rotate(0) translate(4 133)">
<title>L4Re::Video::Color_component::size</title>
<polygon fill="white" stroke="transparent" points="-4,4 -4,-133 260,-133 260,4 -4,4"/>
<!-- Node1 -->
<g id="node1" class="node">
<title>Node1</title>
<g id="a_node1"><a xlink:title="Return the number of bits used by the component.">
<polygon fill="#bfbfbf" stroke="black" points="150,-49.5 150,-79.5 256,-79.5 256,-49.5 150,-49.5"/>
<text text-anchor="start" x="158" y="-67.5" font-family="Helvetica,sans-Serif" font-size="10.00">L4Re::Video::Color</text>
<text text-anchor="middle" x="203" y="-56.5" font-family="Helvetica,sans-Serif" font-size="10.00">_component::size</text>
</a>
</g>
</g>
<!-- Node2 -->
<g id="node2" class="node">
<title>Node2</title>
<g id="a_node2"><a xlink:href="classL4Re_1_1Video_1_1Pixel__info.html#ad22a6f5891085219d36e844abb69ba11" target="_top" xlink:title="Number of bits of the pixel.">
<polygon fill="white" stroke="black" points="0,-98.5 0,-128.5 114,-128.5 114,-98.5 0,-98.5"/>
<text text-anchor="start" x="8" y="-116.5" font-family="Helvetica,sans-Serif" font-size="10.00">L4Re::Video::Pixel</text>
<text text-anchor="middle" x="57" y="-105.5" font-family="Helvetica,sans-Serif" font-size="10.00">_info::bits_per_pixel</text>
</a>
</g>
</g>
<!-- Node1&#45;&gt;Node2 -->
<g id="edge1" class="edge">
<title>Node1&#45;&gt;Node2</title>
<path fill="none" stroke="midnightblue" d="M147.96,-82.89C132.96,-87.99 116.86,-93.47 102.48,-98.36"/>
<polygon fill="midnightblue" stroke="midnightblue" points="149.28,-86.14 157.62,-79.6 147.03,-79.51 149.28,-86.14"/>
</g>
<!-- Node3 -->
<g id="node3" class="node">
<title>Node3</title>
<g id="a_node3"><a xlink:href="classL4Re_1_1Video_1_1Pixel__info.html#a6733df4bfc30ad4535a609ef90e63258" target="_top" xlink:title="Return whether the pixel has an alpha channel.">
<polygon fill="white" stroke="black" points="5,-49.5 5,-79.5 109,-79.5 109,-49.5 5,-49.5"/>
<text text-anchor="start" x="13" y="-67.5" font-family="Helvetica,sans-Serif" font-size="10.00">L4Re::Video::Pixel</text>
<text text-anchor="middle" x="57" y="-56.5" font-family="Helvetica,sans-Serif" font-size="10.00">_info::has_alpha</text>
</a>
</g>
</g>
<!-- Node1&#45;&gt;Node3 -->
<g id="edge2" class="edge">
<title>Node1&#45;&gt;Node3</title>
<path fill="none" stroke="midnightblue" d="M139.57,-64.5C129.41,-64.5 119,-64.5 109.15,-64.5"/>
<polygon fill="midnightblue" stroke="midnightblue" points="139.61,-68 149.61,-64.5 139.61,-61 139.61,-68"/>
</g>
<!-- Node4 -->
<g id="node4" class="node">
<title>Node4</title>
<g id="a_node4"><a xlink:href="classL4Re_1_1Video_1_1Pixel__info.html#af201eefedd086bdc13c5996e0738e1ff" target="_top" xlink:title="Compute the padding pseudo component.">
<polygon fill="white" stroke="black" points="5,-0.5 5,-30.5 109,-30.5 109,-0.5 5,-0.5"/>
<text text-anchor="start" x="13" y="-18.5" font-family="Helvetica,sans-Serif" font-size="10.00">L4Re::Video::Pixel</text>
<text text-anchor="middle" x="57" y="-7.5" font-family="Helvetica,sans-Serif" font-size="10.00">_info::padding</text>
</a>
</g>
</g>
<!-- Node1&#45;&gt;Node4 -->
<g id="edge3" class="edge">
<title>Node1&#45;&gt;Node4</title>
<path fill="none" stroke="midnightblue" d="M147.96,-46.11C132.96,-41.01 116.86,-35.53 102.48,-30.64"/>
<polygon fill="midnightblue" stroke="midnightblue" points="147.03,-49.49 157.62,-49.4 149.28,-42.86 147.03,-49.49"/>
</g>
</g>
</svg>
