<?xml version="1.0" encoding="UTF-8" standalone="no"?>
<!DOCTYPE svg PUBLIC "-//W3C//DTD SVG 1.1//EN"
 "http://www.w3.org/Graphics/SVG/1.1/DTD/svg11.dtd">
<!-- Generated by graphviz version 2.43.0 (0)
 -->
<!-- Title: cxx::Bits::Bst&lt; Node, Get_key, Compare &gt; Pages: 1 -->
<svg width="773pt" height="1537pt"
 viewBox="0.00 0.00 772.50 1537.00" xmlns="http://www.w3.org/2000/svg" xmlns:xlink="http://www.w3.org/1999/xlink">
<g id="graph0" class="graph" transform="scale(1 1) rotate(0) translate(4 1533)">
<title>cxx::Bits::Bst&lt; Node, Get_key, Compare &gt;</title>
<polygon fill="white" stroke="transparent" points="-4,4 -4,-1533 768.5,-1533 768.5,4 -4,4"/>
<!-- Node1 -->
<g id="node1" class="node">
<title>Node1</title>
<g id="a_node1"><a xlink:title="Basic binary search tree (BST).">
<polygon fill="#bfbfbf" stroke="black" points="284,-1053.5 284,-1528.5 411,-1528.5 411,-1053.5 284,-1053.5"/>
<text text-anchor="start" x="292" y="-1516.5" font-family="Helvetica,sans-Serif" font-size="10.00">cxx::Bits::Bst&lt; Node,</text>
<text text-anchor="middle" x="347.5" y="-1505.5" font-family="Helvetica,sans-Serif" font-size="10.00"> Get_key, Compare &gt;</text>
<polyline fill="none" stroke="black" points="284,-1498.5 411,-1498.5 "/>
<text text-anchor="middle" x="347.5" y="-1486.5" font-family="Helvetica,sans-Serif" font-size="10.00"> </text>
<polyline fill="none" stroke="black" points="284,-1479.5 411,-1479.5 "/>
<text text-anchor="start" x="292" y="-1467.5" font-family="Helvetica,sans-Serif" font-size="10.00">+ begin()</text>
<text text-anchor="start" x="292" y="-1456.5" font-family="Helvetica,sans-Serif" font-size="10.00">+ end()</text>
<text text-anchor="start" x="292" y="-1445.5" font-family="Helvetica,sans-Serif" font-size="10.00">+ begin()</text>
<text text-anchor="start" x="292" y="-1434.5" font-family="Helvetica,sans-Serif" font-size="10.00">+ end()</text>
<text text-anchor="start" x="292" y="-1423.5" font-family="Helvetica,sans-Serif" font-size="10.00">+ rbegin()</text>
<text text-anchor="start" x="292" y="-1412.5" font-family="Helvetica,sans-Serif" font-size="10.00">+ rend()</text>
<text text-anchor="start" x="292" y="-1401.5" font-family="Helvetica,sans-Serif" font-size="10.00">+ rbegin()</text>
<text text-anchor="start" x="292" y="-1390.5" font-family="Helvetica,sans-Serif" font-size="10.00">+ rend()</text>
<text text-anchor="start" x="292" y="-1379.5" font-family="Helvetica,sans-Serif" font-size="10.00">+ find_node()</text>
<text text-anchor="start" x="292" y="-1368.5" font-family="Helvetica,sans-Serif" font-size="10.00">+ lower_bound_node()</text>
<text text-anchor="start" x="292" y="-1357.5" font-family="Helvetica,sans-Serif" font-size="10.00">+ find()</text>
<text text-anchor="start" x="292" y="-1346.5" font-family="Helvetica,sans-Serif" font-size="10.00">+ remove_all()</text>
<text text-anchor="start" x="292" y="-1335.5" font-family="Helvetica,sans-Serif" font-size="10.00"># remove_tree()</text>
<text text-anchor="start" x="292" y="-1324.5" font-family="Helvetica,sans-Serif" font-size="10.00">* Iterator</text>
<text text-anchor="start" x="292" y="-1313.5" font-family="Helvetica,sans-Serif" font-size="10.00">* Const_iterator</text>
<text text-anchor="start" x="292" y="-1302.5" font-family="Helvetica,sans-Serif" font-size="10.00">* Rev_iterator</text>
<text text-anchor="start" x="292" y="-1291.5" font-family="Helvetica,sans-Serif" font-size="10.00">* Const_rev_iterator</text>
<text text-anchor="start" x="292" y="-1280.5" font-family="Helvetica,sans-Serif" font-size="10.00">* _head</text>
<text text-anchor="start" x="292" y="-1269.5" font-family="Helvetica,sans-Serif" font-size="10.00">* Bst()</text>
<text text-anchor="start" x="292" y="-1258.5" font-family="Helvetica,sans-Serif" font-size="10.00">* head()</text>
<text text-anchor="start" x="292" y="-1247.5" font-family="Helvetica,sans-Serif" font-size="10.00">* k()</text>
<text text-anchor="start" x="292" y="-1236.5" font-family="Helvetica,sans-Serif" font-size="10.00">* dir()</text>
<text text-anchor="start" x="292" y="-1225.5" font-family="Helvetica,sans-Serif" font-size="10.00">* dir()</text>
<text text-anchor="start" x="292" y="-1214.5" font-family="Helvetica,sans-Serif" font-size="10.00">* greater()</text>
<text text-anchor="start" x="292" y="-1203.5" font-family="Helvetica,sans-Serif" font-size="10.00">* greater()</text>
<text text-anchor="start" x="292" y="-1192.5" font-family="Helvetica,sans-Serif" font-size="10.00">* greater()</text>
<text text-anchor="start" x="292" y="-1181.5" font-family="Helvetica,sans-Serif" font-size="10.00">* begin()</text>
<text text-anchor="start" x="292" y="-1170.5" font-family="Helvetica,sans-Serif" font-size="10.00">* end()</text>
<text text-anchor="start" x="292" y="-1159.5" font-family="Helvetica,sans-Serif" font-size="10.00">* begin()</text>
<text text-anchor="start" x="292" y="-1148.5" font-family="Helvetica,sans-Serif" font-size="10.00">* end()</text>
<text text-anchor="start" x="292" y="-1137.5" font-family="Helvetica,sans-Serif" font-size="10.00">* rbegin()</text>
<text text-anchor="start" x="292" y="-1126.5" font-family="Helvetica,sans-Serif" font-size="10.00">* rend()</text>
<text text-anchor="start" x="292" y="-1115.5" font-family="Helvetica,sans-Serif" font-size="10.00">* rbegin()</text>
<text text-anchor="start" x="292" y="-1104.5" font-family="Helvetica,sans-Serif" font-size="10.00">* rend()</text>
<text text-anchor="start" x="292" y="-1093.5" font-family="Helvetica,sans-Serif" font-size="10.00">* find_node()</text>
<text text-anchor="start" x="292" y="-1082.5" font-family="Helvetica,sans-Serif" font-size="10.00">* lower_bound_node()</text>
<text text-anchor="start" x="292" y="-1071.5" font-family="Helvetica,sans-Serif" font-size="10.00">* find()</text>
<text text-anchor="start" x="292" y="-1060.5" font-family="Helvetica,sans-Serif" font-size="10.00">* remove_all()</text>
</a>
</g>
</g>
<!-- Node2 -->
<g id="node2" class="node">
<title>Node2</title>
<g id="a_node2"><a xlink:href="classcxx_1_1Avl__tree.html" target="_top" xlink:title=" ">
<polygon fill="white" stroke="black" points="0,-0.5 0,-200.5 147,-200.5 147,-0.5 0,-0.5"/>
<text text-anchor="start" x="8" y="-188.5" font-family="Helvetica,sans-Serif" font-size="10.00">cxx::Avl_tree&lt; _Node,</text>
<text text-anchor="start" x="8" y="-177.5" font-family="Helvetica,sans-Serif" font-size="10.00"> Bits::Avl_set_get_key</text>
<text text-anchor="start" x="8" y="-166.5" font-family="Helvetica,sans-Serif" font-size="10.00">&lt; ITEM_TYPE &gt;, Lt_functor</text>
<text text-anchor="middle" x="73.5" y="-155.5" font-family="Helvetica,sans-Serif" font-size="10.00">&lt; ITEM_TYPE &gt; &gt;</text>
<polyline fill="none" stroke="black" points="0,-148.5 147,-148.5 "/>
<text text-anchor="middle" x="73.5" y="-136.5" font-family="Helvetica,sans-Serif" font-size="10.00"> </text>
<polyline fill="none" stroke="black" points="0,-129.5 147,-129.5 "/>
<text text-anchor="start" x="8" y="-117.5" font-family="Helvetica,sans-Serif" font-size="10.00">+ Avl_tree()</text>
<text text-anchor="start" x="8" y="-106.5" font-family="Helvetica,sans-Serif" font-size="10.00">+ insert()</text>
<text text-anchor="start" x="8" y="-95.5" font-family="Helvetica,sans-Serif" font-size="10.00">+ remove()</text>
<text text-anchor="start" x="8" y="-84.5" font-family="Helvetica,sans-Serif" font-size="10.00">+ erase()</text>
<text text-anchor="start" x="8" y="-73.5" font-family="Helvetica,sans-Serif" font-size="10.00">+ ~Avl_tree()</text>
<text text-anchor="start" x="8" y="-62.5" font-family="Helvetica,sans-Serif" font-size="10.00">* Key_type</text>
<text text-anchor="start" x="8" y="-51.5" font-family="Helvetica,sans-Serif" font-size="10.00">* Key_param_type</text>
<text text-anchor="start" x="8" y="-40.5" font-family="Helvetica,sans-Serif" font-size="10.00">* Iterator</text>
<text text-anchor="start" x="8" y="-29.5" font-family="Helvetica,sans-Serif" font-size="10.00">* Const_iterator</text>
<text text-anchor="start" x="8" y="-18.5" font-family="Helvetica,sans-Serif" font-size="10.00">* Rev_iterator</text>
<text text-anchor="start" x="8" y="-7.5" font-family="Helvetica,sans-Serif" font-size="10.00">* Const_rev_iterator</text>
</a>
</g>
</g>
<!-- Node1&#45;&gt;Node2 -->
<g id="edge1" class="edge">
<title>Node1&#45;&gt;Node2</title>
<path fill="none" stroke="midnightblue" d="M276.91,-1218.08C224.89,-1160.09 157.79,-1073.68 125.5,-984 28.35,-714.14 45.33,-368.01 61.58,-200.76"/>
<polygon fill="none" stroke="midnightblue" points="274.52,-1220.65 283.82,-1225.72 279.71,-1215.95 274.52,-1220.65"/>
</g>
<!-- Node3 -->
<g id="node3" class="node">
<title>Node3</title>
<g id="a_node3"><a xlink:href="classcxx_1_1Avl__tree.html" target="_top" xlink:title=" ">
<polygon fill="white" stroke="black" points="202,-11.5 202,-189.5 321,-189.5 321,-11.5 202,-11.5"/>
<text text-anchor="start" x="210" y="-177.5" font-family="Helvetica,sans-Serif" font-size="10.00">cxx::Avl_tree&lt; Entry,</text>
<text text-anchor="middle" x="261.5" y="-166.5" font-family="Helvetica,sans-Serif" font-size="10.00"> Names_get_key &gt;</text>
<polyline fill="none" stroke="black" points="202,-159.5 321,-159.5 "/>
<text text-anchor="middle" x="261.5" y="-147.5" font-family="Helvetica,sans-Serif" font-size="10.00"> </text>
<polyline fill="none" stroke="black" points="202,-140.5 321,-140.5 "/>
<text text-anchor="start" x="210" y="-128.5" font-family="Helvetica,sans-Serif" font-size="10.00">+ Avl_tree()</text>
<text text-anchor="start" x="210" y="-117.5" font-family="Helvetica,sans-Serif" font-size="10.00">+ insert()</text>
<text text-anchor="start" x="210" y="-106.5" font-family="Helvetica,sans-Serif" font-size="10.00">+ remove()</text>
<text text-anchor="start" x="210" y="-95.5" font-family="Helvetica,sans-Serif" font-size="10.00">+ erase()</text>
<text text-anchor="start" x="210" y="-84.5" font-family="Helvetica,sans-Serif" font-size="10.00">+ ~Avl_tree()</text>
<text text-anchor="start" x="210" y="-73.5" font-family="Helvetica,sans-Serif" font-size="10.00">* Key_type</text>
<text text-anchor="start" x="210" y="-62.5" font-family="Helvetica,sans-Serif" font-size="10.00">* Key_param_type</text>
<text text-anchor="start" x="210" y="-51.5" font-family="Helvetica,sans-Serif" font-size="10.00">* Iterator</text>
<text text-anchor="start" x="210" y="-40.5" font-family="Helvetica,sans-Serif" font-size="10.00">* Const_iterator</text>
<text text-anchor="start" x="210" y="-29.5" font-family="Helvetica,sans-Serif" font-size="10.00">* Rev_iterator</text>
<text text-anchor="start" x="210" y="-18.5" font-family="Helvetica,sans-Serif" font-size="10.00">* Const_rev_iterator</text>
</a>
</g>
</g>
<!-- Node1&#45;&gt;Node3 -->
<g id="edge2" class="edge">
<title>Node1&#45;&gt;Node3</title>
<path fill="none" stroke="midnightblue" d="M280.91,-1084.39C217.57,-876.94 126.98,-546.14 92.5,-252 90.79,-237.43 83.67,-230.71 92.5,-219 110.04,-195.75 130.17,-215.37 155.5,-201 171.86,-191.72 187.67,-179.42 201.87,-166.63"/>
<polygon fill="none" stroke="midnightblue" points="277.63,-1085.63 283.91,-1094.17 284.33,-1083.58 277.63,-1085.63"/>
</g>
<!-- Node4 -->
<g id="node4" class="node">
<title>Node4</title>
<g id="a_node4"><a xlink:href="classcxx_1_1Avl__tree.html" target="_top" xlink:title=" ">
<polygon fill="white" stroke="black" points="361.5,-11.5 361.5,-189.5 489.5,-189.5 489.5,-11.5 361.5,-11.5"/>
<text text-anchor="start" x="369.5" y="-177.5" font-family="Helvetica,sans-Serif" font-size="10.00">cxx::Avl_tree&lt; _Node,</text>
<text text-anchor="middle" x="425.5" y="-166.5" font-family="Helvetica,sans-Serif" font-size="10.00"> GET_KEY, COMPARE &gt;</text>
<polyline fill="none" stroke="black" points="361.5,-159.5 489.5,-159.5 "/>
<text text-anchor="middle" x="425.5" y="-147.5" font-family="Helvetica,sans-Serif" font-size="10.00"> </text>
<polyline fill="none" stroke="black" points="361.5,-140.5 489.5,-140.5 "/>
<text text-anchor="start" x="369.5" y="-128.5" font-family="Helvetica,sans-Serif" font-size="10.00">+ Avl_tree()</text>
<text text-anchor="start" x="369.5" y="-117.5" font-family="Helvetica,sans-Serif" font-size="10.00">+ insert()</text>
<text text-anchor="start" x="369.5" y="-106.5" font-family="Helvetica,sans-Serif" font-size="10.00">+ remove()</text>
<text text-anchor="start" x="369.5" y="-95.5" font-family="Helvetica,sans-Serif" font-size="10.00">+ erase()</text>
<text text-anchor="start" x="369.5" y="-84.5" font-family="Helvetica,sans-Serif" font-size="10.00">+ ~Avl_tree()</text>
<text text-anchor="start" x="369.5" y="-73.5" font-family="Helvetica,sans-Serif" font-size="10.00">* Key_type</text>
<text text-anchor="start" x="369.5" y="-62.5" font-family="Helvetica,sans-Serif" font-size="10.00">* Key_param_type</text>
<text text-anchor="start" x="369.5" y="-51.5" font-family="Helvetica,sans-Serif" font-size="10.00">* Iterator</text>
<text text-anchor="start" x="369.5" y="-40.5" font-family="Helvetica,sans-Serif" font-size="10.00">* Const_iterator</text>
<text text-anchor="start" x="369.5" y="-29.5" font-family="Helvetica,sans-Serif" font-size="10.00">* Rev_iterator</text>
<text text-anchor="start" x="369.5" y="-18.5" font-family="Helvetica,sans-Serif" font-size="10.00">* Const_rev_iterator</text>
</a>
</g>
</g>
<!-- Node1&#45;&gt;Node4 -->
<g id="edge3" class="edge">
<title>Node1&#45;&gt;Node4</title>
<path fill="none" stroke="midnightblue" d="M415.68,-1161.21C512.66,-969.51 685.06,-594.8 742.5,-252 744.92,-237.54 752.13,-230.06 742.5,-219 723.5,-197.16 641.04,-209.9 613.5,-201 570.11,-186.97 524.83,-163.32 489.58,-142.6"/>
<polygon fill="none" stroke="midnightblue" points="412.52,-1159.7 411.12,-1170.2 418.76,-1162.87 412.52,-1159.7"/>
</g>
<!-- Node5 -->
<g id="node5" class="node">
<title>Node5</title>
<g id="a_node5"><a xlink:href="classcxx_1_1Avl__tree.html" target="_top" xlink:title=" ">
<polygon fill="white" stroke="black" points="622.5,-0.5 622.5,-200.5 764.5,-200.5 764.5,-0.5 622.5,-0.5"/>
<text text-anchor="start" x="630.5" y="-188.5" font-family="Helvetica,sans-Serif" font-size="10.00">cxx::Avl_tree&lt; _Node,</text>
<text text-anchor="start" x="630.5" y="-177.5" font-family="Helvetica,sans-Serif" font-size="10.00"> Bits::Avl_map_get_key</text>
<text text-anchor="start" x="630.5" y="-166.5" font-family="Helvetica,sans-Serif" font-size="10.00">&lt; KEY_TYPE &gt;, Lt_functor</text>
<text text-anchor="middle" x="693.5" y="-155.5" font-family="Helvetica,sans-Serif" font-size="10.00">&lt; KEY_TYPE &gt; &gt;</text>
<polyline fill="none" stroke="black" points="622.5,-148.5 764.5,-148.5 "/>
<text text-anchor="middle" x="693.5" y="-136.5" font-family="Helvetica,sans-Serif" font-size="10.00"> </text>
<polyline fill="none" stroke="black" points="622.5,-129.5 764.5,-129.5 "/>
<text text-anchor="start" x="630.5" y="-117.5" font-family="Helvetica,sans-Serif" font-size="10.00">+ Avl_tree()</text>
<text text-anchor="start" x="630.5" y="-106.5" font-family="Helvetica,sans-Serif" font-size="10.00">+ insert()</text>
<text text-anchor="start" x="630.5" y="-95.5" font-family="Helvetica,sans-Serif" font-size="10.00">+ remove()</text>
<text text-anchor="start" x="630.5" y="-84.5" font-family="Helvetica,sans-Serif" font-size="10.00">+ erase()</text>
<text text-anchor="start" x="630.5" y="-73.5" font-family="Helvetica,sans-Serif" font-size="10.00">+ ~Avl_tree()</text>
<text text-anchor="start" x="630.5" y="-62.5" font-family="Helvetica,sans-Serif" font-size="10.00">* Key_type</text>
<text text-anchor="start" x="630.5" y="-51.5" font-family="Helvetica,sans-Serif" font-size="10.00">* Key_param_type</text>
<text text-anchor="start" x="630.5" y="-40.5" font-family="Helvetica,sans-Serif" font-size="10.00">* Iterator</text>
<text text-anchor="start" x="630.5" y="-29.5" font-family="Helvetica,sans-Serif" font-size="10.00">* Const_iterator</text>
<text text-anchor="start" x="630.5" y="-18.5" font-family="Helvetica,sans-Serif" font-size="10.00">* Rev_iterator</text>
<text text-anchor="start" x="630.5" y="-7.5" font-family="Helvetica,sans-Serif" font-size="10.00">* Const_rev_iterator</text>
</a>
</g>
</g>
<!-- Node1&#45;&gt;Node5 -->
<g id="edge4" class="edge">
<title>Node1&#45;&gt;Node5</title>
<path fill="none" stroke="midnightblue" d="M418.64,-1225.9C478.19,-1168.31 560.87,-1078.47 608.5,-984 758,-687.46 736.73,-583.38 758.5,-252 759.46,-237.36 762.17,-233.2 758.5,-219 756.93,-212.91 754.96,-206.79 752.71,-200.72"/>
<polygon fill="none" stroke="midnightblue" points="415.92,-1223.66 411.13,-1233.11 420.76,-1228.71 415.92,-1223.66"/>
</g>
<!-- Node6 -->
<g id="node6" class="node">
<title>Node6</title>
<g id="a_node6"><a xlink:href="classcxx_1_1Bits_1_1Bst.html" target="_top" xlink:title=" ">
<polygon fill="white" stroke="black" points="276,-486.5 276,-983.5 419,-983.5 419,-486.5 276,-486.5"/>
<text text-anchor="start" x="284" y="-971.5" font-family="Helvetica,sans-Serif" font-size="10.00">cxx::Bits::Bst&lt; Node,</text>
<text text-anchor="start" x="284" y="-960.5" font-family="Helvetica,sans-Serif" font-size="10.00"> Get_key, Lt_functor</text>
<text text-anchor="start" x="284" y="-949.5" font-family="Helvetica,sans-Serif" font-size="10.00">&lt; typename Get_key::Key</text>
<text text-anchor="middle" x="347.5" y="-938.5" font-family="Helvetica,sans-Serif" font-size="10.00">_type &gt; &gt;</text>
<polyline fill="none" stroke="black" points="276,-931.5 419,-931.5 "/>
<text text-anchor="middle" x="347.5" y="-919.5" font-family="Helvetica,sans-Serif" font-size="10.00"> </text>
<polyline fill="none" stroke="black" points="276,-912.5 419,-912.5 "/>
<text text-anchor="start" x="284" y="-900.5" font-family="Helvetica,sans-Serif" font-size="10.00">+ begin()</text>
<text text-anchor="start" x="284" y="-889.5" font-family="Helvetica,sans-Serif" font-size="10.00">+ begin()</text>
<text text-anchor="start" x="284" y="-878.5" font-family="Helvetica,sans-Serif" font-size="10.00">+ end()</text>
<text text-anchor="start" x="284" y="-867.5" font-family="Helvetica,sans-Serif" font-size="10.00">+ end()</text>
<text text-anchor="start" x="284" y="-856.5" font-family="Helvetica,sans-Serif" font-size="10.00">+ rbegin()</text>
<text text-anchor="start" x="284" y="-845.5" font-family="Helvetica,sans-Serif" font-size="10.00">+ rbegin()</text>
<text text-anchor="start" x="284" y="-834.5" font-family="Helvetica,sans-Serif" font-size="10.00">+ rend()</text>
<text text-anchor="start" x="284" y="-823.5" font-family="Helvetica,sans-Serif" font-size="10.00">+ rend()</text>
<text text-anchor="start" x="284" y="-812.5" font-family="Helvetica,sans-Serif" font-size="10.00">+ find_node()</text>
<text text-anchor="start" x="284" y="-801.5" font-family="Helvetica,sans-Serif" font-size="10.00">+ lower_bound_node()</text>
<text text-anchor="start" x="284" y="-790.5" font-family="Helvetica,sans-Serif" font-size="10.00">+ find()</text>
<text text-anchor="start" x="284" y="-779.5" font-family="Helvetica,sans-Serif" font-size="10.00">+ remove_all()</text>
<text text-anchor="start" x="284" y="-768.5" font-family="Helvetica,sans-Serif" font-size="10.00"># remove_tree()</text>
<text text-anchor="start" x="284" y="-757.5" font-family="Helvetica,sans-Serif" font-size="10.00">* Iterator</text>
<text text-anchor="start" x="284" y="-746.5" font-family="Helvetica,sans-Serif" font-size="10.00">* Const_iterator</text>
<text text-anchor="start" x="284" y="-735.5" font-family="Helvetica,sans-Serif" font-size="10.00">* Rev_iterator</text>
<text text-anchor="start" x="284" y="-724.5" font-family="Helvetica,sans-Serif" font-size="10.00">* Const_rev_iterator</text>
<text text-anchor="start" x="284" y="-713.5" font-family="Helvetica,sans-Serif" font-size="10.00">* _head</text>
<text text-anchor="start" x="284" y="-702.5" font-family="Helvetica,sans-Serif" font-size="10.00">* Bst()</text>
<text text-anchor="start" x="284" y="-691.5" font-family="Helvetica,sans-Serif" font-size="10.00">* head()</text>
<text text-anchor="start" x="284" y="-680.5" font-family="Helvetica,sans-Serif" font-size="10.00">* k()</text>
<text text-anchor="start" x="284" y="-669.5" font-family="Helvetica,sans-Serif" font-size="10.00">* dir()</text>
<text text-anchor="start" x="284" y="-658.5" font-family="Helvetica,sans-Serif" font-size="10.00">* dir()</text>
<text text-anchor="start" x="284" y="-647.5" font-family="Helvetica,sans-Serif" font-size="10.00">* greater()</text>
<text text-anchor="start" x="284" y="-636.5" font-family="Helvetica,sans-Serif" font-size="10.00">* greater()</text>
<text text-anchor="start" x="284" y="-625.5" font-family="Helvetica,sans-Serif" font-size="10.00">* greater()</text>
<text text-anchor="start" x="284" y="-614.5" font-family="Helvetica,sans-Serif" font-size="10.00">* begin()</text>
<text text-anchor="start" x="284" y="-603.5" font-family="Helvetica,sans-Serif" font-size="10.00">* begin()</text>
<text text-anchor="start" x="284" y="-592.5" font-family="Helvetica,sans-Serif" font-size="10.00">* end()</text>
<text text-anchor="start" x="284" y="-581.5" font-family="Helvetica,sans-Serif" font-size="10.00">* end()</text>
<text text-anchor="start" x="284" y="-570.5" font-family="Helvetica,sans-Serif" font-size="10.00">* rbegin()</text>
<text text-anchor="start" x="284" y="-559.5" font-family="Helvetica,sans-Serif" font-size="10.00">* rbegin()</text>
<text text-anchor="start" x="284" y="-548.5" font-family="Helvetica,sans-Serif" font-size="10.00">* rend()</text>
<text text-anchor="start" x="284" y="-537.5" font-family="Helvetica,sans-Serif" font-size="10.00">* rend()</text>
<text text-anchor="start" x="284" y="-526.5" font-family="Helvetica,sans-Serif" font-size="10.00">* find_node()</text>
<text text-anchor="start" x="284" y="-515.5" font-family="Helvetica,sans-Serif" font-size="10.00">* lower_bound_node()</text>
<text text-anchor="start" x="284" y="-504.5" font-family="Helvetica,sans-Serif" font-size="10.00">* find()</text>
<text text-anchor="start" x="284" y="-493.5" font-family="Helvetica,sans-Serif" font-size="10.00">* remove_all()</text>
</a>
</g>
</g>
<!-- Node1&#45;&gt;Node6 -->
<g id="edge5" class="edge">
<title>Node1&#45;&gt;Node6</title>
<path fill="none" stroke="orange" d="M347.5,-1043.42C347.5,-1023.58 347.5,-1003.54 347.5,-983.7"/>
<polygon fill="orange" stroke="orange" points="344,-1043.45 347.5,-1053.45 351,-1043.45 344,-1043.45"/>
<text text-anchor="start" x="347.5" y="-1027" font-family="Helvetica,sans-Serif" font-size="10.00"> &lt; Node, Get_key, Lt</text>
<text text-anchor="start" x="347.5" y="-1016" font-family="Helvetica,sans-Serif" font-size="10.00">_functor&lt; typename Get</text>
<text text-anchor="middle" x="408" y="-1005" font-family="Helvetica,sans-Serif" font-size="10.00">_key::Key_type &gt; &gt;</text>
</g>
<!-- Node7 -->
<g id="node7" class="node">
<title>Node7</title>
<g id="a_node7"><a xlink:href="classcxx_1_1Avl__tree.html" target="_top" xlink:title="A generic AVL tree.">
<polygon fill="white" stroke="black" points="287,-270.5 287,-448.5 408,-448.5 408,-270.5 287,-270.5"/>
<text text-anchor="start" x="295" y="-436.5" font-family="Helvetica,sans-Serif" font-size="10.00">cxx::Avl_tree&lt; Node,</text>
<text text-anchor="middle" x="347.5" y="-425.5" font-family="Helvetica,sans-Serif" font-size="10.00"> Get_key, Compare &gt;</text>
<polyline fill="none" stroke="black" points="287,-418.5 408,-418.5 "/>
<text text-anchor="middle" x="347.5" y="-406.5" font-family="Helvetica,sans-Serif" font-size="10.00"> </text>
<polyline fill="none" stroke="black" points="287,-399.5 408,-399.5 "/>
<text text-anchor="start" x="295" y="-387.5" font-family="Helvetica,sans-Serif" font-size="10.00">+ insert()</text>
<text text-anchor="start" x="295" y="-376.5" font-family="Helvetica,sans-Serif" font-size="10.00">+ remove()</text>
<text text-anchor="start" x="295" y="-365.5" font-family="Helvetica,sans-Serif" font-size="10.00">+ erase()</text>
<text text-anchor="start" x="295" y="-354.5" font-family="Helvetica,sans-Serif" font-size="10.00">+ Avl_tree()</text>
<text text-anchor="start" x="295" y="-343.5" font-family="Helvetica,sans-Serif" font-size="10.00">+ ~Avl_tree()</text>
<text text-anchor="start" x="295" y="-332.5" font-family="Helvetica,sans-Serif" font-size="10.00">* Key_type</text>
<text text-anchor="start" x="295" y="-321.5" font-family="Helvetica,sans-Serif" font-size="10.00">* Key_param_type</text>
<text text-anchor="start" x="295" y="-310.5" font-family="Helvetica,sans-Serif" font-size="10.00">* Iterator</text>
<text text-anchor="start" x="295" y="-299.5" font-family="Helvetica,sans-Serif" font-size="10.00">* Const_iterator</text>
<text text-anchor="start" x="295" y="-288.5" font-family="Helvetica,sans-Serif" font-size="10.00">* Rev_iterator</text>
<text text-anchor="start" x="295" y="-277.5" font-family="Helvetica,sans-Serif" font-size="10.00">* Const_rev_iterator</text>
</a>
</g>
</g>
<!-- Node6&#45;&gt;Node7 -->
<g id="edge6" class="edge">
<title>Node6&#45;&gt;Node7</title>
<path fill="none" stroke="midnightblue" d="M347.5,-476.38C347.5,-466.83 347.5,-457.58 347.5,-448.73"/>
<polygon fill="none" stroke="midnightblue" points="344,-476.43 347.5,-486.43 351,-476.43 344,-476.43"/>
</g>
<!-- Node7&#45;&gt;Node2 -->
<g id="edge7" class="edge">
<title>Node7&#45;&gt;Node2</title>
<path fill="none" stroke="orange" d="M277.14,-343.13C225.34,-328.26 156.98,-300.62 115.5,-252 103,-237.35 94.2,-219.25 88.02,-200.74"/>
<polygon fill="orange" stroke="orange" points="276.37,-346.54 286.94,-345.84 278.24,-339.8 276.37,-346.54"/>
<text text-anchor="start" x="115.5" y="-244" font-family="Helvetica,sans-Serif" font-size="10.00"> &lt; _Node, Bits::Avl</text>
<text text-anchor="start" x="115.5" y="-233" font-family="Helvetica,sans-Serif" font-size="10.00">_set_get_key&lt; ITEM_TYPE</text>
<text text-anchor="middle" x="192.5" y="-222" font-family="Helvetica,sans-Serif" font-size="10.00"> &gt;, Lt_functor&lt; ITEM_TYPE &gt; &gt;</text>
</g>
<!-- Node7&#45;&gt;Node3 -->
<g id="edge8" class="edge">
<title>Node7&#45;&gt;Node3</title>
<path fill="none" stroke="orange" d="M286.05,-261.19C284.78,-258.13 283.59,-255.06 282.5,-252 275.48,-232.37 270.8,-210.53 267.67,-189.7"/>
<polygon fill="orange" stroke="orange" points="282.85,-262.61 290.08,-270.35 289.26,-259.79 282.85,-262.61"/>
<text text-anchor="start" x="282.5" y="-238.5" font-family="Helvetica,sans-Serif" font-size="10.00"> &lt; Entry, Names_get</text>
<text text-anchor="middle" x="333.5" y="-227.5" font-family="Helvetica,sans-Serif" font-size="10.00">_key &gt;</text>
</g>
<!-- Node7&#45;&gt;Node4 -->
<g id="edge9" class="edge">
<title>Node7&#45;&gt;Node4</title>
<path fill="none" stroke="orange" d="M385.63,-260.88C386.62,-257.9 387.58,-254.93 388.5,-252 394.79,-231.98 400.68,-210.18 405.83,-189.56"/>
<polygon fill="orange" stroke="orange" points="382.28,-259.87 382.38,-270.47 388.91,-262.13 382.28,-259.87"/>
<text text-anchor="middle" x="477.5" y="-233" font-family="Helvetica,sans-Serif" font-size="10.00"> &lt; _Node, GET_KEY, COMPARE &gt;</text>
</g>
<!-- Node7&#45;&gt;Node5 -->
<g id="edge10" class="edge">
<title>Node7&#45;&gt;Node5</title>
<path fill="none" stroke="orange" d="M417.73,-331.79C461.53,-313.2 517.7,-285.74 561.5,-252 583.11,-235.35 603.89,-214.76 622.3,-194.22"/>
<polygon fill="orange" stroke="orange" points="416.17,-328.64 408.3,-335.73 418.87,-335.1 416.17,-328.64"/>
<text text-anchor="start" x="597.5" y="-244" font-family="Helvetica,sans-Serif" font-size="10.00"> &lt; _Node, Bits::Avl</text>
<text text-anchor="start" x="597.5" y="-233" font-family="Helvetica,sans-Serif" font-size="10.00">_map_get_key&lt; KEY_TYPE</text>
<text text-anchor="middle" x="671.5" y="-222" font-family="Helvetica,sans-Serif" font-size="10.00"> &gt;, Lt_functor&lt; KEY_TYPE &gt; &gt;</text>
</g>
</g>
</svg>
