<?xml version="1.0" encoding="UTF-8" standalone="no"?>
<!DOCTYPE svg PUBLIC "-//W3C//DTD SVG 1.1//EN"
 "http://www.w3.org/Graphics/SVG/1.1/DTD/svg11.dtd">
<!-- Generated by graphviz version 2.43.0 (0)
 -->
<!-- Title: L4virtio::Virtqueue::num Pages: 1 -->
<svg width="697pt" height="466pt"
 viewBox="0.00 0.00 697.00 466.43" xmlns="http://www.w3.org/2000/svg" xmlns:xlink="http://www.w3.org/1999/xlink">
<g id="graph0" class="graph" transform="scale(1 1) rotate(0) translate(4 462.43)">
<title>L4virtio::Virtqueue::num</title>
<polygon fill="white" stroke="transparent" points="-4,4 -4,-462.43 693,-462.43 693,4 -4,4"/>
<!-- Node1 -->
<g id="node1" class="node">
<title>Node1</title>
<g id="a_node1"><a xlink:title=" ">
<polygon fill="#bfbfbf" stroke="black" points="555,-238 555,-257 689,-257 689,-238 555,-238"/>
<text text-anchor="middle" x="622" y="-245" font-family="Helvetica,sans-Serif" font-size="10.00">L4virtio::Virtqueue::num</text>
</a>
</g>
</g>
<!-- Node2 -->
<g id="node2" class="node">
<title>Node2</title>
<g id="a_node2"><a xlink:href="classL4virtio_1_1Virtqueue.html#a962767a117dad07184f59191d399f9ce" target="_top" xlink:title="Calculate the size of the available ring for num entries.">
<polygon fill="white" stroke="black" points="385,-347.5 385,-377.5 492,-377.5 492,-347.5 385,-347.5"/>
<text text-anchor="start" x="393" y="-365.5" font-family="Helvetica,sans-Serif" font-size="10.00">L4virtio::Virtqueue</text>
<text text-anchor="middle" x="438.5" y="-354.5" font-family="Helvetica,sans-Serif" font-size="10.00">::avail_size</text>
</a>
</g>
</g>
<!-- Node1&#45;&gt;Node2 -->
<g id="edge1" class="edge">
<title>Node1&#45;&gt;Node2</title>
<path fill="none" stroke="midnightblue" d="M605.99,-264.87C587.48,-285.27 554.12,-318.82 519,-338.5 510.7,-343.15 501.39,-347 492.16,-350.15"/>
<polygon fill="midnightblue" stroke="midnightblue" points="608.74,-267.05 612.77,-257.25 603.51,-262.4 608.74,-267.05"/>
</g>
<!-- Node4 -->
<g id="node4" class="node">
<title>Node4</title>
<g id="a_node4"><a xlink:href="classL4virtio_1_1Virtqueue.html#a437c0ed2eb83201cc69c41d011503036" target="_top" xlink:title="Enable this queue.">
<polygon fill="white" stroke="black" points="197,-254.5 197,-284.5 304,-284.5 304,-254.5 197,-254.5"/>
<text text-anchor="start" x="205" y="-272.5" font-family="Helvetica,sans-Serif" font-size="10.00">L4virtio::Virtqueue</text>
<text text-anchor="middle" x="250.5" y="-261.5" font-family="Helvetica,sans-Serif" font-size="10.00">::setup_simple</text>
</a>
</g>
</g>
<!-- Node1&#45;&gt;Node4 -->
<g id="edge20" class="edge">
<title>Node1&#45;&gt;Node4</title>
<path fill="none" stroke="midnightblue" d="M544.59,-252.05C472.72,-256.33 367.03,-262.62 304.14,-266.37"/>
<polygon fill="midnightblue" stroke="midnightblue" points="545.17,-255.52 554.94,-251.43 544.75,-248.53 545.17,-255.52"/>
</g>
<!-- Node6 -->
<g id="node6" class="node">
<title>Node6</title>
<g id="a_node6"><a xlink:href="classL4virtio_1_1Virtqueue.html#a6f8cdc52ebe6322c3023e05e0e055293" target="_top" xlink:title="Calculate the total size for a virtqueue of the given dimensions.">
<polygon fill="white" stroke="black" points="197,-352.5 197,-382.5 304,-382.5 304,-352.5 197,-352.5"/>
<text text-anchor="start" x="205" y="-370.5" font-family="Helvetica,sans-Serif" font-size="10.00">L4virtio::Virtqueue</text>
<text text-anchor="middle" x="250.5" y="-359.5" font-family="Helvetica,sans-Serif" font-size="10.00">::total_size</text>
</a>
</g>
</g>
<!-- Node1&#45;&gt;Node6 -->
<g id="edge24" class="edge">
<title>Node1&#45;&gt;Node6</title>
<path fill="none" stroke="midnightblue" d="M617.23,-267.29C608.35,-307.67 581.93,-398.95 519,-436.5 457.55,-473.16 426.62,-456.79 358,-436.5 322.51,-426.01 287.73,-399.57 268.02,-382.63"/>
<polygon fill="midnightblue" stroke="midnightblue" points="620.69,-267.83 619.29,-257.33 613.84,-266.42 620.69,-267.83"/>
</g>
<!-- Node8 -->
<g id="node8" class="node">
<title>Node8</title>
<g id="a_node8"><a xlink:href="classL4virtio_1_1Virtqueue.html#a19410c09db5499023cb4b9f11742cd26" target="_top" xlink:title="Calculate the size of the descriptor table for num entries.">
<polygon fill="white" stroke="black" points="385,-298.5 385,-328.5 492,-328.5 492,-298.5 385,-298.5"/>
<text text-anchor="start" x="393" y="-316.5" font-family="Helvetica,sans-Serif" font-size="10.00">L4virtio::Virtqueue</text>
<text text-anchor="middle" x="438.5" y="-305.5" font-family="Helvetica,sans-Serif" font-size="10.00">::desc_size</text>
</a>
</g>
</g>
<!-- Node1&#45;&gt;Node8 -->
<g id="edge7" class="edge">
<title>Node1&#45;&gt;Node8</title>
<path fill="none" stroke="midnightblue" d="M584.98,-260.6C555.04,-271.49 512.42,-286.98 481.04,-298.39"/>
<polygon fill="midnightblue" stroke="midnightblue" points="586.41,-263.8 594.61,-257.1 584.01,-257.23 586.41,-263.8"/>
</g>
<!-- Node9 -->
<g id="node9" class="node">
<title>Node9</title>
<g id="a_node9"><a xlink:href="classL4virtio_1_1Driver_1_1Virtqueue.html#a8b7ef703e8e55d889419f43dc28dd40e" target="_top" xlink:title="Initialize this virtqueue.">
<polygon fill="white" stroke="black" points="179,-176.5 179,-206.5 322,-206.5 322,-176.5 179,-176.5"/>
<text text-anchor="start" x="187" y="-194.5" font-family="Helvetica,sans-Serif" font-size="10.00">L4virtio::Driver::Virtqueue</text>
<text text-anchor="middle" x="250.5" y="-183.5" font-family="Helvetica,sans-Serif" font-size="10.00">::init_queue</text>
</a>
</g>
</g>
<!-- Node1&#45;&gt;Node9 -->
<g id="edge11" class="edge">
<title>Node1&#45;&gt;Node9</title>
<path fill="none" stroke="midnightblue" d="M596.29,-233.08C576.21,-222.18 546.75,-208.01 519,-201.5 453.51,-186.13 376.56,-184.94 322.04,-186.82"/>
<polygon fill="midnightblue" stroke="midnightblue" points="594.65,-236.17 605.09,-237.97 598.05,-230.05 594.65,-236.17"/>
</g>
<!-- Node10 -->
<g id="node10" class="node">
<title>Node10</title>
<g id="a_node10"><a xlink:href="classL4virtio_1_1Driver_1_1Virtqueue.html#ac31099e5abf48745f518aed17b1dee54" target="_top" xlink:title="Initialize the descriptor table and the index structures of this queue.">
<polygon fill="white" stroke="black" points="367,-122.5 367,-152.5 510,-152.5 510,-122.5 367,-122.5"/>
<text text-anchor="start" x="375" y="-140.5" font-family="Helvetica,sans-Serif" font-size="10.00">L4virtio::Driver::Virtqueue</text>
<text text-anchor="middle" x="438.5" y="-129.5" font-family="Helvetica,sans-Serif" font-size="10.00">::initialize_rings</text>
</a>
</g>
</g>
<!-- Node1&#45;&gt;Node10 -->
<g id="edge13" class="edge">
<title>Node1&#45;&gt;Node10</title>
<path fill="none" stroke="midnightblue" d="M603.59,-231.11C584.17,-213.52 551.26,-185.67 519,-167.5 508.97,-161.85 497.68,-156.86 486.82,-152.65"/>
<polygon fill="midnightblue" stroke="midnightblue" points="601.31,-233.77 611.04,-237.96 606.04,-228.62 601.31,-233.77"/>
</g>
<!-- Node11 -->
<g id="node11" class="node">
<title>Node11</title>
<g id="a_node11"><a xlink:href="classL4virtio_1_1Driver_1_1Block__device.html#a9f1a7a08e90ca6c1441bd48abc8b574a" target="_top" xlink:title="Process and free all items in the used queue.">
<polygon fill="white" stroke="black" points="358,-73.5 358,-103.5 519,-103.5 519,-73.5 358,-73.5"/>
<text text-anchor="start" x="366" y="-91.5" font-family="Helvetica,sans-Serif" font-size="10.00">L4virtio::Driver::Block</text>
<text text-anchor="middle" x="438.5" y="-80.5" font-family="Helvetica,sans-Serif" font-size="10.00">_device::process_used_queue</text>
</a>
</g>
</g>
<!-- Node1&#45;&gt;Node11 -->
<g id="edge15" class="edge">
<title>Node1&#45;&gt;Node11</title>
<path fill="none" stroke="midnightblue" d="M611.62,-228.71C596.23,-199.74 562.87,-144.32 519,-113.5 513.55,-109.67 507.5,-106.42 501.23,-103.65"/>
<polygon fill="midnightblue" stroke="midnightblue" points="608.61,-230.49 616.31,-237.77 614.82,-227.28 608.61,-230.49"/>
</g>
<!-- Node12 -->
<g id="node12" class="node">
<title>Node12</title>
<g id="a_node12"><a xlink:href="classL4virtio_1_1Virtqueue.html#a109ea5677dd074df1d2c6a06056c7d82" target="_top" xlink:title="Enable this queue.">
<polygon fill="white" stroke="black" points="385,-210.5 385,-240.5 492,-240.5 492,-210.5 385,-210.5"/>
<text text-anchor="start" x="393" y="-228.5" font-family="Helvetica,sans-Serif" font-size="10.00">L4virtio::Virtqueue</text>
<text text-anchor="middle" x="438.5" y="-217.5" font-family="Helvetica,sans-Serif" font-size="10.00">::setup</text>
</a>
</g>
</g>
<!-- Node1&#45;&gt;Node12 -->
<g id="edge16" class="edge">
<title>Node1&#45;&gt;Node12</title>
<path fill="none" stroke="midnightblue" d="M544.66,-238.25C526.97,-236.1 508.53,-233.87 492.13,-231.88"/>
<polygon fill="midnightblue" stroke="midnightblue" points="544.61,-241.77 554.96,-239.5 545.45,-234.82 544.61,-241.77"/>
</g>
<!-- Node13 -->
<g id="node13" class="node">
<title>Node13</title>
<g id="a_node13"><a xlink:href="classL4virtio_1_1Svr_1_1Request__processor.html#abcf6a6b8bf80e0d73d45b5eb9e817abd" target="_top" xlink:title="Start processing a new request.">
<polygon fill="white" stroke="black" points="378,-24.5 378,-54.5 499,-54.5 499,-24.5 378,-24.5"/>
<text text-anchor="start" x="386" y="-42.5" font-family="Helvetica,sans-Serif" font-size="10.00">L4virtio::Svr::Request</text>
<text text-anchor="middle" x="438.5" y="-31.5" font-family="Helvetica,sans-Serif" font-size="10.00">_processor::start</text>
</a>
</g>
</g>
<!-- Node1&#45;&gt;Node13 -->
<g id="edge21" class="edge">
<title>Node1&#45;&gt;Node13</title>
<path fill="none" stroke="midnightblue" d="M615.63,-228.1C604.25,-190.6 574.11,-107.96 519,-63.5 513.17,-58.79 506.42,-55.01 499.38,-51.96"/>
<polygon fill="midnightblue" stroke="midnightblue" points="612.3,-229.18 618.46,-237.8 619.02,-227.22 612.3,-229.18"/>
</g>
<!-- Node16 -->
<g id="node16" class="node">
<title>Node16</title>
<g id="a_node16"><a xlink:href="classL4virtio_1_1Virtqueue.html#a7747ac81d7fd21e1e55e43c2e7ead2ea" target="_top" xlink:title="Calculate the size of the used ring for num entries.">
<polygon fill="white" stroke="black" points="385,-396.5 385,-426.5 492,-426.5 492,-396.5 385,-396.5"/>
<text text-anchor="start" x="393" y="-414.5" font-family="Helvetica,sans-Serif" font-size="10.00">L4virtio::Virtqueue</text>
<text text-anchor="middle" x="438.5" y="-403.5" font-family="Helvetica,sans-Serif" font-size="10.00">::used_size</text>
</a>
</g>
</g>
<!-- Node1&#45;&gt;Node16 -->
<g id="edge25" class="edge">
<title>Node1&#45;&gt;Node16</title>
<path fill="none" stroke="midnightblue" d="M612.3,-266.37C597.46,-296.48 564.39,-355.29 519,-387.5 511,-393.17 501.65,-397.53 492.22,-400.86"/>
<polygon fill="midnightblue" stroke="midnightblue" points="615.47,-267.86 616.63,-257.33 609.15,-264.84 615.47,-267.86"/>
</g>
<!-- Node3 -->
<g id="node3" class="node">
<title>Node3</title>
<g id="a_node3"><a xlink:href="classL4virtio_1_1Svr_1_1Device__t.html#ab906b4cc61026fd815a8056f07bef10e" target="_top" xlink:title="Enable/disable the specified queue.">
<polygon fill="white" stroke="black" points="193,-303.5 193,-333.5 308,-333.5 308,-303.5 193,-303.5"/>
<text text-anchor="start" x="201" y="-321.5" font-family="Helvetica,sans-Serif" font-size="10.00">L4virtio::Svr::Device</text>
<text text-anchor="middle" x="250.5" y="-310.5" font-family="Helvetica,sans-Serif" font-size="10.00">_t::setup_queue</text>
</a>
</g>
</g>
<!-- Node2&#45;&gt;Node3 -->
<g id="edge2" class="edge">
<title>Node2&#45;&gt;Node3</title>
<path fill="none" stroke="midnightblue" d="M374.94,-347.7C353.29,-342.58 329.15,-336.87 308.01,-331.87"/>
<polygon fill="midnightblue" stroke="midnightblue" points="374.16,-351.11 384.7,-350.01 375.77,-344.3 374.16,-351.11"/>
</g>
<!-- Node2&#45;&gt;Node4 -->
<g id="edge3" class="edge">
<title>Node2&#45;&gt;Node4</title>
<path fill="none" stroke="midnightblue" d="M375.08,-347.63C369.08,-345.04 363.27,-342.02 358,-338.5 336.99,-324.46 342.67,-309.04 322,-294.5 316.58,-290.69 310.53,-287.41 304.3,-284.59"/>
<polygon fill="midnightblue" stroke="midnightblue" points="374.03,-350.98 384.62,-351.35 376.57,-344.46 374.03,-350.98"/>
</g>
<!-- Node2&#45;&gt;Node6 -->
<g id="edge5" class="edge">
<title>Node2&#45;&gt;Node6</title>
<path fill="none" stroke="midnightblue" d="M374.41,-364.2C351.54,-364.81 325.98,-365.5 304.11,-366.09"/>
<polygon fill="midnightblue" stroke="midnightblue" points="374.8,-367.69 384.7,-363.92 374.61,-360.69 374.8,-367.69"/>
</g>
<!-- Node5 -->
<g id="node5" class="node">
<title>Node5</title>
<g id="a_node5"><a xlink:href="classL4virtio_1_1Driver_1_1Virtqueue.html#a285bae271e6acfe9c5bfa3df388c6b17" target="_top" xlink:title="Initialize this virtqueue.">
<polygon fill="white" stroke="black" points="0,-254.5 0,-284.5 143,-284.5 143,-254.5 0,-254.5"/>
<text text-anchor="start" x="8" y="-272.5" font-family="Helvetica,sans-Serif" font-size="10.00">L4virtio::Driver::Virtqueue</text>
<text text-anchor="middle" x="71.5" y="-261.5" font-family="Helvetica,sans-Serif" font-size="10.00">::init_queue</text>
</a>
</g>
</g>
<!-- Node4&#45;&gt;Node5 -->
<g id="edge4" class="edge">
<title>Node4&#45;&gt;Node5</title>
<path fill="none" stroke="midnightblue" d="M186.81,-269.5C172.72,-269.5 157.67,-269.5 143.28,-269.5"/>
<polygon fill="midnightblue" stroke="midnightblue" points="186.87,-273 196.87,-269.5 186.87,-266 186.87,-273"/>
</g>
<!-- Node7 -->
<g id="node7" class="node">
<title>Node7</title>
<g id="a_node7"><a xlink:href="classL4virtio_1_1Driver_1_1Block__device.html#a688df51bdec4ba327a6c0b48a83a115a" target="_top" xlink:title="Setup a connection to a device and set up shared memory.">
<polygon fill="white" stroke="black" points="9,-186.5 9,-216.5 134,-216.5 134,-186.5 9,-186.5"/>
<text text-anchor="start" x="17" y="-204.5" font-family="Helvetica,sans-Serif" font-size="10.00">L4virtio::Driver::Block</text>
<text text-anchor="middle" x="71.5" y="-193.5" font-family="Helvetica,sans-Serif" font-size="10.00">_device::setup_device</text>
</a>
</g>
</g>
<!-- Node6&#45;&gt;Node7 -->
<g id="edge6" class="edge">
<title>Node6&#45;&gt;Node7</title>
<path fill="none" stroke="midnightblue" d="M187.91,-350.58C184.71,-348.49 181.7,-346.14 179,-343.5 145.8,-311.08 172.26,-281.51 143,-245.5 133.26,-233.52 119.35,-223.87 106.45,-216.69"/>
<polygon fill="midnightblue" stroke="midnightblue" points="186.34,-353.71 196.77,-355.53 189.75,-347.6 186.34,-353.71"/>
</g>
<!-- Node8&#45;&gt;Node3 -->
<g id="edge8" class="edge">
<title>Node8&#45;&gt;Node3</title>
<path fill="none" stroke="midnightblue" d="M374.65,-315.19C353.07,-315.77 329.06,-316.42 308.01,-316.98"/>
<polygon fill="midnightblue" stroke="midnightblue" points="374.8,-318.69 384.7,-314.92 374.61,-311.69 374.8,-318.69"/>
</g>
<!-- Node8&#45;&gt;Node4 -->
<g id="edge9" class="edge">
<title>Node8&#45;&gt;Node4</title>
<path fill="none" stroke="midnightblue" d="M374.71,-298.65C351.77,-293.22 326.08,-287.14 304.11,-281.95"/>
<polygon fill="midnightblue" stroke="midnightblue" points="374.16,-302.11 384.7,-301.01 375.77,-295.3 374.16,-302.11"/>
</g>
<!-- Node8&#45;&gt;Node6 -->
<g id="edge10" class="edge">
<title>Node8&#45;&gt;Node6</title>
<path fill="none" stroke="midnightblue" d="M375.83,-331.4C352.34,-338.22 325.84,-345.92 303.36,-352.45"/>
<polygon fill="midnightblue" stroke="midnightblue" points="377.06,-334.69 385.69,-328.54 375.11,-327.97 377.06,-334.69"/>
</g>
<!-- Node9&#45;&gt;Node7 -->
<g id="edge12" class="edge">
<title>Node9&#45;&gt;Node7</title>
<path fill="none" stroke="midnightblue" d="M168.68,-196.07C157.12,-196.72 145.37,-197.38 134.25,-198.01"/>
<polygon fill="midnightblue" stroke="midnightblue" points="169,-199.55 178.78,-195.5 168.6,-192.57 169,-199.55"/>
</g>
<!-- Node10&#45;&gt;Node9 -->
<g id="edge14" class="edge">
<title>Node10&#45;&gt;Node9</title>
<path fill="none" stroke="midnightblue" d="M375.83,-155.4C352.34,-162.22 325.84,-169.92 303.36,-176.45"/>
<polygon fill="midnightblue" stroke="midnightblue" points="377.06,-158.69 385.69,-152.54 375.11,-151.97 377.06,-158.69"/>
</g>
<!-- Node12&#45;&gt;Node3 -->
<g id="edge18" class="edge">
<title>Node12&#45;&gt;Node3</title>
<path fill="none" stroke="midnightblue" d="M406.73,-246.31C384.01,-261.07 351.94,-280.65 322,-294.5 315.08,-297.7 307.6,-300.7 300.19,-303.43"/>
<polygon fill="midnightblue" stroke="midnightblue" points="408.83,-249.13 415.26,-240.71 404.98,-243.27 408.83,-249.13"/>
</g>
<!-- Node12&#45;&gt;Node4 -->
<g id="edge19" class="edge">
<title>Node12&#45;&gt;Node4</title>
<path fill="none" stroke="midnightblue" d="M374.71,-240.35C351.77,-245.78 326.08,-251.86 304.11,-257.05"/>
<polygon fill="midnightblue" stroke="midnightblue" points="375.77,-243.7 384.7,-237.99 374.16,-236.89 375.77,-243.7"/>
</g>
<!-- Node12&#45;&gt;Node9 -->
<g id="edge17" class="edge">
<title>Node12&#45;&gt;Node9</title>
<path fill="none" stroke="midnightblue" d="M374.44,-213.97C357.62,-210.9 339.35,-207.56 322.15,-204.42"/>
<polygon fill="midnightblue" stroke="midnightblue" points="374.23,-217.49 384.7,-215.85 375.49,-210.61 374.23,-217.49"/>
</g>
<!-- Node14 -->
<g id="node14" class="node">
<title>Node14</title>
<g id="a_node14"><a xlink:href="classL4virtio_1_1Svr_1_1Block__request.html#a5f6bf664cda7dfe4f82d8726f6c33099" target="_top" xlink:title="Compute the total size of the data in the request.">
<polygon fill="white" stroke="black" points="195,-49.5 195,-79.5 306,-79.5 306,-49.5 195,-49.5"/>
<text text-anchor="start" x="203" y="-67.5" font-family="Helvetica,sans-Serif" font-size="10.00">L4virtio::Svr::Block</text>
<text text-anchor="middle" x="250.5" y="-56.5" font-family="Helvetica,sans-Serif" font-size="10.00">_request::data_size</text>
</a>
</g>
</g>
<!-- Node13&#45;&gt;Node14 -->
<g id="edge22" class="edge">
<title>Node13&#45;&gt;Node14</title>
<path fill="none" stroke="midnightblue" d="M367.71,-48.88C347.32,-51.62 325.35,-54.57 306.05,-57.17"/>
<polygon fill="midnightblue" stroke="midnightblue" points="368.44,-52.31 377.88,-47.51 367.5,-45.38 368.44,-52.31"/>
</g>
<!-- Node15 -->
<g id="node15" class="node">
<title>Node15</title>
<g id="a_node15"><a xlink:href="classL4virtio_1_1Svr_1_1Request__processor.html#af77e99c87758a89ebf4ec2038d996ee1" target="_top" xlink:title="Start processing a new request.">
<polygon fill="white" stroke="black" points="190,-0.5 190,-30.5 311,-30.5 311,-0.5 190,-0.5"/>
<text text-anchor="start" x="198" y="-18.5" font-family="Helvetica,sans-Serif" font-size="10.00">L4virtio::Svr::Request</text>
<text text-anchor="middle" x="250.5" y="-7.5" font-family="Helvetica,sans-Serif" font-size="10.00">_processor::start</text>
</a>
</g>
</g>
<!-- Node13&#45;&gt;Node15 -->
<g id="edge23" class="edge">
<title>Node13&#45;&gt;Node15</title>
<path fill="none" stroke="midnightblue" d="M367.95,-30.53C349.25,-28.11 329.2,-25.53 311.1,-23.19"/>
<polygon fill="midnightblue" stroke="midnightblue" points="367.52,-34 377.88,-31.81 368.41,-27.06 367.52,-34"/>
</g>
<!-- Node16&#45;&gt;Node3 -->
<g id="edge26" class="edge">
<title>Node16&#45;&gt;Node3</title>
<path fill="none" stroke="midnightblue" d="M375.08,-396.63C369.08,-394.04 363.27,-391.02 358,-387.5 336.99,-373.46 342.67,-358.04 322,-343.5 316.58,-339.69 310.53,-336.41 304.3,-333.59"/>
<polygon fill="midnightblue" stroke="midnightblue" points="374.03,-399.98 384.62,-400.35 376.57,-393.46 374.03,-399.98"/>
</g>
<!-- Node16&#45;&gt;Node6 -->
<g id="edge27" class="edge">
<title>Node16&#45;&gt;Node6</title>
<path fill="none" stroke="midnightblue" d="M374.71,-396.65C351.77,-391.22 326.08,-385.14 304.11,-379.95"/>
<polygon fill="midnightblue" stroke="midnightblue" points="374.16,-400.11 384.7,-399.01 375.77,-393.3 374.16,-400.11"/>
</g>
</g>
</svg>
