<?xml version="1.0" encoding="UTF-8" standalone="no"?>
<!DOCTYPE svg PUBLIC "-//W3C//DTD SVG 1.1//EN"
 "http://www.w3.org/Graphics/SVG/1.1/DTD/svg11.dtd">
<!-- Generated by graphviz version 2.43.0 (0)
 -->
<!-- Title: L4Re::Video::Pixel_info::padding Pages: 1 -->
<svg width="254pt" height="88pt"
 viewBox="0.00 0.00 254.00 88.00" xmlns="http://www.w3.org/2000/svg" xmlns:xlink="http://www.w3.org/1999/xlink">
<g id="graph0" class="graph" transform="scale(1 1) rotate(0) translate(4 84)">
<title>L4Re::Video::Pixel_info::padding</title>
<polygon fill="white" stroke="transparent" points="-4,4 -4,-84 250,-84 250,4 -4,4"/>
<!-- Node1 -->
<g id="node1" class="node">
<title>Node1</title>
<g id="a_node1"><a xlink:title="Compute the padding pseudo component.">
<polygon fill="#bfbfbf" stroke="black" points="0,-24.5 0,-54.5 104,-54.5 104,-24.5 0,-24.5"/>
<text text-anchor="start" x="8" y="-42.5" font-family="Helvetica,sans-Serif" font-size="10.00">L4Re::Video::Pixel</text>
<text text-anchor="middle" x="52" y="-31.5" font-family="Helvetica,sans-Serif" font-size="10.00">_info::padding</text>
</a>
</g>
</g>
<!-- Node2 -->
<g id="node2" class="node">
<title>Node2</title>
<g id="a_node2"><a xlink:href="classL4Re_1_1Video_1_1Color__component.html#adc0b10eeea765f27a518d68085f8ae58" target="_top" xlink:title="Return the position of the component in the pixel.">
<polygon fill="white" stroke="black" points="140,-49.5 140,-79.5 246,-79.5 246,-49.5 140,-49.5"/>
<text text-anchor="start" x="148" y="-67.5" font-family="Helvetica,sans-Serif" font-size="10.00">L4Re::Video::Color</text>
<text text-anchor="middle" x="193" y="-56.5" font-family="Helvetica,sans-Serif" font-size="10.00">_component::shift</text>
</a>
</g>
</g>
<!-- Node1&#45;&gt;Node2 -->
<g id="edge1" class="edge">
<title>Node1&#45;&gt;Node2</title>
<path fill="none" stroke="midnightblue" d="M104.36,-48.74C112.7,-50.24 121.41,-51.8 129.97,-53.34"/>
<polygon fill="midnightblue" stroke="midnightblue" points="129.46,-56.81 139.92,-55.13 130.7,-49.92 129.46,-56.81"/>
</g>
<!-- Node3 -->
<g id="node3" class="node">
<title>Node3</title>
<g id="a_node3"><a xlink:href="classL4Re_1_1Video_1_1Color__component.html#a68a69675b5ce76aba3ebdec992b297b5" target="_top" xlink:title="Return the number of bits used by the component.">
<polygon fill="white" stroke="black" points="140,-0.5 140,-30.5 246,-30.5 246,-0.5 140,-0.5"/>
<text text-anchor="start" x="148" y="-18.5" font-family="Helvetica,sans-Serif" font-size="10.00">L4Re::Video::Color</text>
<text text-anchor="middle" x="193" y="-7.5" font-family="Helvetica,sans-Serif" font-size="10.00">_component::size</text>
</a>
</g>
</g>
<!-- Node1&#45;&gt;Node3 -->
<g id="edge2" class="edge">
<title>Node1&#45;&gt;Node3</title>
<path fill="none" stroke="midnightblue" d="M104.36,-30.63C112.7,-29.19 121.41,-27.69 129.97,-26.21"/>
<polygon fill="midnightblue" stroke="midnightblue" points="130.66,-29.64 139.92,-24.49 129.47,-22.75 130.66,-29.64"/>
</g>
</g>
</svg>
