<?xml version="1.0" encoding="UTF-8" standalone="no"?>
<!DOCTYPE svg PUBLIC "-//W3C//DTD SVG 1.1//EN"
 "http://www.w3.org/Graphics/SVG/1.1/DTD/svg11.dtd">
<!-- Generated by graphviz version 2.43.0 (0)
 -->
<!-- Title: L4::Platform_control Pages: 1 -->
<svg width="323pt" height="387pt"
 viewBox="0.00 0.00 323.00 387.00" xmlns="http://www.w3.org/2000/svg" xmlns:xlink="http://www.w3.org/1999/xlink">
<g id="graph0" class="graph" transform="scale(1 1) rotate(0) translate(4 383)">
<title>L4::Platform_control</title>
<polygon fill="white" stroke="transparent" points="-4,4 -4,-383 319,-383 319,4 -4,4"/>
<!-- Node1 -->
<g id="node1" class="node">
<title>Node1</title>
<g id="a_node1"><a xlink:title="L4 C++ interface for controlling platform&#45;wide properties, see Platform Control C API for the C inter...">
<polygon fill="#bfbfbf" stroke="black" points="43.5,-0.5 43.5,-101.5 180.5,-101.5 180.5,-0.5 43.5,-0.5"/>
<text text-anchor="middle" x="112" y="-89.5" font-family="Helvetica,sans-Serif" font-size="10.00">L4::Platform_control</text>
<polyline fill="none" stroke="black" points="43.5,-82.5 180.5,-82.5 "/>
<text text-anchor="middle" x="112" y="-70.5" font-family="Helvetica,sans-Serif" font-size="10.00"> </text>
<polyline fill="none" stroke="black" points="43.5,-63.5 180.5,-63.5 "/>
<text text-anchor="start" x="51.5" y="-51.5" font-family="Helvetica,sans-Serif" font-size="10.00">+ system_suspend()</text>
<text text-anchor="start" x="51.5" y="-40.5" font-family="Helvetica,sans-Serif" font-size="10.00">+ system_shutdown()</text>
<text text-anchor="start" x="51.5" y="-29.5" font-family="Helvetica,sans-Serif" font-size="10.00">+ cpu_allow_shutdown()</text>
<text text-anchor="start" x="51.5" y="-18.5" font-family="Helvetica,sans-Serif" font-size="10.00">+ cpu_enable()</text>
<text text-anchor="start" x="51.5" y="-7.5" font-family="Helvetica,sans-Serif" font-size="10.00">+ cpu_disable()</text>
</a>
</g>
</g>
<!-- Node2 -->
<g id="node2" class="node">
<title>Node2</title>
<g id="a_node2"><a xlink:href="classL4_1_1Kobject__t.html" target="_top" xlink:title=" ">
<polygon fill="white" stroke="black" points="37.5,-139.5 37.5,-229.5 186.5,-229.5 186.5,-139.5 37.5,-139.5"/>
<text text-anchor="start" x="45.5" y="-217.5" font-family="Helvetica,sans-Serif" font-size="10.00">L4::Kobject_t&lt; Platform</text>
<text text-anchor="start" x="45.5" y="-206.5" font-family="Helvetica,sans-Serif" font-size="10.00">_control, Kobject, L4</text>
<text text-anchor="middle" x="112" y="-195.5" font-family="Helvetica,sans-Serif" font-size="10.00">_PROTO_PLATFORM_CTL &gt;</text>
<polyline fill="none" stroke="black" points="37.5,-188.5 186.5,-188.5 "/>
<text text-anchor="middle" x="112" y="-176.5" font-family="Helvetica,sans-Serif" font-size="10.00"> </text>
<polyline fill="none" stroke="black" points="37.5,-169.5 186.5,-169.5 "/>
<text text-anchor="start" x="45.5" y="-157.5" font-family="Helvetica,sans-Serif" font-size="10.00"># c()</text>
<text text-anchor="start" x="45.5" y="-146.5" font-family="Helvetica,sans-Serif" font-size="10.00"># __check_protocols__()</text>
</a>
</g>
</g>
<!-- Node2&#45;&gt;Node1 -->
<g id="edge1" class="edge">
<title>Node2&#45;&gt;Node1</title>
<path fill="none" stroke="midnightblue" d="M112,-129.22C112,-120.11 112,-110.69 112,-101.7"/>
<polygon fill="none" stroke="midnightblue" points="108.5,-129.35 112,-139.35 115.5,-129.35 108.5,-129.35"/>
</g>
<!-- Node3 -->
<g id="node3" class="node">
<title>Node3</title>
<g id="a_node3"><a xlink:href="classL4_1_1Kobject.html" target="_top" xlink:title="Base class for all kinds of kernel objects and remote objects, referenced by capabilities.">
<polygon fill="white" stroke="black" points="0,-305 0,-373 86,-373 86,-305 0,-305"/>
<text text-anchor="middle" x="43" y="-361" font-family="Helvetica,sans-Serif" font-size="10.00">L4::Kobject</text>
<polyline fill="none" stroke="black" points="0,-354 86,-354 "/>
<text text-anchor="middle" x="43" y="-342" font-family="Helvetica,sans-Serif" font-size="10.00"> </text>
<polyline fill="none" stroke="black" points="0,-335 86,-335 "/>
<text text-anchor="start" x="8" y="-323" font-family="Helvetica,sans-Serif" font-size="10.00">+ dec_refcnt()</text>
<text text-anchor="start" x="8" y="-312" font-family="Helvetica,sans-Serif" font-size="10.00"># cap()</text>
</a>
</g>
</g>
<!-- Node3&#45;&gt;Node2 -->
<g id="edge2" class="edge">
<title>Node3&#45;&gt;Node2</title>
<path fill="none" stroke="midnightblue" d="M62.11,-295.76C71.44,-275.15 82.65,-250.37 92.08,-229.53"/>
<polygon fill="none" stroke="midnightblue" points="58.91,-294.36 57.97,-304.91 65.28,-297.24 58.91,-294.36"/>
</g>
<!-- Node4 -->
<g id="node4" class="node">
<title>Node4</title>
<g id="a_node4"><a xlink:href="classL4_1_1Kobject__t.html" target="_top" xlink:title="Helper class to create an L4Re interface class that is derived from a single base class.">
<polygon fill="white" stroke="black" points="104,-299.5 104,-378.5 260,-378.5 260,-299.5 104,-299.5"/>
<text text-anchor="start" x="112" y="-366.5" font-family="Helvetica,sans-Serif" font-size="10.00">L4::Kobject_t&lt; Derived,</text>
<text text-anchor="middle" x="182" y="-355.5" font-family="Helvetica,sans-Serif" font-size="10.00"> Base, PROTO, S_DEMAND &gt;</text>
<polyline fill="none" stroke="black" points="104,-348.5 260,-348.5 "/>
<text text-anchor="middle" x="182" y="-336.5" font-family="Helvetica,sans-Serif" font-size="10.00"> </text>
<polyline fill="none" stroke="black" points="104,-329.5 260,-329.5 "/>
<text text-anchor="start" x="112" y="-317.5" font-family="Helvetica,sans-Serif" font-size="10.00"># c()</text>
<text text-anchor="start" x="112" y="-306.5" font-family="Helvetica,sans-Serif" font-size="10.00"># __check_protocols__()</text>
</a>
</g>
</g>
<!-- Node4&#45;&gt;Node2 -->
<g id="edge3" class="edge">
<title>Node4&#45;&gt;Node2</title>
<path fill="none" stroke="orange" d="M159.93,-289.91C151.08,-270.64 140.95,-248.57 132.29,-229.7"/>
<polygon fill="orange" stroke="orange" points="156.8,-291.5 164.15,-299.12 163.16,-288.57 156.8,-291.5"/>
<text text-anchor="start" x="155" y="-273" font-family="Helvetica,sans-Serif" font-size="10.00"> &lt; Platform_control,</text>
<text text-anchor="start" x="155" y="-262" font-family="Helvetica,sans-Serif" font-size="10.00"> Kobject, L4_PROTO_PLATFORM_</text>
<text text-anchor="middle" x="235" y="-251" font-family="Helvetica,sans-Serif" font-size="10.00">CTL &gt;</text>
</g>
</g>
</svg>
