<?xml version="1.0" encoding="UTF-8" standalone="no"?>
<!DOCTYPE svg PUBLIC "-//W3C//DTD SVG 1.1//EN"
 "http://www.w3.org/Graphics/SVG/1.1/DTD/svg11.dtd">
<!-- Generated by graphviz version 2.43.0 (0)
 -->
<!-- Title: L4virtio::Virtqueue::used_size Pages: 1 -->
<svg width="427pt" height="88pt"
 viewBox="0.00 0.00 427.00 88.00" xmlns="http://www.w3.org/2000/svg" xmlns:xlink="http://www.w3.org/1999/xlink">
<g id="graph0" class="graph" transform="scale(1 1) rotate(0) translate(4 84)">
<title>L4virtio::Virtqueue::used_size</title>
<polygon fill="white" stroke="transparent" points="-4,4 -4,-84 423,-84 423,4 -4,4"/>
<!-- Node1 -->
<g id="node1" class="node">
<title>Node1</title>
<g id="a_node1"><a xlink:title="Calculate the size of the used ring for num entries.">
<polygon fill="#bfbfbf" stroke="black" points="312,-24.5 312,-54.5 419,-54.5 419,-24.5 312,-24.5"/>
<text text-anchor="start" x="320" y="-42.5" font-family="Helvetica,sans-Serif" font-size="10.00">L4virtio::Virtqueue</text>
<text text-anchor="middle" x="365.5" y="-31.5" font-family="Helvetica,sans-Serif" font-size="10.00">::used_size</text>
</a>
</g>
</g>
<!-- Node2 -->
<g id="node2" class="node">
<title>Node2</title>
<g id="a_node2"><a xlink:href="classL4virtio_1_1Svr_1_1Device__t.html#ab906b4cc61026fd815a8056f07bef10e" target="_top" xlink:title="Enable/disable the specified queue.">
<polygon fill="white" stroke="black" points="161,-49.5 161,-79.5 276,-79.5 276,-49.5 161,-49.5"/>
<text text-anchor="start" x="169" y="-67.5" font-family="Helvetica,sans-Serif" font-size="10.00">L4virtio::Svr::Device</text>
<text text-anchor="middle" x="218.5" y="-56.5" font-family="Helvetica,sans-Serif" font-size="10.00">_t::setup_queue</text>
</a>
</g>
</g>
<!-- Node1&#45;&gt;Node2 -->
<g id="edge1" class="edge">
<title>Node1&#45;&gt;Node2</title>
<path fill="none" stroke="midnightblue" d="M301.62,-50.34C293.23,-51.79 284.66,-53.27 276.38,-54.69"/>
<polygon fill="midnightblue" stroke="midnightblue" points="302.48,-53.74 311.74,-48.6 301.29,-46.85 302.48,-53.74"/>
</g>
<!-- Node3 -->
<g id="node3" class="node">
<title>Node3</title>
<g id="a_node3"><a xlink:href="classL4virtio_1_1Virtqueue.html#a6f8cdc52ebe6322c3023e05e0e055293" target="_top" xlink:title="Calculate the total size for a virtqueue of the given dimensions.">
<polygon fill="white" stroke="black" points="165,-0.5 165,-30.5 272,-30.5 272,-0.5 165,-0.5"/>
<text text-anchor="start" x="173" y="-18.5" font-family="Helvetica,sans-Serif" font-size="10.00">L4virtio::Virtqueue</text>
<text text-anchor="middle" x="218.5" y="-7.5" font-family="Helvetica,sans-Serif" font-size="10.00">::total_size</text>
</a>
</g>
</g>
<!-- Node1&#45;&gt;Node3 -->
<g id="edge2" class="edge">
<title>Node1&#45;&gt;Node3</title>
<path fill="none" stroke="midnightblue" d="M301.7,-29.11C291.95,-27.49 281.96,-25.84 272.46,-24.27"/>
<polygon fill="midnightblue" stroke="midnightblue" points="301.3,-32.59 311.74,-30.77 302.45,-25.68 301.3,-32.59"/>
</g>
<!-- Node4 -->
<g id="node4" class="node">
<title>Node4</title>
<g id="a_node4"><a xlink:href="classL4virtio_1_1Driver_1_1Block__device.html#a688df51bdec4ba327a6c0b48a83a115a" target="_top" xlink:title="Setup a connection to a device and set up shared memory.">
<polygon fill="white" stroke="black" points="0,-0.5 0,-30.5 125,-30.5 125,-0.5 0,-0.5"/>
<text text-anchor="start" x="8" y="-18.5" font-family="Helvetica,sans-Serif" font-size="10.00">L4virtio::Driver::Block</text>
<text text-anchor="middle" x="62.5" y="-7.5" font-family="Helvetica,sans-Serif" font-size="10.00">_device::setup_device</text>
</a>
</g>
</g>
<!-- Node3&#45;&gt;Node4 -->
<g id="edge3" class="edge">
<title>Node3&#45;&gt;Node4</title>
<path fill="none" stroke="midnightblue" d="M154.85,-15.5C145.04,-15.5 134.91,-15.5 125.12,-15.5"/>
<polygon fill="midnightblue" stroke="midnightblue" points="154.93,-19 164.93,-15.5 154.93,-12 154.93,-19"/>
</g>
</g>
</svg>
