<?xml version="1.0" encoding="UTF-8" standalone="no"?>
<!DOCTYPE svg PUBLIC "-//W3C//DTD SVG 1.1//EN"
 "http://www.w3.org/Graphics/SVG/1.1/DTD/svg11.dtd">
<!-- Generated by graphviz version 2.43.0 (0)
 -->
<!-- Title: L4::Server&lt; LOOP_HOOKS &gt; Pages: 1 -->
<svg width="542pt" height="936pt"
 viewBox="0.00 0.00 542.00 936.00" xmlns="http://www.w3.org/2000/svg" xmlns:xlink="http://www.w3.org/1999/xlink">
<g id="graph0" class="graph" transform="scale(1 1) rotate(0) translate(4 932)">
<title>L4::Server&lt; LOOP_HOOKS &gt;</title>
<polygon fill="white" stroke="transparent" points="-4,4 -4,-932 538,-932 538,4 -4,4"/>
<!-- Node1 -->
<g id="node1" class="node">
<title>Node1</title>
<g id="a_node1"><a xlink:title="Basic server loop for handling client requests.">
<polygon fill="#bfbfbf" stroke="black" points="169,-343.5 169,-455.5 324,-455.5 324,-343.5 169,-343.5"/>
<text text-anchor="middle" x="246.5" y="-443.5" font-family="Helvetica,sans-Serif" font-size="10.00">L4::Server&lt; LOOP_HOOKS &gt;</text>
<polyline fill="none" stroke="black" points="169,-436.5 324,-436.5 "/>
<text text-anchor="middle" x="246.5" y="-424.5" font-family="Helvetica,sans-Serif" font-size="10.00"> </text>
<polyline fill="none" stroke="black" points="169,-417.5 324,-417.5 "/>
<text text-anchor="start" x="177" y="-405.5" font-family="Helvetica,sans-Serif" font-size="10.00">+ Server()</text>
<text text-anchor="start" x="177" y="-394.5" font-family="Helvetica,sans-Serif" font-size="10.00">+ Server()</text>
<text text-anchor="start" x="177" y="-383.5" font-family="Helvetica,sans-Serif" font-size="10.00">+ internal_loop()</text>
<text text-anchor="start" x="177" y="-372.5" font-family="Helvetica,sans-Serif" font-size="10.00">+ loop_noexc()</text>
<text text-anchor="start" x="177" y="-361.5" font-family="Helvetica,sans-Serif" font-size="10.00">+ loop()</text>
<text text-anchor="start" x="177" y="-350.5" font-family="Helvetica,sans-Serif" font-size="10.00"># reply_n_wait()</text>
</a>
</g>
</g>
<!-- Node8 -->
<g id="node8" class="node">
<title>Node8</title>
<g id="a_node8"><a xlink:href="classL4_1_1Server.html" target="_top" xlink:title=" ">
<polygon fill="white" stroke="black" points="171,-161.5 171,-284.5 322,-284.5 322,-161.5 171,-161.5"/>
<text text-anchor="start" x="179" y="-272.5" font-family="Helvetica,sans-Serif" font-size="10.00">L4::Server&lt; L4::Ipc</text>
<text text-anchor="middle" x="246.5" y="-261.5" font-family="Helvetica,sans-Serif" font-size="10.00">_svr::Default_loop_hooks &gt;</text>
<polyline fill="none" stroke="black" points="171,-254.5 322,-254.5 "/>
<text text-anchor="middle" x="246.5" y="-242.5" font-family="Helvetica,sans-Serif" font-size="10.00"> </text>
<polyline fill="none" stroke="black" points="171,-235.5 322,-235.5 "/>
<text text-anchor="start" x="179" y="-223.5" font-family="Helvetica,sans-Serif" font-size="10.00">+ Server()</text>
<text text-anchor="start" x="179" y="-212.5" font-family="Helvetica,sans-Serif" font-size="10.00">+ Server()</text>
<text text-anchor="start" x="179" y="-201.5" font-family="Helvetica,sans-Serif" font-size="10.00">+ internal_loop()</text>
<text text-anchor="start" x="179" y="-190.5" font-family="Helvetica,sans-Serif" font-size="10.00">+ loop_noexc()</text>
<text text-anchor="start" x="179" y="-179.5" font-family="Helvetica,sans-Serif" font-size="10.00">+ loop()</text>
<text text-anchor="start" x="179" y="-168.5" font-family="Helvetica,sans-Serif" font-size="10.00"># reply_n_wait()</text>
</a>
</g>
</g>
<!-- Node1&#45;&gt;Node8 -->
<g id="edge7" class="edge">
<title>Node1&#45;&gt;Node8</title>
<path fill="none" stroke="orange" d="M246.5,-333.03C246.5,-317.15 246.5,-300.24 246.5,-284.6"/>
<polygon fill="orange" stroke="orange" points="243,-333.29 246.5,-343.29 250,-333.29 243,-333.29"/>
<text text-anchor="start" x="246.5" y="-317" font-family="Helvetica,sans-Serif" font-size="10.00"> &lt; L4::Ipc_svr::Default</text>
<text text-anchor="middle" x="301" y="-306" font-family="Helvetica,sans-Serif" font-size="10.00">_loop_hooks &gt;</text>
</g>
<!-- Node2 -->
<g id="node2" class="node">
<title>Node2</title>
<g id="a_node2"><a xlink:href="structL4_1_1Ipc__svr_1_1Default__loop__hooks.html" target="_top" xlink:title="Default LOOP_HOOKS.">
<polygon fill="white" stroke="black" points="191.5,-493.5 191.5,-561.5 301.5,-561.5 301.5,-493.5 191.5,-493.5"/>
<text text-anchor="start" x="199.5" y="-549.5" font-family="Helvetica,sans-Serif" font-size="10.00">L4::Ipc_svr::Default</text>
<text text-anchor="middle" x="246.5" y="-538.5" font-family="Helvetica,sans-Serif" font-size="10.00">_loop_hooks</text>
<polyline fill="none" stroke="black" points="191.5,-531.5 301.5,-531.5 "/>
<text text-anchor="middle" x="246.5" y="-519.5" font-family="Helvetica,sans-Serif" font-size="10.00"> </text>
<polyline fill="none" stroke="black" points="191.5,-512.5 301.5,-512.5 "/>
<text text-anchor="middle" x="246.5" y="-500.5" font-family="Helvetica,sans-Serif" font-size="10.00"> </text>
</a>
</g>
</g>
<!-- Node2&#45;&gt;Node1 -->
<g id="edge1" class="edge">
<title>Node2&#45;&gt;Node1</title>
<path fill="none" stroke="midnightblue" d="M246.5,-483.31C246.5,-474.45 246.5,-465.01 246.5,-455.79"/>
<polygon fill="none" stroke="midnightblue" points="243,-483.39 246.5,-493.39 250,-483.4 243,-483.39"/>
</g>
<!-- Node3 -->
<g id="node3" class="node">
<title>Node3</title>
<g id="a_node3"><a xlink:href="structL4_1_1Ipc__svr_1_1Ignore__errors.html" target="_top" xlink:title="Mix in for LOOP_HOOKS to ignore IPC errors.">
<polygon fill="white" stroke="black" points="0,-632.5 0,-700.5 105,-700.5 105,-632.5 0,-632.5"/>
<text text-anchor="start" x="8" y="-688.5" font-family="Helvetica,sans-Serif" font-size="10.00">L4::Ipc_svr::Ignore</text>
<text text-anchor="middle" x="52.5" y="-677.5" font-family="Helvetica,sans-Serif" font-size="10.00">_errors</text>
<polyline fill="none" stroke="black" points="0,-670.5 105,-670.5 "/>
<text text-anchor="middle" x="52.5" y="-658.5" font-family="Helvetica,sans-Serif" font-size="10.00"> </text>
<polyline fill="none" stroke="black" points="0,-651.5 105,-651.5 "/>
<text text-anchor="start" x="8" y="-639.5" font-family="Helvetica,sans-Serif" font-size="10.00">+ error()</text>
</a>
</g>
</g>
<!-- Node3&#45;&gt;Node2 -->
<g id="edge2" class="edge">
<title>Node3&#45;&gt;Node2</title>
<path fill="none" stroke="midnightblue" d="M86.54,-624.69C95.14,-615.64 104.72,-606.52 114.5,-599 137.98,-580.95 166.72,-564.99 191.39,-552.85"/>
<polygon fill="none" stroke="midnightblue" points="83.79,-622.51 79.57,-632.23 88.93,-627.26 83.79,-622.51"/>
</g>
<!-- Node4 -->
<g id="node4" class="node">
<title>Node4</title>
<g id="a_node4"><a xlink:href="structL4_1_1Ipc__svr_1_1Default__timeout.html" target="_top" xlink:title="Mix in for LOOP_HOOKS to use a 0 send and a infinite receive timeout.">
<polygon fill="white" stroke="black" points="123.5,-632.5 123.5,-700.5 233.5,-700.5 233.5,-632.5 123.5,-632.5"/>
<text text-anchor="start" x="131.5" y="-688.5" font-family="Helvetica,sans-Serif" font-size="10.00">L4::Ipc_svr::Default</text>
<text text-anchor="middle" x="178.5" y="-677.5" font-family="Helvetica,sans-Serif" font-size="10.00">_timeout</text>
<polyline fill="none" stroke="black" points="123.5,-670.5 233.5,-670.5 "/>
<text text-anchor="middle" x="178.5" y="-658.5" font-family="Helvetica,sans-Serif" font-size="10.00"> </text>
<polyline fill="none" stroke="black" points="123.5,-651.5 233.5,-651.5 "/>
<text text-anchor="start" x="131.5" y="-639.5" font-family="Helvetica,sans-Serif" font-size="10.00">+ timeout()</text>
</a>
</g>
</g>
<!-- Node4&#45;&gt;Node2 -->
<g id="edge3" class="edge">
<title>Node4&#45;&gt;Node2</title>
<path fill="none" stroke="midnightblue" d="M199.47,-623.24C209.28,-603.5 220.78,-580.32 229.95,-561.83"/>
<polygon fill="none" stroke="midnightblue" points="196.27,-621.82 194.96,-632.34 202.54,-624.93 196.27,-621.82"/>
</g>
<!-- Node5 -->
<g id="node5" class="node">
<title>Node5</title>
<g id="a_node5"><a xlink:href="structL4_1_1Ipc__svr_1_1Compound__reply.html" target="_top" xlink:title="Mix in for LOOP_HOOKS to always use compound reply and wait.">
<polygon fill="white" stroke="black" points="252,-632.5 252,-700.5 379,-700.5 379,-632.5 252,-632.5"/>
<text text-anchor="start" x="260" y="-688.5" font-family="Helvetica,sans-Serif" font-size="10.00">L4::Ipc_svr::Compound</text>
<text text-anchor="middle" x="315.5" y="-677.5" font-family="Helvetica,sans-Serif" font-size="10.00">_reply</text>
<polyline fill="none" stroke="black" points="252,-670.5 379,-670.5 "/>
<text text-anchor="middle" x="315.5" y="-658.5" font-family="Helvetica,sans-Serif" font-size="10.00"> </text>
<polyline fill="none" stroke="black" points="252,-651.5 379,-651.5 "/>
<text text-anchor="start" x="260" y="-639.5" font-family="Helvetica,sans-Serif" font-size="10.00">+ before_reply()</text>
</a>
</g>
</g>
<!-- Node5&#45;&gt;Node2 -->
<g id="edge4" class="edge">
<title>Node5&#45;&gt;Node2</title>
<path fill="none" stroke="midnightblue" d="M294.22,-623.24C284.27,-603.5 272.6,-580.32 263.29,-561.83"/>
<polygon fill="none" stroke="midnightblue" points="291.17,-624.98 298.8,-632.34 297.42,-621.83 291.17,-624.98"/>
</g>
<!-- Node6 -->
<g id="node6" class="node">
<title>Node6</title>
<g id="a_node6"><a xlink:href="classL4_1_1Ipc__svr_1_1Br__manager__no__buffers.html" target="_top" xlink:title="Empty implementation of Server_iface.">
<polygon fill="white" stroke="black" points="397,-599.5 397,-733.5 534,-733.5 534,-599.5 397,-599.5"/>
<text text-anchor="start" x="405" y="-721.5" font-family="Helvetica,sans-Serif" font-size="10.00">L4::Ipc_svr::Br_manager</text>
<text text-anchor="middle" x="465.5" y="-710.5" font-family="Helvetica,sans-Serif" font-size="10.00">_no_buffers</text>
<polyline fill="none" stroke="black" points="397,-703.5 534,-703.5 "/>
<text text-anchor="middle" x="465.5" y="-691.5" font-family="Helvetica,sans-Serif" font-size="10.00"> </text>
<polyline fill="none" stroke="black" points="397,-684.5 534,-684.5 "/>
<text text-anchor="start" x="405" y="-672.5" font-family="Helvetica,sans-Serif" font-size="10.00">+ alloc_buffer_demand()</text>
<text text-anchor="start" x="405" y="-661.5" font-family="Helvetica,sans-Serif" font-size="10.00">+ get_rcv_cap()</text>
<text text-anchor="start" x="405" y="-650.5" font-family="Helvetica,sans-Serif" font-size="10.00">+ realloc_rcv_cap()</text>
<text text-anchor="start" x="405" y="-639.5" font-family="Helvetica,sans-Serif" font-size="10.00">+ add_timeout()</text>
<text text-anchor="start" x="405" y="-628.5" font-family="Helvetica,sans-Serif" font-size="10.00">+ remove_timeout()</text>
<text text-anchor="start" x="405" y="-617.5" font-family="Helvetica,sans-Serif" font-size="10.00"># first_free_br()</text>
<text text-anchor="start" x="405" y="-606.5" font-family="Helvetica,sans-Serif" font-size="10.00"># setup_wait()</text>
</a>
</g>
</g>
<!-- Node6&#45;&gt;Node2 -->
<g id="edge5" class="edge">
<title>Node6&#45;&gt;Node2</title>
<path fill="none" stroke="midnightblue" d="M388.76,-599.17C388.67,-599.12 388.59,-599.06 388.5,-599 361.22,-580.87 328.62,-564.36 301.54,-551.88"/>
<polygon fill="none" stroke="midnightblue" points="386.69,-601.99 396.9,-604.82 390.68,-596.24 386.69,-601.99"/>
</g>
<!-- Node7 -->
<g id="node7" class="node">
<title>Node7</title>
<g id="a_node7"><a xlink:href="classL4_1_1Ipc__svr_1_1Server__iface.html" target="_top" xlink:title="Interface for server&#45;loop related functions.">
<polygon fill="white" stroke="black" points="397,-771.5 397,-927.5 534,-927.5 534,-771.5 397,-771.5"/>
<text text-anchor="start" x="405" y="-915.5" font-family="Helvetica,sans-Serif" font-size="10.00">L4::Ipc_svr::Server</text>
<text text-anchor="middle" x="465.5" y="-904.5" font-family="Helvetica,sans-Serif" font-size="10.00">_iface</text>
<polyline fill="none" stroke="black" points="397,-897.5 534,-897.5 "/>
<text text-anchor="middle" x="465.5" y="-885.5" font-family="Helvetica,sans-Serif" font-size="10.00"> </text>
<polyline fill="none" stroke="black" points="397,-878.5 534,-878.5 "/>
<text text-anchor="start" x="405" y="-866.5" font-family="Helvetica,sans-Serif" font-size="10.00">+ Server_iface()</text>
<text text-anchor="start" x="405" y="-855.5" font-family="Helvetica,sans-Serif" font-size="10.00">+ ~Server_iface()</text>
<text text-anchor="start" x="405" y="-844.5" font-family="Helvetica,sans-Serif" font-size="10.00">+ alloc_buffer_demand()</text>
<text text-anchor="start" x="405" y="-833.5" font-family="Helvetica,sans-Serif" font-size="10.00">+ get_rcv_cap()</text>
<text text-anchor="start" x="405" y="-822.5" font-family="Helvetica,sans-Serif" font-size="10.00">+ realloc_rcv_cap()</text>
<text text-anchor="start" x="405" y="-811.5" font-family="Helvetica,sans-Serif" font-size="10.00">+ add_timeout()</text>
<text text-anchor="start" x="405" y="-800.5" font-family="Helvetica,sans-Serif" font-size="10.00">+ remove_timeout()</text>
<text text-anchor="start" x="405" y="-789.5" font-family="Helvetica,sans-Serif" font-size="10.00">+ rcv_cap()</text>
<text text-anchor="start" x="405" y="-778.5" font-family="Helvetica,sans-Serif" font-size="10.00">+ rcv_cap()</text>
</a>
</g>
</g>
<!-- Node7&#45;&gt;Node6 -->
<g id="edge6" class="edge">
<title>Node7&#45;&gt;Node6</title>
<path fill="none" stroke="midnightblue" d="M465.5,-761.38C465.5,-752.03 465.5,-742.64 465.5,-733.6"/>
<polygon fill="none" stroke="midnightblue" points="462,-761.48 465.5,-771.48 469,-761.48 462,-761.48"/>
</g>
<!-- Node9 -->
<g id="node9" class="node">
<title>Node9</title>
<g id="a_node9"><a xlink:href="classL4Re_1_1Util_1_1Registry__server.html" target="_top" xlink:title="A server loop object which has a Object_registry included.">
<polygon fill="white" stroke="black" points="175.5,-0.5 175.5,-123.5 317.5,-123.5 317.5,-0.5 175.5,-0.5"/>
<text text-anchor="start" x="183.5" y="-111.5" font-family="Helvetica,sans-Serif" font-size="10.00">L4Re::Util::Registry</text>
<text text-anchor="middle" x="246.5" y="-100.5" font-family="Helvetica,sans-Serif" font-size="10.00">_server&lt; LOOP_HOOKS &gt;</text>
<polyline fill="none" stroke="black" points="175.5,-93.5 317.5,-93.5 "/>
<text text-anchor="middle" x="246.5" y="-81.5" font-family="Helvetica,sans-Serif" font-size="10.00"> </text>
<polyline fill="none" stroke="black" points="175.5,-74.5 317.5,-74.5 "/>
<text text-anchor="start" x="183.5" y="-62.5" font-family="Helvetica,sans-Serif" font-size="10.00">+ Registry_server()</text>
<text text-anchor="start" x="183.5" y="-51.5" font-family="Helvetica,sans-Serif" font-size="10.00">+ Registry_server()</text>
<text text-anchor="start" x="183.5" y="-40.5" font-family="Helvetica,sans-Serif" font-size="10.00">+ Registry_server()</text>
<text text-anchor="start" x="183.5" y="-29.5" font-family="Helvetica,sans-Serif" font-size="10.00">+ registry()</text>
<text text-anchor="start" x="183.5" y="-18.5" font-family="Helvetica,sans-Serif" font-size="10.00">+ registry()</text>
<text text-anchor="start" x="183.5" y="-7.5" font-family="Helvetica,sans-Serif" font-size="10.00">+ loop()</text>
</a>
</g>
</g>
<!-- Node8&#45;&gt;Node9 -->
<g id="edge8" class="edge">
<title>Node8&#45;&gt;Node9</title>
<path fill="none" stroke="midnightblue" d="M246.5,-151.17C246.5,-141.99 246.5,-132.65 246.5,-123.66"/>
<polygon fill="none" stroke="midnightblue" points="243,-151.44 246.5,-161.44 250,-151.44 243,-151.44"/>
</g>
</g>
</svg>
