<?xml version="1.0" encoding="UTF-8" standalone="no"?>
<!DOCTYPE svg PUBLIC "-//W3C//DTD SVG 1.1//EN"
 "http://www.w3.org/Graphics/SVG/1.1/DTD/svg11.dtd">
<!-- Generated by graphviz version 2.43.0 (0)
 -->
<!-- Title: L4::Kobject::cap Pages: 1 -->
<svg width="625pt" height="687pt"
 viewBox="0.00 0.00 625.00 686.50" xmlns="http://www.w3.org/2000/svg" xmlns:xlink="http://www.w3.org/1999/xlink">
<g id="graph0" class="graph" transform="scale(1 1) rotate(0) translate(4 682.5)">
<title>L4::Kobject::cap</title>
<polygon fill="white" stroke="transparent" points="-4,4 -4,-682.5 621,-682.5 621,4 -4,4"/>
<!-- Node1 -->
<g id="node1" class="node">
<title>Node1</title>
<g id="a_node1"><a xlink:title="Return capability selector.">
<polygon fill="#bfbfbf" stroke="black" points="524,-304.5 524,-323.5 617,-323.5 617,-304.5 524,-304.5"/>
<text text-anchor="middle" x="570.5" y="-311.5" font-family="Helvetica,sans-Serif" font-size="10.00">L4::Kobject::cap</text>
</a>
</g>
</g>
<!-- Node2 -->
<g id="node2" class="node">
<title>Node2</title>
<g id="a_node2"><a xlink:href="classL4_1_1Icu.html#ada7541da586ea09b925b4d90d7dc357e" target="_top" xlink:title="Bind an interrupt line of an interrupt controller to an interrupt object.">
<polygon fill="white" stroke="black" points="372,-620.5 372,-639.5 447,-639.5 447,-620.5 372,-620.5"/>
<text text-anchor="middle" x="409.5" y="-627.5" font-family="Helvetica,sans-Serif" font-size="10.00">L4::Icu::bind</text>
</a>
</g>
</g>
<!-- Node1&#45;&gt;Node2 -->
<g id="edge1" class="edge">
<title>Node1&#45;&gt;Node2</title>
<path fill="none" stroke="midnightblue" d="M566.74,-333.53C557.94,-393.2 528.68,-571.42 488,-611 477.18,-621.53 461.52,-626.54 447.11,-628.82"/>
<polygon fill="midnightblue" stroke="midnightblue" points="570.22,-333.94 568.19,-323.54 563.29,-332.94 570.22,-333.94"/>
</g>
<!-- Node6 -->
<g id="node6" class="node">
<title>Node6</title>
<g id="a_node6"><a xlink:href="structL4_1_1Irq__mux.html#acfd63279449d20bef4226da9a01e5da9" target="_top" xlink:title="Attach an IRQ to this multiplexer.">
<polygon fill="white" stroke="black" points="356.5,-582.5 356.5,-601.5 462.5,-601.5 462.5,-582.5 356.5,-582.5"/>
<text text-anchor="middle" x="409.5" y="-589.5" font-family="Helvetica,sans-Serif" font-size="10.00">L4::Irq_mux::chain</text>
</a>
</g>
</g>
<!-- Node1&#45;&gt;Node6 -->
<g id="edge5" class="edge">
<title>Node1&#45;&gt;Node6</title>
<path fill="none" stroke="midnightblue" d="M569.46,-333.81C568.22,-382.22 558.04,-507.33 488,-573 480.93,-579.63 471.93,-584.06 462.58,-586.99"/>
<polygon fill="midnightblue" stroke="midnightblue" points="572.96,-333.77 569.61,-323.72 565.96,-333.66 572.96,-333.77"/>
</g>
<!-- Node7 -->
<g id="node7" class="node">
<title>Node7</title>
<g id="a_node7"><a xlink:href="classL4_1_1Factory.html#ab52604d4abed4d6009ce51a59492edd7" target="_top" xlink:title="Generic create call to the factory.">
<polygon fill="white" stroke="black" points="357,-544.5 357,-563.5 462,-563.5 462,-544.5 357,-544.5"/>
<text text-anchor="middle" x="409.5" y="-551.5" font-family="Helvetica,sans-Serif" font-size="10.00">L4::Factory::create</text>
</a>
</g>
</g>
<!-- Node1&#45;&gt;Node7 -->
<g id="edge6" class="edge">
<title>Node1&#45;&gt;Node7</title>
<path fill="none" stroke="midnightblue" d="M568.22,-333.8C564.31,-377.11 548.76,-480.74 488,-535 480.77,-541.46 471.7,-545.81 462.33,-548.71"/>
<polygon fill="midnightblue" stroke="midnightblue" points="571.72,-333.95 569.01,-323.71 564.74,-333.4 571.72,-333.95"/>
</g>
<!-- Node9 -->
<g id="node9" class="node">
<title>Node9</title>
<g id="a_node9"><a xlink:href="classL4_1_1Thread.html#aacd56bbf983577cfc591f21fd511d3b6" target="_top" xlink:title="Exchange basic thread registers.">
<polygon fill="white" stroke="black" points="353.5,-506.5 353.5,-525.5 465.5,-525.5 465.5,-506.5 353.5,-506.5"/>
<text text-anchor="middle" x="409.5" y="-513.5" font-family="Helvetica,sans-Serif" font-size="10.00">L4::Thread::ex_regs</text>
</a>
</g>
</g>
<!-- Node1&#45;&gt;Node9 -->
<g id="edge8" class="edge">
<title>Node1&#45;&gt;Node9</title>
<path fill="none" stroke="midnightblue" d="M566.48,-333.96C559.68,-371.78 539.51,-453.95 488,-497 481.52,-502.42 473.72,-506.33 465.61,-509.15"/>
<polygon fill="midnightblue" stroke="midnightblue" points="570,-334.17 568.19,-323.73 563.09,-333.02 570,-334.17"/>
</g>
<!-- Node10 -->
<g id="node10" class="node">
<title>Node10</title>
<g id="a_node10"><a xlink:href="classL4_1_1Vcon.html#a367997ce7608f9fd170828bba6d025ed" target="_top" xlink:title="Get attributes of this virtual console.">
<polygon fill="white" stroke="black" points="358.5,-468.5 358.5,-487.5 460.5,-487.5 460.5,-468.5 358.5,-468.5"/>
<text text-anchor="middle" x="409.5" y="-475.5" font-family="Helvetica,sans-Serif" font-size="10.00">L4::Vcon::get_attr</text>
</a>
</g>
</g>
<!-- Node1&#45;&gt;Node10 -->
<g id="edge9" class="edge">
<title>Node1&#45;&gt;Node10</title>
<path fill="none" stroke="midnightblue" d="M564.16,-333.28C554.43,-364.65 530.79,-426.5 488,-459 480.06,-465.03 470.45,-469.18 460.75,-472.01"/>
<polygon fill="midnightblue" stroke="midnightblue" points="567.55,-334.13 567.02,-323.55 560.84,-332.15 567.55,-334.13"/>
</g>
<!-- Node11 -->
<g id="node11" class="node">
<title>Node11</title>
<g id="a_node11"><a xlink:href="classL4_1_1Icu.html#a356cfa88076c92e121ab7760d50d5f18" target="_top" xlink:title="Get information about the ICU features.">
<polygon fill="white" stroke="black" points="373,-430.5 373,-449.5 446,-449.5 446,-430.5 373,-430.5"/>
<text text-anchor="middle" x="409.5" y="-437.5" font-family="Helvetica,sans-Serif" font-size="10.00">L4::Icu::info</text>
</a>
</g>
</g>
<!-- Node1&#45;&gt;Node11 -->
<g id="edge10" class="edge">
<title>Node1&#45;&gt;Node11</title>
<path fill="none" stroke="midnightblue" d="M560.26,-332.99C547.46,-357.24 522.01,-398.71 488,-421 475.6,-429.13 460.03,-433.78 446.1,-436.44"/>
<polygon fill="midnightblue" stroke="midnightblue" points="563.54,-334.26 564.96,-323.76 557.3,-331.09 563.54,-334.26"/>
</g>
<!-- Node12 -->
<g id="node12" class="node">
<title>Node12</title>
<g id="a_node12"><a xlink:href="classL4_1_1Icu.html#ab58aa015a5216a0dece5d85089b42aaa" target="_top" xlink:title="Mask an IRQ line.">
<polygon fill="white" stroke="black" points="369,-392.5 369,-411.5 450,-411.5 450,-392.5 369,-392.5"/>
<text text-anchor="middle" x="409.5" y="-399.5" font-family="Helvetica,sans-Serif" font-size="10.00">L4::Icu::mask</text>
</a>
</g>
</g>
<!-- Node1&#45;&gt;Node12 -->
<g id="edge11" class="edge">
<title>Node1&#45;&gt;Node12</title>
<path fill="none" stroke="midnightblue" d="M553.9,-331.14C538.61,-346.91 513.88,-369.81 488,-383 476.4,-388.91 462.87,-393.05 450.39,-395.91"/>
<polygon fill="midnightblue" stroke="midnightblue" points="556.68,-333.3 561,-323.63 551.59,-328.49 556.68,-333.3"/>
</g>
<!-- Node13 -->
<g id="node13" class="node">
<title>Node13</title>
<g id="a_node13"><a xlink:href="classL4_1_1Thread.html#a9bcade7e8db8d775cc1f2a2a6225c845" target="_top" xlink:title="Apply sender modification rules.">
<polygon fill="white" stroke="black" points="356,-343 356,-373 463,-373 463,-343 356,-343"/>
<text text-anchor="start" x="364" y="-361" font-family="Helvetica,sans-Serif" font-size="10.00">L4::Thread::modify</text>
<text text-anchor="middle" x="409.5" y="-350" font-family="Helvetica,sans-Serif" font-size="10.00">_senders</text>
</a>
</g>
</g>
<!-- Node1&#45;&gt;Node13 -->
<g id="edge12" class="edge">
<title>Node1&#45;&gt;Node13</title>
<path fill="none" stroke="midnightblue" d="M525.26,-326.24C505.98,-331.58 483.22,-337.88 463.08,-343.45"/>
<polygon fill="midnightblue" stroke="midnightblue" points="526.3,-329.59 535,-323.55 524.43,-322.84 526.3,-329.59"/>
</g>
<!-- Node15 -->
<g id="node15" class="node">
<title>Node15</title>
<g id="a_node15"><a xlink:href="classL4_1_1Vcon.html#ac53da09bc3a23b5fd654def074175046" target="_top" xlink:title="Read data from this virtual console.">
<polygon fill="white" stroke="black" points="366.5,-304.5 366.5,-323.5 452.5,-323.5 452.5,-304.5 366.5,-304.5"/>
<text text-anchor="middle" x="409.5" y="-311.5" font-family="Helvetica,sans-Serif" font-size="10.00">L4::Vcon::read</text>
</a>
</g>
</g>
<!-- Node1&#45;&gt;Node15 -->
<g id="edge14" class="edge">
<title>Node1&#45;&gt;Node15</title>
<path fill="none" stroke="midnightblue" d="M513.66,-314C493.57,-314 471.25,-314 452.53,-314"/>
<polygon fill="midnightblue" stroke="midnightblue" points="513.94,-317.5 523.94,-314 513.94,-310.5 513.94,-317.5"/>
</g>
<!-- Node16 -->
<g id="node16" class="node">
<title>Node16</title>
<g id="a_node16"><a xlink:href="classL4_1_1Vcon.html#af400882103c8601a4b0750985c57d7c4" target="_top" xlink:title="Send data to this virtual console.">
<polygon fill="white" stroke="black" points="366,-266.5 366,-285.5 453,-285.5 453,-266.5 366,-266.5"/>
<text text-anchor="middle" x="409.5" y="-273.5" font-family="Helvetica,sans-Serif" font-size="10.00">L4::Vcon::send</text>
</a>
</g>
</g>
<!-- Node1&#45;&gt;Node16 -->
<g id="edge15" class="edge">
<title>Node1&#45;&gt;Node16</title>
<path fill="none" stroke="midnightblue" d="M519.42,-302.03C497.14,-296.71 471.27,-290.52 450.33,-285.52"/>
<polygon fill="midnightblue" stroke="midnightblue" points="518.84,-305.49 529.38,-304.41 520.47,-298.68 518.84,-305.49"/>
</g>
<!-- Node17 -->
<g id="node17" class="node">
<title>Node17</title>
<g id="a_node17"><a xlink:href="classL4_1_1Vcon.html#a95422b151c12b5e20dda868972516f1a" target="_top" xlink:title="Set the attributes of this virtual console.">
<polygon fill="white" stroke="black" points="359,-228.5 359,-247.5 460,-247.5 460,-228.5 359,-228.5"/>
<text text-anchor="middle" x="409.5" y="-235.5" font-family="Helvetica,sans-Serif" font-size="10.00">L4::Vcon::set_attr</text>
</a>
</g>
</g>
<!-- Node1&#45;&gt;Node17 -->
<g id="edge16" class="edge">
<title>Node1&#45;&gt;Node17</title>
<path fill="none" stroke="midnightblue" d="M550.81,-297.89C535.04,-285.07 511.36,-267.58 488,-257 479.29,-253.06 469.65,-249.86 460.21,-247.29"/>
<polygon fill="midnightblue" stroke="midnightblue" points="548.78,-300.75 558.71,-304.45 553.26,-295.37 548.78,-300.75"/>
</g>
<!-- Node18 -->
<g id="node18" class="node">
<title>Node18</title>
<g id="a_node18"><a xlink:href="classL4_1_1Icu.html#a4258b1c32fc968b66a1ce15191f51b8b" target="_top" xlink:title="Set interrupt mode.">
<polygon fill="white" stroke="black" points="358.5,-190.5 358.5,-209.5 460.5,-209.5 460.5,-190.5 358.5,-190.5"/>
<text text-anchor="middle" x="409.5" y="-197.5" font-family="Helvetica,sans-Serif" font-size="10.00">L4::Icu::set_mode</text>
</a>
</g>
</g>
<!-- Node1&#45;&gt;Node18 -->
<g id="edge17" class="edge">
<title>Node1&#45;&gt;Node18</title>
<path fill="none" stroke="midnightblue" d="M558.92,-295.87C545.31,-274.2 519.61,-238.43 488,-219 479.74,-213.92 470.2,-210.2 460.7,-207.47"/>
<polygon fill="midnightblue" stroke="midnightblue" points="555.96,-297.74 564.15,-304.47 561.94,-294.1 555.96,-297.74"/>
</g>
<!-- Node19 -->
<g id="node19" class="node">
<title>Node19</title>
<g id="a_node19"><a xlink:href="structL4_1_1Triggerable.html#a7109ca8b4aeac0169639f973c91a3a6b" target="_top" xlink:title="Trigger the object.">
<polygon fill="white" stroke="black" points="346.5,-152.5 346.5,-171.5 472.5,-171.5 472.5,-152.5 346.5,-152.5"/>
<text text-anchor="middle" x="409.5" y="-159.5" font-family="Helvetica,sans-Serif" font-size="10.00">L4::Triggerable::trigger</text>
</a>
</g>
</g>
<!-- Node1&#45;&gt;Node19 -->
<g id="edge18" class="edge">
<title>Node1&#45;&gt;Node19</title>
<path fill="none" stroke="midnightblue" d="M563.09,-294.65C552.36,-265.38 527.93,-210.16 488,-181 482.74,-177.16 476.8,-174.09 470.61,-171.64"/>
<polygon fill="midnightblue" stroke="midnightblue" points="559.81,-295.89 566.42,-304.17 566.42,-293.57 559.81,-295.89"/>
</g>
<!-- Node21 -->
<g id="node21" class="node">
<title>Node21</title>
<g id="a_node21"><a xlink:href="classL4_1_1Icu.html#aa34e56cdac798b1949fcc00553386b8b" target="_top" xlink:title="Remove binding of an interrupt line from the interrupt controller object.">
<polygon fill="white" stroke="black" points="366,-114.5 366,-133.5 453,-133.5 453,-114.5 366,-114.5"/>
<text text-anchor="middle" x="409.5" y="-121.5" font-family="Helvetica,sans-Serif" font-size="10.00">L4::Icu::unbind</text>
</a>
</g>
</g>
<!-- Node1&#45;&gt;Node21 -->
<g id="edge20" class="edge">
<title>Node1&#45;&gt;Node21</title>
<path fill="none" stroke="midnightblue" d="M565.86,-294.36C558.17,-258.56 536.79,-182.72 488,-143 478.22,-135.04 465.6,-130.34 453.4,-127.59"/>
<polygon fill="midnightblue" stroke="midnightblue" points="562.5,-295.37 567.9,-304.48 569.36,-293.99 562.5,-295.37"/>
</g>
<!-- Node22 -->
<g id="node22" class="node">
<title>Node22</title>
<g id="a_node22"><a xlink:href="classL4_1_1Thread.html#a94a6d8a5a7a78fa99ef3c6358e0a0459" target="_top" xlink:title="Enable the vCPU feature for the thread.">
<polygon fill="white" stroke="black" points="341.5,-76.5 341.5,-95.5 477.5,-95.5 477.5,-76.5 341.5,-76.5"/>
<text text-anchor="middle" x="409.5" y="-83.5" font-family="Helvetica,sans-Serif" font-size="10.00">L4::Thread::vcpu_control</text>
</a>
</g>
</g>
<!-- Node1&#45;&gt;Node22 -->
<g id="edge21" class="edge">
<title>Node1&#45;&gt;Node22</title>
<path fill="none" stroke="midnightblue" d="M567.73,-294.15C562.93,-252.51 545.82,-155.69 488,-105 483.62,-101.16 478.6,-98.08 473.25,-95.59"/>
<polygon fill="midnightblue" stroke="midnightblue" points="564.28,-294.76 568.79,-304.35 571.24,-294.04 564.28,-294.76"/>
</g>
<!-- Node23 -->
<g id="node23" class="node">
<title>Node23</title>
<g id="a_node23"><a xlink:href="classL4_1_1Thread.html#ac341b827b00c21bc3753c30163e0f173" target="_top" xlink:title="Enable the extended vCPU feature for the thread.">
<polygon fill="white" stroke="black" points="331,-38.5 331,-57.5 488,-57.5 488,-38.5 331,-38.5"/>
<text text-anchor="middle" x="409.5" y="-45.5" font-family="Helvetica,sans-Serif" font-size="10.00">L4::Thread::vcpu_control_ext</text>
</a>
</g>
</g>
<!-- Node1&#45;&gt;Node23 -->
<g id="edge22" class="edge">
<title>Node1&#45;&gt;Node23</title>
<path fill="none" stroke="midnightblue" d="M569.11,-294.47C567.09,-247.82 555.23,-129.16 488,-67 483.83,-63.14 479.01,-60.04 473.85,-57.53"/>
<polygon fill="midnightblue" stroke="midnightblue" points="565.62,-294.59 569.44,-304.47 572.61,-294.36 565.62,-294.59"/>
</g>
<!-- Node24 -->
<g id="node24" class="node">
<title>Node24</title>
<g id="a_node24"><a xlink:href="classL4_1_1Vcon.html#a83407df2f5b674126d33505d73f5d34b" target="_top" xlink:title="Write data to this virtual console.">
<polygon fill="white" stroke="black" points="365,-0.5 365,-19.5 454,-19.5 454,-0.5 365,-0.5"/>
<text text-anchor="middle" x="409.5" y="-7.5" font-family="Helvetica,sans-Serif" font-size="10.00">L4::Vcon::write</text>
</a>
</g>
</g>
<!-- Node1&#45;&gt;Node24 -->
<g id="edge23" class="edge">
<title>Node1&#45;&gt;Node24</title>
<path fill="none" stroke="midnightblue" d="M570.13,-294.34C570.63,-242.79 564.52,-102.66 488,-29 478.92,-20.26 466.5,-15.33 454.26,-12.61"/>
<polygon fill="midnightblue" stroke="midnightblue" points="566.62,-294.38 569.92,-304.45 573.62,-294.52 566.62,-294.38"/>
</g>
<!-- Node3 -->
<g id="node3" class="node">
<title>Node3</title>
<g id="a_node3"><a xlink:href="classL4virtio_1_1Driver_1_1Device.html#a1c9b791b723e7e8ad2eae927094b487d" target="_top" xlink:title="Register a triggerable to receive notifications from the device.">
<polygon fill="white" stroke="black" points="163.5,-648 163.5,-678 292.5,-678 292.5,-648 163.5,-648"/>
<text text-anchor="start" x="171.5" y="-666" font-family="Helvetica,sans-Serif" font-size="10.00">L4virtio::Driver::Device</text>
<text text-anchor="middle" x="228" y="-655" font-family="Helvetica,sans-Serif" font-size="10.00">::bind_notification_irq</text>
</a>
</g>
</g>
<!-- Node2&#45;&gt;Node3 -->
<g id="edge2" class="edge">
<title>Node2&#45;&gt;Node3</title>
<path fill="none" stroke="midnightblue" d="M361.74,-638.6C340.64,-642.48 315.38,-647.12 292.59,-651.31"/>
<polygon fill="midnightblue" stroke="midnightblue" points="362.54,-642.01 371.74,-636.76 361.27,-635.12 362.54,-642.01"/>
</g>
<!-- Node4 -->
<g id="node4" class="node">
<title>Node4</title>
<g id="a_node4"><a xlink:href="classL4virtio_1_1Driver_1_1Device.html#a4f8b3d73188c3b6664755b81b80e441c" target="_top" xlink:title="Contacts the device and starts the initial handshake.">
<polygon fill="white" stroke="black" points="163.5,-599 163.5,-629 292.5,-629 292.5,-599 163.5,-599"/>
<text text-anchor="start" x="171.5" y="-617" font-family="Helvetica,sans-Serif" font-size="10.00">L4virtio::Driver::Device</text>
<text text-anchor="middle" x="228" y="-606" font-family="Helvetica,sans-Serif" font-size="10.00">::driver_connect</text>
</a>
</g>
</g>
<!-- Node2&#45;&gt;Node4 -->
<g id="edge3" class="edge">
<title>Node2&#45;&gt;Node4</title>
<path fill="none" stroke="midnightblue" d="M361.74,-625.83C340.64,-623.95 315.38,-621.7 292.59,-619.67"/>
<polygon fill="midnightblue" stroke="midnightblue" points="361.47,-629.32 371.74,-626.72 362.09,-622.35 361.47,-629.32"/>
</g>
<!-- Node5 -->
<g id="node5" class="node">
<title>Node5</title>
<g id="a_node5"><a xlink:href="classL4virtio_1_1Driver_1_1Block__device.html#a688df51bdec4ba327a6c0b48a83a115a" target="_top" xlink:title="Setup a connection to a device and set up shared memory.">
<polygon fill="white" stroke="black" points="0,-599 0,-629 125,-629 125,-599 0,-599"/>
<text text-anchor="start" x="8" y="-617" font-family="Helvetica,sans-Serif" font-size="10.00">L4virtio::Driver::Block</text>
<text text-anchor="middle" x="62.5" y="-606" font-family="Helvetica,sans-Serif" font-size="10.00">_device::setup_device</text>
</a>
</g>
</g>
<!-- Node4&#45;&gt;Node5 -->
<g id="edge4" class="edge">
<title>Node4&#45;&gt;Node5</title>
<path fill="none" stroke="midnightblue" d="M153.21,-614C143.83,-614 134.3,-614 125.13,-614"/>
<polygon fill="midnightblue" stroke="midnightblue" points="153.32,-617.5 163.32,-614 153.32,-610.5 153.32,-617.5"/>
</g>
<!-- Node8 -->
<g id="node8" class="node">
<title>Node8</title>
<g id="a_node8"><a xlink:href="classL4Re_1_1Mem__alloc.html#a44b301573ae859e8406400338cc8e924" target="_top" xlink:title="Allocate anonymous memory.">
<polygon fill="white" stroke="black" points="163.5,-544.5 163.5,-563.5 292.5,-563.5 292.5,-544.5 163.5,-544.5"/>
<text text-anchor="middle" x="228" y="-551.5" font-family="Helvetica,sans-Serif" font-size="10.00">L4Re::Mem_alloc::alloc</text>
</a>
</g>
</g>
<!-- Node7&#45;&gt;Node8 -->
<g id="edge7" class="edge">
<title>Node7&#45;&gt;Node8</title>
<path fill="none" stroke="midnightblue" d="M346.52,-554C329.09,-554 310.11,-554 292.59,-554"/>
<polygon fill="midnightblue" stroke="midnightblue" points="346.58,-557.5 356.58,-554 346.58,-550.5 346.58,-557.5"/>
</g>
<!-- Node14 -->
<g id="node14" class="node">
<title>Node14</title>
<g id="a_node14"><a xlink:href="classL4Re_1_1Util_1_1Object__registry.html#aeeea59583ffddfef4e7c1c3e6eed41b6" target="_top" xlink:title="Remove a server object from the handler list.">
<polygon fill="white" stroke="black" points="161,-343 161,-373 295,-373 295,-343 161,-343"/>
<text text-anchor="start" x="169" y="-361" font-family="Helvetica,sans-Serif" font-size="10.00">L4Re::Util::Object</text>
<text text-anchor="middle" x="228" y="-350" font-family="Helvetica,sans-Serif" font-size="10.00">_registry::unregister_obj</text>
</a>
</g>
</g>
<!-- Node13&#45;&gt;Node14 -->
<g id="edge13" class="edge">
<title>Node13&#45;&gt;Node14</title>
<path fill="none" stroke="midnightblue" d="M345.18,-358C328.99,-358 311.54,-358 295.21,-358"/>
<polygon fill="midnightblue" stroke="midnightblue" points="345.61,-361.5 355.61,-358 345.61,-354.5 345.61,-361.5"/>
</g>
<!-- Node20 -->
<g id="node20" class="node">
<title>Node20</title>
<g id="a_node20"><a xlink:href="structL4_1_1Semaphore.html#a3de7e4e35ff4dadab9a26f3b87fb76bc" target="_top" xlink:title="Semaphore up operation (wrapper for trigger()).">
<polygon fill="white" stroke="black" points="174.5,-152.5 174.5,-171.5 281.5,-171.5 281.5,-152.5 174.5,-152.5"/>
<text text-anchor="middle" x="228" y="-159.5" font-family="Helvetica,sans-Serif" font-size="10.00">L4::Semaphore::up</text>
</a>
</g>
</g>
<!-- Node19&#45;&gt;Node20 -->
<g id="edge19" class="edge">
<title>Node19&#45;&gt;Node20</title>
<path fill="none" stroke="midnightblue" d="M336.45,-162C318.18,-162 298.89,-162 281.77,-162"/>
<polygon fill="midnightblue" stroke="midnightblue" points="336.47,-165.5 346.47,-162 336.47,-158.5 336.47,-165.5"/>
</g>
</g>
</svg>
