<?xml version="1.0" encoding="UTF-8" standalone="no"?>
<!DOCTYPE svg PUBLIC "-//W3C//DTD SVG 1.1//EN"
 "http://www.w3.org/Graphics/SVG/1.1/DTD/svg11.dtd">
<!-- Generated by graphviz version 2.43.0 (0)
 -->
<!-- Title: L4virtio::Driver::Block_device::setup_device Pages: 1 -->
<svg width="671pt" height="902pt"
 viewBox="0.00 0.00 671.00 902.00" xmlns="http://www.w3.org/2000/svg" xmlns:xlink="http://www.w3.org/1999/xlink">
<g id="graph0" class="graph" transform="scale(1 1) rotate(0) translate(4 898)">
<title>L4virtio::Driver::Block_device::setup_device</title>
<polygon fill="white" stroke="transparent" points="-4,4 -4,-898 667,-898 667,4 -4,4"/>
<!-- Node1 -->
<g id="node1" class="node">
<title>Node1</title>
<g id="a_node1"><a xlink:title="Setup a connection to a device and set up shared memory.">
<polygon fill="#bfbfbf" stroke="black" points="0,-423 0,-453 125,-453 125,-423 0,-423"/>
<text text-anchor="start" x="8" y="-441" font-family="Helvetica,sans-Serif" font-size="10.00">L4virtio::Driver::Block</text>
<text text-anchor="middle" x="62.5" y="-430" font-family="Helvetica,sans-Serif" font-size="10.00">_device::setup_device</text>
</a>
</g>
</g>
<!-- Node2 -->
<g id="node2" class="node">
<title>Node2</title>
<g id="a_node2"><a xlink:href="classL4virtio_1_1Virtqueue.html#a5a4db3f2c9356da05cd5b472ebc2f0e6" target="_top" xlink:title="Get the offset of the available ring from the descriptor table.">
<polygon fill="white" stroke="black" points="179,-830 179,-860 286,-860 286,-830 179,-830"/>
<text text-anchor="start" x="187" y="-848" font-family="Helvetica,sans-Serif" font-size="10.00">L4virtio::Virtqueue</text>
<text text-anchor="middle" x="232.5" y="-837" font-family="Helvetica,sans-Serif" font-size="10.00">::avail_offset</text>
</a>
</g>
</g>
<!-- Node1&#45;&gt;Node2 -->
<g id="edge1" class="edge">
<title>Node1&#45;&gt;Node2</title>
<path fill="none" stroke="midnightblue" d="M65.41,-453.08C73.79,-517.01 109.19,-764.94 161,-821 163.74,-823.96 166.85,-826.55 170.21,-828.83"/>
<polygon fill="midnightblue" stroke="midnightblue" points="168.58,-831.93 179,-833.85 172.05,-825.85 168.58,-831.93"/>
</g>
<!-- Node3 -->
<g id="node3" class="node">
<title>Node3</title>
<g id="a_node3"><a xlink:href="namespaceL4Re.html#a64b057254a760643ba67a9ed452fede8" target="_top" xlink:title="Check for valid capability or raise C++ exception.">
<polygon fill="white" stroke="black" points="376,-748.5 376,-767.5 457,-767.5 457,-748.5 376,-748.5"/>
<text text-anchor="middle" x="416.5" y="-755.5" font-family="Helvetica,sans-Serif" font-size="10.00">L4Re::chkcap</text>
</a>
</g>
</g>
<!-- Node1&#45;&gt;Node3 -->
<g id="edge2" class="edge">
<title>Node1&#45;&gt;Node3</title>
<path fill="none" stroke="midnightblue" d="M66.67,-453.24C75.33,-491.39 102.7,-592.23 161,-652 191.88,-683.66 298.45,-723.86 340,-739 348.3,-742.03 357.29,-744.75 366.07,-747.12"/>
<polygon fill="midnightblue" stroke="midnightblue" points="365.29,-750.53 375.85,-749.65 367.05,-743.76 365.29,-750.53"/>
</g>
<!-- Node5 -->
<g id="node5" class="node">
<title>Node5</title>
<g id="a_node5"><a xlink:href="namespaceL4Re.html#a3f17984019f06676a7e3eecb41bbb0bb" target="_top" xlink:title="Generate C++ exception on error.">
<polygon fill="white" stroke="black" points="376.5,-786.5 376.5,-805.5 456.5,-805.5 456.5,-786.5 376.5,-786.5"/>
<text text-anchor="middle" x="416.5" y="-793.5" font-family="Helvetica,sans-Serif" font-size="10.00">L4Re::chksys</text>
</a>
</g>
</g>
<!-- Node1&#45;&gt;Node5 -->
<g id="edge4" class="edge">
<title>Node1&#45;&gt;Node5</title>
<path fill="none" stroke="midnightblue" d="M64.9,-453.02C69.79,-497.1 89.86,-627.73 161,-702 220.67,-764.29 258.17,-749.73 340,-777 348.48,-779.83 357.61,-782.46 366.5,-784.81"/>
<polygon fill="midnightblue" stroke="midnightblue" points="365.82,-788.25 376.38,-787.34 367.56,-781.47 365.82,-788.25"/>
</g>
<!-- Node6 -->
<g id="node6" class="node">
<title>Node6</title>
<g id="a_node6"><a xlink:href="classL4virtio_1_1Driver_1_1Device.html#aa557ba0e56fbfc194b07440ecc796061" target="_top" xlink:title="Send the virtqueue configuration to the device.">
<polygon fill="white" stroke="black" points="168,-399 168,-429 297,-429 297,-399 168,-399"/>
<text text-anchor="start" x="176" y="-417" font-family="Helvetica,sans-Serif" font-size="10.00">L4virtio::Driver::Device</text>
<text text-anchor="middle" x="232.5" y="-406" font-family="Helvetica,sans-Serif" font-size="10.00">::config_queue</text>
</a>
</g>
</g>
<!-- Node1&#45;&gt;Node6 -->
<g id="edge6" class="edge">
<title>Node1&#45;&gt;Node6</title>
<path fill="none" stroke="midnightblue" d="M125.1,-429.2C135.79,-427.67 146.99,-426.07 157.95,-424.51"/>
<polygon fill="midnightblue" stroke="midnightblue" points="158.53,-427.96 167.93,-423.08 157.54,-421.03 158.53,-427.96"/>
</g>
<!-- Node8 -->
<g id="node8" class="node">
<title>Node8</title>
<g id="a_node8"><a xlink:href="classL4virtio_1_1Driver_1_1Device.html#af06d27e63124749456ddc8d959231741" target="_top" xlink:title="Finalize handshake with the device.">
<polygon fill="white" stroke="black" points="168,-781 168,-811 297,-811 297,-781 168,-781"/>
<text text-anchor="start" x="176" y="-799" font-family="Helvetica,sans-Serif" font-size="10.00">L4virtio::Driver::Device</text>
<text text-anchor="middle" x="232.5" y="-788" font-family="Helvetica,sans-Serif" font-size="10.00">::driver_acknowledge</text>
</a>
</g>
</g>
<!-- Node1&#45;&gt;Node8 -->
<g id="edge8" class="edge">
<title>Node1&#45;&gt;Node8</title>
<path fill="none" stroke="midnightblue" d="M64.4,-453.27C68.03,-502.22 85.23,-657.65 161,-754 167.81,-762.66 176.94,-769.92 186.36,-775.84"/>
<polygon fill="midnightblue" stroke="midnightblue" points="184.64,-778.88 195.04,-780.89 188.17,-772.84 184.64,-778.88"/>
</g>
<!-- Node11 -->
<g id="node11" class="node">
<title>Node11</title>
<g id="a_node11"><a xlink:href="classL4virtio_1_1Driver_1_1Device.html#a4f8b3d73188c3b6664755b81b80e441c" target="_top" xlink:title="Contacts the device and starts the initial handshake.">
<polygon fill="white" stroke="black" points="168,-612 168,-642 297,-642 297,-612 168,-612"/>
<text text-anchor="start" x="176" y="-630" font-family="Helvetica,sans-Serif" font-size="10.00">L4virtio::Driver::Device</text>
<text text-anchor="middle" x="232.5" y="-619" font-family="Helvetica,sans-Serif" font-size="10.00">::driver_connect</text>
</a>
</g>
</g>
<!-- Node1&#45;&gt;Node11 -->
<g id="edge12" class="edge">
<title>Node1&#45;&gt;Node11</title>
<path fill="none" stroke="midnightblue" d="M74.63,-453.02C92.17,-476.39 127.68,-522.57 161,-559 175.58,-574.94 193.06,-591.81 206.96,-604.76"/>
<polygon fill="midnightblue" stroke="midnightblue" points="204.96,-607.68 214.69,-611.89 209.71,-602.54 204.96,-607.68"/>
</g>
<!-- Node18 -->
<g id="node18" class="node">
<title>Node18</title>
<g id="a_node18"><a xlink:href="classL4Re_1_1Env.html#a0e7a55ebbac0dedc9fa6859d32687d35" target="_top" xlink:title="Returns the initial environment for the current task.">
<polygon fill="white" stroke="black" points="372.5,-535.5 372.5,-554.5 460.5,-554.5 460.5,-535.5 372.5,-535.5"/>
<text text-anchor="middle" x="416.5" y="-542.5" font-family="Helvetica,sans-Serif" font-size="10.00">L4Re::Env::env</text>
</a>
</g>
</g>
<!-- Node1&#45;&gt;Node18 -->
<g id="edge25" class="edge">
<title>Node1&#45;&gt;Node18</title>
<path fill="none" stroke="midnightblue" d="M78.48,-453.19C96.4,-470.33 128.11,-497.57 161,-511 226.77,-537.86 309.29,-544.46 362.21,-545.61"/>
<polygon fill="midnightblue" stroke="midnightblue" points="362.33,-549.11 372.38,-545.77 362.44,-542.11 362.33,-549.11"/>
</g>
<!-- Node20 -->
<g id="node20" class="node">
<title>Node20</title>
<g id="a_node20"><a xlink:href="namespaceL4_1_1Ipc.html#a71861fba8b1db3d4fb5768ba65c89d94" target="_top" xlink:title="Make an L4::Ipc::Cap&lt;T&gt; for the given capability with L4_CAP_FPAGE_RW rights.">
<polygon fill="white" stroke="black" points="356,-497.5 356,-516.5 477,-516.5 477,-497.5 356,-497.5"/>
<text text-anchor="middle" x="416.5" y="-504.5" font-family="Helvetica,sans-Serif" font-size="10.00">L4::Ipc::make_cap_rw</text>
</a>
</g>
</g>
<!-- Node1&#45;&gt;Node20 -->
<g id="edge36" class="edge">
<title>Node1&#45;&gt;Node20</title>
<path fill="none" stroke="midnightblue" d="M86.45,-453.12C105.54,-464.86 133.9,-480.38 161,-488 221.88,-505.12 293.99,-509.06 345.88,-509.19"/>
<polygon fill="midnightblue" stroke="midnightblue" points="345.98,-512.69 355.98,-509.17 345.97,-505.69 345.98,-512.69"/>
</g>
<!-- Node21 -->
<g id="node21" class="node">
<title>Node21</title>
<g id="a_node21"><a xlink:href="classL4virtio_1_1Driver_1_1Virtqueue.html#a8b7ef703e8e55d889419f43dc28dd40e" target="_top" xlink:title="Initialize this virtqueue.">
<polygon fill="white" stroke="black" points="161,-322 161,-352 304,-352 304,-322 161,-322"/>
<text text-anchor="start" x="169" y="-340" font-family="Helvetica,sans-Serif" font-size="10.00">L4virtio::Driver::Virtqueue</text>
<text text-anchor="middle" x="232.5" y="-329" font-family="Helvetica,sans-Serif" font-size="10.00">::init_queue</text>
</a>
</g>
</g>
<!-- Node1&#45;&gt;Node21 -->
<g id="edge26" class="edge">
<title>Node1&#45;&gt;Node21</title>
<path fill="none" stroke="midnightblue" d="M88.65,-422.88C117.68,-405.42 165.57,-376.64 197.8,-357.26"/>
<polygon fill="midnightblue" stroke="midnightblue" points="199.68,-360.21 206.45,-352.06 196.08,-354.21 199.68,-360.21"/>
</g>
<!-- Node26 -->
<g id="node26" class="node">
<title>Node26</title>
<g id="a_node26"><a xlink:href="group__l4__memory__api.html#ga96e3b2d8e69308aecbb11d1d24f61662" target="_top" xlink:title="Round address up to the next page.">
<polygon fill="white" stroke="black" points="188.5,-147.5 188.5,-166.5 276.5,-166.5 276.5,-147.5 188.5,-147.5"/>
<text text-anchor="middle" x="232.5" y="-154.5" font-family="Helvetica,sans-Serif" font-size="10.00">l4_round_page</text>
</a>
</g>
</g>
<!-- Node1&#45;&gt;Node26 -->
<g id="edge33" class="edge">
<title>Node1&#45;&gt;Node26</title>
<path fill="none" stroke="midnightblue" d="M64.83,-422.83C69.49,-378.96 88.93,-250.63 161,-181 166.06,-176.11 172.16,-172.22 178.62,-169.11"/>
<polygon fill="midnightblue" stroke="midnightblue" points="180.37,-172.18 188.27,-165.11 177.69,-165.71 180.37,-172.18"/>
</g>
<!-- Node27 -->
<g id="node27" class="node">
<title>Node27</title>
<g id="a_node27"><a xlink:href="group__l4__memory__api.html#gae876a4c6e0f21b2ecbf17863dc7d11e4" target="_top" xlink:title="Round value up to the next alignment with bits size.">
<polygon fill="white" stroke="black" points="375,-0.5 375,-19.5 458,-19.5 458,-0.5 375,-0.5"/>
<text text-anchor="middle" x="416.5" y="-7.5" font-family="Helvetica,sans-Serif" font-size="10.00">l4_round_size</text>
</a>
</g>
</g>
<!-- Node1&#45;&gt;Node27 -->
<g id="edge34" class="edge">
<title>Node1&#45;&gt;Node27</title>
<path fill="none" stroke="midnightblue" d="M65.57,-422.9C71.91,-382.69 94.81,-272.17 161,-215 210.85,-171.94 257.68,-222.84 304,-176 348.57,-130.93 297.47,-85 340,-38 346.82,-30.46 355.87,-24.94 365.32,-20.91"/>
<polygon fill="midnightblue" stroke="midnightblue" points="366.69,-24.13 374.83,-17.35 364.24,-17.57 366.69,-24.13"/>
</g>
<!-- Node28 -->
<g id="node28" class="node">
<title>Node28</title>
<g id="a_node28"><a xlink:href="group__l4util__bitops.html#ga530be11fa91000db4c4539558e115bd2" target="_top" xlink:title="Bit scan reverse.">
<polygon fill="white" stroke="black" points="201.5,-109.5 201.5,-128.5 263.5,-128.5 263.5,-109.5 201.5,-109.5"/>
<text text-anchor="middle" x="232.5" y="-116.5" font-family="Helvetica,sans-Serif" font-size="10.00">l4util_bsr</text>
</a>
</g>
</g>
<!-- Node1&#45;&gt;Node28 -->
<g id="edge35" class="edge">
<title>Node1&#45;&gt;Node28</title>
<path fill="none" stroke="midnightblue" d="M63.65,-422.94C64.99,-374.13 76.04,-218.73 161,-138 169.23,-130.18 180.33,-125.5 191.29,-122.73"/>
<polygon fill="midnightblue" stroke="midnightblue" points="192.14,-126.13 201.23,-120.69 190.73,-119.27 192.14,-126.13"/>
</g>
<!-- Node29 -->
<g id="node29" class="node">
<title>Node29</title>
<g id="a_node29"><a xlink:href="classL4virtio_1_1Driver_1_1Device.html#a07dd8cdbc1ce12dca8af6a540463ae23" target="_top" xlink:title="Maximum queue size allowed by the device.">
<polygon fill="white" stroke="black" points="168,-60 168,-90 297,-90 297,-60 168,-60"/>
<text text-anchor="start" x="176" y="-78" font-family="Helvetica,sans-Serif" font-size="10.00">L4virtio::Driver::Device</text>
<text text-anchor="middle" x="232.5" y="-67" font-family="Helvetica,sans-Serif" font-size="10.00">::max_queue_size</text>
</a>
</g>
</g>
<!-- Node1&#45;&gt;Node29 -->
<g id="edge37" class="edge">
<title>Node1&#45;&gt;Node29</title>
<path fill="none" stroke="midnightblue" d="M63.27,-422.86C63.32,-370.64 70.56,-196.03 161,-100 162.37,-98.55 163.83,-97.18 165.36,-95.89"/>
<polygon fill="midnightblue" stroke="midnightblue" points="167.43,-98.71 173.57,-90.08 163.39,-93 167.43,-98.71"/>
</g>
<!-- Node30 -->
<g id="node30" class="node">
<title>Node30</title>
<g id="a_node30"><a xlink:href="classL4virtio_1_1Driver_1_1Device.html#a7a5c440b8353e0bd030a552334e7e5a3" target="_top" xlink:title="Share a dataspace with the device.">
<polygon fill="white" stroke="black" points="168,-448 168,-478 297,-478 297,-448 168,-448"/>
<text text-anchor="start" x="176" y="-466" font-family="Helvetica,sans-Serif" font-size="10.00">L4virtio::Driver::Device</text>
<text text-anchor="middle" x="232.5" y="-455" font-family="Helvetica,sans-Serif" font-size="10.00">::register_ds</text>
</a>
</g>
</g>
<!-- Node1&#45;&gt;Node30 -->
<g id="edge38" class="edge">
<title>Node1&#45;&gt;Node30</title>
<path fill="none" stroke="midnightblue" d="M125.1,-447.17C135.79,-448.76 146.99,-450.42 157.95,-452.06"/>
<polygon fill="midnightblue" stroke="midnightblue" points="157.53,-455.53 167.93,-453.54 158.56,-448.61 157.53,-455.53"/>
</g>
<!-- Node32 -->
<g id="node32" class="node">
<title>Node32</title>
<g id="a_node32"><a xlink:href="classL4virtio_1_1Virtqueue.html#a6f8cdc52ebe6322c3023e05e0e055293" target="_top" xlink:title="Calculate the total size for a virtqueue of the given dimensions.">
<polygon fill="white" stroke="black" points="179,-224 179,-254 286,-254 286,-224 179,-224"/>
<text text-anchor="start" x="187" y="-242" font-family="Helvetica,sans-Serif" font-size="10.00">L4virtio::Virtqueue</text>
<text text-anchor="middle" x="232.5" y="-231" font-family="Helvetica,sans-Serif" font-size="10.00">::total_size</text>
</a>
</g>
</g>
<!-- Node1&#45;&gt;Node32 -->
<g id="edge41" class="edge">
<title>Node1&#45;&gt;Node32</title>
<path fill="none" stroke="midnightblue" d="M74.45,-423C92.02,-399.14 127.92,-351.34 161,-313 176.35,-295.2 194.69,-276.01 208.82,-261.63"/>
<polygon fill="midnightblue" stroke="midnightblue" points="211.65,-263.75 216.19,-254.18 206.67,-258.83 211.65,-263.75"/>
</g>
<!-- Node36 -->
<g id="node36" class="node">
<title>Node36</title>
<g id="a_node36"><a xlink:href="classL4virtio_1_1Virtqueue.html#a80c6d7100b025658ad3c05a844e4391b" target="_top" xlink:title="Get the offset of the used ring from the descriptor table.">
<polygon fill="white" stroke="black" points="179,-11 179,-41 286,-41 286,-11 179,-11"/>
<text text-anchor="start" x="187" y="-29" font-family="Helvetica,sans-Serif" font-size="10.00">L4virtio::Virtqueue</text>
<text text-anchor="middle" x="232.5" y="-18" font-family="Helvetica,sans-Serif" font-size="10.00">::used_offset</text>
</a>
</g>
</g>
<!-- Node1&#45;&gt;Node36 -->
<g id="edge50" class="edge">
<title>Node1&#45;&gt;Node36</title>
<path fill="none" stroke="midnightblue" d="M65.41,-422.78C73.77,-358.26 109.12,-108 161,-51 163.72,-48.01 166.83,-45.37 170.19,-43.05"/>
<polygon fill="midnightblue" stroke="midnightblue" points="172.1,-45.99 178.96,-37.91 168.56,-39.95 172.1,-45.99"/>
</g>
<!-- Node4 -->
<g id="node4" class="node">
<title>Node4</title>
<g id="a_node4"><a xlink:href="namespaceL4Re.html#ae27ac6f274f4ad1267d0d1c0c033c00b" target="_top" xlink:title="Generate C++ exception.">
<polygon fill="white" stroke="black" points="544.5,-767.5 544.5,-786.5 647.5,-786.5 647.5,-767.5 544.5,-767.5"/>
<text text-anchor="middle" x="596" y="-774.5" font-family="Helvetica,sans-Serif" font-size="10.00">L4Re::throw_error</text>
</a>
</g>
</g>
<!-- Node3&#45;&gt;Node4 -->
<g id="edge3" class="edge">
<title>Node3&#45;&gt;Node4</title>
<path fill="none" stroke="midnightblue" d="M457.33,-762.26C480.07,-764.7 509.04,-767.8 534.54,-770.53"/>
<polygon fill="midnightblue" stroke="midnightblue" points="534.16,-774.01 544.48,-771.59 534.91,-767.05 534.16,-774.01"/>
</g>
<!-- Node5&#45;&gt;Node4 -->
<g id="edge5" class="edge">
<title>Node5&#45;&gt;Node4</title>
<path fill="none" stroke="midnightblue" d="M456.89,-791.78C479.61,-789.35 508.67,-786.24 534.25,-783.5"/>
<polygon fill="midnightblue" stroke="midnightblue" points="534.67,-786.98 544.24,-782.43 533.92,-780.02 534.67,-786.98"/>
</g>
<!-- Node7 -->
<g id="node7" class="node">
<title>Node7</title>
<g id="a_node7"><a xlink:href="classL4virtio_1_1Device.html#a47218ed005d79308d0e297d1a731a517" target="_top" xlink:title="Trigger queue configuration of the given queue.">
<polygon fill="white" stroke="black" points="352.5,-410 352.5,-440 480.5,-440 480.5,-410 352.5,-410"/>
<text text-anchor="start" x="360.5" y="-428" font-family="Helvetica,sans-Serif" font-size="10.00">L4virtio::Device::config</text>
<text text-anchor="middle" x="416.5" y="-417" font-family="Helvetica,sans-Serif" font-size="10.00">_queue</text>
</a>
</g>
</g>
<!-- Node6&#45;&gt;Node7 -->
<g id="edge7" class="edge">
<title>Node6&#45;&gt;Node7</title>
<path fill="none" stroke="midnightblue" d="M297.15,-417.85C311.73,-418.73 327.34,-419.67 342.28,-420.57"/>
<polygon fill="midnightblue" stroke="midnightblue" points="342.3,-424.08 352.5,-421.19 342.72,-417.1 342.3,-424.08"/>
</g>
<!-- Node8&#45;&gt;Node5 -->
<g id="edge9" class="edge">
<title>Node8&#45;&gt;Node5</title>
<path fill="none" stroke="midnightblue" d="M297.15,-796C319.79,-796 344.92,-796 366.18,-796"/>
<polygon fill="midnightblue" stroke="midnightblue" points="366.28,-799.5 376.28,-796 366.28,-792.5 366.28,-799.5"/>
</g>
<!-- Node9 -->
<g id="node9" class="node">
<title>Node9</title>
<g id="a_node9"><a xlink:href="group__l4virtio__transport.html#gae37bcd45875b27b302320e6b9580191d" target="_top" xlink:title="Check if the given bit in a feature map is set.">
<polygon fill="white" stroke="black" points="360,-874.5 360,-893.5 473,-893.5 473,-874.5 360,-874.5"/>
<text text-anchor="middle" x="416.5" y="-881.5" font-family="Helvetica,sans-Serif" font-size="10.00">l4virtio_get_feature</text>
</a>
</g>
</g>
<!-- Node8&#45;&gt;Node9 -->
<g id="edge10" class="edge">
<title>Node8&#45;&gt;Node9</title>
<path fill="none" stroke="midnightblue" d="M286.3,-811.09C292.53,-813.91 298.58,-817.19 304,-821 324.67,-835.54 318.67,-851.45 340,-865 343.37,-867.14 346.97,-869.04 350.69,-870.72"/>
<polygon fill="midnightblue" stroke="midnightblue" points="349.58,-874.05 360.17,-874.49 352.17,-867.54 349.58,-874.05"/>
</g>
<!-- Node10 -->
<g id="node10" class="node">
<title>Node10</title>
<g id="a_node10"><a xlink:href="classL4virtio_1_1Device.html#ab2e1044b9a29628c3ed7945b9dfe4cad" target="_top" xlink:title="Write the VIRTIO status register.">
<polygon fill="white" stroke="black" points="359.5,-825 359.5,-855 473.5,-855 473.5,-825 359.5,-825"/>
<text text-anchor="start" x="367.5" y="-843" font-family="Helvetica,sans-Serif" font-size="10.00">L4virtio::Device::set</text>
<text text-anchor="middle" x="416.5" y="-832" font-family="Helvetica,sans-Serif" font-size="10.00">_status</text>
</a>
</g>
</g>
<!-- Node8&#45;&gt;Node10 -->
<g id="edge11" class="edge">
<title>Node8&#45;&gt;Node10</title>
<path fill="none" stroke="midnightblue" d="M295.63,-811.02C312.93,-815.2 331.78,-819.76 349.31,-824"/>
<polygon fill="midnightblue" stroke="midnightblue" points="348.91,-827.5 359.45,-826.45 350.56,-820.7 348.91,-827.5"/>
</g>
<!-- Node11&#45;&gt;Node3 -->
<g id="edge17" class="edge">
<title>Node11&#45;&gt;Node3</title>
<path fill="none" stroke="midnightblue" d="M272.72,-642.02C283.83,-647.66 295.27,-654.95 304,-664 329.67,-690.61 311.36,-715.61 340,-739 347.46,-745.09 356.61,-749.26 365.94,-752.11"/>
<polygon fill="midnightblue" stroke="midnightblue" points="365.11,-755.51 375.67,-754.63 366.86,-748.74 365.11,-755.51"/>
</g>
<!-- Node11&#45;&gt;Node5 -->
<g id="edge18" class="edge">
<title>Node11&#45;&gt;Node5</title>
<path fill="none" stroke="midnightblue" d="M244.27,-642.08C258.11,-661.48 282.89,-696.22 304,-726 320.05,-748.63 317.12,-761.3 340,-777 347.94,-782.45 357.31,-786.34 366.7,-789.11"/>
<polygon fill="midnightblue" stroke="midnightblue" points="365.87,-792.51 376.43,-791.61 367.62,-785.73 365.87,-792.51"/>
</g>
<!-- Node11&#45;&gt;Node10 -->
<g id="edge24" class="edge">
<title>Node11&#45;&gt;Node10</title>
<path fill="none" stroke="midnightblue" d="M240.28,-642.03C258.63,-682.13 309.92,-790.3 340,-815 343.24,-817.66 346.78,-820.04 350.49,-822.18"/>
<polygon fill="midnightblue" stroke="midnightblue" points="348.92,-825.3 359.42,-826.71 352.09,-819.06 348.92,-825.3"/>
</g>
<!-- Node12 -->
<g id="node12" class="node">
<title>Node12</title>
<g id="a_node12"><a xlink:href="classL4_1_1Icu.html#ada7541da586ea09b925b4d90d7dc357e" target="_top" xlink:title="Bind an interrupt line of an interrupt controller to an interrupt object.">
<polygon fill="white" stroke="black" points="379,-573.5 379,-592.5 454,-592.5 454,-573.5 379,-573.5"/>
<text text-anchor="middle" x="416.5" y="-580.5" font-family="Helvetica,sans-Serif" font-size="10.00">L4::Icu::bind</text>
</a>
</g>
</g>
<!-- Node11&#45;&gt;Node12 -->
<g id="edge13" class="edge">
<title>Node11&#45;&gt;Node12</title>
<path fill="none" stroke="midnightblue" d="M295.63,-611.98C319.65,-606.17 346.66,-599.64 368.96,-594.25"/>
<polygon fill="midnightblue" stroke="midnightblue" points="369.95,-597.61 378.84,-591.86 368.3,-590.81 369.95,-597.61"/>
</g>
<!-- Node16 -->
<g id="node16" class="node">
<title>Node16</title>
<g id="a_node16"><a xlink:href="classL4virtio_1_1Device.html#a47e53efa92534451e46ecd4fef7060da" target="_top" xlink:title="Get the dataspace with the L4virtio configuration page.">
<polygon fill="white" stroke="black" points="351,-699 351,-729 482,-729 482,-699 351,-699"/>
<text text-anchor="start" x="359" y="-717" font-family="Helvetica,sans-Serif" font-size="10.00">L4virtio::Device::device</text>
<text text-anchor="middle" x="416.5" y="-706" font-family="Helvetica,sans-Serif" font-size="10.00">_config</text>
</a>
</g>
</g>
<!-- Node11&#45;&gt;Node16 -->
<g id="edge19" class="edge">
<title>Node11&#45;&gt;Node16</title>
<path fill="none" stroke="midnightblue" d="M264.57,-642.1C277.05,-648.47 291.42,-656.21 304,-664 320.78,-674.39 322.37,-681.12 340,-690 343.73,-691.88 347.64,-693.65 351.63,-695.31"/>
<polygon fill="midnightblue" stroke="midnightblue" points="350.46,-698.61 361.05,-698.99 353.01,-692.09 350.46,-698.61"/>
</g>
<!-- Node17 -->
<g id="node17" class="node">
<title>Node17</title>
<g id="a_node17"><a xlink:href="classL4virtio_1_1Device.html#a2c81a536513972d43f95394d88c39147" target="_top" xlink:title="Get the notification interrupt corresponding to the given index.">
<polygon fill="white" stroke="black" points="351,-650 351,-680 482,-680 482,-650 351,-650"/>
<text text-anchor="start" x="359" y="-668" font-family="Helvetica,sans-Serif" font-size="10.00">L4virtio::Device::device</text>
<text text-anchor="middle" x="416.5" y="-657" font-family="Helvetica,sans-Serif" font-size="10.00">_notification_irq</text>
</a>
</g>
</g>
<!-- Node11&#45;&gt;Node17 -->
<g id="edge20" class="edge">
<title>Node11&#45;&gt;Node17</title>
<path fill="none" stroke="midnightblue" d="M297.15,-640.29C311.31,-643.25 326.45,-646.41 341,-649.44"/>
<polygon fill="midnightblue" stroke="midnightblue" points="340.45,-652.91 350.96,-651.52 341.88,-646.05 340.45,-652.91"/>
</g>
<!-- Node11&#45;&gt;Node18 -->
<g id="edge21" class="edge">
<title>Node11&#45;&gt;Node18</title>
<path fill="none" stroke="midnightblue" d="M254.97,-611.78C275.82,-597.62 308.81,-576.83 340,-564 347.21,-561.03 355,-558.44 362.74,-556.2"/>
<polygon fill="midnightblue" stroke="midnightblue" points="363.75,-559.56 372.48,-553.56 361.91,-552.8 363.75,-559.56"/>
</g>
<!-- Node19 -->
<g id="node19" class="node">
<title>Node19</title>
<g id="a_node19"><a xlink:href="group__l4__ipc__err__api.html#ga05c11e3e10b6c2aa941396ac2018899f" target="_top" xlink:title="Return error code of a system call return message tag or the tag label.">
<polygon fill="white" stroke="black" points="389.5,-611.5 389.5,-630.5 443.5,-630.5 443.5,-611.5 389.5,-611.5"/>
<text text-anchor="middle" x="416.5" y="-618.5" font-family="Helvetica,sans-Serif" font-size="10.00">l4_error</text>
</a>
</g>
</g>
<!-- Node11&#45;&gt;Node19 -->
<g id="edge22" class="edge">
<title>Node11&#45;&gt;Node19</title>
<path fill="none" stroke="midnightblue" d="M297.15,-624.9C324.53,-624 355.55,-622.98 378.96,-622.2"/>
<polygon fill="midnightblue" stroke="midnightblue" points="379.27,-625.7 389.15,-621.87 379.04,-618.7 379.27,-625.7"/>
</g>
<!-- Node11&#45;&gt;Node20 -->
<g id="edge23" class="edge">
<title>Node11&#45;&gt;Node20</title>
<path fill="none" stroke="midnightblue" d="M245.16,-611.79C263.08,-589.51 299.58,-548.22 340,-526 344.15,-523.72 348.58,-521.71 353.13,-519.93"/>
<polygon fill="midnightblue" stroke="midnightblue" points="354.32,-523.22 362.6,-516.61 352,-516.62 354.32,-523.22"/>
</g>
<!-- Node13 -->
<g id="node13" class="node">
<title>Node13</title>
<g id="a_node13"><a xlink:href="classL4_1_1Cap__base.html#a90ff089ca2442b128c2b2b0e1c22c6d7" target="_top" xlink:title="Return capability selector.">
<polygon fill="white" stroke="black" points="544,-611.5 544,-630.5 648,-630.5 648,-611.5 544,-611.5"/>
<text text-anchor="middle" x="596" y="-618.5" font-family="Helvetica,sans-Serif" font-size="10.00">L4::Cap_base::cap</text>
</a>
</g>
</g>
<!-- Node12&#45;&gt;Node13 -->
<g id="edge14" class="edge">
<title>Node12&#45;&gt;Node13</title>
<path fill="none" stroke="midnightblue" d="M454.28,-590.87C479.15,-596.2 512.43,-603.32 540.38,-609.31"/>
<polygon fill="midnightblue" stroke="midnightblue" points="539.9,-612.78 550.41,-611.45 541.36,-605.94 539.9,-612.78"/>
</g>
<!-- Node14 -->
<g id="node14" class="node">
<title>Node14</title>
<g id="a_node14"><a xlink:href="classL4_1_1Kobject.html#a4f2117ae76762f4084e6a1adb915863c" target="_top" xlink:title="Return capability selector.">
<polygon fill="white" stroke="black" points="549.5,-573.5 549.5,-592.5 642.5,-592.5 642.5,-573.5 549.5,-573.5"/>
<text text-anchor="middle" x="596" y="-580.5" font-family="Helvetica,sans-Serif" font-size="10.00">L4::Kobject::cap</text>
</a>
</g>
</g>
<!-- Node12&#45;&gt;Node14 -->
<g id="edge15" class="edge">
<title>Node12&#45;&gt;Node14</title>
<path fill="none" stroke="midnightblue" d="M454.28,-583C478.77,-583 511.41,-583 539.09,-583"/>
<polygon fill="midnightblue" stroke="midnightblue" points="539.43,-586.5 549.43,-583 539.43,-579.5 539.43,-586.5"/>
</g>
<!-- Node15 -->
<g id="node15" class="node">
<title>Node15</title>
<g id="a_node15"><a xlink:href="group__l4__icu__api.html#ga29217a67f405c5d860002dd902bf71e4" target="_top" xlink:title="Bind an interrupt line of an interrupt controller to an interrupt object.">
<polygon fill="white" stroke="black" points="554.5,-535.5 554.5,-554.5 637.5,-554.5 637.5,-535.5 554.5,-535.5"/>
<text text-anchor="middle" x="596" y="-542.5" font-family="Helvetica,sans-Serif" font-size="10.00">l4_icu_bind_u</text>
</a>
</g>
</g>
<!-- Node12&#45;&gt;Node15 -->
<g id="edge16" class="edge">
<title>Node12&#45;&gt;Node15</title>
<path fill="none" stroke="midnightblue" d="M454.28,-575.13C480.35,-569.55 515.65,-561.99 544.38,-555.84"/>
<polygon fill="midnightblue" stroke="midnightblue" points="545.2,-559.24 554.24,-553.73 543.73,-552.4 545.2,-559.24"/>
</g>
<!-- Node22 -->
<g id="node22" class="node">
<title>Node22</title>
<g id="a_node22"><a xlink:href="classL4virtio_1_1Driver_1_1Virtqueue.html#a2b806bcf98022b49453a80bdd2944b04" target="_top" xlink:title="Return a reference to a descriptor in the descriptor table.">
<polygon fill="white" stroke="black" points="345,-224 345,-254 488,-254 488,-224 345,-224"/>
<text text-anchor="start" x="353" y="-242" font-family="Helvetica,sans-Serif" font-size="10.00">L4virtio::Driver::Virtqueue</text>
<text text-anchor="middle" x="416.5" y="-231" font-family="Helvetica,sans-Serif" font-size="10.00">::desc</text>
</a>
</g>
</g>
<!-- Node21&#45;&gt;Node22 -->
<g id="edge27" class="edge">
<title>Node21&#45;&gt;Node22</title>
<path fill="none" stroke="midnightblue" d="M252.12,-321.82C272.62,-305.7 307.06,-280.33 340,-264 344.52,-261.76 349.29,-259.65 354.15,-257.67"/>
<polygon fill="midnightblue" stroke="midnightblue" points="355.48,-260.91 363.55,-254.05 352.96,-254.38 355.48,-260.91"/>
</g>
<!-- Node23 -->
<g id="node23" class="node">
<title>Node23</title>
<g id="a_node23"><a xlink:href="classL4virtio_1_1Driver_1_1Virtqueue.html#ac31099e5abf48745f518aed17b1dee54" target="_top" xlink:title="Initialize the descriptor table and the index structures of this queue.">
<polygon fill="white" stroke="black" points="345,-322 345,-352 488,-352 488,-322 345,-322"/>
<text text-anchor="start" x="353" y="-340" font-family="Helvetica,sans-Serif" font-size="10.00">L4virtio::Driver::Virtqueue</text>
<text text-anchor="middle" x="416.5" y="-329" font-family="Helvetica,sans-Serif" font-size="10.00">::initialize_rings</text>
</a>
</g>
</g>
<!-- Node21&#45;&gt;Node23 -->
<g id="edge28" class="edge">
<title>Node21&#45;&gt;Node23</title>
<path fill="none" stroke="midnightblue" d="M304.13,-337C314.17,-337 324.56,-337 334.78,-337"/>
<polygon fill="midnightblue" stroke="midnightblue" points="334.91,-340.5 344.91,-337 334.91,-333.5 334.91,-340.5"/>
</g>
<!-- Node24 -->
<g id="node24" class="node">
<title>Node24</title>
<g id="a_node24"><a xlink:href="classL4virtio_1_1Virtqueue.html#af61e3e4e436b93f37f22243a1c0ffe0e" target="_top" xlink:title=" ">
<polygon fill="white" stroke="black" points="529,-180.5 529,-199.5 663,-199.5 663,-180.5 529,-180.5"/>
<text text-anchor="middle" x="596" y="-187.5" font-family="Helvetica,sans-Serif" font-size="10.00">L4virtio::Virtqueue::num</text>
</a>
</g>
</g>
<!-- Node21&#45;&gt;Node24 -->
<g id="edge30" class="edge">
<title>Node21&#45;&gt;Node24</title>
<path fill="none" stroke="midnightblue" d="M267.64,-352.11C319.9,-372.77 421.23,-402.88 493,-362 551.48,-328.69 579.88,-247.19 590.23,-209.59"/>
<polygon fill="midnightblue" stroke="midnightblue" points="593.63,-210.39 592.77,-199.83 586.86,-208.62 593.63,-210.39"/>
</g>
<!-- Node25 -->
<g id="node25" class="node">
<title>Node25</title>
<g id="a_node25"><a xlink:href="classL4virtio_1_1Virtqueue.html#a109ea5677dd074df1d2c6a06056c7d82" target="_top" xlink:title="Enable this queue.">
<polygon fill="white" stroke="black" points="363,-273 363,-303 470,-303 470,-273 363,-273"/>
<text text-anchor="start" x="371" y="-291" font-family="Helvetica,sans-Serif" font-size="10.00">L4virtio::Virtqueue</text>
<text text-anchor="middle" x="416.5" y="-280" font-family="Helvetica,sans-Serif" font-size="10.00">::setup</text>
</a>
</g>
</g>
<!-- Node21&#45;&gt;Node25 -->
<g id="edge31" class="edge">
<title>Node21&#45;&gt;Node25</title>
<path fill="none" stroke="midnightblue" d="M289.59,-321.9C309.61,-316.51 332.28,-310.41 352.81,-304.88"/>
<polygon fill="midnightblue" stroke="midnightblue" points="353.96,-308.19 362.7,-302.21 352.14,-301.43 353.96,-308.19"/>
</g>
<!-- Node23&#45;&gt;Node24 -->
<g id="edge29" class="edge">
<title>Node23&#45;&gt;Node24</title>
<path fill="none" stroke="midnightblue" d="M476.75,-321.84C482.46,-319.31 487.98,-316.38 493,-313 534.59,-284.97 568.31,-235.18 584.53,-208.35"/>
<polygon fill="midnightblue" stroke="midnightblue" points="587.63,-209.98 589.7,-199.59 581.6,-206.42 587.63,-209.98"/>
</g>
<!-- Node25&#45;&gt;Node24 -->
<g id="edge32" class="edge">
<title>Node25&#45;&gt;Node24</title>
<path fill="none" stroke="midnightblue" d="M470.35,-273.59C478.11,-270.8 485.88,-267.6 493,-264 524.47,-248.11 556.74,-222.9 576.33,-206.4"/>
<polygon fill="midnightblue" stroke="midnightblue" points="578.83,-208.87 584.15,-199.71 574.28,-203.55 578.83,-208.87"/>
</g>
<!-- Node30&#45;&gt;Node20 -->
<g id="edge39" class="edge">
<title>Node30&#45;&gt;Node20</title>
<path fill="none" stroke="midnightblue" d="M295.63,-478.02C318.65,-483.59 344.43,-489.82 366.16,-495.07"/>
<polygon fill="midnightblue" stroke="midnightblue" points="365.61,-498.54 376.15,-497.49 367.26,-491.74 365.61,-498.54"/>
</g>
<!-- Node31 -->
<g id="node31" class="node">
<title>Node31</title>
<g id="a_node31"><a xlink:href="classL4virtio_1_1Device.html#a033005cb79e876d02b8ca405ffadca2b" target="_top" xlink:title="Register a shared data space with VIRTIO host.">
<polygon fill="white" stroke="black" points="340,-459.5 340,-478.5 493,-478.5 493,-459.5 340,-459.5"/>
<text text-anchor="middle" x="416.5" y="-466.5" font-family="Helvetica,sans-Serif" font-size="10.00">L4virtio::Device::register_ds</text>
</a>
</g>
</g>
<!-- Node30&#45;&gt;Node31 -->
<g id="edge40" class="edge">
<title>Node30&#45;&gt;Node31</title>
<path fill="none" stroke="midnightblue" d="M297.15,-465.1C307.67,-465.45 318.73,-465.81 329.68,-466.17"/>
<polygon fill="midnightblue" stroke="midnightblue" points="329.58,-469.67 339.69,-466.5 329.81,-462.67 329.58,-469.67"/>
</g>
<!-- Node32&#45;&gt;Node24 -->
<g id="edge47" class="edge">
<title>Node32&#45;&gt;Node24</title>
<path fill="none" stroke="midnightblue" d="M285.06,-223.82C292.17,-219.92 298.8,-215.06 304,-209 346.12,-159.92 288.92,-107.68 340,-68 393.7,-26.29 431.4,-39.21 493,-68 538.86,-89.44 571.36,-142.76 586.1,-171.29"/>
<polygon fill="midnightblue" stroke="midnightblue" points="582.98,-172.87 590.57,-180.26 589.24,-169.75 582.98,-172.87"/>
</g>
<!-- Node32&#45;&gt;Node27 -->
<g id="edge46" class="edge">
<title>Node32&#45;&gt;Node27</title>
<path fill="none" stroke="midnightblue" d="M285.66,-223.84C292.61,-219.94 299.03,-215.07 304,-209 354.28,-147.54 286.87,-93.02 340,-34 346.62,-26.64 355.49,-21.52 364.82,-17.97"/>
<polygon fill="midnightblue" stroke="midnightblue" points="366.19,-21.2 374.63,-14.8 364.04,-14.54 366.19,-21.2"/>
</g>
<!-- Node33 -->
<g id="node33" class="node">
<title>Node33</title>
<g id="a_node33"><a xlink:href="classL4virtio_1_1Virtqueue.html#a962767a117dad07184f59191d399f9ce" target="_top" xlink:title="Calculate the size of the available ring for num entries.">
<polygon fill="white" stroke="black" points="363,-175 363,-205 470,-205 470,-175 363,-175"/>
<text text-anchor="start" x="371" y="-193" font-family="Helvetica,sans-Serif" font-size="10.00">L4virtio::Virtqueue</text>
<text text-anchor="middle" x="416.5" y="-182" font-family="Helvetica,sans-Serif" font-size="10.00">::avail_size</text>
</a>
</g>
</g>
<!-- Node32&#45;&gt;Node33 -->
<g id="edge42" class="edge">
<title>Node32&#45;&gt;Node33</title>
<path fill="none" stroke="midnightblue" d="M286.14,-224.83C307.08,-219.19 331.34,-212.66 353.15,-206.79"/>
<polygon fill="midnightblue" stroke="midnightblue" points="354.23,-210.12 362.98,-204.14 352.41,-203.36 354.23,-210.12"/>
</g>
<!-- Node34 -->
<g id="node34" class="node">
<title>Node34</title>
<g id="a_node34"><a xlink:href="classL4virtio_1_1Virtqueue.html#a19410c09db5499023cb4b9f11742cd26" target="_top" xlink:title="Calculate the size of the descriptor table for num entries.">
<polygon fill="white" stroke="black" points="363,-126 363,-156 470,-156 470,-126 363,-126"/>
<text text-anchor="start" x="371" y="-144" font-family="Helvetica,sans-Serif" font-size="10.00">L4virtio::Virtqueue</text>
<text text-anchor="middle" x="416.5" y="-133" font-family="Helvetica,sans-Serif" font-size="10.00">::desc_size</text>
</a>
</g>
</g>
<!-- Node32&#45;&gt;Node34 -->
<g id="edge44" class="edge">
<title>Node32&#45;&gt;Node34</title>
<path fill="none" stroke="midnightblue" d="M277.74,-223.96C286.87,-219.84 296.09,-214.86 304,-209 324.02,-194.15 319.38,-180.01 340,-166 344.25,-163.12 348.85,-160.54 353.62,-158.25"/>
<polygon fill="midnightblue" stroke="midnightblue" points="355.18,-161.39 362.94,-154.18 352.38,-154.97 355.18,-161.39"/>
</g>
<!-- Node35 -->
<g id="node35" class="node">
<title>Node35</title>
<g id="a_node35"><a xlink:href="classL4virtio_1_1Virtqueue.html#a7747ac81d7fd21e1e55e43c2e7ead2ea" target="_top" xlink:title="Calculate the size of the used ring for num entries.">
<polygon fill="white" stroke="black" points="363,-77 363,-107 470,-107 470,-77 363,-77"/>
<text text-anchor="start" x="371" y="-95" font-family="Helvetica,sans-Serif" font-size="10.00">L4virtio::Virtqueue</text>
<text text-anchor="middle" x="416.5" y="-84" font-family="Helvetica,sans-Serif" font-size="10.00">::used_size</text>
</a>
</g>
</g>
<!-- Node32&#45;&gt;Node35 -->
<g id="edge48" class="edge">
<title>Node32&#45;&gt;Node35</title>
<path fill="none" stroke="midnightblue" d="M282.98,-223.99C290.7,-220.04 298.07,-215.11 304,-209 334.59,-177.5 308.14,-147.21 340,-117 344.01,-113.2 348.61,-109.98 353.51,-107.24"/>
<polygon fill="midnightblue" stroke="midnightblue" points="355.14,-110.34 362.62,-102.83 352.09,-104.04 355.14,-110.34"/>
</g>
<!-- Node33&#45;&gt;Node24 -->
<g id="edge43" class="edge">
<title>Node33&#45;&gt;Node24</title>
<path fill="none" stroke="midnightblue" d="M470.28,-190C485.51,-190 502.44,-190 518.8,-190"/>
<polygon fill="midnightblue" stroke="midnightblue" points="518.89,-193.5 528.89,-190 518.89,-186.5 518.89,-193.5"/>
</g>
<!-- Node34&#45;&gt;Node24 -->
<g id="edge45" class="edge">
<title>Node34&#45;&gt;Node24</title>
<path fill="none" stroke="midnightblue" d="M470.28,-155.57C495.87,-162.64 526.28,-171.03 550.66,-177.76"/>
<polygon fill="midnightblue" stroke="midnightblue" points="549.79,-181.15 560.36,-180.44 551.66,-174.4 549.79,-181.15"/>
</g>
<!-- Node35&#45;&gt;Node24 -->
<g id="edge49" class="edge">
<title>Node35&#45;&gt;Node24</title>
<path fill="none" stroke="midnightblue" d="M469.92,-107.07C477.81,-109.99 485.74,-113.31 493,-117 524.28,-132.91 556.6,-157.72 576.25,-173.91"/>
<polygon fill="midnightblue" stroke="midnightblue" points="574.19,-176.75 584.1,-180.48 578.68,-171.38 574.19,-176.75"/>
</g>
</g>
</svg>
