<?xml version="1.0" encoding="UTF-8" standalone="no"?>
<!DOCTYPE svg PUBLIC "-//W3C//DTD SVG 1.1//EN"
 "http://www.w3.org/Graphics/SVG/1.1/DTD/svg11.dtd">
<!-- Generated by graphviz version 2.43.0 (0)
 -->
<!-- Title: L4Re::Util::Counting_cap_alloc::alloc Pages: 1 -->
<svg width="315pt" height="401pt"
 viewBox="0.00 0.00 315.00 401.00" xmlns="http://www.w3.org/2000/svg" xmlns:xlink="http://www.w3.org/1999/xlink">
<g id="graph0" class="graph" transform="scale(1 1) rotate(0) translate(4 397)">
<title>L4Re::Util::Counting_cap_alloc::alloc</title>
<polygon fill="white" stroke="transparent" points="-4,4 -4,-397 311,-397 311,4 -4,4"/>
<!-- Node1 -->
<g id="node1" class="node">
<title>Node1</title>
<g id="a_node1"><a xlink:title="Allocate a new capability slot.">
<polygon fill="#bfbfbf" stroke="black" points="194,-181.5 194,-211.5 307,-211.5 307,-181.5 194,-181.5"/>
<text text-anchor="start" x="202" y="-199.5" font-family="Helvetica,sans-Serif" font-size="10.00">L4Re::Util::Counting</text>
<text text-anchor="middle" x="250.5" y="-188.5" font-family="Helvetica,sans-Serif" font-size="10.00">_cap_alloc::alloc</text>
</a>
</g>
</g>
<!-- Node2 -->
<g id="node2" class="node">
<title>Node2</title>
<g id="a_node2"><a xlink:href="classL4Re_1_1Util_1_1Counting__cap__alloc.html#a7620032a3a03d07e70b95f92776e82c2" target="_top" xlink:title="Allocate a new capability slot.">
<polygon fill="white" stroke="black" points="22.5,-362.5 22.5,-392.5 135.5,-392.5 135.5,-362.5 22.5,-362.5"/>
<text text-anchor="start" x="30.5" y="-380.5" font-family="Helvetica,sans-Serif" font-size="10.00">L4Re::Util::Counting</text>
<text text-anchor="middle" x="79" y="-369.5" font-family="Helvetica,sans-Serif" font-size="10.00">_cap_alloc::alloc</text>
</a>
</g>
</g>
<!-- Node1&#45;&gt;Node2 -->
<g id="edge1" class="edge">
<title>Node1&#45;&gt;Node2</title>
<path fill="none" stroke="midnightblue" d="M241.55,-221.31C229.2,-255.95 202.12,-318.49 158,-353.5 151.45,-358.7 143.78,-362.77 135.85,-365.97"/>
<polygon fill="midnightblue" stroke="midnightblue" points="244.98,-222.11 244.92,-211.52 238.36,-219.84 244.98,-222.11"/>
</g>
<!-- Node3 -->
<g id="node3" class="node">
<title>Node3</title>
<g id="a_node3"><a xlink:href="classL4Re_1_1Util_1_1Br__manager.html#aa501e7c126f7a2d7435c151574e8b26c" target="_top" xlink:title="Tells the server to allocate buffers for the given demand.">
<polygon fill="white" stroke="black" points="14.5,-313.5 14.5,-343.5 143.5,-343.5 143.5,-313.5 14.5,-313.5"/>
<text text-anchor="start" x="22.5" y="-331.5" font-family="Helvetica,sans-Serif" font-size="10.00">L4Re::Util::Br_manager</text>
<text text-anchor="middle" x="79" y="-320.5" font-family="Helvetica,sans-Serif" font-size="10.00">::alloc_buffer_demand</text>
</a>
</g>
</g>
<!-- Node1&#45;&gt;Node3 -->
<g id="edge2" class="edge">
<title>Node1&#45;&gt;Node3</title>
<path fill="none" stroke="midnightblue" d="M234.97,-220.2C218.95,-244.43 191.03,-281.54 158,-303.5 152.2,-307.36 145.76,-310.65 139.14,-313.46"/>
<polygon fill="midnightblue" stroke="midnightblue" points="238.03,-221.9 240.51,-211.6 232.15,-218.11 238.03,-221.9"/>
</g>
<!-- Node4 -->
<g id="node4" class="node">
<title>Node4</title>
<g id="a_node4"><a xlink:href="group__l4re__cap__api.html#gaa47ac0998b99a90c541a2df23ed9f4fe" target="_top" xlink:title="Allocate a capability slot and wrap it in a Ref_cap.">
<polygon fill="white" stroke="black" points="10,-275 10,-294 148,-294 148,-275 10,-275"/>
<text text-anchor="middle" x="79" y="-282" font-family="Helvetica,sans-Serif" font-size="10.00">L4Re::Util::make_ref_cap</text>
</a>
</g>
</g>
<!-- Node1&#45;&gt;Node4 -->
<g id="edge3" class="edge">
<title>Node1&#45;&gt;Node4</title>
<path fill="none" stroke="midnightblue" d="M226.17,-218.38C208.66,-233.68 183.41,-253.46 158,-265.5 149.94,-269.32 141.03,-272.42 132.21,-274.91"/>
<polygon fill="midnightblue" stroke="midnightblue" points="228.52,-220.97 233.65,-211.7 223.86,-215.75 228.52,-220.97"/>
</g>
<!-- Node5 -->
<g id="node5" class="node">
<title>Node5</title>
<g id="a_node5"><a xlink:href="group__l4re__cap__api.html#gaee6401b410f38f5cd94bb5406f742b65" target="_top" xlink:title="Allocate a capability slot and wrap it in a Ref_del_cap.">
<polygon fill="white" stroke="black" points="21,-225.5 21,-255.5 137,-255.5 137,-225.5 21,-225.5"/>
<text text-anchor="start" x="29" y="-243.5" font-family="Helvetica,sans-Serif" font-size="10.00">L4Re::Util::make_ref</text>
<text text-anchor="middle" x="79" y="-232.5" font-family="Helvetica,sans-Serif" font-size="10.00">_del_cap</text>
</a>
</g>
</g>
<!-- Node1&#45;&gt;Node5 -->
<g id="edge4" class="edge">
<title>Node1&#45;&gt;Node5</title>
<path fill="none" stroke="midnightblue" d="M183.99,-213.51C168.52,-217.52 152.14,-221.77 137.08,-225.68"/>
<polygon fill="midnightblue" stroke="midnightblue" points="185.2,-216.81 194,-210.91 183.44,-210.03 185.2,-216.81"/>
</g>
<!-- Node6 -->
<g id="node6" class="node">
<title>Node6</title>
<g id="a_node6"><a xlink:href="namespaceL4Re_1_1Util.html#a365e03bc16cebbdc705f6b977e9b584a" target="_top" xlink:title="Allocate a capability slot and wrap it in a Shared_cap.">
<polygon fill="white" stroke="black" points="0,-187 0,-206 158,-206 158,-187 0,-187"/>
<text text-anchor="middle" x="79" y="-194" font-family="Helvetica,sans-Serif" font-size="10.00">L4Re::Util::make_shared_cap</text>
</a>
</g>
</g>
<!-- Node1&#45;&gt;Node6 -->
<g id="edge5" class="edge">
<title>Node1&#45;&gt;Node6</title>
<path fill="none" stroke="midnightblue" d="M183.86,-196.5C175.41,-196.5 166.7,-196.5 158.08,-196.5"/>
<polygon fill="midnightblue" stroke="midnightblue" points="184,-200 194,-196.5 184,-193 184,-200"/>
</g>
<!-- Node7 -->
<g id="node7" class="node">
<title>Node7</title>
<g id="a_node7"><a xlink:href="namespaceL4Re_1_1Util.html#ab6ee1adc2284a9324243338e17aff922" target="_top" xlink:title="Allocate a capability slot and wrap it in a Shared_del_cap.">
<polygon fill="white" stroke="black" points="11.5,-137.5 11.5,-167.5 146.5,-167.5 146.5,-137.5 11.5,-137.5"/>
<text text-anchor="start" x="19.5" y="-155.5" font-family="Helvetica,sans-Serif" font-size="10.00">L4Re::Util::make_shared</text>
<text text-anchor="middle" x="79" y="-144.5" font-family="Helvetica,sans-Serif" font-size="10.00">_del_cap</text>
</a>
</g>
</g>
<!-- Node1&#45;&gt;Node7 -->
<g id="edge6" class="edge">
<title>Node1&#45;&gt;Node7</title>
<path fill="none" stroke="midnightblue" d="M184.15,-179.54C168.93,-175.58 152.83,-171.41 137.95,-167.54"/>
<polygon fill="midnightblue" stroke="midnightblue" points="183.44,-182.97 194,-182.09 185.2,-176.19 183.44,-182.97"/>
</g>
<!-- Node8 -->
<g id="node8" class="node">
<title>Node8</title>
<g id="a_node8"><a xlink:href="namespaceL4Re_1_1Util.html#ae08b4a4eb21c40fd6e104b6c1f79fc7f" target="_top" xlink:title="Allocate a capability slot and wrap it in an Unique_cap.">
<polygon fill="white" stroke="black" points="0,-99 0,-118 158,-118 158,-99 0,-99"/>
<text text-anchor="middle" x="79" y="-106" font-family="Helvetica,sans-Serif" font-size="10.00">L4Re::Util::make_unique_cap</text>
</a>
</g>
</g>
<!-- Node1&#45;&gt;Node8 -->
<g id="edge7" class="edge">
<title>Node1&#45;&gt;Node8</title>
<path fill="none" stroke="midnightblue" d="M225.28,-174.36C207.75,-159.43 182.87,-140.36 158,-128.5 149.04,-124.23 139.05,-120.79 129.29,-118.04"/>
<polygon fill="midnightblue" stroke="midnightblue" points="223.41,-177.38 233.26,-181.31 228.01,-172.11 223.41,-177.38"/>
</g>
<!-- Node9 -->
<g id="node9" class="node">
<title>Node9</title>
<g id="a_node9"><a xlink:href="namespaceL4Re_1_1Util.html#aedfe21f678c7bcd4a1897677f64473e9" target="_top" xlink:title="Allocate a capability slot and wrap it in an Unique_del_cap.">
<polygon fill="white" stroke="black" points="11.5,-49.5 11.5,-79.5 146.5,-79.5 146.5,-49.5 11.5,-49.5"/>
<text text-anchor="start" x="19.5" y="-67.5" font-family="Helvetica,sans-Serif" font-size="10.00">L4Re::Util::make_unique</text>
<text text-anchor="middle" x="79" y="-56.5" font-family="Helvetica,sans-Serif" font-size="10.00">_del_cap</text>
</a>
</g>
</g>
<!-- Node1&#45;&gt;Node9 -->
<g id="edge8" class="edge">
<title>Node1&#45;&gt;Node9</title>
<path fill="none" stroke="midnightblue" d="M234.97,-172.8C218.95,-148.57 191.03,-111.46 158,-89.5 152.2,-85.64 145.76,-82.35 139.14,-79.54"/>
<polygon fill="midnightblue" stroke="midnightblue" points="232.15,-174.89 240.51,-181.4 238.03,-171.1 232.15,-174.89"/>
</g>
<!-- Node10 -->
<g id="node10" class="node">
<title>Node10</title>
<g id="a_node10"><a xlink:href="classL4Re_1_1Util_1_1Br__manager.html#a55af0abcade1bbfef84ba3c2cfc331e8" target="_top" xlink:title="Allocate a new capability for the given receive buffer.">
<polygon fill="white" stroke="black" points="14.5,-0.5 14.5,-30.5 143.5,-30.5 143.5,-0.5 14.5,-0.5"/>
<text text-anchor="start" x="22.5" y="-18.5" font-family="Helvetica,sans-Serif" font-size="10.00">L4Re::Util::Br_manager</text>
<text text-anchor="middle" x="79" y="-7.5" font-family="Helvetica,sans-Serif" font-size="10.00">::realloc_rcv_cap</text>
</a>
</g>
</g>
<!-- Node1&#45;&gt;Node10 -->
<g id="edge9" class="edge">
<title>Node1&#45;&gt;Node10</title>
<path fill="none" stroke="midnightblue" d="M241.26,-171.39C228.71,-136.95 201.53,-75.36 158,-40.5 153.23,-36.68 147.86,-33.43 142.22,-30.68"/>
<polygon fill="midnightblue" stroke="midnightblue" points="238.08,-172.87 244.69,-181.15 244.68,-170.55 238.08,-172.87"/>
</g>
</g>
</svg>
