<?xml version="1.0" encoding="UTF-8" standalone="no"?>
<!DOCTYPE svg PUBLIC "-//W3C//DTD SVG 1.1//EN"
 "http://www.w3.org/Graphics/SVG/1.1/DTD/svg11.dtd">
<!-- Generated by graphviz version 2.43.0 (0)
 -->
<!-- Title: L4::Cap_base::cap Pages: 1 -->
<svg width="605pt" height="487pt"
 viewBox="0.00 0.00 605.00 486.50" xmlns="http://www.w3.org/2000/svg" xmlns:xlink="http://www.w3.org/1999/xlink">
<g id="graph0" class="graph" transform="scale(1 1) rotate(0) translate(4 482.5)">
<title>L4::Cap_base::cap</title>
<polygon fill="white" stroke="transparent" points="-4,4 -4,-482.5 601,-482.5 601,4 -4,4"/>
<!-- Node1 -->
<g id="node1" class="node">
<title>Node1</title>
<g id="a_node1"><a xlink:title="Return capability selector.">
<polygon fill="#bfbfbf" stroke="black" points="493,-229.5 493,-248.5 597,-248.5 597,-229.5 493,-229.5"/>
<text text-anchor="middle" x="545" y="-236.5" font-family="Helvetica,sans-Serif" font-size="10.00">L4::Cap_base::cap</text>
</a>
</g>
</g>
<!-- Node2 -->
<g id="node2" class="node">
<title>Node2</title>
<g id="a_node2"><a xlink:href="classL4Re_1_1Util_1_1Br__manager.html#aa501e7c126f7a2d7435c151574e8b26c" target="_top" xlink:title="Tells the server to allocate buffers for the given demand.">
<polygon fill="white" stroke="black" points="327,-448 327,-478 456,-478 456,-448 327,-448"/>
<text text-anchor="start" x="335" y="-466" font-family="Helvetica,sans-Serif" font-size="10.00">L4Re::Util::Br_manager</text>
<text text-anchor="middle" x="391.5" y="-455" font-family="Helvetica,sans-Serif" font-size="10.00">::alloc_buffer_demand</text>
</a>
</g>
</g>
<!-- Node1&#45;&gt;Node2 -->
<g id="edge1" class="edge">
<title>Node1&#45;&gt;Node2</title>
<path fill="none" stroke="midnightblue" d="M540.69,-258.89C533.07,-298.58 510.66,-388.17 457,-439 453.36,-442.45 449.17,-445.42 444.72,-447.96"/>
<polygon fill="midnightblue" stroke="midnightblue" points="544.16,-259.35 542.49,-248.88 537.27,-258.1 544.16,-259.35"/>
</g>
<!-- Node3 -->
<g id="node3" class="node">
<title>Node3</title>
<g id="a_node3"><a xlink:href="classL4vbus_1_1Vbus.html#a15085069054edbb9b221154e25db52b2" target="_top" xlink:title="Assign an L4Re::Dma_space to a DMA domain.">
<polygon fill="white" stroke="black" points="332,-399 332,-429 451,-429 451,-399 332,-399"/>
<text text-anchor="start" x="340" y="-417" font-family="Helvetica,sans-Serif" font-size="10.00">L4vbus::Vbus::assign</text>
<text text-anchor="middle" x="391.5" y="-406" font-family="Helvetica,sans-Serif" font-size="10.00">_dma_domain</text>
</a>
</g>
</g>
<!-- Node1&#45;&gt;Node3 -->
<g id="edge2" class="edge">
<title>Node1&#45;&gt;Node3</title>
<path fill="none" stroke="midnightblue" d="M537.6,-258.32C526.22,-289.87 499.57,-352.59 457,-389 452.53,-392.82 447.4,-396.1 442.04,-398.9"/>
<polygon fill="midnightblue" stroke="midnightblue" points="541.02,-259.15 540.99,-248.55 534.4,-256.85 541.02,-259.15"/>
</g>
<!-- Node4 -->
<g id="node4" class="node">
<title>Node4</title>
<g id="a_node4"><a xlink:href="classL4_1_1Icu.html#ada7541da586ea09b925b4d90d7dc357e" target="_top" xlink:title="Bind an interrupt line of an interrupt controller to an interrupt object.">
<polygon fill="white" stroke="black" points="354,-360.5 354,-379.5 429,-379.5 429,-360.5 354,-360.5"/>
<text text-anchor="middle" x="391.5" y="-367.5" font-family="Helvetica,sans-Serif" font-size="10.00">L4::Icu::bind</text>
</a>
</g>
</g>
<!-- Node1&#45;&gt;Node4 -->
<g id="edge3" class="edge">
<title>Node1&#45;&gt;Node4</title>
<path fill="none" stroke="midnightblue" d="M534.44,-257.59C520.68,-282.53 492.92,-326.51 457,-351 448.71,-356.66 438.7,-360.66 429.08,-363.47"/>
<polygon fill="midnightblue" stroke="midnightblue" points="537.54,-259.22 539.17,-248.75 531.37,-255.92 537.54,-259.22"/>
</g>
<!-- Node8 -->
<g id="node8" class="node">
<title>Node8</title>
<g id="a_node8"><a xlink:href="structL4_1_1Irq__mux.html#acfd63279449d20bef4226da9a01e5da9" target="_top" xlink:title="Attach an IRQ to this multiplexer.">
<polygon fill="white" stroke="black" points="338.5,-322.5 338.5,-341.5 444.5,-341.5 444.5,-322.5 338.5,-322.5"/>
<text text-anchor="middle" x="391.5" y="-329.5" font-family="Helvetica,sans-Serif" font-size="10.00">L4::Irq_mux::chain</text>
</a>
</g>
</g>
<!-- Node1&#45;&gt;Node8 -->
<g id="edge7" class="edge">
<title>Node1&#45;&gt;Node8</title>
<path fill="none" stroke="midnightblue" d="M527.58,-256.31C511.12,-272.73 484.37,-297.07 457,-312 449.28,-316.21 440.55,-319.67 432.06,-322.46"/>
<polygon fill="midnightblue" stroke="midnightblue" points="530.28,-258.54 534.78,-248.95 525.28,-253.64 530.28,-258.54"/>
</g>
<!-- Node9 -->
<g id="node9" class="node">
<title>Node9</title>
<g id="a_node9"><a xlink:href="classL4Re_1_1Smart__count__cap.html#a4f5fee6c54e153aba5b2cf33e4c5c5ec" target="_top" xlink:title="Copy operation for L4::Smart_cap (increment ref count).">
<polygon fill="white" stroke="black" points="326,-273 326,-303 457,-303 457,-273 326,-273"/>
<text text-anchor="start" x="334" y="-291" font-family="Helvetica,sans-Serif" font-size="10.00">L4Re::Smart_count_cap</text>
<text text-anchor="middle" x="391.5" y="-280" font-family="Helvetica,sans-Serif" font-size="10.00">::copy</text>
</a>
</g>
</g>
<!-- Node1&#45;&gt;Node9 -->
<g id="edge8" class="edge">
<title>Node1&#45;&gt;Node9</title>
<path fill="none" stroke="midnightblue" d="M504.67,-251.72C484.58,-258.22 460.01,-266.16 438.99,-272.96"/>
<polygon fill="midnightblue" stroke="midnightblue" points="505.99,-254.97 514.43,-248.56 503.84,-248.31 505.99,-254.97"/>
</g>
<!-- Node10 -->
<g id="node10" class="node">
<title>Node10</title>
<g id="a_node10"><a xlink:href="classL4Re_1_1Util_1_1Smart__count__cap.html#a5886f75acada6cddee1b8c3192476b93" target="_top" xlink:title="Copy operation for L4::Smart_cap (increment ref count).">
<polygon fill="white" stroke="black" points="326,-224 326,-254 457,-254 457,-224 326,-224"/>
<text text-anchor="start" x="334" y="-242" font-family="Helvetica,sans-Serif" font-size="10.00">L4Re::Util::Smart_count</text>
<text text-anchor="middle" x="391.5" y="-231" font-family="Helvetica,sans-Serif" font-size="10.00">_cap::copy</text>
</a>
</g>
</g>
<!-- Node1&#45;&gt;Node10 -->
<g id="edge9" class="edge">
<title>Node1&#45;&gt;Node10</title>
<path fill="none" stroke="midnightblue" d="M482.63,-239C474.24,-239 465.61,-239 457.17,-239"/>
<polygon fill="midnightblue" stroke="midnightblue" points="482.71,-242.5 492.71,-239 482.71,-235.5 482.71,-242.5"/>
</g>
<!-- Node11 -->
<g id="node11" class="node">
<title>Node11</title>
<g id="a_node11"><a xlink:href="classL4Re_1_1Util_1_1Smart__cap__auto.html#a4dfba4f2c4731689f1a53992c83371a6" target="_top" xlink:title="Free operation for L4::Smart_cap.">
<polygon fill="white" stroke="black" points="330.5,-175 330.5,-205 452.5,-205 452.5,-175 330.5,-175"/>
<text text-anchor="start" x="338.5" y="-193" font-family="Helvetica,sans-Serif" font-size="10.00">L4Re::Util::Smart_cap</text>
<text text-anchor="middle" x="391.5" y="-182" font-family="Helvetica,sans-Serif" font-size="10.00">_auto::free</text>
</a>
</g>
</g>
<!-- Node1&#45;&gt;Node11 -->
<g id="edge10" class="edge">
<title>Node1&#45;&gt;Node11</title>
<path fill="none" stroke="midnightblue" d="M504.67,-226.28C484.58,-219.78 460.01,-211.84 438.99,-205.04"/>
<polygon fill="midnightblue" stroke="midnightblue" points="503.84,-229.69 514.43,-229.44 505.99,-223.03 503.84,-229.69"/>
</g>
<!-- Node12 -->
<g id="node12" class="node">
<title>Node12</title>
<g id="a_node12"><a xlink:href="classL4Re_1_1Util_1_1Event__buffer__consumer__t.html#a4ed22b41ce4c7e6b93efae878b1415ef" target="_top" xlink:title="Continuously wait for events and process them.">
<polygon fill="white" stroke="black" points="326,-126 326,-156 457,-156 457,-126 326,-126"/>
<text text-anchor="start" x="334" y="-144" font-family="Helvetica,sans-Serif" font-size="10.00">L4Re::Util::Event_buffer</text>
<text text-anchor="middle" x="391.5" y="-133" font-family="Helvetica,sans-Serif" font-size="10.00">_consumer_t::process</text>
</a>
</g>
</g>
<!-- Node1&#45;&gt;Node12 -->
<g id="edge11" class="edge">
<title>Node1&#45;&gt;Node12</title>
<path fill="none" stroke="midnightblue" d="M527.43,-221.78C510.87,-205.36 484.04,-180.86 457,-165 451.33,-161.67 445.12,-158.67 438.87,-156"/>
<polygon fill="midnightblue" stroke="midnightblue" points="525.17,-224.47 534.69,-229.11 530.15,-219.54 525.17,-224.47"/>
</g>
<!-- Node13 -->
<g id="node13" class="node">
<title>Node13</title>
<g id="a_node13"><a xlink:href="classL4Re_1_1Util_1_1Br__manager.html#a55af0abcade1bbfef84ba3c2cfc331e8" target="_top" xlink:title="Allocate a new capability for the given receive buffer.">
<polygon fill="white" stroke="black" points="327,-77 327,-107 456,-107 456,-77 327,-77"/>
<text text-anchor="start" x="335" y="-95" font-family="Helvetica,sans-Serif" font-size="10.00">L4Re::Util::Br_manager</text>
<text text-anchor="middle" x="391.5" y="-84" font-family="Helvetica,sans-Serif" font-size="10.00">::realloc_rcv_cap</text>
</a>
</g>
</g>
<!-- Node1&#45;&gt;Node13 -->
<g id="edge12" class="edge">
<title>Node1&#45;&gt;Node13</title>
<path fill="none" stroke="midnightblue" d="M535.22,-220.11C521.9,-193.37 494.13,-144.56 457,-116 452.55,-112.58 447.56,-109.6 442.38,-107.02"/>
<polygon fill="midnightblue" stroke="midnightblue" points="532.11,-221.71 539.61,-229.19 538.41,-218.66 532.11,-221.71"/>
</g>
<!-- Node14 -->
<g id="node14" class="node">
<title>Node14</title>
<g id="a_node14"><a xlink:href="classL4_1_1Icu.html#aa34e56cdac798b1949fcc00553386b8b" target="_top" xlink:title="Remove binding of an interrupt line from the interrupt controller object.">
<polygon fill="white" stroke="black" points="348,-38.5 348,-57.5 435,-57.5 435,-38.5 348,-38.5"/>
<text text-anchor="middle" x="391.5" y="-45.5" font-family="Helvetica,sans-Serif" font-size="10.00">L4::Icu::unbind</text>
</a>
</g>
</g>
<!-- Node1&#45;&gt;Node14 -->
<g id="edge13" class="edge">
<title>Node1&#45;&gt;Node14</title>
<path fill="none" stroke="midnightblue" d="M539.43,-218.94C530.21,-183.04 505.96,-107.78 457,-67 450.72,-61.77 443.05,-57.98 435.23,-55.23"/>
<polygon fill="midnightblue" stroke="midnightblue" points="536.14,-220.22 541.91,-229.11 542.95,-218.57 536.14,-220.22"/>
</g>
<!-- Node15 -->
<g id="node15" class="node">
<title>Node15</title>
<g id="a_node15"><a xlink:href="classL4vbus_1_1Icu.html#a836655616e1572d6e5453a566c6d6372" target="_top" xlink:title="Request an L4::Icu capability for this Vbus&#39;s virtual ICU.">
<polygon fill="white" stroke="black" points="342.5,-0.5 342.5,-19.5 440.5,-19.5 440.5,-0.5 342.5,-0.5"/>
<text text-anchor="middle" x="391.5" y="-7.5" font-family="Helvetica,sans-Serif" font-size="10.00">L4vbus::Icu::vicu</text>
</a>
</g>
</g>
<!-- Node1&#45;&gt;Node15 -->
<g id="edge14" class="edge">
<title>Node1&#45;&gt;Node15</title>
<path fill="none" stroke="midnightblue" d="M541.52,-219.24C535.26,-177.74 514.94,-81.09 457,-29 452.23,-24.71 446.52,-21.38 440.52,-18.81"/>
<polygon fill="midnightblue" stroke="midnightblue" points="538.09,-219.97 542.93,-229.4 545.02,-219.01 538.09,-219.97"/>
</g>
<!-- Node5 -->
<g id="node5" class="node">
<title>Node5</title>
<g id="a_node5"><a xlink:href="classL4virtio_1_1Driver_1_1Device.html#a1c9b791b723e7e8ad2eae927094b487d" target="_top" xlink:title="Register a triggerable to receive notifications from the device.">
<polygon fill="white" stroke="black" points="161,-379 161,-409 290,-409 290,-379 161,-379"/>
<text text-anchor="start" x="169" y="-397" font-family="Helvetica,sans-Serif" font-size="10.00">L4virtio::Driver::Device</text>
<text text-anchor="middle" x="225.5" y="-386" font-family="Helvetica,sans-Serif" font-size="10.00">::bind_notification_irq</text>
</a>
</g>
</g>
<!-- Node4&#45;&gt;Node5 -->
<g id="edge4" class="edge">
<title>Node4&#45;&gt;Node5</title>
<path fill="none" stroke="midnightblue" d="M343.68,-376.85C327.05,-379.28 308.04,-382.07 290.24,-384.67"/>
<polygon fill="midnightblue" stroke="midnightblue" points="344.31,-380.3 353.7,-375.39 343.29,-373.37 344.31,-380.3"/>
</g>
<!-- Node6 -->
<g id="node6" class="node">
<title>Node6</title>
<g id="a_node6"><a xlink:href="classL4virtio_1_1Driver_1_1Device.html#a4f8b3d73188c3b6664755b81b80e441c" target="_top" xlink:title="Contacts the device and starts the initial handshake.">
<polygon fill="white" stroke="black" points="161,-330 161,-360 290,-360 290,-330 161,-330"/>
<text text-anchor="start" x="169" y="-348" font-family="Helvetica,sans-Serif" font-size="10.00">L4virtio::Driver::Device</text>
<text text-anchor="middle" x="225.5" y="-337" font-family="Helvetica,sans-Serif" font-size="10.00">::driver_connect</text>
</a>
</g>
</g>
<!-- Node4&#45;&gt;Node6 -->
<g id="edge5" class="edge">
<title>Node4&#45;&gt;Node6</title>
<path fill="none" stroke="midnightblue" d="M343.68,-362.86C327.05,-360.33 308.04,-357.43 290.24,-354.72"/>
<polygon fill="midnightblue" stroke="midnightblue" points="343.28,-366.34 353.7,-364.39 344.34,-359.42 343.28,-366.34"/>
</g>
<!-- Node7 -->
<g id="node7" class="node">
<title>Node7</title>
<g id="a_node7"><a xlink:href="classL4virtio_1_1Driver_1_1Block__device.html#a688df51bdec4ba327a6c0b48a83a115a" target="_top" xlink:title="Setup a connection to a device and set up shared memory.">
<polygon fill="white" stroke="black" points="0,-330 0,-360 125,-360 125,-330 0,-330"/>
<text text-anchor="start" x="8" y="-348" font-family="Helvetica,sans-Serif" font-size="10.00">L4virtio::Driver::Block</text>
<text text-anchor="middle" x="62.5" y="-337" font-family="Helvetica,sans-Serif" font-size="10.00">_device::setup_device</text>
</a>
</g>
</g>
<!-- Node6&#45;&gt;Node7 -->
<g id="edge6" class="edge">
<title>Node6&#45;&gt;Node7</title>
<path fill="none" stroke="midnightblue" d="M150.84,-345C142.23,-345 133.51,-345 125.09,-345"/>
<polygon fill="midnightblue" stroke="midnightblue" points="150.87,-348.5 160.87,-345 150.87,-341.5 150.87,-348.5"/>
</g>
</g>
</svg>
