<?xml version="1.0" encoding="UTF-8" standalone="no"?>
<!DOCTYPE svg PUBLIC "-//W3C//DTD SVG 1.1//EN"
 "http://www.w3.org/Graphics/SVG/1.1/DTD/svg11.dtd">
<!-- Generated by graphviz version 2.43.0 (0)
 -->
<!-- Title: Kernel Objects Pages: 1 -->
<svg width="378pt" height="483pt"
 viewBox="0.00 0.00 378.00 483.00" xmlns="http://www.w3.org/2000/svg" xmlns:xlink="http://www.w3.org/1999/xlink">
<g id="graph0" class="graph" transform="scale(1 1) rotate(0) translate(4 479)">
<title>Kernel Objects</title>
<polygon fill="white" stroke="transparent" points="-4,4 -4,-479 374,-479 374,4 -4,4"/>
<!-- Node10 -->
<g id="node1" class="node">
<title>Node10</title>
<g id="a_node1"><a xlink:href="group__l4__platform__control__api.html" target="_top" xlink:title="C interface for controlling platform&#45;wide properties, see L4::Platform_control for the C++ interface.">
<polygon fill="white" stroke="black" points="356.5,-475 231.5,-475 231.5,-456 356.5,-456 356.5,-475"/>
<text text-anchor="middle" x="294" y="-463" font-family="Helvetica,sans-Serif" font-size="10.00">Platform Control C API</text>
</a>
</g>
</g>
<!-- Node8 -->
<g id="node2" class="node">
<title>Node8</title>
<g id="a_node2"><a xlink:href="group__l4__semaphore__api.html" target="_top" xlink:title="C semaphore interface, see L4::Semaphore for the C++ interface.">
<polygon fill="white" stroke="black" points="370,-438 218,-438 218,-419 370,-419 370,-438"/>
<text text-anchor="middle" x="294" y="-426" font-family="Helvetica,sans-Serif" font-size="10.00">Kernel&#45;provided semaphore</text>
</a>
</g>
</g>
<!-- Node11 -->
<g id="node3" class="node">
<title>Node11</title>
<g id="a_node3"><a xlink:href="group__l4__scheduler__api.html" target="_top" xlink:title="C interface of the Scheduler kernel object, see L4::Scheduler for the C interface.">
<polygon fill="white" stroke="black" points="326.5,-401 261.5,-401 261.5,-382 326.5,-382 326.5,-401"/>
<text text-anchor="middle" x="294" y="-389" font-family="Helvetica,sans-Serif" font-size="10.00">Scheduler</text>
</a>
</g>
</g>
<!-- Node6 -->
<g id="node4" class="node">
<title>Node6</title>
<g id="a_node4"><a xlink:href="group__l4__irq__api.html" target="_top" xlink:title="C IRQ interface, see L4::Irq for the C++ interface.">
<polygon fill="white" stroke="black" points="313.5,-364 274.5,-364 274.5,-345 313.5,-345 313.5,-364"/>
<text text-anchor="middle" x="294" y="-352" font-family="Helvetica,sans-Serif" font-size="10.00">IRQs</text>
</a>
</g>
</g>
<!-- Node13 -->
<g id="node5" class="node">
<title>Node13</title>
<g id="a_node5"><a xlink:href="group__l4__thread__api.html" target="_top" xlink:title="C Thread object interface, see L4::Thread for the C++ interface.">
<polygon fill="white" stroke="black" points="319,-327 269,-327 269,-308 319,-308 319,-327"/>
<text text-anchor="middle" x="294" y="-315" font-family="Helvetica,sans-Serif" font-size="10.00">Thread</text>
</a>
</g>
</g>
<!-- Node7 -->
<g id="node6" class="node">
<title>Node7</title>
<g id="a_node6"><a xlink:href="group__l4__icu__api.html" target="_top" xlink:title="The C Icu interface, see L4::Icu for the C++ interface.">
<polygon fill="white" stroke="black" points="348,-290 240,-290 240,-271 348,-271 348,-290"/>
<text text-anchor="middle" x="294" y="-278" font-family="Helvetica,sans-Serif" font-size="10.00">Interrupt controller</text>
</a>
</g>
</g>
<!-- Node15 -->
<g id="node7" class="node">
<title>Node15</title>
<g id="a_node7"><a xlink:href="group__l4__vm__api.html" target="_top" xlink:title="Virtual Machine API.">
<polygon fill="white" stroke="black" points="343,-253 245,-253 245,-234 343,-234 343,-253"/>
<text text-anchor="middle" x="294" y="-241" font-family="Helvetica,sans-Serif" font-size="10.00">Virtual Machines</text>
</a>
</g>
</g>
<!-- Node5 -->
<g id="node8" class="node">
<title>Node5</title>
<g id="a_node8"><a xlink:href="group__l4__kernel__object__gate__api.html" target="_top" xlink:title="The C IPC gate interface, see L4::Ipc_gate for the C++ interface.">
<polygon fill="white" stroke="black" points="333,-216 255,-216 255,-197 333,-197 333,-216"/>
<text text-anchor="middle" x="294" y="-204" font-family="Helvetica,sans-Serif" font-size="10.00">IPC&#45;Gate API</text>
</a>
</g>
</g>
<!-- Node4 -->
<g id="node9" class="node">
<title>Node4</title>
<g id="a_node9"><a xlink:href="group__l4__factory__api.html" target="_top" xlink:title="C factory interface to create kernel objects, see L4::Factory for the C++ interface.">
<polygon fill="white" stroke="black" points="320,-179 268,-179 268,-160 320,-160 320,-179"/>
<text text-anchor="middle" x="294" y="-167" font-family="Helvetica,sans-Serif" font-size="10.00">Factory</text>
</a>
</g>
</g>
<!-- Node14 -->
<g id="node10" class="node">
<title>Node14</title>
<g id="a_node10"><a xlink:href="group__l4__vcon__api.html" target="_top" xlink:title="C Virtual console interface for simple character based input and output, see L4::Vcon for the C++ int...">
<polygon fill="white" stroke="black" points="339.5,-142 248.5,-142 248.5,-123 339.5,-123 339.5,-142"/>
<text text-anchor="middle" x="294" y="-130" font-family="Helvetica,sans-Serif" font-size="10.00">Virtual Console</text>
</a>
</g>
</g>
<!-- Node2 -->
<g id="node11" class="node">
<title>Node2</title>
<g id="a_node11"><a xlink:href="group__l4__api.html" target="_top" xlink:title="Interfaces for all kinds of base functionality.">
<polygon fill="white" stroke="black" points="59,-253 0,-253 0,-234 59,-234 59,-253"/>
<text text-anchor="middle" x="29.5" y="-241" font-family="Helvetica,sans-Serif" font-size="10.00">Base API</text>
</a>
</g>
</g>
<!-- Node1 -->
<g id="node13" class="node">
<title>Node1</title>
<g id="a_node13"><a xlink:title="API of kernel objects.">
<polygon fill="#bfbfbf" stroke="black" points="182,-253 95,-253 95,-234 182,-234 182,-253"/>
<text text-anchor="middle" x="138.5" y="-241" font-family="Helvetica,sans-Serif" font-size="10.00">Kernel Objects</text>
</a>
</g>
</g>
<!-- Node2&#45;&gt;Node1 -->
<g id="edge1" class="edge">
<title>Node2&#45;&gt;Node1</title>
<path fill="none" stroke="black" d="M69.28,-243.5C77.52,-243.5 86.27,-243.5 94.65,-243.5"/>
<polygon fill="black" stroke="black" points="69.17,-240 59.17,-243.5 69.17,-247 69.17,-240"/>
</g>
<!-- Node3 -->
<g id="node12" class="node">
<title>Node3</title>
<g id="a_node12"><a xlink:href="group__l4__kernel__object__dmar__space.html" target="_top" xlink:title="A DMA space represents a device memory address space managed by an IOMMU.">
<polygon fill="white" stroke="black" points="329.5,-105 258.5,-105 258.5,-86 329.5,-86 329.5,-105"/>
<text text-anchor="middle" x="294" y="-93" font-family="Helvetica,sans-Serif" font-size="10.00">DMA space</text>
</a>
</g>
</g>
<!-- Node1&#45;&gt;Node10 -->
<g id="edge9" class="edge">
<title>Node1&#45;&gt;Node10</title>
<path fill="none" stroke="black" d="M141.16,-263.46C145.67,-304.44 161.91,-398.35 218,-447.5 221.93,-450.94 226.4,-453.75 231.16,-456.04"/>
<polygon fill="black" stroke="black" points="144.63,-263 140.17,-253.38 137.66,-263.68 144.63,-263"/>
</g>
<!-- Node1&#45;&gt;Node8 -->
<g id="edge7" class="edge">
<title>Node1&#45;&gt;Node8</title>
<path fill="none" stroke="black" d="M143.01,-263.19C150.34,-298.38 170.7,-371.98 218,-410.5 222.15,-413.88 226.84,-416.65 231.79,-418.9"/>
<polygon fill="black" stroke="black" points="146.41,-262.36 141.07,-253.21 139.54,-263.69 146.41,-262.36"/>
</g>
<!-- Node1&#45;&gt;Node11 -->
<g id="edge10" class="edge">
<title>Node1&#45;&gt;Node11</title>
<path fill="none" stroke="black" d="M145.72,-262.81C155.99,-291.55 179.32,-345.2 218,-373.5 230.54,-382.67 247.11,-387.23 261.49,-389.47"/>
<polygon fill="black" stroke="black" points="148.95,-261.46 142.41,-253.12 142.33,-263.72 148.95,-261.46"/>
</g>
<!-- Node1&#45;&gt;Node6 -->
<g id="edge5" class="edge">
<title>Node1&#45;&gt;Node6</title>
<path fill="none" stroke="black" d="M149.98,-261.89C163.1,-283.19 187.59,-317.74 218,-336.5 235.21,-347.11 258.21,-351.47 274.18,-353.26"/>
<polygon fill="black" stroke="black" points="152.9,-259.94 144.77,-253.14 146.88,-263.52 152.9,-259.94"/>
</g>
<!-- Node1&#45;&gt;Node13 -->
<g id="edge12" class="edge">
<title>Node1&#45;&gt;Node13</title>
<path fill="none" stroke="black" d="M158.12,-259.94C173.27,-272.51 195.71,-289.34 218,-299.5 234.21,-306.89 253.82,-311.46 268.92,-314.14"/>
<polygon fill="black" stroke="black" points="159.98,-256.94 150.1,-253.12 155.45,-262.27 159.98,-256.94"/>
</g>
<!-- Node1&#45;&gt;Node7 -->
<g id="edge6" class="edge">
<title>Node1&#45;&gt;Node7</title>
<path fill="none" stroke="black" d="M188.9,-255.47C198.55,-257.81 208.59,-260.23 218,-262.5 229.46,-265.26 241.9,-268.25 253.29,-270.99"/>
<polygon fill="black" stroke="black" points="189.57,-252.03 179.03,-253.08 187.92,-258.84 189.57,-252.03"/>
</g>
<!-- Node1&#45;&gt;Node15 -->
<g id="edge14" class="edge">
<title>Node1&#45;&gt;Node15</title>
<path fill="none" stroke="black" d="M192.56,-243.5C209.53,-243.5 228.2,-243.5 244.8,-243.5"/>
<polygon fill="black" stroke="black" points="192.26,-240 182.26,-243.5 192.26,-247 192.26,-240"/>
</g>
<!-- Node1&#45;&gt;Node5 -->
<g id="edge4" class="edge">
<title>Node1&#45;&gt;Node5</title>
<path fill="none" stroke="black" d="M188.9,-231.53C198.55,-229.19 208.59,-226.77 218,-224.5 229.98,-221.61 243.03,-218.48 254.84,-215.64"/>
<polygon fill="black" stroke="black" points="187.92,-228.16 179.03,-233.92 189.57,-234.97 187.92,-228.16"/>
</g>
<!-- Node1&#45;&gt;Node4 -->
<g id="edge3" class="edge">
<title>Node1&#45;&gt;Node4</title>
<path fill="none" stroke="black" d="M158.12,-227.06C173.27,-214.49 195.71,-197.66 218,-187.5 233.84,-180.28 252.93,-175.75 267.89,-173.04"/>
<polygon fill="black" stroke="black" points="155.45,-224.73 150.1,-233.88 159.98,-230.06 155.45,-224.73"/>
</g>
<!-- Node1&#45;&gt;Node14 -->
<g id="edge13" class="edge">
<title>Node1&#45;&gt;Node14</title>
<path fill="none" stroke="black" d="M149.98,-225.11C163.1,-203.81 187.59,-169.26 218,-150.5 227.12,-144.88 237.86,-141.01 248.32,-138.35"/>
<polygon fill="black" stroke="black" points="146.88,-223.48 144.77,-233.86 152.9,-227.06 146.88,-223.48"/>
</g>
<!-- Node1&#45;&gt;Node3 -->
<g id="edge2" class="edge">
<title>Node1&#45;&gt;Node3</title>
<path fill="none" stroke="black" d="M145.72,-224.19C155.99,-195.45 179.32,-141.8 218,-113.5 229.67,-104.96 244.84,-100.42 258.49,-98.03"/>
<polygon fill="black" stroke="black" points="142.33,-223.28 142.41,-233.88 148.95,-225.54 142.33,-223.28"/>
</g>
<!-- Node9 -->
<g id="node14" class="node">
<title>Node9</title>
<g id="a_node14"><a xlink:href="group__l4__kobject__rtti.html" target="_top" xlink:title="Type information for L4 server objects that can be called via IPC.">
<polygon fill="white" stroke="black" points="353.5,-67.5 234.5,-67.5 234.5,-37.5 353.5,-37.5 353.5,-67.5"/>
<text text-anchor="start" x="242.5" y="-55.5" font-family="Helvetica,sans-Serif" font-size="10.00">L4 kernel object type</text>
<text text-anchor="middle" x="294" y="-44.5" font-family="Helvetica,sans-Serif" font-size="10.00"> information</text>
</a>
</g>
</g>
<!-- Node1&#45;&gt;Node9 -->
<g id="edge8" class="edge">
<title>Node1&#45;&gt;Node9</title>
<path fill="none" stroke="black" d="M143.29,-224.15C151.09,-189.5 172.17,-116.74 218,-76.5 222.83,-72.26 228.41,-68.77 234.31,-65.89"/>
<polygon fill="black" stroke="black" points="139.86,-223.46 141.22,-233.97 146.71,-224.91 139.86,-223.46"/>
</g>
<!-- Node12 -->
<g id="node15" class="node">
<title>Node12</title>
<g id="a_node15"><a xlink:href="group__l4__task__api.html" target="_top" xlink:title="C interface of the Task kernel object, see L4::Task for the C++ interface.">
<polygon fill="white" stroke="black" points="313,-19 275,-19 275,0 313,0 313,-19"/>
<text text-anchor="middle" x="294" y="-7" font-family="Helvetica,sans-Serif" font-size="10.00">Task</text>
</a>
</g>
</g>
<!-- Node1&#45;&gt;Node12 -->
<g id="edge11" class="edge">
<title>Node1&#45;&gt;Node12</title>
<path fill="none" stroke="black" d="M140.78,-223.42C144.6,-180.86 159.64,-81.19 218,-28.5 233.55,-14.46 258,-10.47 274.73,-9.5"/>
<polygon fill="black" stroke="black" points="137.27,-223.36 139.98,-233.61 144.25,-223.91 137.27,-223.36"/>
</g>
</g>
</svg>
