<?xml version="1.0" encoding="UTF-8" standalone="no"?>
<!DOCTYPE svg PUBLIC "-//W3C//DTD SVG 1.1//EN"
 "http://www.w3.org/Graphics/SVG/1.1/DTD/svg11.dtd">
<!-- Generated by graphviz version 2.43.0 (0)
 -->
<!-- Title: l4_round_size Pages: 1 -->
<svg width="448pt" height="165pt"
 viewBox="0.00 0.00 448.00 164.50" xmlns="http://www.w3.org/2000/svg" xmlns:xlink="http://www.w3.org/1999/xlink">
<g id="graph0" class="graph" transform="scale(1 1) rotate(0) translate(4 160.5)">
<title>l4_round_size</title>
<polygon fill="white" stroke="transparent" points="-4,4 -4,-160.5 444,-160.5 444,4 -4,4"/>
<!-- Node1 -->
<g id="node1" class="node">
<title>Node1</title>
<g id="a_node1"><a xlink:title="Round value up to the next alignment with bits size.">
<polygon fill="#bfbfbf" stroke="black" points="357,-77 357,-96 440,-96 440,-77 357,-77"/>
<text text-anchor="middle" x="398.5" y="-84" font-family="Helvetica,sans-Serif" font-size="10.00">l4_round_size</text>
</a>
</g>
</g>
<!-- Node2 -->
<g id="node2" class="node">
<title>Node2</title>
<g id="a_node2"><a xlink:href="classcxx_1_1List__alloc.html#a9028a4d3bf8a79f61b2d6ee16736f51a" target="_top" xlink:title="Allocate a memory block of min &lt;= size &lt;= max.">
<polygon fill="white" stroke="black" points="179,-137 179,-156 321,-156 321,-137 179,-137"/>
<text text-anchor="middle" x="250" y="-144" font-family="Helvetica,sans-Serif" font-size="10.00">cxx::List_alloc::alloc_max</text>
</a>
</g>
</g>
<!-- Node1&#45;&gt;Node2 -->
<g id="edge1" class="edge">
<title>Node1&#45;&gt;Node2</title>
<path fill="none" stroke="midnightblue" d="M369.29,-100.68C354.99,-107.64 337.25,-115.91 321,-122.5 308.14,-127.71 293.67,-132.8 281.24,-136.94"/>
<polygon fill="midnightblue" stroke="midnightblue" points="371.15,-103.67 378.58,-96.11 368.06,-97.38 371.15,-103.67"/>
</g>
<!-- Node3 -->
<g id="node3" class="node">
<title>Node3</title>
<g id="a_node3"><a xlink:href="classL4virtio_1_1Driver_1_1Block__device.html#a688df51bdec4ba327a6c0b48a83a115a" target="_top" xlink:title="Setup a connection to a device and set up shared memory.">
<polygon fill="white" stroke="black" points="9,-71.5 9,-101.5 134,-101.5 134,-71.5 9,-71.5"/>
<text text-anchor="start" x="17" y="-89.5" font-family="Helvetica,sans-Serif" font-size="10.00">L4virtio::Driver::Block</text>
<text text-anchor="middle" x="71.5" y="-78.5" font-family="Helvetica,sans-Serif" font-size="10.00">_device::setup_device</text>
</a>
</g>
</g>
<!-- Node1&#45;&gt;Node3 -->
<g id="edge2" class="edge">
<title>Node1&#45;&gt;Node3</title>
<path fill="none" stroke="midnightblue" d="M346.42,-88.78C337.93,-89.08 329.22,-89.34 321,-89.5 257.9,-90.74 242.1,-90.39 179,-89.5 164.48,-89.3 148.85,-88.93 134.16,-88.53"/>
<polygon fill="midnightblue" stroke="midnightblue" points="346.75,-92.27 356.62,-88.4 346.49,-85.28 346.75,-92.27"/>
</g>
<!-- Node4 -->
<g id="node4" class="node">
<title>Node4</title>
<g id="a_node4"><a xlink:href="classL4virtio_1_1Virtqueue.html#a437c0ed2eb83201cc69c41d011503036" target="_top" xlink:title="Enable this queue.">
<polygon fill="white" stroke="black" points="196.5,-0.5 196.5,-30.5 303.5,-30.5 303.5,-0.5 196.5,-0.5"/>
<text text-anchor="start" x="204.5" y="-18.5" font-family="Helvetica,sans-Serif" font-size="10.00">L4virtio::Virtqueue</text>
<text text-anchor="middle" x="250" y="-7.5" font-family="Helvetica,sans-Serif" font-size="10.00">::setup_simple</text>
</a>
</g>
</g>
<!-- Node1&#45;&gt;Node4 -->
<g id="edge3" class="edge">
<title>Node1&#45;&gt;Node4</title>
<path fill="none" stroke="midnightblue" d="M375.41,-71.12C360.51,-61.21 340.15,-48.53 321,-39.5 314.14,-36.27 306.73,-33.25 299.38,-30.52"/>
<polygon fill="midnightblue" stroke="midnightblue" points="373.68,-74.17 383.92,-76.88 377.6,-68.37 373.68,-74.17"/>
</g>
<!-- Node6 -->
<g id="node6" class="node">
<title>Node6</title>
<g id="a_node6"><a xlink:href="classL4virtio_1_1Virtqueue.html#a6f8cdc52ebe6322c3023e05e0e055293" target="_top" xlink:title="Calculate the total size for a virtqueue of the given dimensions.">
<polygon fill="white" stroke="black" points="196.5,-49.5 196.5,-79.5 303.5,-79.5 303.5,-49.5 196.5,-49.5"/>
<text text-anchor="start" x="204.5" y="-67.5" font-family="Helvetica,sans-Serif" font-size="10.00">L4virtio::Virtqueue</text>
<text text-anchor="middle" x="250" y="-56.5" font-family="Helvetica,sans-Serif" font-size="10.00">::total_size</text>
</a>
</g>
</g>
<!-- Node1&#45;&gt;Node6 -->
<g id="edge5" class="edge">
<title>Node1&#45;&gt;Node6</title>
<path fill="none" stroke="midnightblue" d="M346.79,-78.88C332.85,-76.79 317.71,-74.52 303.66,-72.41"/>
<polygon fill="midnightblue" stroke="midnightblue" points="346.28,-82.35 356.69,-80.37 347.32,-75.43 346.28,-82.35"/>
</g>
<!-- Node5 -->
<g id="node5" class="node">
<title>Node5</title>
<g id="a_node5"><a xlink:href="classL4virtio_1_1Driver_1_1Virtqueue.html#a285bae271e6acfe9c5bfa3df388c6b17" target="_top" xlink:title="Initialize this virtqueue.">
<polygon fill="white" stroke="black" points="0,-0.5 0,-30.5 143,-30.5 143,-0.5 0,-0.5"/>
<text text-anchor="start" x="8" y="-18.5" font-family="Helvetica,sans-Serif" font-size="10.00">L4virtio::Driver::Virtqueue</text>
<text text-anchor="middle" x="71.5" y="-7.5" font-family="Helvetica,sans-Serif" font-size="10.00">::init_queue</text>
</a>
</g>
</g>
<!-- Node4&#45;&gt;Node5 -->
<g id="edge4" class="edge">
<title>Node4&#45;&gt;Node5</title>
<path fill="none" stroke="midnightblue" d="M185.67,-15.5C171.85,-15.5 157.14,-15.5 143.06,-15.5"/>
<polygon fill="midnightblue" stroke="midnightblue" points="186.04,-19 196.04,-15.5 186.04,-12 186.04,-19"/>
</g>
<!-- Node6&#45;&gt;Node3 -->
<g id="edge6" class="edge">
<title>Node6&#45;&gt;Node3</title>
<path fill="none" stroke="midnightblue" d="M185.77,-72.38C168.96,-74.48 150.83,-76.74 134.11,-78.82"/>
<polygon fill="midnightblue" stroke="midnightblue" points="186.55,-75.81 196.04,-71.1 185.69,-68.86 186.55,-75.81"/>
</g>
</g>
</svg>
