<?xml version="1.0" encoding="UTF-8" standalone="no"?>
<!DOCTYPE svg PUBLIC "-//W3C//DTD SVG 1.1//EN"
 "http://www.w3.org/Graphics/SVG/1.1/DTD/svg11.dtd">
<!-- Generated by graphviz version 2.43.0 (0)
 -->
<!-- Title: L4Re Capability API Pages: 1 -->
<svg width="399pt" height="35pt"
 viewBox="0.00 0.00 399.00 34.79" xmlns="http://www.w3.org/2000/svg" xmlns:xlink="http://www.w3.org/1999/xlink">
<g id="graph0" class="graph" transform="scale(1 1) rotate(0) translate(4 30.79)">
<title>L4Re Capability API</title>
<polygon fill="white" stroke="transparent" points="-4,4 -4,-30.79 395,-30.79 395,4 -4,4"/>
<!-- Node2 -->
<g id="node1" class="node">
<title>Node2</title>
<g id="a_node1"><a xlink:href="group__api__l4re__util.html" target="_top" xlink:title="Documentation of the L4 Runtime Environment utility functionality in C++.">
<polygon fill="white" stroke="black" points="134,-26.79 0,-26.79 0,-7.79 134,-7.79 134,-26.79"/>
<text text-anchor="middle" x="67" y="-14.79" font-family="Helvetica,sans-Serif" font-size="10.00">L4Re Util C++ Interface</text>
</a>
</g>
</g>
<!-- Node1 -->
<g id="node2" class="node">
<title>Node1</title>
<g id="a_node2"><a xlink:title=" ">
<polygon fill="#bfbfbf" stroke="black" points="391,-26.79 279,-26.79 279,-7.79 391,-7.79 391,-26.79"/>
<text text-anchor="middle" x="335" y="-14.79" font-family="Helvetica,sans-Serif" font-size="10.00">L4Re Capability API</text>
</a>
</g>
</g>
<!-- Node2&#45;&gt;Node1 -->
<g id="edge1" class="edge">
<title>Node2&#45;&gt;Node1</title>
<path fill="none" stroke="black" d="M144.21,-17.29C187.08,-17.29 239.64,-17.29 278.57,-17.29"/>
<polygon fill="black" stroke="black" points="144.09,-13.79 134.09,-17.29 144.09,-20.79 144.09,-13.79"/>
</g>
<!-- Node1&#45;&gt;Node2 -->
<g id="edge2" class="edge">
<title>Node1&#45;&gt;Node2</title>
<path fill="none" stroke="orange" stroke-dasharray="5,2" d="M291.73,-7.78C281.71,-5.91 271.02,-4.24 261,-3.29 212.77,1.29 200.28,0.71 152,-3.29 140.51,-4.24 128.22,-5.91 116.69,-7.78"/>
<text text-anchor="middle" x="206.5" y="-6.29" font-family="Helvetica,sans-Serif" font-size="10.00">L4Re::Smart_cap_auto</text>
</g>
</g>
</svg>
