<?xml version="1.0" encoding="UTF-8" standalone="no"?>
<!DOCTYPE svg PUBLIC "-//W3C//DTD SVG 1.1//EN"
 "http://www.w3.org/Graphics/SVG/1.1/DTD/svg11.dtd">
<!-- Generated by graphviz version 2.43.0 (0)
 -->
<!-- Title: L4Re Util C++ Interface Pages: 1 -->
<svg width="549pt" height="74pt"
 viewBox="0.00 0.00 549.00 73.66" xmlns="http://www.w3.org/2000/svg" xmlns:xlink="http://www.w3.org/1999/xlink">
<g id="graph0" class="graph" transform="scale(1 1) rotate(0) translate(4 69.66)">
<title>L4Re Util C++ Interface</title>
<polygon fill="white" stroke="transparent" points="-4,4 -4,-69.66 545,-69.66 545,4 -4,4"/>
<!-- Node1 -->
<g id="node1" class="node">
<title>Node1</title>
<g id="a_node1"><a xlink:title="Documentation of the L4 Runtime Environment utility functionality in C++.">
<polygon fill="#bfbfbf" stroke="black" points="284,-40.66 150,-40.66 150,-21.66 284,-21.66 284,-40.66"/>
<text text-anchor="middle" x="217" y="-28.66" font-family="Helvetica,sans-Serif" font-size="10.00">L4Re Util C++ Interface</text>
</a>
</g>
</g>
<!-- Node3 -->
<g id="node3" class="node">
<title>Node3</title>
<g id="a_node3"><a xlink:href="group__l4re__util__kumem.html" target="_top" xlink:title=" ">
<polygon fill="white" stroke="black" points="534,-65.66 436,-65.66 436,-46.66 534,-46.66 534,-65.66"/>
<text text-anchor="middle" x="485" y="-53.66" font-family="Helvetica,sans-Serif" font-size="10.00">Kumem utiltities</text>
</a>
</g>
</g>
<!-- Node1&#45;&gt;Node3 -->
<g id="edge2" class="edge">
<title>Node1&#45;&gt;Node3</title>
<path fill="none" stroke="black" d="M294.24,-38.32C339.83,-42.61 396.37,-47.92 435.82,-51.63"/>
<polygon fill="black" stroke="black" points="294.38,-34.82 284.09,-37.37 293.72,-41.79 294.38,-34.82"/>
</g>
<!-- Node4 -->
<g id="node4" class="node">
<title>Node4</title>
<g id="a_node4"><a xlink:href="group__l4re__cap__api.html" target="_top" xlink:title=" ">
<polygon fill="white" stroke="black" points="541,-21.66 429,-21.66 429,-2.66 541,-2.66 541,-21.66"/>
<text text-anchor="middle" x="485" y="-9.66" font-family="Helvetica,sans-Serif" font-size="10.00">L4Re Capability API</text>
</a>
</g>
</g>
<!-- Node1&#45;&gt;Node4 -->
<g id="edge3" class="edge">
<title>Node1&#45;&gt;Node4</title>
<path fill="none" stroke="black" d="M294.21,-25.71C337.08,-22.65 389.64,-18.9 428.57,-16.12"/>
<polygon fill="black" stroke="black" points="293.82,-22.23 284.09,-26.44 294.32,-29.22 293.82,-22.23"/>
</g>
<!-- Node1&#45;&gt;Node4 -->
<g id="edge4" class="edge">
<title>Node1&#45;&gt;Node4</title>
<path fill="none" stroke="orange" stroke-dasharray="5,2" d="M241.06,-21.6C257.68,-15.24 280.81,-7.48 302,-4.16 344.18,2.45 392.49,-0.13 428.73,-4.05"/>
<text text-anchor="middle" x="356.5" y="-7.16" font-family="Helvetica,sans-Serif" font-size="10.00">L4Re::Smart_cap_auto</text>
</g>
<!-- Node2 -->
<g id="node2" class="node">
<title>Node2</title>
<g id="a_node2"><a xlink:href="group__api__l4re.html" target="_top" xlink:title="Documentation of the L4 Runtime Environment C++ API.">
<polygon fill="white" stroke="black" points="113,-40.66 0,-40.66 0,-21.66 113,-21.66 113,-40.66"/>
<text text-anchor="middle" x="56.5" y="-28.66" font-family="Helvetica,sans-Serif" font-size="10.00">L4Re C++ Interface</text>
</a>
</g>
</g>
<!-- Node2&#45;&gt;Node1 -->
<g id="edge1" class="edge">
<title>Node2&#45;&gt;Node1</title>
<path fill="none" stroke="black" d="M123.46,-31.16C132.16,-31.16 141.07,-31.16 149.77,-31.16"/>
<polygon fill="black" stroke="black" points="123.38,-27.66 113.38,-31.16 123.38,-34.66 123.38,-27.66"/>
</g>
</g>
</svg>
