<?xml version="1.0" encoding="UTF-8" standalone="no"?>
<!DOCTYPE svg PUBLIC "-//W3C//DTD SVG 1.1//EN"
 "http://www.w3.org/Graphics/SVG/1.1/DTD/svg11.dtd">
<!-- Generated by graphviz version 2.43.0 (0)
 -->
<!-- Title: l4_semaphore_up Pages: 1 -->
<svg width="547pt" height="85pt"
 viewBox="0.00 0.00 547.00 85.00" xmlns="http://www.w3.org/2000/svg" xmlns:xlink="http://www.w3.org/1999/xlink">
<g id="graph0" class="graph" transform="scale(1 1) rotate(0) translate(4 81)">
<title>l4_semaphore_up</title>
<polygon fill="white" stroke="transparent" points="-4,4 -4,-81 543,-81 543,4 -4,4"/>
<!-- Node1 -->
<g id="node1" class="node">
<title>Node1</title>
<g id="a_node1"><a xlink:title="Semaphore up operation (wrapper for trigger()).">
<polygon fill="#bfbfbf" stroke="black" points="0,-19.5 0,-38.5 103,-38.5 103,-19.5 0,-19.5"/>
<text text-anchor="middle" x="51.5" y="-26.5" font-family="Helvetica,sans-Serif" font-size="10.00">l4_semaphore_up</text>
</a>
</g>
</g>
<!-- Node2 -->
<g id="node2" class="node">
<title>Node2</title>
<g id="a_node2"><a xlink:href="group__l4__irq__api.html#gab24e0fc21a207fd566ece1e6fafbac48" target="_top" xlink:title="Trigger an IRQ.">
<polygon fill="white" stroke="black" points="139,-19.5 139,-38.5 220,-38.5 220,-19.5 139,-19.5"/>
<text text-anchor="middle" x="179.5" y="-26.5" font-family="Helvetica,sans-Serif" font-size="10.00">l4_irq_trigger</text>
</a>
</g>
</g>
<!-- Node1&#45;&gt;Node2 -->
<g id="edge1" class="edge">
<title>Node1&#45;&gt;Node2</title>
<path fill="none" stroke="midnightblue" d="M103.02,-29C111.49,-29 120.28,-29 128.73,-29"/>
<polygon fill="midnightblue" stroke="midnightblue" points="128.82,-32.5 138.82,-29 128.82,-25.5 128.82,-32.5"/>
</g>
<!-- Node3 -->
<g id="node3" class="node">
<title>Node3</title>
<g id="a_node3"><a xlink:href="group__l4__irq__api.html#ga180cfaf342ce9ff484a6aa7c276e1597" target="_top" xlink:title="Trigger the object.">
<polygon fill="white" stroke="black" points="256,-38.5 256,-57.5 348,-57.5 348,-38.5 256,-38.5"/>
<text text-anchor="middle" x="302" y="-45.5" font-family="Helvetica,sans-Serif" font-size="10.00">l4_irq_trigger_u</text>
</a>
</g>
</g>
<!-- Node2&#45;&gt;Node3 -->
<g id="edge2" class="edge">
<title>Node2&#45;&gt;Node3</title>
<path fill="none" stroke="midnightblue" d="M220.29,-35.27C228.47,-36.56 237.22,-37.94 245.83,-39.3"/>
<polygon fill="midnightblue" stroke="midnightblue" points="245.41,-42.78 255.83,-40.88 246.5,-35.86 245.41,-42.78"/>
</g>
<!-- Node7 -->
<g id="node7" class="node">
<title>Node7</title>
<g id="a_node7"><a xlink:href="group__l4__utcb__api.html#gadc099b4a59e1d99638c72c11a8c8b644" target="_top" xlink:title="Get the UTCB address.">
<polygon fill="white" stroke="black" points="276,-0.5 276,-19.5 328,-19.5 328,-0.5 276,-0.5"/>
<text text-anchor="middle" x="302" y="-7.5" font-family="Helvetica,sans-Serif" font-size="10.00">l4_utcb</text>
</a>
</g>
</g>
<!-- Node2&#45;&gt;Node7 -->
<g id="edge6" class="edge">
<title>Node2&#45;&gt;Node7</title>
<path fill="none" stroke="midnightblue" d="M220.29,-22.73C235.07,-20.39 251.72,-17.77 266.04,-15.51"/>
<polygon fill="midnightblue" stroke="midnightblue" points="266.67,-18.96 276,-13.94 265.57,-12.04 266.67,-18.96"/>
</g>
<!-- Node4 -->
<g id="node4" class="node">
<title>Node4</title>
<g id="a_node4"><a xlink:href="group__l4__ipc__api.html#ga7de45eb59ce852466362ea85da00299e" target="_top" xlink:title="Send a message to an object (do not wait for a reply).">
<polygon fill="white" stroke="black" points="384,-57.5 384,-76.5 458,-76.5 458,-57.5 384,-57.5"/>
<text text-anchor="middle" x="421" y="-64.5" font-family="Helvetica,sans-Serif" font-size="10.00">l4_ipc_send</text>
</a>
</g>
</g>
<!-- Node3&#45;&gt;Node4 -->
<g id="edge3" class="edge">
<title>Node3&#45;&gt;Node4</title>
<path fill="none" stroke="midnightblue" d="M348.24,-55.35C356.65,-56.71 365.45,-58.14 373.88,-59.51"/>
<polygon fill="midnightblue" stroke="midnightblue" points="373.51,-63 383.95,-61.15 374.64,-56.09 373.51,-63"/>
</g>
<!-- Node6 -->
<g id="node6" class="node">
<title>Node6</title>
<g id="a_node6"><a xlink:href="group__l4__msgtag__api.html#ga661d71acad9d096fa990f7c94943bc78" target="_top" xlink:title="Create a message tag from the specified values.">
<polygon fill="white" stroke="black" points="387,-19.5 387,-38.5 455,-38.5 455,-19.5 387,-19.5"/>
<text text-anchor="middle" x="421" y="-26.5" font-family="Helvetica,sans-Serif" font-size="10.00">l4_msgtag</text>
</a>
</g>
</g>
<!-- Node3&#45;&gt;Node6 -->
<g id="edge5" class="edge">
<title>Node3&#45;&gt;Node6</title>
<path fill="none" stroke="midnightblue" d="M348.24,-40.65C357.68,-39.12 367.61,-37.51 376.97,-35.99"/>
<polygon fill="midnightblue" stroke="midnightblue" points="377.55,-39.44 386.86,-34.38 376.43,-32.53 377.55,-39.44"/>
</g>
<!-- Node5 -->
<g id="node5" class="node">
<title>Node5</title>
<g id="a_node5"><a xlink:href="group__l4__ipc__api.html#ga1caa56d45e0453b3002e7f5cfdb0dec7" target="_top" xlink:title="Generic L4 object invocation.">
<polygon fill="white" stroke="black" points="494,-57.5 494,-76.5 539,-76.5 539,-57.5 494,-57.5"/>
<text text-anchor="middle" x="516.5" y="-64.5" font-family="Helvetica,sans-Serif" font-size="10.00">l4_ipc</text>
</a>
</g>
</g>
<!-- Node4&#45;&gt;Node5 -->
<g id="edge4" class="edge">
<title>Node4&#45;&gt;Node5</title>
<path fill="none" stroke="midnightblue" d="M458.15,-67C466.51,-67 475.35,-67 483.52,-67"/>
<polygon fill="midnightblue" stroke="midnightblue" points="483.77,-70.5 493.77,-67 483.77,-63.5 483.77,-70.5"/>
</g>
</g>
</svg>
