<?xml version="1.0" encoding="UTF-8" standalone="no"?>
<!DOCTYPE svg PUBLIC "-//W3C//DTD SVG 1.1//EN"
 "http://www.w3.org/Graphics/SVG/1.1/DTD/svg11.dtd">
<!-- Generated by graphviz version 2.43.0 (0)
 -->
<!-- Title: l4/re/mmio_space Pages: 1 -->
<svg width="718pt" height="767pt"
 viewBox="0.00 0.00 718.00 767.00" xmlns="http://www.w3.org/2000/svg" xmlns:xlink="http://www.w3.org/1999/xlink">
<g id="graph0" class="graph" transform="scale(1 1) rotate(0) translate(4 763)">
<title>l4/re/mmio_space</title>
<polygon fill="white" stroke="transparent" points="-4,4 -4,-763 714,-763 714,4 -4,4"/>
<!-- Node1 -->
<g id="node1" class="node">
<title>Node1</title>
<g id="a_node1"><a xlink:title="Interface definition to emit MMIO&#45;like accesses via IPC.">
<polygon fill="#bfbfbf" stroke="black" points="306,-739.5 306,-758.5 410,-758.5 410,-739.5 306,-739.5"/>
<text text-anchor="middle" x="358" y="-746.5" font-family="Helvetica,sans-Serif" font-size="10.00">l4/re/mmio_space</text>
</a>
</g>
</g>
<!-- Node2 -->
<g id="node2" class="node">
<title>Node2</title>
<g id="a_node2"><a xlink:href="protocols_8h.html" target="_top" xlink:title="L4Re Protocol Constants (C version)">
<polygon fill="white" stroke="black" points="131.5,-683.5 131.5,-702.5 226.5,-702.5 226.5,-683.5 131.5,-683.5"/>
<text text-anchor="middle" x="179" y="-690.5" font-family="Helvetica,sans-Serif" font-size="10.00">l4/re/protocols.h</text>
</a>
</g>
</g>
<!-- Node1&#45;&gt;Node2 -->
<g id="edge1" class="edge">
<title>Node1&#45;&gt;Node2</title>
<path fill="none" stroke="midnightblue" d="M329.64,-739.44C299.26,-730.28 250.89,-715.69 217.18,-705.52"/>
<polygon fill="midnightblue" stroke="midnightblue" points="217.82,-702.05 207.23,-702.52 215.79,-708.76 217.82,-702.05"/>
</g>
<!-- Node3 -->
<g id="node3" class="node">
<title>Node3</title>
<g id="a_node3"><a xlink:href="capability.html" target="_top" xlink:title="L4::Cap related definitions.">
<polygon fill="white" stroke="black" points="245,-683.5 245,-702.5 341,-702.5 341,-683.5 245,-683.5"/>
<text text-anchor="middle" x="293" y="-690.5" font-family="Helvetica,sans-Serif" font-size="10.00">l4/sys/capability</text>
</a>
</g>
</g>
<!-- Node1&#45;&gt;Node3 -->
<g id="edge2" class="edge">
<title>Node1&#45;&gt;Node3</title>
<path fill="none" stroke="midnightblue" d="M347.56,-739.32C337.85,-731.26 323.18,-719.08 311.5,-709.37"/>
<polygon fill="midnightblue" stroke="midnightblue" points="313.56,-706.53 303.63,-702.83 309.09,-711.92 313.56,-706.53"/>
</g>
<!-- Node23 -->
<g id="node23" class="node">
<title>Node23</title>
<g id="a_node23"><a xlink:href="ipc__iface.html" target="_top" xlink:title="Interface Definition Language.">
<polygon fill="white" stroke="black" points="383,-515.5 383,-534.5 463,-534.5 463,-515.5 383,-515.5"/>
<text text-anchor="middle" x="423" y="-522.5" font-family="Helvetica,sans-Serif" font-size="10.00">cxx/ipc_iface</text>
</a>
</g>
</g>
<!-- Node1&#45;&gt;Node23 -->
<g id="edge62" class="edge">
<title>Node1&#45;&gt;Node23</title>
<path fill="none" stroke="midnightblue" d="M362.9,-739.4C372.38,-722.34 393.26,-682.8 404,-647 414.56,-611.82 419.52,-569.03 421.63,-544.91"/>
<polygon fill="midnightblue" stroke="midnightblue" points="425.14,-544.93 422.45,-534.69 418.16,-544.38 425.14,-544.93"/>
</g>
<!-- Node24 -->
<g id="node24" class="node">
<title>Node24</title>
<g id="a_node24"><a xlink:href="ipc__types.html" target="_top" xlink:title=" ">
<polygon fill="white" stroke="black" points="470.5,-459.5 470.5,-478.5 585.5,-478.5 585.5,-459.5 470.5,-459.5"/>
<text text-anchor="middle" x="528" y="-466.5" font-family="Helvetica,sans-Serif" font-size="10.00">l4/sys/cxx/ipc_types</text>
</a>
</g>
</g>
<!-- Node1&#45;&gt;Node24 -->
<g id="edge61" class="edge">
<title>Node1&#45;&gt;Node24</title>
<path fill="none" stroke="midnightblue" d="M391.44,-739.41C435.37,-725.88 507,-695.07 507,-638 507,-638 507,-638 507,-580 507,-547.38 516.02,-510.28 522.23,-488.57"/>
<polygon fill="midnightblue" stroke="midnightblue" points="525.67,-489.32 525.17,-478.73 518.96,-487.32 525.67,-489.32"/>
</g>
<!-- Node4 -->
<g id="node4" class="node">
<title>Node4</title>
<g id="a_node4"><a xlink:href="l4_2sys_2consts_8h.html" target="_top" xlink:title="Common constants.">
<polygon fill="white" stroke="black" points="144.5,-112.5 144.5,-131.5 233.5,-131.5 233.5,-112.5 144.5,-112.5"/>
<text text-anchor="middle" x="189" y="-119.5" font-family="Helvetica,sans-Serif" font-size="10.00">l4/sys/consts.h</text>
</a>
</g>
</g>
<!-- Node3&#45;&gt;Node4 -->
<g id="edge3" class="edge">
<title>Node3&#45;&gt;Node4</title>
<path fill="none" stroke="midnightblue" d="M244.96,-684.38C191.95,-675.51 110.38,-660.37 82,-647 39.93,-627.18 0,-628.51 0,-582 0,-582 0,-582 0,-233 0,-197.62 100.2,-155.44 154.68,-135.13"/>
<polygon fill="midnightblue" stroke="midnightblue" points="156.11,-138.33 164.29,-131.59 153.7,-131.76 156.11,-138.33"/>
</g>
<!-- Node8 -->
<g id="node8" class="node">
<title>Node8</title>
<g id="a_node8"><a xlink:href="l4_2sys_2types_8h.html" target="_top" xlink:title="Common L4 ABI Data Types.">
<polygon fill="white" stroke="black" points="145,-168.5 145,-187.5 229,-187.5 229,-168.5 145,-168.5"/>
<text text-anchor="middle" x="187" y="-175.5" font-family="Helvetica,sans-Serif" font-size="10.00">l4/sys/types.h</text>
</a>
</g>
</g>
<!-- Node3&#45;&gt;Node8 -->
<g id="edge7" class="edge">
<title>Node3&#45;&gt;Node8</title>
<path fill="none" stroke="midnightblue" d="M253.16,-683.49C181.44,-667.02 38,-628.29 38,-582 38,-582 38,-582 38,-289 38,-235.94 99.91,-205.58 143.92,-190.7"/>
<polygon fill="midnightblue" stroke="midnightblue" points="145.12,-193.99 153.56,-187.59 142.97,-187.33 145.12,-193.99"/>
</g>
<!-- Node11 -->
<g id="node11" class="node">
<title>Node11</title>
<g id="a_node11"><a xlink:href="kobject_source.html" target="_top" xlink:title=" ">
<polygon fill="white" stroke="black" points="266.5,-515.5 266.5,-534.5 349.5,-534.5 349.5,-515.5 266.5,-515.5"/>
<text text-anchor="middle" x="308" y="-522.5" font-family="Helvetica,sans-Serif" font-size="10.00">l4/sys/kobject</text>
</a>
</g>
</g>
<!-- Node3&#45;&gt;Node11 -->
<g id="edge15" class="edge">
<title>Node3&#45;&gt;Node11</title>
<path fill="none" stroke="midnightblue" d="M293.81,-683.08C296.17,-656.95 303.1,-580.21 306.32,-544.58"/>
<polygon fill="midnightblue" stroke="midnightblue" points="309.81,-544.84 307.23,-534.57 302.84,-544.21 309.81,-544.84"/>
</g>
<!-- Node21 -->
<g id="node21" class="node">
<title>Node21</title>
<g id="a_node21"><a xlink:href="l4_2sys_2task_8h.html" target="_top" xlink:title="Common task related definitions.">
<polygon fill="white" stroke="black" points="142,-342 142,-361 220,-361 220,-342 142,-342"/>
<text text-anchor="middle" x="181" y="-349" font-family="Helvetica,sans-Serif" font-size="10.00">l4/sys/task.h</text>
</a>
</g>
</g>
<!-- Node3&#45;&gt;Node21 -->
<g id="edge44" class="edge">
<title>Node3&#45;&gt;Node21</title>
<path fill="none" stroke="midnightblue" d="M244.56,-683.77C191.55,-671.67 114,-643.46 114,-582 114,-582 114,-582 114,-468 114,-427.89 144.61,-389.23 164.45,-368.39"/>
<polygon fill="midnightblue" stroke="midnightblue" points="167.14,-370.64 171.68,-361.07 162.17,-365.72 167.14,-370.64"/>
</g>
<!-- Node22 -->
<g id="node22" class="node">
<title>Node22</title>
<g id="a_node22"><a xlink:href="sys_2meta.html" target="_top" xlink:title="Meta interface for getting dynamic type information about objects behind capabilities.">
<polygon fill="white" stroke="black" points="321,-627.5 321,-646.5 395,-646.5 395,-627.5 321,-627.5"/>
<text text-anchor="middle" x="358" y="-634.5" font-family="Helvetica,sans-Serif" font-size="10.00">l4/sys/meta</text>
</a>
</g>
</g>
<!-- Node3&#45;&gt;Node22 -->
<g id="edge45" class="edge">
<title>Node3&#45;&gt;Node22</title>
<path fill="none" stroke="midnightblue" d="M303.44,-683.32C313.15,-675.26 327.82,-663.08 339.5,-653.37"/>
<polygon fill="midnightblue" stroke="midnightblue" points="341.91,-655.92 347.37,-646.83 337.44,-650.53 341.91,-655.92"/>
</g>
<!-- Node5 -->
<g id="node5" class="node">
<title>Node5</title>
<g id="a_node5"><a xlink:href="compiler_8h.html" target="_top" xlink:title="L4 compiler related defines.">
<polygon fill="white" stroke="black" points="374.5,-56.5 374.5,-75.5 473.5,-75.5 473.5,-56.5 374.5,-56.5"/>
<text text-anchor="middle" x="424" y="-63.5" font-family="Helvetica,sans-Serif" font-size="10.00">l4/sys/compiler.h</text>
</a>
</g>
</g>
<!-- Node4&#45;&gt;Node5 -->
<g id="edge4" class="edge">
<title>Node4&#45;&gt;Node5</title>
<path fill="none" stroke="midnightblue" d="M226.24,-112.44C267.06,-103.06 332.64,-87.99 376.98,-77.8"/>
<polygon fill="midnightblue" stroke="midnightblue" points="377.98,-81.17 386.94,-75.52 376.41,-74.34 377.98,-81.17"/>
</g>
<!-- Node7 -->
<g id="node7" class="node">
<title>Node7</title>
<g id="a_node7"><a xlink:href="l4_2sys_2l4int_8h.html" target="_top" xlink:title="Fixed sized integer types, generic version.">
<polygon fill="white" stroke="black" points="91.5,-56.5 91.5,-75.5 170.5,-75.5 170.5,-56.5 91.5,-56.5"/>
<text text-anchor="middle" x="131" y="-63.5" font-family="Helvetica,sans-Serif" font-size="10.00">l4/sys/l4int.h</text>
</a>
</g>
</g>
<!-- Node4&#45;&gt;Node7 -->
<g id="edge6" class="edge">
<title>Node4&#45;&gt;Node7</title>
<path fill="none" stroke="midnightblue" d="M179.68,-112.32C171.11,-104.34 158.19,-92.31 147.81,-82.65"/>
<polygon fill="midnightblue" stroke="midnightblue" points="150.19,-80.09 140.49,-75.83 145.42,-85.21 150.19,-80.09"/>
</g>
<!-- Node6 -->
<g id="node6" class="node">
<title>Node6</title>
<g id="a_node6"><a xlink:title=" ">
<polygon fill="white" stroke="#bfbfbf" points="378,-0.5 378,-19.5 470,-19.5 470,-0.5 378,-0.5"/>
<text text-anchor="middle" x="424" y="-7.5" font-family="Helvetica,sans-Serif" font-size="10.00">l4/sys/linkage.h</text>
</a>
</g>
</g>
<!-- Node5&#45;&gt;Node6 -->
<g id="edge5" class="edge">
<title>Node5&#45;&gt;Node6</title>
<path fill="none" stroke="midnightblue" d="M424,-56.08C424,-49.01 424,-38.86 424,-29.99"/>
<polygon fill="midnightblue" stroke="midnightblue" points="427.5,-29.75 424,-19.75 420.5,-29.75 427.5,-29.75"/>
</g>
<!-- Node8&#45;&gt;Node4 -->
<g id="edge10" class="edge">
<title>Node8&#45;&gt;Node4</title>
<path fill="none" stroke="midnightblue" d="M187.33,-168.08C187.59,-161.01 187.97,-150.86 188.3,-141.99"/>
<polygon fill="midnightblue" stroke="midnightblue" points="191.8,-141.87 188.68,-131.75 184.81,-141.61 191.8,-141.87"/>
</g>
<!-- Node8&#45;&gt;Node5 -->
<g id="edge9" class="edge">
<title>Node8&#45;&gt;Node5</title>
<path fill="none" stroke="midnightblue" d="M203.95,-168.3C228.94,-155.55 277.23,-131.22 319,-112 343.89,-100.55 372.48,-88.36 393.54,-79.55"/>
<polygon fill="midnightblue" stroke="midnightblue" points="395.05,-82.72 402.94,-75.64 392.36,-76.25 395.05,-82.72"/>
</g>
<!-- Node8&#45;&gt;Node7 -->
<g id="edge8" class="edge">
<title>Node8&#45;&gt;Node7</title>
<path fill="none" stroke="midnightblue" d="M144.67,-172.12C97.97,-165.77 27.25,-152.92 11,-132 -11.94,-102.46 39.03,-84.64 81.49,-75.31"/>
<polygon fill="midnightblue" stroke="midnightblue" points="82.42,-78.69 91.49,-73.23 80.99,-71.84 82.42,-78.69"/>
</g>
<!-- Node9 -->
<g id="node9" class="node">
<title>Node9</title>
<g id="a_node9"><a xlink:href="____l4__fpage_8h_source.html" target="_top" xlink:title=" ">
<polygon fill="white" stroke="black" points="328,-112.5 328,-131.5 438,-131.5 438,-112.5 328,-112.5"/>
<text text-anchor="middle" x="383" y="-119.5" font-family="Helvetica,sans-Serif" font-size="10.00">l4/sys/__l4_fpage.h</text>
</a>
</g>
</g>
<!-- Node8&#45;&gt;Node9 -->
<g id="edge11" class="edge">
<title>Node8&#45;&gt;Node9</title>
<path fill="none" stroke="midnightblue" d="M218.06,-168.44C251.6,-159.2 305.2,-144.44 342.14,-134.26"/>
<polygon fill="midnightblue" stroke="midnightblue" points="343.38,-137.55 352.09,-131.52 341.52,-130.8 343.38,-137.55"/>
</g>
<!-- Node10 -->
<g id="node10" class="node">
<title>Node10</title>
<g id="a_node10"><a xlink:href="____timeout_8h_source.html" target="_top" xlink:title=" ">
<polygon fill="white" stroke="black" points="20,-112.5 20,-131.5 126,-131.5 126,-112.5 20,-112.5"/>
<text text-anchor="middle" x="73" y="-119.5" font-family="Helvetica,sans-Serif" font-size="10.00">l4/sys/__timeout.h</text>
</a>
</g>
</g>
<!-- Node8&#45;&gt;Node10 -->
<g id="edge13" class="edge">
<title>Node8&#45;&gt;Node10</title>
<path fill="none" stroke="midnightblue" d="M168.94,-168.44C150.43,-159.68 121.42,-145.94 100.14,-135.86"/>
<polygon fill="midnightblue" stroke="midnightblue" points="101.51,-132.63 90.98,-131.52 98.52,-138.96 101.51,-132.63"/>
</g>
<!-- Node9&#45;&gt;Node5 -->
<g id="edge12" class="edge">
<title>Node9&#45;&gt;Node5</title>
<path fill="none" stroke="midnightblue" d="M389.77,-112.08C395.56,-104.46 404.06,-93.26 411.14,-83.94"/>
<polygon fill="midnightblue" stroke="midnightblue" points="414.1,-85.83 417.36,-75.75 408.52,-81.6 414.1,-85.83"/>
</g>
<!-- Node10&#45;&gt;Node7 -->
<g id="edge14" class="edge">
<title>Node10&#45;&gt;Node7</title>
<path fill="none" stroke="midnightblue" d="M82.32,-112.32C90.89,-104.34 103.81,-92.31 114.19,-82.65"/>
<polygon fill="midnightblue" stroke="midnightblue" points="116.58,-85.21 121.51,-75.83 111.81,-80.09 116.58,-85.21"/>
</g>
<!-- Node11&#45;&gt;Node8 -->
<g id="edge30" class="edge">
<title>Node11&#45;&gt;Node8</title>
<path fill="none" stroke="midnightblue" d="M272.51,-515.45C207.52,-497.43 76,-449.04 76,-352.5 76,-352.5 76,-352.5 76,-289 76,-242.82 125.06,-209.43 157.95,-192.23"/>
<polygon fill="midnightblue" stroke="midnightblue" points="159.79,-195.22 167.16,-187.61 156.65,-188.96 159.79,-195.22"/>
</g>
<!-- Node12 -->
<g id="node12" class="node">
<title>Node12</title>
<g id="a_node12"><a xlink:href="kernel__object_8h.html" target="_top" xlink:title="Kernel object system calls.">
<polygon fill="white" stroke="black" points="270.5,-403.5 270.5,-422.5 361.5,-422.5 361.5,-403.5 270.5,-403.5"/>
<text text-anchor="middle" x="316" y="-410.5" font-family="Helvetica,sans-Serif" font-size="10.00">kernel_object.h</text>
</a>
</g>
</g>
<!-- Node11&#45;&gt;Node12 -->
<g id="edge16" class="edge">
<title>Node11&#45;&gt;Node12</title>
<path fill="none" stroke="midnightblue" d="M308.63,-515.37C309.92,-497.62 312.9,-456.67 314.65,-432.6"/>
<polygon fill="midnightblue" stroke="midnightblue" points="318.14,-432.82 315.38,-422.59 311.16,-432.31 318.14,-432.82"/>
</g>
<!-- Node17 -->
<g id="node17" class="node">
<title>Node17</title>
<g id="a_node17"><a xlink:href="____typeinfo_8h.html" target="_top" xlink:title="Type information handling.">
<polygon fill="white" stroke="black" points="336.5,-459.5 336.5,-478.5 413.5,-478.5 413.5,-459.5 336.5,-459.5"/>
<text text-anchor="middle" x="375" y="-466.5" font-family="Helvetica,sans-Serif" font-size="10.00">__typeinfo.h</text>
</a>
</g>
</g>
<!-- Node11&#45;&gt;Node17 -->
<g id="edge31" class="edge">
<title>Node11&#45;&gt;Node17</title>
<path fill="none" stroke="midnightblue" d="M318.76,-515.32C328.77,-507.26 343.89,-495.08 355.93,-485.37"/>
<polygon fill="midnightblue" stroke="midnightblue" points="358.45,-487.83 364.04,-478.83 354.06,-482.38 358.45,-487.83"/>
</g>
<!-- Node12&#45;&gt;Node5 -->
<g id="edge18" class="edge">
<title>Node12&#45;&gt;Node5</title>
<path fill="none" stroke="midnightblue" d="M361.51,-403.5C417.15,-390.17 504,-358.54 504,-291 504,-291 504,-291 504,-177 504,-136.62 468.31,-101.11 444.6,-81.97"/>
<polygon fill="midnightblue" stroke="midnightblue" points="446.55,-79.05 436.5,-75.69 442.26,-84.58 446.55,-79.05"/>
</g>
<!-- Node12&#45;&gt;Node8 -->
<g id="edge17" class="edge">
<title>Node12&#45;&gt;Node8</title>
<path fill="none" stroke="midnightblue" d="M270.26,-407.15C221.73,-400.95 149.75,-388.37 133,-367 91.65,-314.25 146.15,-231.1 173.29,-195.77"/>
<polygon fill="midnightblue" stroke="midnightblue" points="176.37,-197.52 179.82,-187.5 170.88,-193.18 176.37,-197.52"/>
</g>
<!-- Node13 -->
<g id="node13" class="node">
<title>Node13</title>
<g id="a_node13"><a xlink:href="l4_2sys_2utcb_8h.html" target="_top" xlink:title="UTCB definitions.">
<polygon fill="white" stroke="black" points="393,-224.5 393,-243.5 471,-243.5 471,-224.5 393,-224.5"/>
<text text-anchor="middle" x="432" y="-231.5" font-family="Helvetica,sans-Serif" font-size="10.00">l4/sys/utcb.h</text>
</a>
</g>
</g>
<!-- Node12&#45;&gt;Node13 -->
<g id="edge19" class="edge">
<title>Node12&#45;&gt;Node13</title>
<path fill="none" stroke="midnightblue" d="M336.76,-403.49C352.58,-396.02 373.82,-383.74 387,-367 414.01,-332.72 425.29,-281.27 429.61,-253.83"/>
<polygon fill="midnightblue" stroke="midnightblue" points="433.11,-254.05 431.05,-243.66 426.18,-253.06 433.11,-254.05"/>
</g>
<!-- Node14 -->
<g id="node14" class="node">
<title>Node14</title>
<g id="a_node14"><a xlink:href="____kernel__object__impl_8h.html" target="_top" xlink:title="Low&#45;level kernel debugger functions.">
<polygon fill="white" stroke="black" points="238,-336.5 238,-366.5 362,-366.5 362,-336.5 238,-336.5"/>
<text text-anchor="start" x="246" y="-354.5" font-family="Helvetica,sans-Serif" font-size="10.00">l4/sys/__kernel_object</text>
<text text-anchor="middle" x="300" y="-343.5" font-family="Helvetica,sans-Serif" font-size="10.00">_impl.h</text>
</a>
</g>
</g>
<!-- Node12&#45;&gt;Node14 -->
<g id="edge23" class="edge">
<title>Node12&#45;&gt;Node14</title>
<path fill="none" stroke="midnightblue" d="M313.71,-403.48C311.8,-396.4 309,-385.97 306.42,-376.39"/>
<polygon fill="midnightblue" stroke="midnightblue" points="309.75,-375.27 303.77,-366.52 302.99,-377.09 309.75,-375.27"/>
</g>
<!-- Node15 -->
<g id="node15" class="node">
<title>Node15</title>
<g id="a_node15"><a xlink:href="l4_2sys_2ipc_8h.html" target="_top" xlink:title="Common IPC interface.">
<polygon fill="white" stroke="black" points="277.5,-280.5 277.5,-299.5 348.5,-299.5 348.5,-280.5 277.5,-280.5"/>
<text text-anchor="middle" x="313" y="-287.5" font-family="Helvetica,sans-Serif" font-size="10.00">l4/sys/ipc.h</text>
</a>
</g>
</g>
<!-- Node12&#45;&gt;Node15 -->
<g id="edge29" class="edge">
<title>Node12&#45;&gt;Node15</title>
<path fill="none" stroke="midnightblue" d="M333.2,-403.39C346.25,-395.79 363.23,-383.39 371,-367 376.9,-354.55 377.06,-348.37 371,-336 364.48,-322.68 351.9,-312.18 340.13,-304.68"/>
<polygon fill="midnightblue" stroke="midnightblue" points="341.78,-301.59 331.39,-299.53 338.23,-307.62 341.78,-301.59"/>
</g>
<!-- Node13&#45;&gt;Node5 -->
<g id="edge21" class="edge">
<title>Node13&#45;&gt;Node5</title>
<path fill="none" stroke="midnightblue" d="M435.16,-224.37C442.03,-204.37 456.96,-153.37 447,-112 444.69,-102.42 439.98,-92.58 435.42,-84.56"/>
<polygon fill="midnightblue" stroke="midnightblue" points="438.29,-82.54 430.1,-75.81 432.31,-86.17 438.29,-82.54"/>
</g>
<!-- Node13&#45;&gt;Node7 -->
<g id="edge22" class="edge">
<title>Node13&#45;&gt;Node7</title>
<path fill="none" stroke="midnightblue" d="M420.09,-224.25C390.95,-203.08 313.31,-148.22 243,-112 217.85,-99.04 188.07,-87.23 165.55,-78.97"/>
<polygon fill="midnightblue" stroke="midnightblue" points="166.66,-75.65 156.06,-75.54 164.28,-82.23 166.66,-75.65"/>
</g>
<!-- Node13&#45;&gt;Node8 -->
<g id="edge20" class="edge">
<title>Node13&#45;&gt;Node8</title>
<path fill="none" stroke="midnightblue" d="M393.18,-224.44C350.44,-215.02 281.67,-199.87 235.43,-189.68"/>
<polygon fill="midnightblue" stroke="midnightblue" points="236.16,-186.25 225.64,-187.52 234.65,-193.09 236.16,-186.25"/>
</g>
<!-- Node14&#45;&gt;Node15 -->
<g id="edge24" class="edge">
<title>Node14&#45;&gt;Node15</title>
<path fill="none" stroke="midnightblue" d="M303.08,-336.4C304.83,-328.38 307.05,-318.23 308.94,-309.57"/>
<polygon fill="midnightblue" stroke="midnightblue" points="312.39,-310.17 311.11,-299.66 305.55,-308.68 312.39,-310.17"/>
</g>
<!-- Node15&#45;&gt;Node8 -->
<g id="edge25" class="edge">
<title>Node15&#45;&gt;Node8</title>
<path fill="none" stroke="midnightblue" d="M303.11,-280.37C281.86,-261.81 231.57,-217.91 204.68,-194.44"/>
<polygon fill="midnightblue" stroke="midnightblue" points="206.68,-191.53 196.84,-187.59 202.07,-196.8 206.68,-191.53"/>
</g>
<!-- Node15&#45;&gt;Node13 -->
<g id="edge26" class="edge">
<title>Node15&#45;&gt;Node13</title>
<path fill="none" stroke="midnightblue" d="M331.86,-280.44C351.27,-271.64 381.73,-257.81 403.96,-247.72"/>
<polygon fill="midnightblue" stroke="midnightblue" points="405.57,-250.84 413.23,-243.52 402.68,-244.46 405.57,-250.84"/>
</g>
<!-- Node16 -->
<g id="node16" class="node">
<title>Node16</title>
<g id="a_node16"><a xlink:href="err_8h.html" target="_top" xlink:title="Error codes.">
<polygon fill="white" stroke="black" points="570,-224.5 570,-243.5 640,-243.5 640,-224.5 570,-224.5"/>
<text text-anchor="middle" x="605" y="-231.5" font-family="Helvetica,sans-Serif" font-size="10.00">l4/sys/err.h</text>
</a>
</g>
</g>
<!-- Node15&#45;&gt;Node16 -->
<g id="edge27" class="edge">
<title>Node15&#45;&gt;Node16</title>
<path fill="none" stroke="midnightblue" d="M348.51,-282.43C401.56,-272.62 501.48,-254.14 559.72,-243.37"/>
<polygon fill="midnightblue" stroke="midnightblue" points="560.54,-246.78 569.73,-241.52 559.26,-239.9 560.54,-246.78"/>
</g>
<!-- Node16&#45;&gt;Node5 -->
<g id="edge28" class="edge">
<title>Node16&#45;&gt;Node5</title>
<path fill="none" stroke="midnightblue" d="M600.7,-224.24C589.69,-202.6 558.47,-145.88 518,-112 500.87,-97.66 478.4,-86.68 459.72,-79.16"/>
<polygon fill="midnightblue" stroke="midnightblue" points="460.94,-75.88 450.35,-75.55 458.41,-82.41 460.94,-75.88"/>
</g>
<!-- Node18 -->
<g id="node18" class="node">
<title>Node18</title>
<g id="a_node18"><a xlink:href="types.html" target="_top" xlink:title=" ">
<polygon fill="white" stroke="black" points="646,-342 646,-361 710,-361 710,-342 646,-342"/>
<text text-anchor="middle" x="678" y="-349" font-family="Helvetica,sans-Serif" font-size="10.00">cxx/types</text>
</a>
</g>
</g>
<!-- Node17&#45;&gt;Node18 -->
<g id="edge32" class="edge">
<title>Node17&#45;&gt;Node18</title>
<path fill="none" stroke="midnightblue" d="M398.86,-459.36C422.12,-450.75 458.37,-436.86 489,-423 506.75,-414.97 510.05,-410.57 528,-403 564.73,-387.5 608.01,-373.35 638.62,-363.99"/>
<polygon fill="midnightblue" stroke="midnightblue" points="639.93,-367.26 648.49,-361.01 637.9,-360.56 639.93,-367.26"/>
</g>
<!-- Node19 -->
<g id="node19" class="node">
<title>Node19</title>
<g id="a_node19"><a xlink:href="ipc__basics_source.html" target="_top" xlink:title=" ">
<polygon fill="white" stroke="black" points="536.5,-403.5 536.5,-422.5 623.5,-422.5 623.5,-403.5 536.5,-403.5"/>
<text text-anchor="middle" x="580" y="-410.5" font-family="Helvetica,sans-Serif" font-size="10.00">cxx/ipc_basics</text>
</a>
</g>
</g>
<!-- Node17&#45;&gt;Node19 -->
<g id="edge33" class="edge">
<title>Node17&#45;&gt;Node19</title>
<path fill="none" stroke="midnightblue" d="M407.48,-459.44C442.72,-450.16 499.1,-435.31 537.76,-425.13"/>
<polygon fill="midnightblue" stroke="midnightblue" points="538.89,-428.45 547.67,-422.52 537.11,-421.68 538.89,-428.45"/>
</g>
<!-- Node20 -->
<g id="node20" class="node">
<title>Node20</title>
<g id="a_node20"><a xlink:href="capability_8h_source.html" target="_top" xlink:title=" ">
<polygon fill="white" stroke="black" points="388,-403.5 388,-422.5 480,-422.5 480,-403.5 388,-403.5"/>
<text text-anchor="middle" x="434" y="-410.5" font-family="Helvetica,sans-Serif" font-size="10.00">cxx/capability.h</text>
</a>
</g>
</g>
<!-- Node17&#45;&gt;Node20 -->
<g id="edge37" class="edge">
<title>Node17&#45;&gt;Node20</title>
<path fill="none" stroke="midnightblue" d="M384.48,-459.32C393.2,-451.34 406.34,-439.31 416.9,-429.65"/>
<polygon fill="midnightblue" stroke="midnightblue" points="419.33,-432.17 424.35,-422.83 414.61,-427 419.33,-432.17"/>
</g>
<!-- Node19&#45;&gt;Node13 -->
<g id="edge35" class="edge">
<title>Node19&#45;&gt;Node13</title>
<path fill="none" stroke="midnightblue" d="M574.16,-403.27C559.44,-381.53 519.24,-323.59 480,-280 470.54,-269.49 459.01,-258.63 449.62,-250.21"/>
<polygon fill="midnightblue" stroke="midnightblue" points="451.84,-247.5 442.03,-243.51 447.21,-252.75 451.84,-247.5"/>
</g>
<!-- Node19&#45;&gt;Node16 -->
<g id="edge36" class="edge">
<title>Node19&#45;&gt;Node16</title>
<path fill="none" stroke="midnightblue" d="M583.37,-403.18C586.65,-394.22 591.5,-379.85 594,-367 601.74,-327.26 604.04,-279.76 604.72,-253.96"/>
<polygon fill="midnightblue" stroke="midnightblue" points="608.22,-253.81 604.93,-243.74 601.22,-253.66 608.22,-253.81"/>
</g>
<!-- Node19&#45;&gt;Node18 -->
<g id="edge34" class="edge">
<title>Node19&#45;&gt;Node18</title>
<path fill="none" stroke="midnightblue" d="M594.04,-403.48C610.05,-393.75 636.45,-377.73 655.37,-366.24"/>
<polygon fill="midnightblue" stroke="midnightblue" points="657.25,-369.19 663.99,-361.01 653.62,-363.21 657.25,-369.19"/>
</g>
<!-- Node20&#45;&gt;Node4 -->
<g id="edge38" class="edge">
<title>Node20&#45;&gt;Node4</title>
<path fill="none" stroke="midnightblue" d="M466.99,-403.44C485.46,-396.77 506.95,-385.45 518,-367 542.61,-325.9 518.79,-263.06 480,-224 415.88,-159.44 308.45,-136.08 243.6,-127.67"/>
<polygon fill="midnightblue" stroke="midnightblue" points="243.92,-124.19 233.57,-126.45 243.07,-131.14 243.92,-124.19"/>
</g>
<!-- Node20&#45;&gt;Node8 -->
<g id="edge39" class="edge">
<title>Node20&#45;&gt;Node8</title>
<path fill="none" stroke="midnightblue" d="M430.81,-403.3C422.15,-380.63 396.23,-318.8 358,-280 316.91,-238.29 255.08,-207.47 218.12,-191.45"/>
<polygon fill="midnightblue" stroke="midnightblue" points="219.41,-188.2 208.83,-187.51 216.67,-194.64 219.41,-188.2"/>
</g>
<!-- Node20&#45;&gt;Node21 -->
<g id="edge40" class="edge">
<title>Node20&#45;&gt;Node21</title>
<path fill="none" stroke="midnightblue" d="M390.58,-403.48C348.92,-395.07 284.36,-381.42 229,-367 225.37,-366.06 221.61,-365.02 217.86,-363.95"/>
<polygon fill="midnightblue" stroke="midnightblue" points="218.64,-360.53 208.06,-361.07 216.67,-367.25 218.64,-360.53"/>
</g>
<!-- Node21&#45;&gt;Node8 -->
<g id="edge41" class="edge">
<title>Node21&#45;&gt;Node8</title>
<path fill="none" stroke="midnightblue" d="M181.31,-341.76C182.24,-315.15 185.05,-234.71 186.34,-197.84"/>
<polygon fill="midnightblue" stroke="midnightblue" points="189.85,-197.64 186.7,-187.52 182.85,-197.39 189.85,-197.64"/>
</g>
<!-- Node21&#45;&gt;Node13 -->
<g id="edge42" class="edge">
<title>Node21&#45;&gt;Node13</title>
<path fill="none" stroke="midnightblue" d="M189.39,-341.76C204.13,-326.92 236.23,-296.75 269,-280 305.01,-261.6 349.46,-249.97 382.84,-243.16"/>
<polygon fill="midnightblue" stroke="midnightblue" points="383.69,-246.56 392.83,-241.19 382.34,-239.69 383.69,-246.56"/>
</g>
<!-- Node21&#45;&gt;Node15 -->
<g id="edge43" class="edge">
<title>Node21&#45;&gt;Node15</title>
<path fill="none" stroke="midnightblue" d="M199.91,-341.98C222.16,-331.95 259.31,-315.2 284.93,-303.65"/>
<polygon fill="midnightblue" stroke="midnightblue" points="286.44,-306.81 294.12,-299.51 283.57,-300.43 286.44,-306.81"/>
</g>
<!-- Node22&#45;&gt;Node11 -->
<g id="edge46" class="edge">
<title>Node22&#45;&gt;Node11</title>
<path fill="none" stroke="midnightblue" d="M354.08,-627.37C345.93,-609.46 327.06,-567.92 316.16,-543.95"/>
<polygon fill="midnightblue" stroke="midnightblue" points="319.23,-542.25 311.91,-534.59 312.86,-545.14 319.23,-542.25"/>
</g>
<!-- Node22&#45;&gt;Node23 -->
<g id="edge47" class="edge">
<title>Node22&#45;&gt;Node23</title>
<path fill="none" stroke="midnightblue" d="M363.1,-627.37C373.78,-609.3 398.67,-567.18 412.77,-543.31"/>
<polygon fill="midnightblue" stroke="midnightblue" points="415.85,-544.98 417.92,-534.59 409.82,-541.42 415.85,-544.98"/>
</g>
<!-- Node25 -->
<g id="node25" class="node">
<title>Node25</title>
<g id="a_node25"><a xlink:href="ipc__string_source.html" target="_top" xlink:title=" ">
<polygon fill="white" stroke="black" points="580,-571.5 580,-590.5 664,-590.5 664,-571.5 580,-571.5"/>
<text text-anchor="middle" x="622" y="-578.5" font-family="Helvetica,sans-Serif" font-size="10.00">cxx/ipc_string</text>
</a>
</g>
</g>
<!-- Node22&#45;&gt;Node25 -->
<g id="edge54" class="edge">
<title>Node22&#45;&gt;Node25</title>
<path fill="none" stroke="midnightblue" d="M395.26,-628.38C440.97,-619.03 518.7,-603.13 570.2,-592.6"/>
<polygon fill="midnightblue" stroke="midnightblue" points="571.04,-596 580.13,-590.56 569.63,-589.14 571.04,-596"/>
</g>
<!-- Node23&#45;&gt;Node17 -->
<g id="edge53" class="edge">
<title>Node23&#45;&gt;Node17</title>
<path fill="none" stroke="midnightblue" d="M415.07,-515.08C408.15,-507.3 397.93,-495.8 389.55,-486.37"/>
<polygon fill="midnightblue" stroke="midnightblue" points="392.04,-483.9 382.78,-478.75 386.81,-488.55 392.04,-483.9"/>
</g>
<!-- Node23&#45;&gt;Node19 -->
<g id="edge48" class="edge">
<title>Node23&#45;&gt;Node19</title>
<path fill="none" stroke="midnightblue" d="M426.11,-515.16C431.41,-501.33 443.44,-474.55 462,-459 481.18,-442.93 506.71,-432.25 529.11,-425.34"/>
<polygon fill="midnightblue" stroke="midnightblue" points="530.2,-428.67 538.82,-422.52 528.24,-421.95 530.2,-428.67"/>
</g>
<!-- Node23&#45;&gt;Node24 -->
<g id="edge49" class="edge">
<title>Node23&#45;&gt;Node24</title>
<path fill="none" stroke="midnightblue" d="M439.87,-515.32C456.71,-506.66 482.81,-493.24 502.24,-483.25"/>
<polygon fill="midnightblue" stroke="midnightblue" points="503.88,-486.34 511.17,-478.65 500.68,-480.12 503.88,-486.34"/>
</g>
<!-- Node24&#45;&gt;Node18 -->
<g id="edge51" class="edge">
<title>Node24&#45;&gt;Node18</title>
<path fill="none" stroke="midnightblue" d="M561.06,-459.42C583.25,-452.4 612.13,-440.71 633,-423 650.07,-408.51 662.91,-385.89 670.41,-370.2"/>
<polygon fill="midnightblue" stroke="midnightblue" points="673.62,-371.59 674.57,-361.04 667.25,-368.7 673.62,-371.59"/>
</g>
<!-- Node24&#45;&gt;Node19 -->
<g id="edge52" class="edge">
<title>Node24&#45;&gt;Node19</title>
<path fill="none" stroke="midnightblue" d="M536.59,-459.08C544.16,-451.22 555.38,-439.57 564.51,-430.08"/>
<polygon fill="midnightblue" stroke="midnightblue" points="567.16,-432.38 571.57,-422.75 562.12,-427.53 567.16,-432.38"/>
</g>
<!-- Node24&#45;&gt;Node20 -->
<g id="edge50" class="edge">
<title>Node24&#45;&gt;Node20</title>
<path fill="none" stroke="midnightblue" d="M512.9,-459.32C498.1,-450.82 475.31,-437.73 458.02,-427.8"/>
<polygon fill="midnightblue" stroke="midnightblue" points="459.48,-424.6 449.07,-422.65 455.99,-430.67 459.48,-424.6"/>
</g>
<!-- Node25&#45;&gt;Node18 -->
<g id="edge55" class="edge">
<title>Node25&#45;&gt;Node18</title>
<path fill="none" stroke="midnightblue" d="M627.77,-571.4C633.42,-562.6 641.92,-548.37 647,-535 668.66,-478.03 675.24,-405.32 677.2,-371.45"/>
<polygon fill="midnightblue" stroke="midnightblue" points="680.71,-371.34 677.71,-361.18 673.72,-370.99 680.71,-371.34"/>
</g>
<!-- Node25&#45;&gt;Node19 -->
<g id="edge56" class="edge">
<title>Node25&#45;&gt;Node19</title>
<path fill="none" stroke="midnightblue" d="M625.58,-571.13C630.18,-558.59 637.1,-534.96 633,-515 626.4,-482.83 606.1,-449.95 592.63,-430.78"/>
<polygon fill="midnightblue" stroke="midnightblue" points="595.36,-428.58 586.65,-422.54 589.69,-432.69 595.36,-428.58"/>
</g>
<!-- Node26 -->
<g id="node26" class="node">
<title>Node26</title>
<g id="a_node26"><a xlink:href="ipc__array_source.html" target="_top" xlink:title=" ">
<polygon fill="white" stroke="black" points="562,-515.5 562,-534.5 624,-534.5 624,-515.5 562,-515.5"/>
<text text-anchor="middle" x="593" y="-522.5" font-family="Helvetica,sans-Serif" font-size="10.00">ipc_array</text>
</a>
</g>
</g>
<!-- Node25&#45;&gt;Node26 -->
<g id="edge57" class="edge">
<title>Node25&#45;&gt;Node26</title>
<path fill="none" stroke="midnightblue" d="M617.21,-571.08C613.24,-563.69 607.47,-552.95 602.57,-543.81"/>
<polygon fill="midnightblue" stroke="midnightblue" points="605.51,-541.91 597.7,-534.75 599.35,-545.22 605.51,-541.91"/>
</g>
<!-- Node26&#45;&gt;Node18 -->
<g id="edge58" class="edge">
<title>Node26&#45;&gt;Node18</title>
<path fill="none" stroke="midnightblue" d="M599.2,-515.47C611.28,-498.55 638.25,-459.23 655,-423 662.83,-406.05 669.17,-385.68 673.2,-371.2"/>
<polygon fill="midnightblue" stroke="midnightblue" points="676.61,-372 675.81,-361.44 669.84,-370.19 676.61,-372"/>
</g>
<!-- Node26&#45;&gt;Node19 -->
<g id="edge59" class="edge">
<title>Node26&#45;&gt;Node19</title>
<path fill="none" stroke="midnightblue" d="M594.34,-515.1C595.99,-502.51 598.22,-478.84 595,-459 593.53,-449.96 590.51,-440.28 587.56,-432.22"/>
<polygon fill="midnightblue" stroke="midnightblue" points="590.76,-430.79 583.86,-422.75 584.24,-433.34 590.76,-430.79"/>
</g>
<!-- Node26&#45;&gt;Node24 -->
<g id="edge60" class="edge">
<title>Node26&#45;&gt;Node24</title>
<path fill="none" stroke="midnightblue" d="M582.56,-515.32C572.85,-507.26 558.18,-495.08 546.5,-485.37"/>
<polygon fill="midnightblue" stroke="midnightblue" points="548.56,-482.53 538.63,-478.83 544.09,-487.92 548.56,-482.53"/>
</g>
</g>
</svg>
