<?xml version="1.0" encoding="UTF-8" standalone="no"?>
<!DOCTYPE svg PUBLIC "-//W3C//DTD SVG 1.1//EN"
 "http://www.w3.org/Graphics/SVG/1.1/DTD/svg11.dtd">
<!-- Generated by graphviz version 2.43.0 (0)
 -->
<!-- Title: l4/re/random Pages: 1 -->
<svg width="1108pt" height="935pt"
 viewBox="0.00 0.00 1108.00 935.00" xmlns="http://www.w3.org/2000/svg" xmlns:xlink="http://www.w3.org/1999/xlink">
<g id="graph0" class="graph" transform="scale(1 1) rotate(0) translate(4 931)">
<title>l4/re/random</title>
<polygon fill="white" stroke="transparent" points="-4,4 -4,-931 1104,-931 1104,4 -4,4"/>
<!-- Node1 -->
<g id="node1" class="node">
<title>Node1</title>
<g id="a_node1"><a xlink:title="Random number generator interface definition.">
<polygon fill="#bfbfbf" stroke="black" points="88.5,-907.5 88.5,-926.5 167.5,-926.5 167.5,-907.5 88.5,-907.5"/>
<text text-anchor="middle" x="128" y="-914.5" font-family="Helvetica,sans-Serif" font-size="10.00">l4/re/random</text>
</a>
</g>
</g>
<!-- Node2 -->
<g id="node2" class="node">
<title>Node2</title>
<g id="a_node2"><a xlink:href="capability.html" target="_top" xlink:title="L4::Cap related definitions.">
<polygon fill="white" stroke="black" points="330,-683.5 330,-702.5 426,-702.5 426,-683.5 330,-683.5"/>
<text text-anchor="middle" x="378" y="-690.5" font-family="Helvetica,sans-Serif" font-size="10.00">l4/sys/capability</text>
</a>
</g>
</g>
<!-- Node1&#45;&gt;Node2 -->
<g id="edge1" class="edge">
<title>Node1&#45;&gt;Node2</title>
<path fill="none" stroke="midnightblue" d="M137.8,-907.3C175.61,-873.73 312.26,-752.38 360.77,-709.3"/>
<polygon fill="midnightblue" stroke="midnightblue" points="363.11,-711.9 368.27,-702.64 358.47,-706.67 363.11,-711.9"/>
</g>
<!-- Node22 -->
<g id="node22" class="node">
<title>Node22</title>
<g id="a_node22"><a xlink:href="ipc__iface.html" target="_top" xlink:title="Interface Definition Language.">
<polygon fill="white" stroke="black" points="50,-571.5 50,-590.5 130,-590.5 130,-571.5 50,-571.5"/>
<text text-anchor="middle" x="90" y="-578.5" font-family="Helvetica,sans-Serif" font-size="10.00">cxx/ipc_iface</text>
</a>
</g>
</g>
<!-- Node1&#45;&gt;Node22 -->
<g id="edge61" class="edge">
<title>Node1&#45;&gt;Node22</title>
<path fill="none" stroke="midnightblue" d="M116.46,-907.43C95.2,-890.57 52,-850.8 52,-806 52,-806 52,-806 52,-692 52,-657.81 68.6,-620.76 79.86,-599.57"/>
<polygon fill="midnightblue" stroke="midnightblue" points="82.95,-601.22 84.72,-590.77 76.82,-597.83 82.95,-601.22"/>
</g>
<!-- Node23 -->
<g id="node23" class="node">
<title>Node23</title>
<g id="a_node23"><a xlink:href="ipc__types.html" target="_top" xlink:title=" ">
<polygon fill="white" stroke="black" points="18.5,-459.5 18.5,-478.5 133.5,-478.5 133.5,-459.5 18.5,-459.5"/>
<text text-anchor="middle" x="76" y="-466.5" font-family="Helvetica,sans-Serif" font-size="10.00">l4/sys/cxx/ipc_types</text>
</a>
</g>
</g>
<!-- Node1&#45;&gt;Node23 -->
<g id="edge60" class="edge">
<title>Node1&#45;&gt;Node23</title>
<path fill="none" stroke="midnightblue" d="M103.02,-907.47C65.77,-892.97 0,-859.77 0,-806 0,-806 0,-806 0,-580 0,-540.28 33.96,-504.5 56.48,-485.15"/>
<polygon fill="midnightblue" stroke="midnightblue" points="58.98,-487.63 64.46,-478.57 54.52,-482.24 58.98,-487.63"/>
</g>
<!-- Node26 -->
<g id="node26" class="node">
<title>Node26</title>
<g id="a_node26"><a xlink:href="icu.html" target="_top" xlink:title="Interrupt controller.">
<polygon fill="white" stroke="black" points="266,-851.5 266,-870.5 328,-870.5 328,-851.5 266,-851.5"/>
<text text-anchor="middle" x="297" y="-858.5" font-family="Helvetica,sans-Serif" font-size="10.00">l4/sys/icu</text>
</a>
</g>
</g>
<!-- Node1&#45;&gt;Node26 -->
<g id="edge62" class="edge">
<title>Node1&#45;&gt;Node26</title>
<path fill="none" stroke="midnightblue" d="M154.78,-907.44C183.33,-898.32 228.73,-883.81 260.54,-873.65"/>
<polygon fill="midnightblue" stroke="midnightblue" points="261.89,-876.89 270.35,-870.52 259.76,-870.23 261.89,-876.89"/>
</g>
<!-- Node3 -->
<g id="node3" class="node">
<title>Node3</title>
<g id="a_node3"><a xlink:href="l4_2sys_2consts_8h.html" target="_top" xlink:title="Common constants.">
<polygon fill="white" stroke="black" points="294.5,-112.5 294.5,-131.5 383.5,-131.5 383.5,-112.5 294.5,-112.5"/>
<text text-anchor="middle" x="339" y="-119.5" font-family="Helvetica,sans-Serif" font-size="10.00">l4/sys/consts.h</text>
</a>
</g>
</g>
<!-- Node2&#45;&gt;Node3 -->
<g id="edge2" class="edge">
<title>Node2&#45;&gt;Node3</title>
<path fill="none" stroke="midnightblue" d="M377.39,-683.06C373.01,-619.27 346.53,-232.93 340.31,-142.11"/>
<polygon fill="midnightblue" stroke="midnightblue" points="343.79,-141.66 339.61,-131.92 336.8,-142.13 343.79,-141.66"/>
</g>
<!-- Node7 -->
<g id="node7" class="node">
<title>Node7</title>
<g id="a_node7"><a xlink:href="l4_2sys_2types_8h.html" target="_top" xlink:title="Common L4 ABI Data Types.">
<polygon fill="white" stroke="black" points="466,-168.5 466,-187.5 550,-187.5 550,-168.5 466,-168.5"/>
<text text-anchor="middle" x="508" y="-175.5" font-family="Helvetica,sans-Serif" font-size="10.00">l4/sys/types.h</text>
</a>
</g>
</g>
<!-- Node2&#45;&gt;Node7 -->
<g id="edge6" class="edge">
<title>Node2&#45;&gt;Node7</title>
<path fill="none" stroke="midnightblue" d="M379.72,-683.39C386.37,-649.37 410,-520.88 410,-414 410,-414 410,-414 410,-289 410,-245.38 453.49,-211.06 482.53,-193.01"/>
<polygon fill="midnightblue" stroke="midnightblue" points="484.58,-195.86 491.38,-187.73 481,-189.85 484.58,-195.86"/>
</g>
<!-- Node10 -->
<g id="node10" class="node">
<title>Node10</title>
<g id="a_node10"><a xlink:href="kobject_source.html" target="_top" xlink:title=" ">
<polygon fill="white" stroke="black" points="425.5,-515.5 425.5,-534.5 508.5,-534.5 508.5,-515.5 425.5,-515.5"/>
<text text-anchor="middle" x="467" y="-522.5" font-family="Helvetica,sans-Serif" font-size="10.00">l4/sys/kobject</text>
</a>
</g>
</g>
<!-- Node2&#45;&gt;Node10 -->
<g id="edge14" class="edge">
<title>Node2&#45;&gt;Node10</title>
<path fill="none" stroke="midnightblue" d="M385.12,-683.39C392.2,-674.59 403.12,-660.35 411,-647 431.61,-612.08 450.23,-568.29 459.94,-544.13"/>
<polygon fill="midnightblue" stroke="midnightblue" points="463.32,-545.09 463.75,-534.5 456.81,-542.52 463.32,-545.09"/>
</g>
<!-- Node20 -->
<g id="node20" class="node">
<title>Node20</title>
<g id="a_node20"><a xlink:href="l4_2sys_2task_8h.html" target="_top" xlink:title="Common task related definitions.">
<polygon fill="white" stroke="black" points="552,-342 552,-361 630,-361 630,-342 552,-342"/>
<text text-anchor="middle" x="591" y="-349" font-family="Helvetica,sans-Serif" font-size="10.00">l4/sys/task.h</text>
</a>
</g>
</g>
<!-- Node2&#45;&gt;Node20 -->
<g id="edge43" class="edge">
<title>Node2&#45;&gt;Node20</title>
<path fill="none" stroke="midnightblue" d="M426.17,-689.03C491.46,-682.1 600,-658.99 600,-582 600,-582 600,-582 600,-468 600,-433.76 596.02,-393.98 593.35,-371.17"/>
<polygon fill="midnightblue" stroke="midnightblue" points="596.82,-370.68 592.14,-361.18 589.87,-371.52 596.82,-370.68"/>
</g>
<!-- Node21 -->
<g id="node21" class="node">
<title>Node21</title>
<g id="a_node21"><a xlink:href="sys_2meta.html" target="_top" xlink:title="Meta interface for getting dynamic type information about objects behind capabilities.">
<polygon fill="white" stroke="black" points="240,-627.5 240,-646.5 314,-646.5 314,-627.5 240,-627.5"/>
<text text-anchor="middle" x="277" y="-634.5" font-family="Helvetica,sans-Serif" font-size="10.00">l4/sys/meta</text>
</a>
</g>
</g>
<!-- Node2&#45;&gt;Node21 -->
<g id="edge44" class="edge">
<title>Node2&#45;&gt;Node21</title>
<path fill="none" stroke="midnightblue" d="M361.77,-683.32C345.65,-674.7 320.7,-661.36 302.04,-651.39"/>
<polygon fill="midnightblue" stroke="midnightblue" points="303.66,-648.28 293.19,-646.65 300.36,-654.46 303.66,-648.28"/>
</g>
<!-- Node4 -->
<g id="node4" class="node">
<title>Node4</title>
<g id="a_node4"><a xlink:href="compiler_8h.html" target="_top" xlink:title="L4 compiler related defines.">
<polygon fill="white" stroke="black" points="325.5,-56.5 325.5,-75.5 424.5,-75.5 424.5,-56.5 325.5,-56.5"/>
<text text-anchor="middle" x="375" y="-63.5" font-family="Helvetica,sans-Serif" font-size="10.00">l4/sys/compiler.h</text>
</a>
</g>
</g>
<!-- Node3&#45;&gt;Node4 -->
<g id="edge3" class="edge">
<title>Node3&#45;&gt;Node4</title>
<path fill="none" stroke="midnightblue" d="M344.94,-112.08C349.98,-104.53 357.34,-93.49 363.51,-84.23"/>
<polygon fill="midnightblue" stroke="midnightblue" points="366.53,-86.01 369.17,-75.75 360.71,-82.13 366.53,-86.01"/>
</g>
<!-- Node6 -->
<g id="node6" class="node">
<title>Node6</title>
<g id="a_node6"><a xlink:href="l4_2sys_2l4int_8h.html" target="_top" xlink:title="Fixed sized integer types, generic version.">
<polygon fill="white" stroke="black" points="616.5,-56.5 616.5,-75.5 695.5,-75.5 695.5,-56.5 616.5,-56.5"/>
<text text-anchor="middle" x="656" y="-63.5" font-family="Helvetica,sans-Serif" font-size="10.00">l4/sys/l4int.h</text>
</a>
</g>
</g>
<!-- Node3&#45;&gt;Node6 -->
<g id="edge5" class="edge">
<title>Node3&#45;&gt;Node6</title>
<path fill="none" stroke="midnightblue" d="M383.75,-113.38C442.47,-103.37 545.23,-85.87 606.31,-75.46"/>
<polygon fill="midnightblue" stroke="midnightblue" points="607.21,-78.86 616.48,-73.73 606.03,-71.96 607.21,-78.86"/>
</g>
<!-- Node5 -->
<g id="node5" class="node">
<title>Node5</title>
<g id="a_node5"><a xlink:title=" ">
<polygon fill="white" stroke="#bfbfbf" points="329,-0.5 329,-19.5 421,-19.5 421,-0.5 329,-0.5"/>
<text text-anchor="middle" x="375" y="-7.5" font-family="Helvetica,sans-Serif" font-size="10.00">l4/sys/linkage.h</text>
</a>
</g>
</g>
<!-- Node4&#45;&gt;Node5 -->
<g id="edge4" class="edge">
<title>Node4&#45;&gt;Node5</title>
<path fill="none" stroke="midnightblue" d="M375,-56.08C375,-49.01 375,-38.86 375,-29.99"/>
<polygon fill="midnightblue" stroke="midnightblue" points="378.5,-29.75 375,-19.75 371.5,-29.75 378.5,-29.75"/>
</g>
<!-- Node7&#45;&gt;Node3 -->
<g id="edge9" class="edge">
<title>Node7&#45;&gt;Node3</title>
<path fill="none" stroke="midnightblue" d="M481.22,-168.44C452.67,-159.32 407.27,-144.81 375.46,-134.65"/>
<polygon fill="midnightblue" stroke="midnightblue" points="376.24,-131.23 365.65,-131.52 374.11,-137.89 376.24,-131.23"/>
</g>
<!-- Node7&#45;&gt;Node4 -->
<g id="edge8" class="edge">
<title>Node7&#45;&gt;Node4</title>
<path fill="none" stroke="midnightblue" d="M489.48,-168.37C473.15,-160.27 449.21,-147.16 431,-132 413.91,-117.77 397.71,-98.03 387.17,-84.05"/>
<polygon fill="midnightblue" stroke="midnightblue" points="389.85,-81.79 381.11,-75.81 384.21,-85.94 389.85,-81.79"/>
</g>
<!-- Node7&#45;&gt;Node6 -->
<g id="edge7" class="edge">
<title>Node7&#45;&gt;Node6</title>
<path fill="none" stroke="midnightblue" d="M519.61,-168.37C544.79,-149.65 604.67,-105.15 636.04,-81.83"/>
<polygon fill="midnightblue" stroke="midnightblue" points="638.5,-84.37 644.44,-75.59 634.33,-78.75 638.5,-84.37"/>
</g>
<!-- Node8 -->
<g id="node8" class="node">
<title>Node8</title>
<g id="a_node8"><a xlink:href="____l4__fpage_8h_source.html" target="_top" xlink:title=" ">
<polygon fill="white" stroke="black" points="440,-112.5 440,-131.5 550,-131.5 550,-112.5 440,-112.5"/>
<text text-anchor="middle" x="495" y="-119.5" font-family="Helvetica,sans-Serif" font-size="10.00">l4/sys/__l4_fpage.h</text>
</a>
</g>
</g>
<!-- Node7&#45;&gt;Node8 -->
<g id="edge10" class="edge">
<title>Node7&#45;&gt;Node8</title>
<path fill="none" stroke="midnightblue" d="M505.85,-168.08C504.13,-160.93 501.65,-150.64 499.5,-141.69"/>
<polygon fill="midnightblue" stroke="midnightblue" points="502.85,-140.65 497.11,-131.75 496.04,-142.29 502.85,-140.65"/>
</g>
<!-- Node9 -->
<g id="node9" class="node">
<title>Node9</title>
<g id="a_node9"><a xlink:href="____timeout_8h_source.html" target="_top" xlink:title=" ">
<polygon fill="white" stroke="black" points="644,-112.5 644,-131.5 750,-131.5 750,-112.5 644,-112.5"/>
<text text-anchor="middle" x="697" y="-119.5" font-family="Helvetica,sans-Serif" font-size="10.00">l4/sys/__timeout.h</text>
</a>
</g>
</g>
<!-- Node7&#45;&gt;Node9 -->
<g id="edge12" class="edge">
<title>Node7&#45;&gt;Node9</title>
<path fill="none" stroke="midnightblue" d="M537.95,-168.44C570.16,-159.24 621.53,-144.56 657.14,-134.39"/>
<polygon fill="midnightblue" stroke="midnightblue" points="658.54,-137.63 667.19,-131.52 656.62,-130.9 658.54,-137.63"/>
</g>
<!-- Node8&#45;&gt;Node4 -->
<g id="edge11" class="edge">
<title>Node8&#45;&gt;Node4</title>
<path fill="none" stroke="midnightblue" d="M475.99,-112.44C456.41,-103.64 425.69,-89.81 403.27,-79.72"/>
<polygon fill="midnightblue" stroke="midnightblue" points="404.48,-76.43 393.93,-75.52 401.61,-82.81 404.48,-76.43"/>
</g>
<!-- Node9&#45;&gt;Node6 -->
<g id="edge13" class="edge">
<title>Node9&#45;&gt;Node6</title>
<path fill="none" stroke="midnightblue" d="M690.23,-112.08C684.44,-104.46 675.94,-93.26 668.86,-83.94"/>
<polygon fill="midnightblue" stroke="midnightblue" points="671.48,-81.6 662.64,-75.75 665.9,-85.83 671.48,-81.6"/>
</g>
<!-- Node10&#45;&gt;Node7 -->
<g id="edge29" class="edge">
<title>Node10&#45;&gt;Node7</title>
<path fill="none" stroke="midnightblue" d="M464.44,-515.25C459.25,-496.74 448,-452.18 448,-414 448,-414 448,-414 448,-289 448,-251.88 474.65,-215.38 492.43,-195.16"/>
<polygon fill="midnightblue" stroke="midnightblue" points="495.24,-197.28 499.4,-187.53 490.07,-192.55 495.24,-197.28"/>
</g>
<!-- Node11 -->
<g id="node11" class="node">
<title>Node11</title>
<g id="a_node11"><a xlink:href="kernel__object_8h.html" target="_top" xlink:title="Kernel object system calls.">
<polygon fill="white" stroke="black" points="747.5,-403.5 747.5,-422.5 838.5,-422.5 838.5,-403.5 747.5,-403.5"/>
<text text-anchor="middle" x="793" y="-410.5" font-family="Helvetica,sans-Serif" font-size="10.00">kernel_object.h</text>
</a>
</g>
</g>
<!-- Node10&#45;&gt;Node11 -->
<g id="edge15" class="edge">
<title>Node10&#45;&gt;Node11</title>
<path fill="none" stroke="midnightblue" d="M485.03,-515.31C513.3,-501.92 570,-476.02 620,-459 660.91,-445.07 708.5,-432.98 743.4,-424.85"/>
<polygon fill="midnightblue" stroke="midnightblue" points="744.39,-428.22 753.35,-422.56 742.82,-421.39 744.39,-428.22"/>
</g>
<!-- Node16 -->
<g id="node16" class="node">
<title>Node16</title>
<g id="a_node16"><a xlink:href="____typeinfo_8h.html" target="_top" xlink:title="Type information handling.">
<polygon fill="white" stroke="black" points="266.5,-459.5 266.5,-478.5 343.5,-478.5 343.5,-459.5 266.5,-459.5"/>
<text text-anchor="middle" x="305" y="-466.5" font-family="Helvetica,sans-Serif" font-size="10.00">__typeinfo.h</text>
</a>
</g>
</g>
<!-- Node10&#45;&gt;Node16 -->
<g id="edge30" class="edge">
<title>Node10&#45;&gt;Node16</title>
<path fill="none" stroke="midnightblue" d="M441.33,-515.44C414.08,-506.36 370.82,-491.94 340.35,-481.78"/>
<polygon fill="midnightblue" stroke="midnightblue" points="341.14,-478.36 330.55,-478.52 338.93,-485 341.14,-478.36"/>
</g>
<!-- Node11&#45;&gt;Node4 -->
<g id="edge17" class="edge">
<title>Node11&#45;&gt;Node4</title>
<path fill="none" stroke="midnightblue" d="M747.07,-406.63C618.61,-390.33 265,-336.27 265,-235 265,-235 265,-235 265,-177 265,-146.77 265.46,-135.06 285,-112 297.86,-96.82 317.1,-86.24 334.49,-79.17"/>
<polygon fill="midnightblue" stroke="midnightblue" points="335.8,-82.41 343.9,-75.6 333.31,-75.87 335.8,-82.41"/>
</g>
<!-- Node11&#45;&gt;Node7 -->
<g id="edge16" class="edge">
<title>Node11&#45;&gt;Node7</title>
<path fill="none" stroke="midnightblue" d="M811.39,-403.47C825.1,-396 842.81,-383.71 851,-367 857.06,-354.63 855.36,-349.07 851,-336 828.54,-268.62 801.63,-253.45 737,-224 679.98,-198.02 608.28,-187.01 560.44,-182.36"/>
<polygon fill="midnightblue" stroke="midnightblue" points="560.59,-178.86 550.32,-181.43 559.96,-185.83 560.59,-178.86"/>
</g>
<!-- Node12 -->
<g id="node12" class="node">
<title>Node12</title>
<g id="a_node12"><a xlink:href="l4_2sys_2utcb_8h.html" target="_top" xlink:title="UTCB definitions.">
<polygon fill="white" stroke="black" points="650,-224.5 650,-243.5 728,-243.5 728,-224.5 650,-224.5"/>
<text text-anchor="middle" x="689" y="-231.5" font-family="Helvetica,sans-Serif" font-size="10.00">l4/sys/utcb.h</text>
</a>
</g>
</g>
<!-- Node11&#45;&gt;Node12 -->
<g id="edge18" class="edge">
<title>Node11&#45;&gt;Node12</title>
<path fill="none" stroke="midnightblue" d="M805.21,-403.24C815.35,-395.14 829.04,-382.11 835,-367 840.05,-354.18 841.4,-348.2 835,-336 811.52,-291.21 758.17,-262.35 722.87,-247.39"/>
<polygon fill="midnightblue" stroke="midnightblue" points="724.02,-244.08 713.44,-243.54 721.38,-250.56 724.02,-244.08"/>
</g>
<!-- Node13 -->
<g id="node13" class="node">
<title>Node13</title>
<g id="a_node13"><a xlink:href="____kernel__object__impl_8h.html" target="_top" xlink:title="Low&#45;level kernel debugger functions.">
<polygon fill="white" stroke="black" points="686,-336.5 686,-366.5 810,-366.5 810,-336.5 686,-336.5"/>
<text text-anchor="start" x="694" y="-354.5" font-family="Helvetica,sans-Serif" font-size="10.00">l4/sys/__kernel_object</text>
<text text-anchor="middle" x="748" y="-343.5" font-family="Helvetica,sans-Serif" font-size="10.00">_impl.h</text>
</a>
</g>
</g>
<!-- Node11&#45;&gt;Node13 -->
<g id="edge22" class="edge">
<title>Node11&#45;&gt;Node13</title>
<path fill="none" stroke="midnightblue" d="M786.55,-403.48C780.86,-395.94 772.3,-384.63 764.69,-374.57"/>
<polygon fill="midnightblue" stroke="midnightblue" points="767.43,-372.39 758.61,-366.52 761.85,-376.61 767.43,-372.39"/>
</g>
<!-- Node14 -->
<g id="node14" class="node">
<title>Node14</title>
<g id="a_node14"><a xlink:href="l4_2sys_2ipc_8h.html" target="_top" xlink:title="Common IPC interface.">
<polygon fill="white" stroke="black" points="653.5,-280.5 653.5,-299.5 724.5,-299.5 724.5,-280.5 653.5,-280.5"/>
<text text-anchor="middle" x="689" y="-287.5" font-family="Helvetica,sans-Serif" font-size="10.00">l4/sys/ipc.h</text>
</a>
</g>
</g>
<!-- Node11&#45;&gt;Node14 -->
<g id="edge28" class="edge">
<title>Node11&#45;&gt;Node14</title>
<path fill="none" stroke="midnightblue" d="M800.75,-403.28C813.06,-388.33 834.21,-357.36 819,-336 799.98,-309.29 763.96,-298.28 734.65,-293.82"/>
<polygon fill="midnightblue" stroke="midnightblue" points="734.98,-290.34 724.61,-292.5 734.07,-297.28 734.98,-290.34"/>
</g>
<!-- Node12&#45;&gt;Node4 -->
<g id="edge20" class="edge">
<title>Node12&#45;&gt;Node4</title>
<path fill="none" stroke="midnightblue" d="M682.46,-224.41C665.01,-202.13 614.9,-142.16 559,-112 520.51,-91.23 472.35,-79.9 434.96,-73.8"/>
<polygon fill="midnightblue" stroke="midnightblue" points="435.13,-70.29 424.71,-72.22 434.06,-77.2 435.13,-70.29"/>
</g>
<!-- Node12&#45;&gt;Node6 -->
<g id="edge21" class="edge">
<title>Node12&#45;&gt;Node6</title>
<path fill="none" stroke="midnightblue" d="M701,-224.3C727.32,-204.13 785.71,-152.82 759,-112 746.97,-93.62 725.6,-82.7 705.44,-76.24"/>
<polygon fill="midnightblue" stroke="midnightblue" points="706.26,-72.83 695.68,-73.41 704.31,-79.55 706.26,-72.83"/>
</g>
<!-- Node12&#45;&gt;Node7 -->
<g id="edge19" class="edge">
<title>Node12&#45;&gt;Node7</title>
<path fill="none" stroke="midnightblue" d="M660.32,-224.44C629.47,-215.24 580.27,-200.56 546.17,-190.39"/>
<polygon fill="midnightblue" stroke="midnightblue" points="547.13,-187.02 536.55,-187.52 545.13,-193.73 547.13,-187.02"/>
</g>
<!-- Node13&#45;&gt;Node14 -->
<g id="edge23" class="edge">
<title>Node13&#45;&gt;Node14</title>
<path fill="none" stroke="midnightblue" d="M734.02,-336.4C725.27,-327.58 713.97,-316.18 704.88,-307.02"/>
<polygon fill="midnightblue" stroke="midnightblue" points="707.11,-304.29 697.59,-299.66 702.14,-309.22 707.11,-304.29"/>
</g>
<!-- Node14&#45;&gt;Node7 -->
<g id="edge24" class="edge">
<title>Node14&#45;&gt;Node7</title>
<path fill="none" stroke="midnightblue" d="M678.17,-280.42C661.5,-267.39 628.27,-242.23 598,-224 578.17,-212.06 554.77,-200.43 536.8,-191.98"/>
<polygon fill="midnightblue" stroke="midnightblue" points="537.97,-188.67 527.43,-187.64 535.02,-195.02 537.97,-188.67"/>
</g>
<!-- Node14&#45;&gt;Node12 -->
<g id="edge25" class="edge">
<title>Node14&#45;&gt;Node12</title>
<path fill="none" stroke="midnightblue" d="M689,-280.08C689,-273.01 689,-262.86 689,-253.99"/>
<polygon fill="midnightblue" stroke="midnightblue" points="692.5,-253.75 689,-243.75 685.5,-253.75 692.5,-253.75"/>
</g>
<!-- Node15 -->
<g id="node15" class="node">
<title>Node15</title>
<g id="a_node15"><a xlink:href="err_8h.html" target="_top" xlink:title="Error codes.">
<polygon fill="white" stroke="black" points="129,-224.5 129,-243.5 199,-243.5 199,-224.5 129,-224.5"/>
<text text-anchor="middle" x="164" y="-231.5" font-family="Helvetica,sans-Serif" font-size="10.00">l4/sys/err.h</text>
</a>
</g>
</g>
<!-- Node14&#45;&gt;Node15 -->
<g id="edge26" class="edge">
<title>Node14&#45;&gt;Node15</title>
<path fill="none" stroke="midnightblue" d="M653.33,-285.33C560.51,-275.78 311.57,-250.18 209.06,-239.64"/>
<polygon fill="midnightblue" stroke="midnightblue" points="209.34,-236.14 199.03,-238.6 208.62,-243.11 209.34,-236.14"/>
</g>
<!-- Node15&#45;&gt;Node4 -->
<g id="edge27" class="edge">
<title>Node15&#45;&gt;Node4</title>
<path fill="none" stroke="midnightblue" d="M167.95,-224.32C178.36,-202.34 208.7,-144.01 251,-112 272.17,-95.98 299.6,-85.24 323.28,-78.28"/>
<polygon fill="midnightblue" stroke="midnightblue" points="324.47,-81.58 333.16,-75.53 322.59,-74.84 324.47,-81.58"/>
</g>
<!-- Node17 -->
<g id="node17" class="node">
<title>Node17</title>
<g id="a_node17"><a xlink:href="types.html" target="_top" xlink:title=" ">
<polygon fill="white" stroke="black" points="48,-342 48,-361 112,-361 112,-342 48,-342"/>
<text text-anchor="middle" x="80" y="-349" font-family="Helvetica,sans-Serif" font-size="10.00">cxx/types</text>
</a>
</g>
</g>
<!-- Node16&#45;&gt;Node17 -->
<g id="edge31" class="edge">
<title>Node16&#45;&gt;Node17</title>
<path fill="none" stroke="midnightblue" d="M293.31,-459.45C274.92,-446.25 237.86,-420.6 204,-403 174.68,-387.76 139.7,-373.88 114.37,-364.54"/>
<polygon fill="midnightblue" stroke="midnightblue" points="115.43,-361.2 104.84,-361.07 113.04,-367.78 115.43,-361.2"/>
</g>
<!-- Node18 -->
<g id="node18" class="node">
<title>Node18</title>
<g id="a_node18"><a xlink:href="ipc__basics_source.html" target="_top" xlink:title=" ">
<polygon fill="white" stroke="black" points="108.5,-403.5 108.5,-422.5 195.5,-422.5 195.5,-403.5 108.5,-403.5"/>
<text text-anchor="middle" x="152" y="-410.5" font-family="Helvetica,sans-Serif" font-size="10.00">cxx/ipc_basics</text>
</a>
</g>
</g>
<!-- Node16&#45;&gt;Node18 -->
<g id="edge32" class="edge">
<title>Node16&#45;&gt;Node18</title>
<path fill="none" stroke="midnightblue" d="M280.76,-459.44C255.13,-450.4 214.51,-436.06 185.76,-425.92"/>
<polygon fill="midnightblue" stroke="midnightblue" points="186.72,-422.54 176.13,-422.52 184.39,-429.15 186.72,-422.54"/>
</g>
<!-- Node19 -->
<g id="node19" class="node">
<title>Node19</title>
<g id="a_node19"><a xlink:href="capability_8h_source.html" target="_top" xlink:title=" ">
<polygon fill="white" stroke="black" points="252,-403.5 252,-422.5 344,-422.5 344,-403.5 252,-403.5"/>
<text text-anchor="middle" x="298" y="-410.5" font-family="Helvetica,sans-Serif" font-size="10.00">cxx/capability.h</text>
</a>
</g>
</g>
<!-- Node16&#45;&gt;Node19 -->
<g id="edge36" class="edge">
<title>Node16&#45;&gt;Node19</title>
<path fill="none" stroke="midnightblue" d="M303.84,-459.08C302.92,-451.93 301.58,-441.64 300.42,-432.69"/>
<polygon fill="midnightblue" stroke="midnightblue" points="303.89,-432.22 299.13,-422.75 296.95,-433.12 303.89,-432.22"/>
</g>
<!-- Node18&#45;&gt;Node12 -->
<g id="edge34" class="edge">
<title>Node18&#45;&gt;Node12</title>
<path fill="none" stroke="midnightblue" d="M177.9,-403.46C265.71,-374.52 552.23,-280.08 653.3,-246.77"/>
<polygon fill="midnightblue" stroke="midnightblue" points="654.64,-250.01 663.05,-243.55 652.45,-243.36 654.64,-250.01"/>
</g>
<!-- Node18&#45;&gt;Node15 -->
<g id="edge35" class="edge">
<title>Node18&#45;&gt;Node15</title>
<path fill="none" stroke="midnightblue" d="M152.58,-403.46C154.41,-376.43 160.12,-292.24 162.7,-254.11"/>
<polygon fill="midnightblue" stroke="midnightblue" points="166.21,-254.08 163.4,-243.87 159.23,-253.61 166.21,-254.08"/>
</g>
<!-- Node18&#45;&gt;Node17 -->
<g id="edge33" class="edge">
<title>Node18&#45;&gt;Node17</title>
<path fill="none" stroke="midnightblue" d="M141.68,-403.48C130.35,-394.11 111.93,-378.88 98.16,-367.51"/>
<polygon fill="midnightblue" stroke="midnightblue" points="100.23,-364.68 90.3,-361.01 95.78,-370.08 100.23,-364.68"/>
</g>
<!-- Node19&#45;&gt;Node3 -->
<g id="edge37" class="edge">
<title>Node19&#45;&gt;Node3</title>
<path fill="none" stroke="midnightblue" d="M298.71,-403.1C299.86,-388.89 302.3,-360.23 305,-336 313.34,-261.16 312.38,-241.87 327,-168 328.75,-159.17 331.25,-149.5 333.51,-141.4"/>
<polygon fill="midnightblue" stroke="midnightblue" points="336.94,-142.13 336.36,-131.55 330.22,-140.18 336.94,-142.13"/>
</g>
<!-- Node19&#45;&gt;Node7 -->
<g id="edge38" class="edge">
<title>Node19&#45;&gt;Node7</title>
<path fill="none" stroke="midnightblue" d="M299.6,-403.25C302.45,-388.77 309.14,-359.13 320,-336 345.57,-281.55 349.16,-261.75 396,-224 415.31,-208.44 440.71,-197.64 462.44,-190.54"/>
<polygon fill="midnightblue" stroke="midnightblue" points="463.62,-193.84 472.13,-187.53 461.54,-187.15 463.62,-193.84"/>
</g>
<!-- Node19&#45;&gt;Node20 -->
<g id="edge39" class="edge">
<title>Node19&#45;&gt;Node20</title>
<path fill="none" stroke="midnightblue" d="M339.98,-403.48C393.31,-392.65 485.2,-373.99 541.77,-362.5"/>
<polygon fill="midnightblue" stroke="midnightblue" points="542.8,-365.86 551.91,-360.44 541.41,-359 542.8,-365.86"/>
</g>
<!-- Node20&#45;&gt;Node7 -->
<g id="edge40" class="edge">
<title>Node20&#45;&gt;Node7</title>
<path fill="none" stroke="midnightblue" d="M586.77,-341.76C573.78,-314.92 534.29,-233.32 516.66,-196.89"/>
<polygon fill="midnightblue" stroke="midnightblue" points="519.63,-195 512.12,-187.52 513.33,-198.05 519.63,-195"/>
</g>
<!-- Node20&#45;&gt;Node12 -->
<g id="edge41" class="edge">
<title>Node20&#45;&gt;Node12</title>
<path fill="none" stroke="midnightblue" d="M597,-341.99C606.66,-328.48 626.42,-301.44 645,-280 653.76,-269.88 664.22,-259.14 672.73,-250.7"/>
<polygon fill="midnightblue" stroke="midnightblue" points="675.22,-253.16 679.91,-243.66 670.32,-248.16 675.22,-253.16"/>
</g>
<!-- Node20&#45;&gt;Node14 -->
<g id="edge42" class="edge">
<title>Node20&#45;&gt;Node14</title>
<path fill="none" stroke="midnightblue" d="M605.04,-341.98C621.05,-332.25 647.45,-316.23 666.37,-304.74"/>
<polygon fill="midnightblue" stroke="midnightblue" points="668.25,-307.69 674.99,-299.51 664.62,-301.71 668.25,-307.69"/>
</g>
<!-- Node21&#45;&gt;Node10 -->
<g id="edge45" class="edge">
<title>Node21&#45;&gt;Node10</title>
<path fill="none" stroke="midnightblue" d="M291.91,-627.37C324.79,-608.33 403.76,-562.62 443.42,-539.65"/>
<polygon fill="midnightblue" stroke="midnightblue" points="445.26,-542.63 452.16,-534.59 441.75,-536.57 445.26,-542.63"/>
</g>
<!-- Node21&#45;&gt;Node22 -->
<g id="edge46" class="edge">
<title>Node21&#45;&gt;Node22</title>
<path fill="none" stroke="midnightblue" d="M247.37,-627.44C215.5,-618.24 164.67,-603.56 129.44,-593.39"/>
<polygon fill="midnightblue" stroke="midnightblue" points="130.07,-589.93 119.49,-590.52 128.13,-596.65 130.07,-589.93"/>
</g>
<!-- Node24 -->
<g id="node24" class="node">
<title>Node24</title>
<g id="a_node24"><a xlink:href="ipc__string_source.html" target="_top" xlink:title=" ">
<polygon fill="white" stroke="black" points="204,-571.5 204,-590.5 288,-590.5 288,-571.5 204,-571.5"/>
<text text-anchor="middle" x="246" y="-578.5" font-family="Helvetica,sans-Serif" font-size="10.00">cxx/ipc_string</text>
</a>
</g>
</g>
<!-- Node21&#45;&gt;Node24 -->
<g id="edge53" class="edge">
<title>Node21&#45;&gt;Node24</title>
<path fill="none" stroke="midnightblue" d="M271.88,-627.08C267.59,-619.61 261.34,-608.72 256.06,-599.52"/>
<polygon fill="midnightblue" stroke="midnightblue" points="259.04,-597.68 251.02,-590.75 252.97,-601.17 259.04,-597.68"/>
</g>
<!-- Node22&#45;&gt;Node16 -->
<g id="edge52" class="edge">
<title>Node22&#45;&gt;Node16</title>
<path fill="none" stroke="midnightblue" d="M120.01,-571.47C145.51,-563.65 182.69,-550.89 213,-535 240.39,-520.64 269.04,-499.22 286.95,-484.94"/>
<polygon fill="midnightblue" stroke="midnightblue" points="289.25,-487.58 294.82,-478.57 284.85,-482.14 289.25,-487.58"/>
</g>
<!-- Node22&#45;&gt;Node18 -->
<g id="edge47" class="edge">
<title>Node22&#45;&gt;Node18</title>
<path fill="none" stroke="midnightblue" d="M76.23,-571.32C46.02,-551.2 -21.06,-499.97 9,-459 29.35,-431.26 66.82,-420.17 98.29,-415.93"/>
<polygon fill="midnightblue" stroke="midnightblue" points="98.74,-419.4 108.27,-414.78 97.94,-412.45 98.74,-419.4"/>
</g>
<!-- Node22&#45;&gt;Node23 -->
<g id="edge48" class="edge">
<title>Node22&#45;&gt;Node23</title>
<path fill="none" stroke="midnightblue" d="M82.59,-571.41C75.72,-562.84 65.99,-548.98 62,-535 57.5,-519.24 62.3,-500.96 67.47,-487.8"/>
<polygon fill="midnightblue" stroke="midnightblue" points="70.74,-489.07 71.52,-478.5 64.32,-486.27 70.74,-489.07"/>
</g>
<!-- Node23&#45;&gt;Node17 -->
<g id="edge50" class="edge">
<title>Node23&#45;&gt;Node17</title>
<path fill="none" stroke="midnightblue" d="M73.52,-459.47C71.04,-450.48 67.41,-435.89 66,-423 65.03,-414.16 64.8,-411.81 66,-403 67.48,-392.13 70.67,-380.29 73.64,-370.81"/>
<polygon fill="midnightblue" stroke="midnightblue" points="76.97,-371.88 76.78,-361.29 70.32,-369.69 76.97,-371.88"/>
</g>
<!-- Node23&#45;&gt;Node18 -->
<g id="edge51" class="edge">
<title>Node23&#45;&gt;Node18</title>
<path fill="none" stroke="midnightblue" d="M88.21,-459.32C99.78,-451.11 117.38,-438.6 131.16,-428.81"/>
<polygon fill="midnightblue" stroke="midnightblue" points="133.44,-431.48 139.57,-422.83 129.39,-425.77 133.44,-431.48"/>
</g>
<!-- Node23&#45;&gt;Node19 -->
<g id="edge49" class="edge">
<title>Node23&#45;&gt;Node19</title>
<path fill="none" stroke="midnightblue" d="M111.18,-459.44C149.58,-450.1 211.18,-435.12 253.06,-424.93"/>
<polygon fill="midnightblue" stroke="midnightblue" points="254.1,-428.28 262.99,-422.52 252.44,-421.48 254.1,-428.28"/>
</g>
<!-- Node24&#45;&gt;Node17 -->
<g id="edge54" class="edge">
<title>Node24&#45;&gt;Node17</title>
<path fill="none" stroke="midnightblue" d="M203.54,-575.95C147.71,-568.07 51.7,-545.13 9,-479 -16.11,-440.1 31.46,-391.83 60.28,-367.71"/>
<polygon fill="midnightblue" stroke="midnightblue" points="62.61,-370.32 68.17,-361.31 58.2,-364.89 62.61,-370.32"/>
</g>
<!-- Node24&#45;&gt;Node18 -->
<g id="edge55" class="edge">
<title>Node24&#45;&gt;Node18</title>
<path fill="none" stroke="midnightblue" d="M243.17,-571.33C236.25,-550.81 217.2,-498.04 192,-459 185.28,-448.59 176.21,-438.18 168.41,-429.99"/>
<polygon fill="midnightblue" stroke="midnightblue" points="170.67,-427.3 161.16,-422.63 165.68,-432.21 170.67,-427.3"/>
</g>
<!-- Node25 -->
<g id="node25" class="node">
<title>Node25</title>
<g id="a_node25"><a xlink:href="ipc__array_source.html" target="_top" xlink:title=" ">
<polygon fill="white" stroke="black" points="142,-515.5 142,-534.5 204,-534.5 204,-515.5 142,-515.5"/>
<text text-anchor="middle" x="173" y="-522.5" font-family="Helvetica,sans-Serif" font-size="10.00">ipc_array</text>
</a>
</g>
</g>
<!-- Node24&#45;&gt;Node25 -->
<g id="edge56" class="edge">
<title>Node24&#45;&gt;Node25</title>
<path fill="none" stroke="midnightblue" d="M234.27,-571.32C223.16,-563.11 206.26,-550.6 193.02,-540.81"/>
<polygon fill="midnightblue" stroke="midnightblue" points="195.06,-537.97 184.94,-534.83 190.9,-543.59 195.06,-537.97"/>
</g>
<!-- Node25&#45;&gt;Node17 -->
<g id="edge57" class="edge">
<title>Node25&#45;&gt;Node17</title>
<path fill="none" stroke="midnightblue" d="M170.22,-515.35C165.73,-502.25 155.94,-476.98 142,-459 126.73,-439.3 112.42,-444 99,-423 88.99,-407.34 84.22,-386.49 81.96,-371.53"/>
<polygon fill="midnightblue" stroke="midnightblue" points="85.41,-370.91 80.68,-361.43 78.47,-371.79 85.41,-370.91"/>
</g>
<!-- Node25&#45;&gt;Node18 -->
<g id="edge58" class="edge">
<title>Node25&#45;&gt;Node18</title>
<path fill="none" stroke="midnightblue" d="M174.94,-515.43C177.45,-502.85 180.93,-478.73 176,-459 173.56,-449.25 168.56,-439.29 163.76,-431.23"/>
<polygon fill="midnightblue" stroke="midnightblue" points="166.69,-429.32 158.37,-422.77 160.79,-433.08 166.69,-429.32"/>
</g>
<!-- Node25&#45;&gt;Node23 -->
<g id="edge59" class="edge">
<title>Node25&#45;&gt;Node23</title>
<path fill="none" stroke="midnightblue" d="M157.42,-515.32C142,-506.74 118.19,-493.49 100.29,-483.52"/>
<polygon fill="midnightblue" stroke="midnightblue" points="101.99,-480.46 91.55,-478.65 98.58,-486.58 101.99,-480.46"/>
</g>
<!-- Node27 -->
<g id="node27" class="node">
<title>Node27</title>
<g id="a_node27"><a xlink:href="irq.html" target="_top" xlink:title="C++ Irq interface.">
<polygon fill="white" stroke="black" points="305.5,-795.5 305.5,-814.5 366.5,-814.5 366.5,-795.5 305.5,-795.5"/>
<text text-anchor="middle" x="336" y="-802.5" font-family="Helvetica,sans-Serif" font-size="10.00">l4/sys/irq</text>
</a>
</g>
</g>
<!-- Node26&#45;&gt;Node27 -->
<g id="edge63" class="edge">
<title>Node26&#45;&gt;Node27</title>
<path fill="none" stroke="midnightblue" d="M303.44,-851.08C308.95,-843.46 317.03,-832.26 323.76,-822.94"/>
<polygon fill="midnightblue" stroke="midnightblue" points="326.66,-824.91 329.68,-814.75 320.99,-820.81 326.66,-824.91"/>
</g>
<!-- Node27&#45;&gt;Node2 -->
<g id="edge74" class="edge">
<title>Node27&#45;&gt;Node2</title>
<path fill="none" stroke="midnightblue" d="M338.17,-795.44C341.47,-782.87 348.18,-758.76 356,-739 359.64,-729.8 364.39,-719.89 368.54,-711.72"/>
<polygon fill="midnightblue" stroke="midnightblue" points="371.68,-713.27 373.2,-702.78 365.47,-710.03 371.68,-713.27"/>
</g>
<!-- Node27&#45;&gt;Node22 -->
<g id="edge80" class="edge">
<title>Node27&#45;&gt;Node22</title>
<path fill="none" stroke="midnightblue" d="M305.2,-804.95C264.95,-804.5 194.62,-797.67 152,-759 105.22,-716.55 93.74,-636.79 90.92,-600.65"/>
<polygon fill="midnightblue" stroke="midnightblue" points="94.4,-600.3 90.27,-590.55 87.42,-600.75 94.4,-600.3"/>
</g>
<!-- Node27&#45;&gt;Node23 -->
<g id="edge81" class="edge">
<title>Node27&#45;&gt;Node23</title>
<path fill="none" stroke="midnightblue" d="M329.31,-795.41C294.69,-750.93 135.6,-546.56 88.91,-486.59"/>
<polygon fill="midnightblue" stroke="midnightblue" points="91.55,-484.28 82.64,-478.54 86.02,-488.58 91.55,-484.28"/>
</g>
<!-- Node28 -->
<g id="node28" class="node">
<title>Node28</title>
<g id="a_node28"><a xlink:href="icu_8h.html" target="_top" xlink:title="Interrupt controller.">
<polygon fill="white" stroke="black" points="628.5,-459.5 628.5,-478.5 699.5,-478.5 699.5,-459.5 628.5,-459.5"/>
<text text-anchor="middle" x="664" y="-466.5" font-family="Helvetica,sans-Serif" font-size="10.00">l4/sys/icu.h</text>
</a>
</g>
</g>
<!-- Node27&#45;&gt;Node28 -->
<g id="edge64" class="edge">
<title>Node27&#45;&gt;Node28</title>
<path fill="none" stroke="midnightblue" d="M366.78,-799.96C446.04,-788.7 651,-753.81 651,-694 651,-694 651,-694 651,-580 651,-547.58 656.64,-510.15 660.49,-488.37"/>
<polygon fill="midnightblue" stroke="midnightblue" points="663.93,-488.99 662.3,-478.52 657.05,-487.72 663.93,-488.99"/>
</g>
<!-- Node29 -->
<g id="node29" class="node">
<title>Node29</title>
<g id="a_node29"><a xlink:href="l4_2sys_2irq_8h.html" target="_top" xlink:title="C Irq interface.">
<polygon fill="white" stroke="black" points="851,-459.5 851,-478.5 921,-478.5 921,-459.5 851,-459.5"/>
<text text-anchor="middle" x="886" y="-466.5" font-family="Helvetica,sans-Serif" font-size="10.00">l4/sys/irq.h</text>
</a>
</g>
</g>
<!-- Node27&#45;&gt;Node29 -->
<g id="edge67" class="edge">
<title>Node27&#45;&gt;Node29</title>
<path fill="none" stroke="midnightblue" d="M366.81,-802.55C463.57,-797.17 755,-774.28 755,-694 755,-694 755,-694 755,-580 755,-530.04 811.58,-498.23 850.37,-482.3"/>
<polygon fill="midnightblue" stroke="midnightblue" points="851.78,-485.51 859.81,-478.59 849.22,-479 851.78,-485.51"/>
</g>
<!-- Node31 -->
<g id="node31" class="node">
<title>Node31</title>
<g id="a_node31"><a xlink:href="rcv__endpoint.html" target="_top" xlink:title="The C++ Receive endpoint interface.">
<polygon fill="white" stroke="black" points="364.5,-739.5 364.5,-758.5 475.5,-758.5 475.5,-739.5 364.5,-739.5"/>
<text text-anchor="middle" x="420" y="-746.5" font-family="Helvetica,sans-Serif" font-size="10.00">l4/sys/rcv_endpoint</text>
</a>
</g>
</g>
<!-- Node27&#45;&gt;Node31 -->
<g id="edge75" class="edge">
<title>Node27&#45;&gt;Node31</title>
<path fill="none" stroke="midnightblue" d="M349.5,-795.32C362.6,-786.9 382.71,-773.97 398.11,-764.07"/>
<polygon fill="midnightblue" stroke="midnightblue" points="400.02,-767.01 406.54,-758.65 396.23,-761.12 400.02,-767.01"/>
</g>
<!-- Node28&#45;&gt;Node11 -->
<g id="edge65" class="edge">
<title>Node28&#45;&gt;Node11</title>
<path fill="none" stroke="midnightblue" d="M684.44,-459.44C705.67,-450.56 739.1,-436.56 763.25,-426.45"/>
<polygon fill="midnightblue" stroke="midnightblue" points="764.78,-429.61 772.66,-422.52 762.08,-423.15 764.78,-429.61"/>
</g>
<!-- Node28&#45;&gt;Node14 -->
<g id="edge66" class="edge">
<title>Node28&#45;&gt;Node14</title>
<path fill="none" stroke="midnightblue" d="M664.37,-459.28C665.37,-438.05 668.66,-382 677,-336 678.61,-327.14 681.09,-317.47 683.38,-309.37"/>
<polygon fill="midnightblue" stroke="midnightblue" points="686.81,-310.11 686.28,-299.53 680.09,-308.13 686.81,-310.11"/>
</g>
<!-- Node29&#45;&gt;Node11 -->
<g id="edge68" class="edge">
<title>Node29&#45;&gt;Node11</title>
<path fill="none" stroke="midnightblue" d="M871.06,-459.32C856.41,-450.82 833.87,-437.73 816.76,-427.8"/>
<polygon fill="midnightblue" stroke="midnightblue" points="818.31,-424.65 807.9,-422.65 814.8,-430.7 818.31,-424.65"/>
</g>
<!-- Node29&#45;&gt;Node14 -->
<g id="edge69" class="edge">
<title>Node29&#45;&gt;Node14</title>
<path fill="none" stroke="midnightblue" d="M885.23,-459.49C882.68,-436.21 872.37,-370.85 835,-336 807.7,-310.54 766.27,-299.47 734.52,-294.67"/>
<polygon fill="midnightblue" stroke="midnightblue" points="734.96,-291.19 724.58,-293.32 734.02,-298.13 734.96,-291.19"/>
</g>
<!-- Node30 -->
<g id="node30" class="node">
<title>Node30</title>
<g id="a_node30"><a xlink:href="rcv__endpoint_8h.html" target="_top" xlink:title="Receive endpoint C interface.">
<polygon fill="white" stroke="black" points="980,-342 980,-361 1100,-361 1100,-342 980,-342"/>
<text text-anchor="middle" x="1040" y="-349" font-family="Helvetica,sans-Serif" font-size="10.00">l4/sys/rcv_endpoint.h</text>
</a>
</g>
</g>
<!-- Node29&#45;&gt;Node30 -->
<g id="edge70" class="edge">
<title>Node29&#45;&gt;Node30</title>
<path fill="none" stroke="midnightblue" d="M904.26,-459.37C921,-451.09 946.14,-437.69 966,-423 988.39,-406.44 1011.14,-383.69 1025.39,-368.56"/>
<polygon fill="midnightblue" stroke="midnightblue" points="1028.14,-370.74 1032.38,-361.03 1023.01,-365.98 1028.14,-370.74"/>
</g>
<!-- Node30&#45;&gt;Node7 -->
<g id="edge72" class="edge">
<title>Node30&#45;&gt;Node7</title>
<path fill="none" stroke="midnightblue" d="M1035.38,-341.78C1022.27,-318 982.22,-251.98 928,-224 865.12,-191.55 658.4,-182.45 560.41,-179.94"/>
<polygon fill="midnightblue" stroke="midnightblue" points="560.23,-176.43 550.15,-179.69 560.06,-183.43 560.23,-176.43"/>
</g>
<!-- Node30&#45;&gt;Node12 -->
<g id="edge71" class="edge">
<title>Node30&#45;&gt;Node12</title>
<path fill="none" stroke="midnightblue" d="M1019.07,-341.95C984.58,-328.02 913.5,-299.98 852,-280 812.15,-267.05 766.06,-254.56 733.09,-246.03"/>
<polygon fill="midnightblue" stroke="midnightblue" points="733.85,-242.61 723.29,-243.52 732.11,-249.39 733.85,-242.61"/>
</g>
<!-- Node30&#45;&gt;Node14 -->
<g id="edge73" class="edge">
<title>Node30&#45;&gt;Node14</title>
<path fill="none" stroke="midnightblue" d="M997.78,-341.98C987.4,-339.96 976.31,-337.85 966,-336 884.9,-321.47 790.08,-306.5 735.05,-298.01"/>
<polygon fill="midnightblue" stroke="midnightblue" points="735.34,-294.52 724.92,-296.45 734.27,-301.43 735.34,-294.52"/>
</g>
<!-- Node31&#45;&gt;Node2 -->
<g id="edge78" class="edge">
<title>Node31&#45;&gt;Node2</title>
<path fill="none" stroke="midnightblue" d="M413.06,-739.08C407.07,-731.38 398.25,-720.03 390.95,-710.65"/>
<polygon fill="midnightblue" stroke="midnightblue" points="393.71,-708.5 384.81,-702.75 388.18,-712.79 393.71,-708.5"/>
</g>
<!-- Node31&#45;&gt;Node7 -->
<g id="edge77" class="edge">
<title>Node31&#45;&gt;Node7</title>
<path fill="none" stroke="midnightblue" d="M441.46,-739.46C475.24,-724.43 537,-689.86 537,-638 537,-638 537,-638 537,-580 537,-432.42 517.22,-255.08 510.33,-197.81"/>
<polygon fill="midnightblue" stroke="midnightblue" points="513.79,-197.23 509.1,-187.73 506.84,-198.08 513.79,-197.23"/>
</g>
<!-- Node31&#45;&gt;Node22 -->
<g id="edge79" class="edge">
<title>Node31&#45;&gt;Node22</title>
<path fill="none" stroke="midnightblue" d="M400.13,-739.36C380.03,-730.53 348.14,-716.26 321,-703 244.77,-665.75 156.36,-618.19 114.45,-595.38"/>
<polygon fill="midnightblue" stroke="midnightblue" points="115.99,-592.23 105.53,-590.52 112.64,-598.38 115.99,-592.23"/>
</g>
<!-- Node31&#45;&gt;Node30 -->
<g id="edge76" class="edge">
<title>Node31&#45;&gt;Node30</title>
<path fill="none" stroke="midnightblue" d="M475.57,-743.92C627.23,-732.06 1037,-694.75 1037,-638 1037,-638 1037,-638 1037,-468 1037,-433.85 1038.33,-394.04 1039.22,-371.21"/>
<polygon fill="midnightblue" stroke="midnightblue" points="1042.71,-371.32 1039.62,-361.19 1035.72,-371.04 1042.71,-371.32"/>
</g>
</g>
</svg>
