<?xml version="1.0" encoding="UTF-8" standalone="no"?>
<!DOCTYPE svg PUBLIC "-//W3C//DTD SVG 1.1//EN"
 "http://www.w3.org/Graphics/SVG/1.1/DTD/svg11.dtd">
<!-- Generated by graphviz version 2.43.0 (0)
 -->
<!-- Title: l4/cxx/ref_ptr_list Pages: 1 -->
<svg width="315pt" height="196pt"
 viewBox="0.00 0.00 314.50 196.00" xmlns="http://www.w3.org/2000/svg" xmlns:xlink="http://www.w3.org/1999/xlink">
<g id="graph0" class="graph" transform="scale(1 1) rotate(0) translate(4 192)">
<title>l4/cxx/ref_ptr_list</title>
<polygon fill="white" stroke="transparent" points="-4,4 -4,-192 310.5,-192 310.5,4 -4,4"/>
<!-- Node1 -->
<g id="node1" class="node">
<title>Node1</title>
<g id="a_node1"><a xlink:title="Implementation of a list of ref&#45;ptr&#45;managed objects.">
<polygon fill="#bfbfbf" stroke="black" points="64.5,-168.5 64.5,-187.5 165.5,-187.5 165.5,-168.5 64.5,-168.5"/>
<text text-anchor="middle" x="115" y="-175.5" font-family="Helvetica,sans-Serif" font-size="10.00">l4/cxx/ref_ptr_list</text>
</a>
</g>
</g>
<!-- Node2 -->
<g id="node2" class="node">
<title>Node2</title>
<g id="a_node2"><a xlink:href="ref__ptr_source.html" target="_top" xlink:title=" ">
<polygon fill="white" stroke="black" points="132.5,-112.5 132.5,-131.5 213.5,-131.5 213.5,-112.5 132.5,-112.5"/>
<text text-anchor="middle" x="173" y="-119.5" font-family="Helvetica,sans-Serif" font-size="10.00">l4/cxx/ref_ptr</text>
</a>
</g>
</g>
<!-- Node1&#45;&gt;Node2 -->
<g id="edge1" class="edge">
<title>Node1&#45;&gt;Node2</title>
<path fill="none" stroke="midnightblue" d="M124.32,-168.32C132.89,-160.34 145.81,-148.31 156.19,-138.65"/>
<polygon fill="midnightblue" stroke="midnightblue" points="158.58,-141.21 163.51,-131.83 153.81,-136.09 158.58,-141.21"/>
</g>
<!-- Node8 -->
<g id="node8" class="node">
<title>Node8</title>
<g id="a_node8"><a xlink:href="smart__ptr__list_8h.html" target="_top" xlink:title="Implementation of a list of smart&#45;pointer&#45;managed objects.">
<polygon fill="white" stroke="black" points="0,-112.5 0,-131.5 114,-131.5 114,-112.5 0,-112.5"/>
<text text-anchor="middle" x="57" y="-119.5" font-family="Helvetica,sans-Serif" font-size="10.00">bits/smart_ptr_list.h</text>
</a>
</g>
</g>
<!-- Node1&#45;&gt;Node8 -->
<g id="edge7" class="edge">
<title>Node1&#45;&gt;Node8</title>
<path fill="none" stroke="midnightblue" d="M105.68,-168.32C97.11,-160.34 84.19,-148.31 73.81,-138.65"/>
<polygon fill="midnightblue" stroke="midnightblue" points="76.19,-136.09 66.49,-131.83 71.42,-141.21 76.19,-136.09"/>
</g>
<!-- Node3 -->
<g id="node3" class="node">
<title>Node3</title>
<g id="a_node3"><a xlink:href="type__traits_source.html" target="_top" xlink:title=" ">
<polygon fill="white" stroke="black" points="40.5,-56.5 40.5,-75.5 109.5,-75.5 109.5,-56.5 40.5,-56.5"/>
<text text-anchor="middle" x="75" y="-63.5" font-family="Helvetica,sans-Serif" font-size="10.00">type_traits</text>
</a>
</g>
</g>
<!-- Node2&#45;&gt;Node3 -->
<g id="edge2" class="edge">
<title>Node2&#45;&gt;Node3</title>
<path fill="none" stroke="midnightblue" d="M157.25,-112.32C141.68,-103.74 117.62,-90.49 99.54,-80.52"/>
<polygon fill="midnightblue" stroke="midnightblue" points="101.15,-77.42 90.71,-75.65 97.78,-83.55 101.15,-77.42"/>
</g>
<!-- Node5 -->
<g id="node5" class="node">
<title>Node5</title>
<g id="a_node5"><a xlink:title=" ">
<polygon fill="white" stroke="#bfbfbf" points="136.5,-56.5 136.5,-75.5 189.5,-75.5 189.5,-56.5 136.5,-56.5"/>
<text text-anchor="middle" x="163" y="-63.5" font-family="Helvetica,sans-Serif" font-size="10.00">cstddef</text>
</a>
</g>
</g>
<!-- Node2&#45;&gt;Node5 -->
<g id="edge4" class="edge">
<title>Node2&#45;&gt;Node5</title>
<path fill="none" stroke="midnightblue" d="M171.35,-112.08C170.02,-104.93 168.12,-94.64 166.46,-85.69"/>
<polygon fill="midnightblue" stroke="midnightblue" points="169.88,-84.95 164.62,-75.75 163,-86.22 169.88,-84.95"/>
</g>
<!-- Node6 -->
<g id="node6" class="node">
<title>Node6</title>
<g id="a_node6"><a xlink:href="compiler_8h.html" target="_top" xlink:title="L4 compiler related defines.">
<polygon fill="white" stroke="black" points="207.5,-56.5 207.5,-75.5 306.5,-75.5 306.5,-56.5 207.5,-56.5"/>
<text text-anchor="middle" x="257" y="-63.5" font-family="Helvetica,sans-Serif" font-size="10.00">l4/sys/compiler.h</text>
</a>
</g>
</g>
<!-- Node2&#45;&gt;Node6 -->
<g id="edge5" class="edge">
<title>Node2&#45;&gt;Node6</title>
<path fill="none" stroke="midnightblue" d="M186.5,-112.32C199.6,-103.9 219.71,-90.97 235.11,-81.07"/>
<polygon fill="midnightblue" stroke="midnightblue" points="237.02,-84.01 243.54,-75.65 233.23,-78.12 237.02,-84.01"/>
</g>
<!-- Node4 -->
<g id="node4" class="node">
<title>Node4</title>
<g id="a_node4"><a xlink:href="type__traits_8h_source.html" target="_top" xlink:title=" ">
<polygon fill="white" stroke="black" points="25.5,-0.5 25.5,-19.5 124.5,-19.5 124.5,-0.5 25.5,-0.5"/>
<text text-anchor="middle" x="75" y="-7.5" font-family="Helvetica,sans-Serif" font-size="10.00">bits/type_traits.h</text>
</a>
</g>
</g>
<!-- Node3&#45;&gt;Node4 -->
<g id="edge3" class="edge">
<title>Node3&#45;&gt;Node4</title>
<path fill="none" stroke="midnightblue" d="M75,-56.08C75,-49.01 75,-38.86 75,-29.99"/>
<polygon fill="midnightblue" stroke="midnightblue" points="78.5,-29.75 75,-19.75 71.5,-29.75 78.5,-29.75"/>
</g>
<!-- Node7 -->
<g id="node7" class="node">
<title>Node7</title>
<g id="a_node7"><a xlink:title=" ">
<polygon fill="white" stroke="#bfbfbf" points="211,-0.5 211,-19.5 303,-19.5 303,-0.5 211,-0.5"/>
<text text-anchor="middle" x="257" y="-7.5" font-family="Helvetica,sans-Serif" font-size="10.00">l4/sys/linkage.h</text>
</a>
</g>
</g>
<!-- Node6&#45;&gt;Node7 -->
<g id="edge6" class="edge">
<title>Node6&#45;&gt;Node7</title>
<path fill="none" stroke="midnightblue" d="M257,-56.08C257,-49.01 257,-38.86 257,-29.99"/>
<polygon fill="midnightblue" stroke="midnightblue" points="260.5,-29.75 257,-19.75 253.5,-29.75 260.5,-29.75"/>
</g>
<!-- Node8&#45;&gt;Node3 -->
<g id="edge8" class="edge">
<title>Node8&#45;&gt;Node3</title>
<path fill="none" stroke="midnightblue" d="M59.97,-112.08C62.38,-104.85 65.86,-94.41 68.87,-85.4"/>
<polygon fill="midnightblue" stroke="midnightblue" points="72.24,-86.34 72.08,-75.75 65.6,-84.13 72.24,-86.34"/>
</g>
</g>
</svg>
