<?xml version="1.0" encoding="UTF-8" standalone="no"?>
<!DOCTYPE svg PUBLIC "-//W3C//DTD SVG 1.1//EN"
 "http://www.w3.org/Graphics/SVG/1.1/DTD/svg11.dtd">
<!-- Generated by graphviz version 2.43.0 (0)
 -->
<!-- Title: l4/cxx/bits/smart_ptr_list.h Pages: 1 -->
<svg width="248pt" height="95pt"
 viewBox="0.00 0.00 248.00 95.00" xmlns="http://www.w3.org/2000/svg" xmlns:xlink="http://www.w3.org/1999/xlink">
<g id="graph0" class="graph" transform="scale(1 1) rotate(0) translate(4 91)">
<title>l4/cxx/bits/smart_ptr_list.h</title>
<polygon fill="white" stroke="transparent" points="-4,4 -4,-91 244,-91 244,4 -4,4"/>
<!-- Node1 -->
<g id="node1" class="node">
<title>Node1</title>
<g id="a_node1"><a xlink:title="Implementation of a list of smart&#45;pointer&#45;managed objects.">
<polygon fill="#bfbfbf" stroke="black" points="56,-56.5 56,-86.5 173,-86.5 173,-56.5 56,-56.5"/>
<text text-anchor="start" x="64" y="-74.5" font-family="Helvetica,sans-Serif" font-size="10.00">l4/cxx/bits/smart_ptr</text>
<text text-anchor="middle" x="114.5" y="-63.5" font-family="Helvetica,sans-Serif" font-size="10.00">_list.h</text>
</a>
</g>
</g>
<!-- Node2 -->
<g id="node2" class="node">
<title>Node2</title>
<g id="a_node2"><a xlink:href="ref__ptr__list.html" target="_top" xlink:title="Implementation of a list of ref&#45;ptr&#45;managed objects.">
<polygon fill="white" stroke="black" points="0,-0.5 0,-19.5 101,-19.5 101,-0.5 0,-0.5"/>
<text text-anchor="middle" x="50.5" y="-7.5" font-family="Helvetica,sans-Serif" font-size="10.00">l4/cxx/ref_ptr_list</text>
</a>
</g>
</g>
<!-- Node1&#45;&gt;Node2 -->
<g id="edge1" class="edge">
<title>Node1&#45;&gt;Node2</title>
<path fill="none" stroke="midnightblue" d="M91.7,-49.3C80.71,-39.09 68.15,-27.41 59.81,-19.66"/>
<polygon fill="midnightblue" stroke="midnightblue" points="89.63,-52.15 99.33,-56.4 94.39,-47.03 89.63,-52.15"/>
</g>
<!-- Node3 -->
<g id="node3" class="node">
<title>Node3</title>
<g id="a_node3"><a xlink:href="unique__ptr__list.html" target="_top" xlink:title="Implementation of a list of unique&#45;ptr&#45;managed objects.">
<polygon fill="white" stroke="black" points="119,-0.5 119,-19.5 240,-19.5 240,-0.5 119,-0.5"/>
<text text-anchor="middle" x="179.5" y="-7.5" font-family="Helvetica,sans-Serif" font-size="10.00">l4/cxx/unique_ptr_list</text>
</a>
</g>
</g>
<!-- Node1&#45;&gt;Node3 -->
<g id="edge2" class="edge">
<title>Node1&#45;&gt;Node3</title>
<path fill="none" stroke="midnightblue" d="M137.33,-49.6C148.57,-39.32 161.49,-27.48 170.04,-19.66"/>
<polygon fill="midnightblue" stroke="midnightblue" points="134.92,-47.07 129.9,-56.4 139.64,-52.23 134.92,-47.07"/>
</g>
</g>
</svg>
