<?xml version="1.0" encoding="UTF-8" standalone="no"?>
<!DOCTYPE svg PUBLIC "-//W3C//DTD SVG 1.1//EN"
 "http://www.w3.org/Graphics/SVG/1.1/DTD/svg11.dtd">
<!-- Generated by graphviz version 2.43.0 (0)
 -->
<!-- Title: l4/libgfxbitmap/support Pages: 1 -->
<svg width="876pt" height="935pt"
 viewBox="0.00 0.00 876.00 935.00" xmlns="http://www.w3.org/2000/svg" xmlns:xlink="http://www.w3.org/1999/xlink">
<g id="graph0" class="graph" transform="scale(1 1) rotate(0) translate(4 931)">
<title>l4/libgfxbitmap/support</title>
<polygon fill="white" stroke="transparent" points="-4,4 -4,-931 872,-931 872,4 -4,4"/>
<!-- Node1 -->
<g id="node1" class="node">
<title>Node1</title>
<g id="a_node1"><a xlink:title="Terminal support functionality.">
<polygon fill="#bfbfbf" stroke="black" points="384.5,-907.5 384.5,-926.5 515.5,-926.5 515.5,-907.5 384.5,-907.5"/>
<text text-anchor="middle" x="450" y="-914.5" font-family="Helvetica,sans-Serif" font-size="10.00">l4/libgfxbitmap/support</text>
</a>
</g>
</g>
<!-- Node2 -->
<g id="node2" class="node">
<title>Node2</title>
<g id="a_node2"><a xlink:href="view_source.html" target="_top" xlink:title=" ">
<polygon fill="white" stroke="black" points="402.5,-851.5 402.5,-870.5 497.5,-870.5 497.5,-851.5 402.5,-851.5"/>
<text text-anchor="middle" x="450" y="-858.5" font-family="Helvetica,sans-Serif" font-size="10.00">l4/re/video/view</text>
</a>
</g>
</g>
<!-- Node1&#45;&gt;Node2 -->
<g id="edge1" class="edge">
<title>Node1&#45;&gt;Node2</title>
<path fill="none" stroke="midnightblue" d="M450,-907.08C450,-900.01 450,-889.86 450,-880.99"/>
<polygon fill="midnightblue" stroke="midnightblue" points="453.5,-880.75 450,-870.75 446.5,-880.75 453.5,-880.75"/>
</g>
<!-- Node3 -->
<g id="node3" class="node">
<title>Node3</title>
<g id="a_node3"><a xlink:href="goos_source.html" target="_top" xlink:title=" ">
<polygon fill="white" stroke="black" points="402.5,-795.5 402.5,-814.5 497.5,-814.5 497.5,-795.5 402.5,-795.5"/>
<text text-anchor="middle" x="450" y="-802.5" font-family="Helvetica,sans-Serif" font-size="10.00">l4/re/video/goos</text>
</a>
</g>
</g>
<!-- Node2&#45;&gt;Node3 -->
<g id="edge2" class="edge">
<title>Node2&#45;&gt;Node3</title>
<path fill="none" stroke="midnightblue" d="M450,-851.08C450,-844.01 450,-833.86 450,-824.99"/>
<polygon fill="midnightblue" stroke="midnightblue" points="453.5,-824.75 450,-814.75 446.5,-824.75 453.5,-824.75"/>
</g>
<!-- Node4 -->
<g id="node4" class="node">
<title>Node4</title>
<g id="a_node4"><a xlink:href="capability.html" target="_top" xlink:title="L4::Cap related definitions.">
<polygon fill="white" stroke="black" points="440,-683.5 440,-702.5 536,-702.5 536,-683.5 440,-683.5"/>
<text text-anchor="middle" x="488" y="-690.5" font-family="Helvetica,sans-Serif" font-size="10.00">l4/sys/capability</text>
</a>
</g>
</g>
<!-- Node3&#45;&gt;Node4 -->
<g id="edge3" class="edge">
<title>Node3&#45;&gt;Node4</title>
<path fill="none" stroke="midnightblue" d="M452.98,-795.37C459.14,-777.54 473.39,-736.3 481.69,-712.27"/>
<polygon fill="midnightblue" stroke="midnightblue" points="485.07,-713.19 485.03,-702.59 478.46,-710.9 485.07,-713.19"/>
</g>
<!-- Node24 -->
<g id="node24" class="node">
<title>Node24</title>
<g id="a_node24"><a xlink:href="ipc__iface.html" target="_top" xlink:title="Interface Definition Language.">
<polygon fill="white" stroke="black" points="377,-571.5 377,-590.5 457,-590.5 457,-571.5 377,-571.5"/>
<text text-anchor="middle" x="417" y="-578.5" font-family="Helvetica,sans-Serif" font-size="10.00">cxx/ipc_iface</text>
</a>
</g>
</g>
<!-- Node3&#45;&gt;Node24 -->
<g id="edge73" class="edge">
<title>Node3&#45;&gt;Node24</title>
<path fill="none" stroke="midnightblue" d="M448.17,-795.39C444.51,-777.99 436.22,-737.4 431,-703 425.52,-666.88 421.06,-624.42 418.74,-600.61"/>
<polygon fill="midnightblue" stroke="midnightblue" points="422.21,-600.16 417.78,-590.54 415.25,-600.82 422.21,-600.16"/>
</g>
<!-- Node28 -->
<g id="node28" class="node">
<title>Node28</title>
<g id="a_node28"><a xlink:href="dataspace.html" target="_top" xlink:title="Dataspace interface.">
<polygon fill="white" stroke="black" points="613,-739.5 613,-758.5 705,-758.5 705,-739.5 613,-739.5"/>
<text text-anchor="middle" x="659" y="-746.5" font-family="Helvetica,sans-Serif" font-size="10.00">l4/re/dataspace</text>
</a>
</g>
</g>
<!-- Node3&#45;&gt;Node28 -->
<g id="edge62" class="edge">
<title>Node3&#45;&gt;Node28</title>
<path fill="none" stroke="midnightblue" d="M483.12,-795.44C519.12,-786.14 576.77,-771.25 616.19,-761.06"/>
<polygon fill="midnightblue" stroke="midnightblue" points="617.23,-764.41 626.04,-758.52 615.48,-757.63 617.23,-764.41"/>
</g>
<!-- Node30 -->
<g id="node30" class="node">
<title>Node30</title>
<g id="a_node30"><a xlink:href="colors_source.html" target="_top" xlink:title=" ">
<polygon fill="white" stroke="black" points="171.5,-739.5 171.5,-758.5 272.5,-758.5 272.5,-739.5 171.5,-739.5"/>
<text text-anchor="middle" x="222" y="-746.5" font-family="Helvetica,sans-Serif" font-size="10.00">l4/re/video/colors</text>
</a>
</g>
</g>
<!-- Node3&#45;&gt;Node30 -->
<g id="edge70" class="edge">
<title>Node3&#45;&gt;Node30</title>
<path fill="none" stroke="midnightblue" d="M413.87,-795.44C374.35,-786.08 310.9,-771.06 267.89,-760.87"/>
<polygon fill="midnightblue" stroke="midnightblue" points="268.5,-757.42 257.96,-758.52 266.88,-764.23 268.5,-757.42"/>
</g>
<!-- Node5 -->
<g id="node5" class="node">
<title>Node5</title>
<g id="a_node5"><a xlink:href="l4_2sys_2consts_8h.html" target="_top" xlink:title="Common constants.">
<polygon fill="white" stroke="black" points="608.5,-112.5 608.5,-131.5 697.5,-131.5 697.5,-112.5 608.5,-112.5"/>
<text text-anchor="middle" x="653" y="-119.5" font-family="Helvetica,sans-Serif" font-size="10.00">l4/sys/consts.h</text>
</a>
</g>
</g>
<!-- Node4&#45;&gt;Node5 -->
<g id="edge4" class="edge">
<title>Node4&#45;&gt;Node5</title>
<path fill="none" stroke="midnightblue" d="M528.88,-683.5C559.61,-676.21 602.22,-664.14 637,-647 757.61,-587.55 830,-548.47 830,-414 830,-414 830,-414 830,-233 830,-174.54 759.48,-146.05 707.47,-132.99"/>
<polygon fill="midnightblue" stroke="midnightblue" points="708.2,-129.57 697.66,-130.66 706.58,-136.38 708.2,-129.57"/>
</g>
<!-- Node9 -->
<g id="node9" class="node">
<title>Node9</title>
<g id="a_node9"><a xlink:href="l4_2sys_2types_8h.html" target="_top" xlink:title="Common L4 ABI Data Types.">
<polygon fill="white" stroke="black" points="404,-168.5 404,-187.5 488,-187.5 488,-168.5 404,-168.5"/>
<text text-anchor="middle" x="446" y="-175.5" font-family="Helvetica,sans-Serif" font-size="10.00">l4/sys/types.h</text>
</a>
</g>
</g>
<!-- Node4&#45;&gt;Node9 -->
<g id="edge8" class="edge">
<title>Node4&#45;&gt;Node9</title>
<path fill="none" stroke="midnightblue" d="M516.47,-683.43C585.09,-660.82 754,-592.71 754,-470 754,-470 754,-470 754,-289 754,-235.34 586.09,-200.95 498.23,-186.63"/>
<polygon fill="midnightblue" stroke="midnightblue" points="498.61,-183.15 488.18,-185.02 497.5,-190.06 498.61,-183.15"/>
</g>
<!-- Node12 -->
<g id="node12" class="node">
<title>Node12</title>
<g id="a_node12"><a xlink:href="kobject_source.html" target="_top" xlink:title=" ">
<polygon fill="white" stroke="black" points="142.5,-515.5 142.5,-534.5 225.5,-534.5 225.5,-515.5 142.5,-515.5"/>
<text text-anchor="middle" x="184" y="-522.5" font-family="Helvetica,sans-Serif" font-size="10.00">l4/sys/kobject</text>
</a>
</g>
</g>
<!-- Node4&#45;&gt;Node12 -->
<g id="edge16" class="edge">
<title>Node4&#45;&gt;Node12</title>
<path fill="none" stroke="midnightblue" d="M439.74,-688.2C377.65,-682.47 274.17,-669.77 244,-647 210.26,-621.54 194.29,-571.95 187.79,-544.83"/>
<polygon fill="midnightblue" stroke="midnightblue" points="191.13,-543.73 185.56,-534.71 184.3,-545.23 191.13,-543.73"/>
</g>
<!-- Node22 -->
<g id="node22" class="node">
<title>Node22</title>
<g id="a_node22"><a xlink:href="l4_2sys_2task_8h.html" target="_top" xlink:title="Common task related definitions.">
<polygon fill="white" stroke="black" points="436,-342 436,-361 514,-361 514,-342 436,-342"/>
<text text-anchor="middle" x="475" y="-349" font-family="Helvetica,sans-Serif" font-size="10.00">l4/sys/task.h</text>
</a>
</g>
</g>
<!-- Node4&#45;&gt;Node22 -->
<g id="edge45" class="edge">
<title>Node4&#45;&gt;Node22</title>
<path fill="none" stroke="midnightblue" d="M439.78,-689.79C372.34,-683.81 258,-661.89 258,-582 258,-582 258,-582 258,-468 258,-427.98 374.48,-384.6 436.76,-364.27"/>
<polygon fill="midnightblue" stroke="midnightblue" points="438.18,-367.49 446.63,-361.09 436.04,-360.83 438.18,-367.49"/>
</g>
<!-- Node23 -->
<g id="node23" class="node">
<title>Node23</title>
<g id="a_node23"><a xlink:href="sys_2meta.html" target="_top" xlink:title="Meta interface for getting dynamic type information about objects behind capabilities.">
<polygon fill="white" stroke="black" points="446,-627.5 446,-646.5 520,-646.5 520,-627.5 446,-627.5"/>
<text text-anchor="middle" x="483" y="-634.5" font-family="Helvetica,sans-Serif" font-size="10.00">l4/sys/meta</text>
</a>
</g>
</g>
<!-- Node4&#45;&gt;Node23 -->
<g id="edge46" class="edge">
<title>Node4&#45;&gt;Node23</title>
<path fill="none" stroke="midnightblue" d="M487.17,-683.08C486.52,-676.01 485.58,-665.86 484.76,-656.99"/>
<polygon fill="midnightblue" stroke="midnightblue" points="488.22,-656.39 483.81,-646.75 481.25,-657.03 488.22,-656.39"/>
</g>
<!-- Node6 -->
<g id="node6" class="node">
<title>Node6</title>
<g id="a_node6"><a xlink:href="compiler_8h.html" target="_top" xlink:title="L4 compiler related defines.">
<polygon fill="white" stroke="black" points="164.5,-56.5 164.5,-75.5 263.5,-75.5 263.5,-56.5 164.5,-56.5"/>
<text text-anchor="middle" x="214" y="-63.5" font-family="Helvetica,sans-Serif" font-size="10.00">l4/sys/compiler.h</text>
</a>
</g>
</g>
<!-- Node5&#45;&gt;Node6 -->
<g id="edge5" class="edge">
<title>Node5&#45;&gt;Node6</title>
<path fill="none" stroke="midnightblue" d="M608.49,-115.53C529.05,-105.75 362.82,-85.31 273.61,-74.33"/>
<polygon fill="midnightblue" stroke="midnightblue" points="274,-70.85 263.65,-73.11 273.14,-77.8 274,-70.85"/>
</g>
<!-- Node8 -->
<g id="node8" class="node">
<title>Node8</title>
<g id="a_node8"><a xlink:href="l4_2sys_2l4int_8h.html" target="_top" xlink:title="Fixed sized integer types, generic version.">
<polygon fill="white" stroke="black" points="540.5,-56.5 540.5,-75.5 619.5,-75.5 619.5,-56.5 540.5,-56.5"/>
<text text-anchor="middle" x="580" y="-63.5" font-family="Helvetica,sans-Serif" font-size="10.00">l4/sys/l4int.h</text>
</a>
</g>
</g>
<!-- Node5&#45;&gt;Node8 -->
<g id="edge7" class="edge">
<title>Node5&#45;&gt;Node8</title>
<path fill="none" stroke="midnightblue" d="M641.27,-112.32C630.16,-104.11 613.26,-91.6 600.02,-81.81"/>
<polygon fill="midnightblue" stroke="midnightblue" points="602.06,-78.97 591.94,-75.83 597.9,-84.59 602.06,-78.97"/>
</g>
<!-- Node7 -->
<g id="node7" class="node">
<title>Node7</title>
<g id="a_node7"><a xlink:title=" ">
<polygon fill="white" stroke="#bfbfbf" points="168,-0.5 168,-19.5 260,-19.5 260,-0.5 168,-0.5"/>
<text text-anchor="middle" x="214" y="-7.5" font-family="Helvetica,sans-Serif" font-size="10.00">l4/sys/linkage.h</text>
</a>
</g>
</g>
<!-- Node6&#45;&gt;Node7 -->
<g id="edge6" class="edge">
<title>Node6&#45;&gt;Node7</title>
<path fill="none" stroke="midnightblue" d="M214,-56.08C214,-49.01 214,-38.86 214,-29.99"/>
<polygon fill="midnightblue" stroke="midnightblue" points="217.5,-29.75 214,-19.75 210.5,-29.75 217.5,-29.75"/>
</g>
<!-- Node9&#45;&gt;Node5 -->
<g id="edge11" class="edge">
<title>Node9&#45;&gt;Node5</title>
<path fill="none" stroke="midnightblue" d="M478.8,-168.44C514.38,-159.16 571.31,-144.31 610.35,-134.13"/>
<polygon fill="midnightblue" stroke="midnightblue" points="611.56,-137.43 620.35,-131.52 609.79,-130.65 611.56,-137.43"/>
</g>
<!-- Node9&#45;&gt;Node6 -->
<g id="edge10" class="edge">
<title>Node9&#45;&gt;Node6</title>
<path fill="none" stroke="midnightblue" d="M436.82,-168.18C422.01,-154.37 391.4,-127.63 361,-112 330.85,-96.5 294.43,-85.3 265.38,-77.95"/>
<polygon fill="midnightblue" stroke="midnightblue" points="265.98,-74.5 255.44,-75.51 264.32,-81.29 265.98,-74.5"/>
</g>
<!-- Node9&#45;&gt;Node8 -->
<g id="edge9" class="edge">
<title>Node9&#45;&gt;Node8</title>
<path fill="none" stroke="midnightblue" d="M441.32,-168.48C434.67,-155.09 424.6,-128.9 437,-112 458.19,-83.12 497.91,-72.29 530.13,-68.44"/>
<polygon fill="midnightblue" stroke="midnightblue" points="530.69,-71.9 540.29,-67.43 529.99,-64.94 530.69,-71.9"/>
</g>
<!-- Node10 -->
<g id="node10" class="node">
<title>Node10</title>
<g id="a_node10"><a xlink:href="____l4__fpage_8h_source.html" target="_top" xlink:title=" ">
<polygon fill="white" stroke="black" points="242,-112.5 242,-131.5 352,-131.5 352,-112.5 242,-112.5"/>
<text text-anchor="middle" x="297" y="-119.5" font-family="Helvetica,sans-Serif" font-size="10.00">l4/sys/__l4_fpage.h</text>
</a>
</g>
</g>
<!-- Node9&#45;&gt;Node10 -->
<g id="edge12" class="edge">
<title>Node9&#45;&gt;Node10</title>
<path fill="none" stroke="midnightblue" d="M422.39,-168.44C397.54,-159.44 358.23,-145.19 330.25,-135.05"/>
<polygon fill="midnightblue" stroke="midnightblue" points="331.09,-131.63 320.5,-131.52 328.71,-138.21 331.09,-131.63"/>
</g>
<!-- Node11 -->
<g id="node11" class="node">
<title>Node11</title>
<g id="a_node11"><a xlink:href="____timeout_8h_source.html" target="_top" xlink:title=" ">
<polygon fill="white" stroke="black" points="446,-112.5 446,-131.5 552,-131.5 552,-112.5 446,-112.5"/>
<text text-anchor="middle" x="499" y="-119.5" font-family="Helvetica,sans-Serif" font-size="10.00">l4/sys/__timeout.h</text>
</a>
</g>
</g>
<!-- Node9&#45;&gt;Node11 -->
<g id="edge14" class="edge">
<title>Node9&#45;&gt;Node11</title>
<path fill="none" stroke="midnightblue" d="M454.75,-168.08C462.47,-160.22 473.9,-148.57 483.22,-139.08"/>
<polygon fill="midnightblue" stroke="midnightblue" points="485.9,-141.34 490.41,-131.75 480.91,-136.44 485.9,-141.34"/>
</g>
<!-- Node10&#45;&gt;Node6 -->
<g id="edge13" class="edge">
<title>Node10&#45;&gt;Node6</title>
<path fill="none" stroke="midnightblue" d="M283.66,-112.32C270.84,-103.98 251.22,-91.21 236.06,-81.35"/>
<polygon fill="midnightblue" stroke="midnightblue" points="237.59,-78.17 227.3,-75.65 233.78,-84.04 237.59,-78.17"/>
</g>
<!-- Node11&#45;&gt;Node8 -->
<g id="edge15" class="edge">
<title>Node11&#45;&gt;Node8</title>
<path fill="none" stroke="midnightblue" d="M512.01,-112.32C524.53,-103.98 543.68,-91.21 558.47,-81.35"/>
<polygon fill="midnightblue" stroke="midnightblue" points="560.64,-84.11 567.02,-75.65 556.76,-78.29 560.64,-84.11"/>
</g>
<!-- Node12&#45;&gt;Node9 -->
<g id="edge31" class="edge">
<title>Node12&#45;&gt;Node9</title>
<path fill="none" stroke="midnightblue" d="M165.19,-515.49C134.25,-500.05 76,-464.31 76,-414 76,-414 76,-414 76,-289 76,-223.48 291.86,-193.88 393.83,-183.55"/>
<polygon fill="midnightblue" stroke="midnightblue" points="394.31,-187.02 403.92,-182.55 393.62,-180.05 394.31,-187.02"/>
</g>
<!-- Node13 -->
<g id="node13" class="node">
<title>Node13</title>
<g id="a_node13"><a xlink:href="kernel__object_8h.html" target="_top" xlink:title="Kernel object system calls.">
<polygon fill="white" stroke="black" points="138.5,-403.5 138.5,-422.5 229.5,-422.5 229.5,-403.5 138.5,-403.5"/>
<text text-anchor="middle" x="184" y="-410.5" font-family="Helvetica,sans-Serif" font-size="10.00">kernel_object.h</text>
</a>
</g>
</g>
<!-- Node12&#45;&gt;Node13 -->
<g id="edge17" class="edge">
<title>Node12&#45;&gt;Node13</title>
<path fill="none" stroke="midnightblue" d="M184,-515.37C184,-497.62 184,-456.67 184,-432.6"/>
<polygon fill="midnightblue" stroke="midnightblue" points="187.5,-432.59 184,-422.59 180.5,-432.59 187.5,-432.59"/>
</g>
<!-- Node18 -->
<g id="node18" class="node">
<title>Node18</title>
<g id="a_node18"><a xlink:href="____typeinfo_8h.html" target="_top" xlink:title="Type information handling.">
<polygon fill="white" stroke="black" points="286.5,-459.5 286.5,-478.5 363.5,-478.5 363.5,-459.5 286.5,-459.5"/>
<text text-anchor="middle" x="325" y="-466.5" font-family="Helvetica,sans-Serif" font-size="10.00">__typeinfo.h</text>
</a>
</g>
</g>
<!-- Node12&#45;&gt;Node18 -->
<g id="edge32" class="edge">
<title>Node12&#45;&gt;Node18</title>
<path fill="none" stroke="midnightblue" d="M206.34,-515.44C229.75,-506.48 266.74,-492.31 293.19,-482.18"/>
<polygon fill="midnightblue" stroke="midnightblue" points="294.68,-485.36 302.76,-478.52 292.17,-478.82 294.68,-485.36"/>
</g>
<!-- Node13&#45;&gt;Node6 -->
<g id="edge19" class="edge">
<title>Node13&#45;&gt;Node6</title>
<path fill="none" stroke="midnightblue" d="M162.53,-403.49C114,-382.69 0,-324.32 0,-235 0,-235 0,-235 0,-177 0,-146.2 0.95,-132.42 24,-112 43.19,-95 106.02,-82.38 154.23,-74.9"/>
<polygon fill="midnightblue" stroke="midnightblue" points="154.91,-78.34 164.28,-73.38 153.86,-71.42 154.91,-78.34"/>
</g>
<!-- Node13&#45;&gt;Node9 -->
<g id="edge18" class="edge">
<title>Node13&#45;&gt;Node9</title>
<path fill="none" stroke="midnightblue" d="M229.64,-404.21C256.23,-397.81 289.12,-386.51 313,-367 370.25,-320.22 351.68,-281.63 398,-224 406.74,-213.12 418.08,-202.37 427.54,-194.11"/>
<polygon fill="midnightblue" stroke="midnightblue" points="429.9,-196.69 435.25,-187.55 425.37,-191.36 429.9,-196.69"/>
</g>
<!-- Node14 -->
<g id="node14" class="node">
<title>Node14</title>
<g id="a_node14"><a xlink:href="l4_2sys_2utcb_8h.html" target="_top" xlink:title="UTCB definitions.">
<polygon fill="white" stroke="black" points="407,-224.5 407,-243.5 485,-243.5 485,-224.5 407,-224.5"/>
<text text-anchor="middle" x="446" y="-231.5" font-family="Helvetica,sans-Serif" font-size="10.00">l4/sys/utcb.h</text>
</a>
</g>
</g>
<!-- Node13&#45;&gt;Node14 -->
<g id="edge20" class="edge">
<title>Node13&#45;&gt;Node14</title>
<path fill="none" stroke="midnightblue" d="M226.34,-403.46C267.5,-394.6 326.56,-380.2 346,-367 390.06,-337.07 422.72,-281.34 437.4,-252.82"/>
<polygon fill="midnightblue" stroke="midnightblue" points="440.65,-254.15 441.99,-243.64 434.39,-251.02 440.65,-254.15"/>
</g>
<!-- Node15 -->
<g id="node15" class="node">
<title>Node15</title>
<g id="a_node15"><a xlink:href="____kernel__object__impl_8h.html" target="_top" xlink:title="Low&#45;level kernel debugger functions.">
<polygon fill="white" stroke="black" points="180,-336.5 180,-366.5 304,-366.5 304,-336.5 180,-336.5"/>
<text text-anchor="start" x="188" y="-354.5" font-family="Helvetica,sans-Serif" font-size="10.00">l4/sys/__kernel_object</text>
<text text-anchor="middle" x="242" y="-343.5" font-family="Helvetica,sans-Serif" font-size="10.00">_impl.h</text>
</a>
</g>
</g>
<!-- Node13&#45;&gt;Node15 -->
<g id="edge24" class="edge">
<title>Node13&#45;&gt;Node15</title>
<path fill="none" stroke="midnightblue" d="M192.31,-403.48C199.8,-395.79 211.13,-384.17 221.08,-373.96"/>
<polygon fill="midnightblue" stroke="midnightblue" points="223.86,-376.13 228.33,-366.52 218.84,-371.24 223.86,-376.13"/>
</g>
<!-- Node16 -->
<g id="node16" class="node">
<title>Node16</title>
<g id="a_node16"><a xlink:href="l4_2sys_2ipc_8h.html" target="_top" xlink:title="Common IPC interface.">
<polygon fill="white" stroke="black" points="270.5,-280.5 270.5,-299.5 341.5,-299.5 341.5,-280.5 270.5,-280.5"/>
<text text-anchor="middle" x="306" y="-287.5" font-family="Helvetica,sans-Serif" font-size="10.00">l4/sys/ipc.h</text>
</a>
</g>
</g>
<!-- Node13&#45;&gt;Node16 -->
<g id="edge30" class="edge">
<title>Node13&#45;&gt;Node16</title>
<path fill="none" stroke="midnightblue" d="M178.62,-403.08C170.19,-387.83 156.29,-356.42 171,-336 191.18,-308 229.54,-297.16 260.23,-293.09"/>
<polygon fill="midnightblue" stroke="midnightblue" points="260.76,-296.55 270.3,-291.95 259.97,-289.59 260.76,-296.55"/>
</g>
<!-- Node14&#45;&gt;Node6 -->
<g id="edge22" class="edge">
<title>Node14&#45;&gt;Node6</title>
<path fill="none" stroke="midnightblue" d="M406.59,-224.71C358.66,-212.58 278.55,-185.4 233,-132 221.92,-119.01 217.3,-99.85 215.37,-85.69"/>
<polygon fill="midnightblue" stroke="midnightblue" points="218.84,-85.21 214.33,-75.63 211.88,-85.93 218.84,-85.21"/>
</g>
<!-- Node14&#45;&gt;Node8 -->
<g id="edge23" class="edge">
<title>Node14&#45;&gt;Node8</title>
<path fill="none" stroke="midnightblue" d="M460.35,-224.33C484.72,-208.85 534.16,-174.13 561,-132 569.98,-117.9 574.85,-99.41 577.4,-85.76"/>
<polygon fill="midnightblue" stroke="midnightblue" points="580.9,-86.06 579.04,-75.63 573.99,-84.94 580.9,-86.06"/>
</g>
<!-- Node14&#45;&gt;Node9 -->
<g id="edge21" class="edge">
<title>Node14&#45;&gt;Node9</title>
<path fill="none" stroke="midnightblue" d="M446,-224.08C446,-217.01 446,-206.86 446,-197.99"/>
<polygon fill="midnightblue" stroke="midnightblue" points="449.5,-197.75 446,-187.75 442.5,-197.75 449.5,-197.75"/>
</g>
<!-- Node15&#45;&gt;Node16 -->
<g id="edge25" class="edge">
<title>Node15&#45;&gt;Node16</title>
<path fill="none" stroke="midnightblue" d="M257.17,-336.4C266.75,-327.49 279.16,-315.95 289.07,-306.74"/>
<polygon fill="midnightblue" stroke="midnightblue" points="291.75,-309.03 296.69,-299.66 286.98,-303.9 291.75,-309.03"/>
</g>
<!-- Node16&#45;&gt;Node9 -->
<g id="edge26" class="edge">
<title>Node16&#45;&gt;Node9</title>
<path fill="none" stroke="midnightblue" d="M310.84,-280.42C318.8,-266.95 335.79,-240.66 356,-224 372.72,-210.22 394.36,-199.23 412.24,-191.56"/>
<polygon fill="midnightblue" stroke="midnightblue" points="413.81,-194.69 421.72,-187.64 411.14,-188.22 413.81,-194.69"/>
</g>
<!-- Node16&#45;&gt;Node14 -->
<g id="edge27" class="edge">
<title>Node16&#45;&gt;Node14</title>
<path fill="none" stroke="midnightblue" d="M328.18,-280.44C351.43,-271.48 388.15,-257.31 414.42,-247.18"/>
<polygon fill="midnightblue" stroke="midnightblue" points="415.85,-250.38 423.92,-243.52 413.33,-243.85 415.85,-250.38"/>
</g>
<!-- Node17 -->
<g id="node17" class="node">
<title>Node17</title>
<g id="a_node17"><a xlink:href="err_8h.html" target="_top" xlink:title="Error codes.">
<polygon fill="white" stroke="black" points="207,-224.5 207,-243.5 277,-243.5 277,-224.5 207,-224.5"/>
<text text-anchor="middle" x="242" y="-231.5" font-family="Helvetica,sans-Serif" font-size="10.00">l4/sys/err.h</text>
</a>
</g>
</g>
<!-- Node16&#45;&gt;Node17 -->
<g id="edge28" class="edge">
<title>Node16&#45;&gt;Node17</title>
<path fill="none" stroke="midnightblue" d="M295.72,-280.32C286.16,-272.26 271.72,-260.08 260.22,-250.37"/>
<polygon fill="midnightblue" stroke="midnightblue" points="262.37,-247.61 252.47,-243.83 257.86,-252.96 262.37,-247.61"/>
</g>
<!-- Node17&#45;&gt;Node6 -->
<g id="edge29" class="edge">
<title>Node17&#45;&gt;Node6</title>
<path fill="none" stroke="midnightblue" d="M229.79,-224.24C219.65,-216.14 205.96,-203.11 200,-188 186.35,-153.38 198.08,-109.19 206.75,-84.94"/>
<polygon fill="midnightblue" stroke="midnightblue" points="210.03,-86.17 210.3,-75.58 203.48,-83.68 210.03,-86.17"/>
</g>
<!-- Node19 -->
<g id="node19" class="node">
<title>Node19</title>
<g id="a_node19"><a xlink:href="types.html" target="_top" xlink:title=" ">
<polygon fill="white" stroke="black" points="646,-342 646,-361 710,-361 710,-342 646,-342"/>
<text text-anchor="middle" x="678" y="-349" font-family="Helvetica,sans-Serif" font-size="10.00">cxx/types</text>
</a>
</g>
</g>
<!-- Node18&#45;&gt;Node19 -->
<g id="edge33" class="edge">
<title>Node18&#45;&gt;Node19</title>
<path fill="none" stroke="midnightblue" d="M328.15,-459.14C333.74,-444.79 346.87,-416.66 368,-403 390.16,-388.67 556.03,-367.14 635.62,-357.49"/>
<polygon fill="midnightblue" stroke="midnightblue" points="636.29,-360.94 645.8,-356.26 635.46,-353.99 636.29,-360.94"/>
</g>
<!-- Node20 -->
<g id="node20" class="node">
<title>Node20</title>
<g id="a_node20"><a xlink:href="ipc__basics_source.html" target="_top" xlink:title=" ">
<polygon fill="white" stroke="black" points="376.5,-403.5 376.5,-422.5 463.5,-422.5 463.5,-403.5 376.5,-403.5"/>
<text text-anchor="middle" x="420" y="-410.5" font-family="Helvetica,sans-Serif" font-size="10.00">cxx/ipc_basics</text>
</a>
</g>
</g>
<!-- Node18&#45;&gt;Node20 -->
<g id="edge34" class="edge">
<title>Node18&#45;&gt;Node20</title>
<path fill="none" stroke="midnightblue" d="M340.26,-459.32C355.22,-450.82 378.25,-437.73 395.73,-427.8"/>
<polygon fill="midnightblue" stroke="midnightblue" points="397.81,-430.64 404.77,-422.65 394.35,-424.55 397.81,-430.64"/>
</g>
<!-- Node21 -->
<g id="node21" class="node">
<title>Node21</title>
<g id="a_node21"><a xlink:href="capability_8h_source.html" target="_top" xlink:title=" ">
<polygon fill="white" stroke="black" points="482,-403.5 482,-422.5 574,-422.5 574,-403.5 482,-403.5"/>
<text text-anchor="middle" x="528" y="-410.5" font-family="Helvetica,sans-Serif" font-size="10.00">cxx/capability.h</text>
</a>
</g>
</g>
<!-- Node18&#45;&gt;Node21 -->
<g id="edge38" class="edge">
<title>Node18&#45;&gt;Node21</title>
<path fill="none" stroke="midnightblue" d="M357.17,-459.44C392.06,-450.16 447.89,-435.31 486.17,-425.13"/>
<polygon fill="midnightblue" stroke="midnightblue" points="487.22,-428.47 495.98,-422.52 485.42,-421.7 487.22,-428.47"/>
</g>
<!-- Node20&#45;&gt;Node14 -->
<g id="edge36" class="edge">
<title>Node20&#45;&gt;Node14</title>
<path fill="none" stroke="midnightblue" d="M463.61,-404.52C485.37,-398.35 509.8,-387.17 523,-367 550.09,-325.6 496.86,-274.48 465.95,-249.76"/>
<polygon fill="midnightblue" stroke="midnightblue" points="467.95,-246.89 457.91,-243.52 463.66,-252.42 467.95,-246.89"/>
</g>
<!-- Node20&#45;&gt;Node17 -->
<g id="edge37" class="edge">
<title>Node20&#45;&gt;Node17</title>
<path fill="none" stroke="midnightblue" d="M407.84,-403.29C388.02,-389.11 347.51,-360.2 313,-336 289.99,-319.86 277.44,-322.8 261,-300 251.22,-286.44 246.44,-267.89 244.13,-254.08"/>
<polygon fill="midnightblue" stroke="midnightblue" points="247.54,-253.23 242.71,-243.8 240.61,-254.19 247.54,-253.23"/>
</g>
<!-- Node20&#45;&gt;Node19 -->
<g id="edge35" class="edge">
<title>Node20&#45;&gt;Node19</title>
<path fill="none" stroke="midnightblue" d="M456.97,-403.48C504.41,-392.53 586.53,-373.6 636.2,-362.14"/>
<polygon fill="midnightblue" stroke="midnightblue" points="637.03,-365.54 645.98,-359.88 635.45,-358.72 637.03,-365.54"/>
</g>
<!-- Node21&#45;&gt;Node5 -->
<g id="edge39" class="edge">
<title>Node21&#45;&gt;Node5</title>
<path fill="none" stroke="midnightblue" d="M540.89,-403.36C565.78,-385.54 618,-342.05 618,-291 618,-291 618,-291 618,-233 618,-199.07 633.31,-161.91 643.68,-140.63"/>
<polygon fill="midnightblue" stroke="midnightblue" points="646.88,-142.05 648.28,-131.54 640.64,-138.88 646.88,-142.05"/>
</g>
<!-- Node21&#45;&gt;Node9 -->
<g id="edge40" class="edge">
<title>Node21&#45;&gt;Node9</title>
<path fill="none" stroke="midnightblue" d="M531.09,-403.17C534.05,-394.2 538.32,-379.83 540,-367 548.44,-302.61 547.19,-277.23 510,-224 500.8,-210.83 486.44,-200.22 473.65,-192.62"/>
<polygon fill="midnightblue" stroke="midnightblue" points="475.14,-189.45 464.71,-187.63 471.73,-195.56 475.14,-189.45"/>
</g>
<!-- Node21&#45;&gt;Node22 -->
<g id="edge41" class="edge">
<title>Node21&#45;&gt;Node22</title>
<path fill="none" stroke="midnightblue" d="M520.41,-403.48C512.3,-394.37 499.27,-379.74 489.24,-368.48"/>
<polygon fill="midnightblue" stroke="midnightblue" points="491.84,-366.15 482.58,-361.01 486.62,-370.8 491.84,-366.15"/>
</g>
<!-- Node22&#45;&gt;Node9 -->
<g id="edge42" class="edge">
<title>Node22&#45;&gt;Node9</title>
<path fill="none" stroke="midnightblue" d="M479.41,-341.8C489.47,-320.67 511.92,-265.37 494,-224 488.73,-211.84 478.38,-201.46 468.64,-193.74"/>
<polygon fill="midnightblue" stroke="midnightblue" points="470.5,-190.77 460.37,-187.67 466.36,-196.41 470.5,-190.77"/>
</g>
<!-- Node22&#45;&gt;Node14 -->
<g id="edge43" class="edge">
<title>Node22&#45;&gt;Node14</title>
<path fill="none" stroke="midnightblue" d="M472.82,-341.82C468.14,-323.17 457.03,-278.94 450.68,-253.63"/>
<polygon fill="midnightblue" stroke="midnightblue" points="454.03,-252.63 448.21,-243.78 447.25,-254.33 454.03,-252.63"/>
</g>
<!-- Node22&#45;&gt;Node16 -->
<g id="edge44" class="edge">
<title>Node22&#45;&gt;Node16</title>
<path fill="none" stroke="midnightblue" d="M450.79,-341.98C421.67,-331.72 372.63,-314.46 339.8,-302.9"/>
<polygon fill="midnightblue" stroke="midnightblue" points="340.76,-299.53 330.17,-299.51 338.44,-306.13 340.76,-299.53"/>
</g>
<!-- Node23&#45;&gt;Node12 -->
<g id="edge47" class="edge">
<title>Node23&#45;&gt;Node12</title>
<path fill="none" stroke="midnightblue" d="M459.54,-627.37C406.59,-607.89 277.72,-560.48 216.86,-538.09"/>
<polygon fill="midnightblue" stroke="midnightblue" points="217.95,-534.76 207.35,-534.59 215.53,-541.33 217.95,-534.76"/>
</g>
<!-- Node23&#45;&gt;Node24 -->
<g id="edge48" class="edge">
<title>Node23&#45;&gt;Node24</title>
<path fill="none" stroke="midnightblue" d="M472.4,-627.32C462.54,-619.26 447.65,-607.08 435.78,-597.37"/>
<polygon fill="midnightblue" stroke="midnightblue" points="437.75,-594.46 427.8,-590.83 433.32,-599.88 437.75,-594.46"/>
</g>
<!-- Node26 -->
<g id="node26" class="node">
<title>Node26</title>
<g id="a_node26"><a xlink:href="ipc__string_source.html" target="_top" xlink:title=" ">
<polygon fill="white" stroke="black" points="485,-571.5 485,-590.5 569,-590.5 569,-571.5 485,-571.5"/>
<text text-anchor="middle" x="527" y="-578.5" font-family="Helvetica,sans-Serif" font-size="10.00">cxx/ipc_string</text>
</a>
</g>
</g>
<!-- Node23&#45;&gt;Node26 -->
<g id="edge55" class="edge">
<title>Node23&#45;&gt;Node26</title>
<path fill="none" stroke="midnightblue" d="M490.27,-627.08C496.54,-619.38 505.79,-608.03 513.43,-598.65"/>
<polygon fill="midnightblue" stroke="midnightblue" points="516.27,-600.71 519.87,-590.75 510.84,-596.29 516.27,-600.71"/>
</g>
<!-- Node24&#45;&gt;Node18 -->
<g id="edge54" class="edge">
<title>Node24&#45;&gt;Node18</title>
<path fill="none" stroke="midnightblue" d="M409.45,-571.44C401.53,-562.43 388.78,-547.82 378,-535 364.45,-518.88 349.29,-500.23 338.67,-487.05"/>
<polygon fill="midnightblue" stroke="midnightblue" points="341.11,-484.5 332.12,-478.9 335.66,-488.89 341.11,-484.5"/>
</g>
<!-- Node24&#45;&gt;Node20 -->
<g id="edge49" class="edge">
<title>Node24&#45;&gt;Node20</title>
<path fill="none" stroke="midnightblue" d="M416.62,-571.49C415.81,-551.72 414.13,-501.18 416,-459 416.38,-450.37 417.18,-440.84 417.96,-432.78"/>
<polygon fill="midnightblue" stroke="midnightblue" points="421.46,-432.92 419.01,-422.61 414.5,-432.2 421.46,-432.92"/>
</g>
<!-- Node25 -->
<g id="node25" class="node">
<title>Node25</title>
<g id="a_node25"><a xlink:href="ipc__types.html" target="_top" xlink:title=" ">
<polygon fill="white" stroke="black" points="496.5,-459.5 496.5,-478.5 611.5,-478.5 611.5,-459.5 496.5,-459.5"/>
<text text-anchor="middle" x="554" y="-466.5" font-family="Helvetica,sans-Serif" font-size="10.00">l4/sys/cxx/ipc_types</text>
</a>
</g>
</g>
<!-- Node24&#45;&gt;Node25 -->
<g id="edge50" class="edge">
<title>Node24&#45;&gt;Node25</title>
<path fill="none" stroke="midnightblue" d="M427.75,-571.37C450.96,-552.73 506.01,-508.53 535.15,-485.13"/>
<polygon fill="midnightblue" stroke="midnightblue" points="537.69,-487.58 543.3,-478.59 533.31,-482.12 537.69,-487.58"/>
</g>
<!-- Node25&#45;&gt;Node19 -->
<g id="edge52" class="edge">
<title>Node25&#45;&gt;Node19</title>
<path fill="none" stroke="midnightblue" d="M563.32,-459.32C584.15,-439.92 634.7,-392.83 661.18,-368.16"/>
<polygon fill="midnightblue" stroke="midnightblue" points="663.64,-370.66 668.57,-361.28 658.87,-365.54 663.64,-370.66"/>
</g>
<!-- Node25&#45;&gt;Node20 -->
<g id="edge53" class="edge">
<title>Node25&#45;&gt;Node20</title>
<path fill="none" stroke="midnightblue" d="M532.77,-459.44C510.62,-450.52 475.68,-436.44 450.56,-426.32"/>
<polygon fill="midnightblue" stroke="midnightblue" points="451.72,-423.01 441.13,-422.52 449.1,-429.5 451.72,-423.01"/>
</g>
<!-- Node25&#45;&gt;Node21 -->
<g id="edge51" class="edge">
<title>Node25&#45;&gt;Node21</title>
<path fill="none" stroke="midnightblue" d="M549.71,-459.08C546.15,-451.69 540.98,-440.95 536.58,-431.81"/>
<polygon fill="midnightblue" stroke="midnightblue" points="539.71,-430.24 532.21,-422.75 533.4,-433.28 539.71,-430.24"/>
</g>
<!-- Node26&#45;&gt;Node19 -->
<g id="edge56" class="edge">
<title>Node26&#45;&gt;Node19</title>
<path fill="none" stroke="midnightblue" d="M541.28,-571.28C565.54,-555.74 614.82,-520.91 642,-479 664.08,-444.96 672.85,-397.22 676.15,-371.21"/>
<polygon fill="midnightblue" stroke="midnightblue" points="679.64,-371.53 677.28,-361.2 672.68,-370.74 679.64,-371.53"/>
</g>
<!-- Node26&#45;&gt;Node20 -->
<g id="edge57" class="edge">
<title>Node26&#45;&gt;Node20</title>
<path fill="none" stroke="midnightblue" d="M521.25,-571.08C504.19,-544.61 453.65,-466.21 431.09,-431.21"/>
<polygon fill="midnightblue" stroke="midnightblue" points="433.88,-429.08 425.52,-422.57 428,-432.87 433.88,-429.08"/>
</g>
<!-- Node27 -->
<g id="node27" class="node">
<title>Node27</title>
<g id="a_node27"><a xlink:href="ipc__array_source.html" target="_top" xlink:title=" ">
<polygon fill="white" stroke="black" points="516,-515.5 516,-534.5 578,-534.5 578,-515.5 516,-515.5"/>
<text text-anchor="middle" x="547" y="-522.5" font-family="Helvetica,sans-Serif" font-size="10.00">ipc_array</text>
</a>
</g>
</g>
<!-- Node26&#45;&gt;Node27 -->
<g id="edge58" class="edge">
<title>Node26&#45;&gt;Node27</title>
<path fill="none" stroke="midnightblue" d="M530.3,-571.08C532.98,-563.85 536.85,-553.41 540.19,-544.4"/>
<polygon fill="midnightblue" stroke="midnightblue" points="543.57,-545.34 543.76,-534.75 537,-542.91 543.57,-545.34"/>
</g>
<!-- Node27&#45;&gt;Node19 -->
<g id="edge59" class="edge">
<title>Node27&#45;&gt;Node19</title>
<path fill="none" stroke="midnightblue" d="M567.86,-515.48C584.13,-507.94 606.36,-495.56 621,-479 649.62,-446.63 666.12,-397.51 673.43,-371.01"/>
<polygon fill="midnightblue" stroke="midnightblue" points="676.86,-371.72 676.01,-361.16 670.09,-369.94 676.86,-371.72"/>
</g>
<!-- Node27&#45;&gt;Node20 -->
<g id="edge60" class="edge">
<title>Node27&#45;&gt;Node20</title>
<path fill="none" stroke="midnightblue" d="M534.94,-515.41C522.8,-506.62 503.67,-492.39 488,-479 469.32,-463.03 449.11,-443.38 435.62,-429.89"/>
<polygon fill="midnightblue" stroke="midnightblue" points="438.04,-427.37 428.51,-422.73 433.07,-432.3 438.04,-427.37"/>
</g>
<!-- Node27&#45;&gt;Node25 -->
<g id="edge61" class="edge">
<title>Node27&#45;&gt;Node25</title>
<path fill="none" stroke="midnightblue" d="M548.16,-515.08C549.08,-507.93 550.42,-497.64 551.58,-488.69"/>
<polygon fill="midnightblue" stroke="midnightblue" points="555.05,-489.12 552.87,-478.75 548.11,-488.22 555.05,-489.12"/>
</g>
<!-- Node28&#45;&gt;Node4 -->
<g id="edge65" class="edge">
<title>Node28&#45;&gt;Node4</title>
<path fill="none" stroke="midnightblue" d="M631.9,-739.44C603.01,-730.32 557.08,-715.81 524.89,-705.65"/>
<polygon fill="midnightblue" stroke="midnightblue" points="525.56,-702.19 514.97,-702.52 523.45,-708.87 525.56,-702.19"/>
</g>
<!-- Node28&#45;&gt;Node8 -->
<g id="edge64" class="edge">
<title>Node28&#45;&gt;Node8</title>
<path fill="none" stroke="midnightblue" d="M705.25,-745.84C742.85,-741.94 795.46,-731.34 832,-703 858.09,-682.76 868,-671.02 868,-638 868,-638 868,-638 868,-177 868,-126.58 712.03,-90.8 629.65,-75.41"/>
<polygon fill="midnightblue" stroke="midnightblue" points="630.21,-71.96 619.74,-73.6 628.95,-78.84 630.21,-71.96"/>
</g>
<!-- Node28&#45;&gt;Node9 -->
<g id="edge63" class="edge">
<title>Node28&#45;&gt;Node9</title>
<path fill="none" stroke="midnightblue" d="M705.11,-745.77C738.74,-741.73 783.12,-730.97 811,-703 832.25,-681.68 830,-668.1 830,-638 830,-638 830,-638 830,-580 830,-504.31 792,-489.69 792,-414 792,-414 792,-414 792,-289 792,-228.11 594.91,-196.47 498.23,-184.62"/>
<polygon fill="midnightblue" stroke="midnightblue" points="498.43,-181.11 488.08,-183.4 497.59,-188.06 498.43,-181.11"/>
</g>
<!-- Node28&#45;&gt;Node19 -->
<g id="edge69" class="edge">
<title>Node28&#45;&gt;Node19</title>
<path fill="none" stroke="midnightblue" d="M659.83,-739.48C663.4,-702.11 677.54,-549.06 682,-423 682.31,-414.12 682.35,-411.88 682,-403 681.58,-392.5 680.69,-380.81 679.85,-371.32"/>
<polygon fill="midnightblue" stroke="midnightblue" points="683.3,-370.7 678.89,-361.07 676.33,-371.35 683.3,-370.7"/>
</g>
<!-- Node28&#45;&gt;Node24 -->
<g id="edge68" class="edge">
<title>Node28&#45;&gt;Node24</title>
<path fill="none" stroke="midnightblue" d="M651.66,-739.22C633.12,-717.53 582.1,-660.72 529,-627 506.35,-612.61 478.34,-601.36 455.99,-593.71"/>
<polygon fill="midnightblue" stroke="midnightblue" points="457.07,-590.38 446.48,-590.55 454.87,-597.02 457.07,-590.38"/>
</g>
<!-- Node28&#45;&gt;Node25 -->
<g id="edge67" class="edge">
<title>Node28&#45;&gt;Node25</title>
<path fill="none" stroke="midnightblue" d="M656.44,-739.25C651.25,-720.74 640,-676.18 640,-638 640,-638 640,-638 640,-580 640,-538.58 601.69,-503.45 576.21,-484.67"/>
<polygon fill="midnightblue" stroke="midnightblue" points="578,-481.64 567.82,-478.72 573.95,-487.36 578,-481.64"/>
</g>
<!-- Node29 -->
<g id="node29" class="node">
<title>Node29</title>
<g id="a_node29"><a xlink:href="protocols_8h.html" target="_top" xlink:title="L4Re Protocol Constants (C version)">
<polygon fill="white" stroke="black" points="706.5,-683.5 706.5,-702.5 801.5,-702.5 801.5,-683.5 706.5,-683.5"/>
<text text-anchor="middle" x="754" y="-690.5" font-family="Helvetica,sans-Serif" font-size="10.00">l4/re/protocols.h</text>
</a>
</g>
</g>
<!-- Node28&#45;&gt;Node29 -->
<g id="edge66" class="edge">
<title>Node28&#45;&gt;Node29</title>
<path fill="none" stroke="midnightblue" d="M674.26,-739.32C689.22,-730.82 712.25,-717.73 729.73,-707.8"/>
<polygon fill="midnightblue" stroke="midnightblue" points="731.81,-710.64 738.77,-702.65 728.35,-704.55 731.81,-710.64"/>
</g>
<!-- Node30&#45;&gt;Node6 -->
<g id="edge71" class="edge">
<title>Node30&#45;&gt;Node6</title>
<path fill="none" stroke="midnightblue" d="M171.23,-740C116.77,-728.19 38,-700.34 38,-638 38,-638 38,-638 38,-177 38,-120.13 104.9,-91.57 156.2,-78.03"/>
<polygon fill="midnightblue" stroke="midnightblue" points="157.06,-81.43 165.91,-75.6 155.36,-74.64 157.06,-81.43"/>
</g>
<!-- Node31 -->
<g id="node31" class="node">
<title>Node31</title>
<g id="a_node31"><a xlink:href="minmax_source.html" target="_top" xlink:title=" ">
<polygon fill="white" stroke="black" points="177.5,-683.5 177.5,-702.5 266.5,-702.5 266.5,-683.5 177.5,-683.5"/>
<text text-anchor="middle" x="222" y="-690.5" font-family="Helvetica,sans-Serif" font-size="10.00">l4/cxx/minmax</text>
</a>
</g>
</g>
<!-- Node30&#45;&gt;Node31 -->
<g id="edge72" class="edge">
<title>Node30&#45;&gt;Node31</title>
<path fill="none" stroke="midnightblue" d="M222,-739.08C222,-732.01 222,-721.86 222,-712.99"/>
<polygon fill="midnightblue" stroke="midnightblue" points="225.5,-712.75 222,-702.75 218.5,-712.75 225.5,-712.75"/>
</g>
</g>
</svg>
