<?xml version="1.0" encoding="UTF-8" standalone="no"?>
<!DOCTYPE svg PUBLIC "-//W3C//DTD SVG 1.1//EN"
 "http://www.w3.org/Graphics/SVG/1.1/DTD/svg11.dtd">
<!-- Generated by graphviz version 2.43.0 (0)
 -->
<!-- Title: l4/cxx/unique_ptr_list Pages: 1 -->
<svg width="242pt" height="196pt"
 viewBox="0.00 0.00 241.50 196.00" xmlns="http://www.w3.org/2000/svg" xmlns:xlink="http://www.w3.org/1999/xlink">
<g id="graph0" class="graph" transform="scale(1 1) rotate(0) translate(4 192)">
<title>l4/cxx/unique_ptr_list</title>
<polygon fill="white" stroke="transparent" points="-4,4 -4,-192 237.5,-192 237.5,4 -4,4"/>
<!-- Node1 -->
<g id="node1" class="node">
<title>Node1</title>
<g id="a_node1"><a xlink:title="Implementation of a list of unique&#45;ptr&#45;managed objects.">
<polygon fill="#bfbfbf" stroke="black" points="53,-168.5 53,-187.5 174,-187.5 174,-168.5 53,-168.5"/>
<text text-anchor="middle" x="113.5" y="-175.5" font-family="Helvetica,sans-Serif" font-size="10.00">l4/cxx/unique_ptr_list</text>
</a>
</g>
</g>
<!-- Node2 -->
<g id="node2" class="node">
<title>Node2</title>
<g id="a_node2"><a xlink:href="unique__ptr_source.html" target="_top" xlink:title=" ">
<polygon fill="white" stroke="black" points="0,-112.5 0,-131.5 101,-131.5 101,-112.5 0,-112.5"/>
<text text-anchor="middle" x="50.5" y="-119.5" font-family="Helvetica,sans-Serif" font-size="10.00">l4/cxx/unique_ptr</text>
</a>
</g>
</g>
<!-- Node1&#45;&gt;Node2 -->
<g id="edge1" class="edge">
<title>Node1&#45;&gt;Node2</title>
<path fill="none" stroke="midnightblue" d="M103.38,-168.32C93.97,-160.26 79.76,-148.08 68.43,-138.37"/>
<polygon fill="midnightblue" stroke="midnightblue" points="70.68,-135.68 60.81,-131.83 66.12,-141 70.68,-135.68"/>
</g>
<!-- Node5 -->
<g id="node5" class="node">
<title>Node5</title>
<g id="a_node5"><a xlink:href="smart__ptr__list_8h.html" target="_top" xlink:title="Implementation of a list of smart&#45;pointer&#45;managed objects.">
<polygon fill="white" stroke="black" points="119.5,-112.5 119.5,-131.5 233.5,-131.5 233.5,-112.5 119.5,-112.5"/>
<text text-anchor="middle" x="176.5" y="-119.5" font-family="Helvetica,sans-Serif" font-size="10.00">bits/smart_ptr_list.h</text>
</a>
</g>
</g>
<!-- Node1&#45;&gt;Node5 -->
<g id="edge4" class="edge">
<title>Node1&#45;&gt;Node5</title>
<path fill="none" stroke="midnightblue" d="M123.62,-168.32C133.03,-160.26 147.24,-148.08 158.57,-138.37"/>
<polygon fill="midnightblue" stroke="midnightblue" points="160.88,-141 166.19,-131.83 156.32,-135.68 160.88,-141"/>
</g>
<!-- Node3 -->
<g id="node3" class="node">
<title>Node3</title>
<g id="a_node3"><a xlink:href="type__traits_source.html" target="_top" xlink:title=" ">
<polygon fill="white" stroke="black" points="79,-56.5 79,-75.5 148,-75.5 148,-56.5 79,-56.5"/>
<text text-anchor="middle" x="113.5" y="-63.5" font-family="Helvetica,sans-Serif" font-size="10.00">type_traits</text>
</a>
</g>
</g>
<!-- Node2&#45;&gt;Node3 -->
<g id="edge2" class="edge">
<title>Node2&#45;&gt;Node3</title>
<path fill="none" stroke="midnightblue" d="M60.62,-112.32C70.03,-104.26 84.24,-92.08 95.57,-82.37"/>
<polygon fill="midnightblue" stroke="midnightblue" points="97.88,-85 103.19,-75.83 93.32,-79.68 97.88,-85"/>
</g>
<!-- Node4 -->
<g id="node4" class="node">
<title>Node4</title>
<g id="a_node4"><a xlink:href="type__traits_8h_source.html" target="_top" xlink:title=" ">
<polygon fill="white" stroke="black" points="64,-0.5 64,-19.5 163,-19.5 163,-0.5 64,-0.5"/>
<text text-anchor="middle" x="113.5" y="-7.5" font-family="Helvetica,sans-Serif" font-size="10.00">bits/type_traits.h</text>
</a>
</g>
</g>
<!-- Node3&#45;&gt;Node4 -->
<g id="edge3" class="edge">
<title>Node3&#45;&gt;Node4</title>
<path fill="none" stroke="midnightblue" d="M113.5,-56.08C113.5,-49.01 113.5,-38.86 113.5,-29.99"/>
<polygon fill="midnightblue" stroke="midnightblue" points="117,-29.75 113.5,-19.75 110,-29.75 117,-29.75"/>
</g>
<!-- Node5&#45;&gt;Node3 -->
<g id="edge5" class="edge">
<title>Node5&#45;&gt;Node3</title>
<path fill="none" stroke="midnightblue" d="M166.38,-112.32C156.97,-104.26 142.76,-92.08 131.43,-82.37"/>
<polygon fill="midnightblue" stroke="midnightblue" points="133.68,-79.68 123.81,-75.83 129.12,-85 133.68,-79.68"/>
</g>
</g>
</svg>
