<?xml version="1.0" encoding="UTF-8" standalone="no"?>
<!DOCTYPE svg PUBLIC "-//W3C//DTD SVG 1.1//EN"
 "http://www.w3.org/Graphics/SVG/1.1/DTD/svg11.dtd">
<!-- Generated by graphviz version 2.43.0 (0)
 -->
<!-- Title: x86/l4/util/mbi_argv.h Pages: 1 -->
<svg width="226pt" height="196pt"
 viewBox="0.00 0.00 226.00 196.00" xmlns="http://www.w3.org/2000/svg" xmlns:xlink="http://www.w3.org/1999/xlink">
<g id="graph0" class="graph" transform="scale(1 1) rotate(0) translate(4 192)">
<title>x86/l4/util/mbi_argv.h</title>
<polygon fill="white" stroke="transparent" points="-4,4 -4,-192 222,-192 222,4 -4,4"/>
<!-- Node1 -->
<g id="node1" class="node">
<title>Node1</title>
<g id="a_node1"><a xlink:title="command line handling">
<polygon fill="#bfbfbf" stroke="black" points="43.5,-168.5 43.5,-187.5 165.5,-187.5 165.5,-168.5 43.5,-168.5"/>
<text text-anchor="middle" x="104.5" y="-175.5" font-family="Helvetica,sans-Serif" font-size="10.00">x86/l4/util/mbi_argv.h</text>
</a>
</g>
</g>
<!-- Node2 -->
<g id="node2" class="node">
<title>Node2</title>
<g id="a_node2"><a xlink:href="l4_2sys_2l4int_8h.html" target="_top" xlink:title="Fixed sized integer types, generic version.">
<polygon fill="white" stroke="black" points="0,-56.5 0,-75.5 79,-75.5 79,-56.5 0,-56.5"/>
<text text-anchor="middle" x="39.5" y="-63.5" font-family="Helvetica,sans-Serif" font-size="10.00">l4/sys/l4int.h</text>
</a>
</g>
</g>
<!-- Node1&#45;&gt;Node2 -->
<g id="edge1" class="edge">
<title>Node1&#45;&gt;Node2</title>
<path fill="none" stroke="midnightblue" d="M87.51,-168.41C74.27,-160.76 56.65,-148.26 47.5,-132 39.57,-117.91 37.98,-99.42 38.14,-85.76"/>
<polygon fill="midnightblue" stroke="midnightblue" points="41.64,-85.77 38.58,-75.63 34.65,-85.47 41.64,-85.77"/>
</g>
<!-- Node3 -->
<g id="node3" class="node">
<title>Node3</title>
<g id="a_node3"><a xlink:href="mb__info_8h.html" target="_top" xlink:title="Multiboot info structure as defined by GRUB.">
<polygon fill="white" stroke="black" points="56.5,-112.5 56.5,-131.5 152.5,-131.5 152.5,-112.5 56.5,-112.5"/>
<text text-anchor="middle" x="104.5" y="-119.5" font-family="Helvetica,sans-Serif" font-size="10.00">l4/util/mb_info.h</text>
</a>
</g>
</g>
<!-- Node1&#45;&gt;Node3 -->
<g id="edge2" class="edge">
<title>Node1&#45;&gt;Node3</title>
<path fill="none" stroke="midnightblue" d="M104.5,-168.08C104.5,-161.01 104.5,-150.86 104.5,-141.99"/>
<polygon fill="midnightblue" stroke="midnightblue" points="108,-141.75 104.5,-131.75 101,-141.75 108,-141.75"/>
</g>
<!-- Node4 -->
<g id="node4" class="node">
<title>Node4</title>
<g id="a_node4"><a xlink:href="compiler_8h.html" target="_top" xlink:title="L4 compiler related defines.">
<polygon fill="white" stroke="black" points="119,-56.5 119,-75.5 218,-75.5 218,-56.5 119,-56.5"/>
<text text-anchor="middle" x="168.5" y="-63.5" font-family="Helvetica,sans-Serif" font-size="10.00">l4/sys/compiler.h</text>
</a>
</g>
</g>
<!-- Node1&#45;&gt;Node4 -->
<g id="edge6" class="edge">
<title>Node1&#45;&gt;Node4</title>
<path fill="none" stroke="midnightblue" d="M121.56,-168.45C134.83,-160.82 152.47,-148.33 161.5,-132 169.31,-117.88 170.6,-99.39 170.21,-85.74"/>
<polygon fill="midnightblue" stroke="midnightblue" points="173.69,-85.39 169.59,-75.62 166.71,-85.82 173.69,-85.39"/>
</g>
<!-- Node3&#45;&gt;Node2 -->
<g id="edge5" class="edge">
<title>Node3&#45;&gt;Node2</title>
<path fill="none" stroke="midnightblue" d="M94.06,-112.32C84.35,-104.26 69.68,-92.08 58,-82.37"/>
<polygon fill="midnightblue" stroke="midnightblue" points="60.06,-79.53 50.13,-75.83 55.59,-84.92 60.06,-79.53"/>
</g>
<!-- Node3&#45;&gt;Node4 -->
<g id="edge3" class="edge">
<title>Node3&#45;&gt;Node4</title>
<path fill="none" stroke="midnightblue" d="M114.78,-112.32C124.34,-104.26 138.78,-92.08 150.28,-82.37"/>
<polygon fill="midnightblue" stroke="midnightblue" points="152.64,-84.96 158.03,-75.83 148.13,-79.61 152.64,-84.96"/>
</g>
<!-- Node5 -->
<g id="node5" class="node">
<title>Node5</title>
<g id="a_node5"><a xlink:title=" ">
<polygon fill="white" stroke="#bfbfbf" points="122.5,-0.5 122.5,-19.5 214.5,-19.5 214.5,-0.5 122.5,-0.5"/>
<text text-anchor="middle" x="168.5" y="-7.5" font-family="Helvetica,sans-Serif" font-size="10.00">l4/sys/linkage.h</text>
</a>
</g>
</g>
<!-- Node4&#45;&gt;Node5 -->
<g id="edge4" class="edge">
<title>Node4&#45;&gt;Node5</title>
<path fill="none" stroke="midnightblue" d="M168.5,-56.08C168.5,-49.01 168.5,-38.86 168.5,-29.99"/>
<polygon fill="midnightblue" stroke="midnightblue" points="172,-29.75 168.5,-19.75 165,-29.75 172,-29.75"/>
</g>
</g>
</svg>
